G04 #@! TF.GenerationSoftware,KiCad,Pcbnew,(5.0.1-3-g963ef8bb5)*
G04 #@! TF.CreationDate,2019-04-09T02:40:33-05:00*
G04 #@! TF.ProjectId,SDMAY1932,53444D4159313933322E6B696361645F,rev?*
G04 #@! TF.SameCoordinates,Original*
G04 #@! TF.FileFunction,Legend,Bot*
G04 #@! TF.FilePolarity,Positive*
%FSLAX46Y46*%
G04 Gerber Fmt 4.6, Leading zero omitted, Abs format (unit mm)*
G04 Created by KiCad (PCBNEW (5.0.1-3-g963ef8bb5)) date Tuesday, April 09, 2019 at 02:40:33 AM*
%MOMM*%
%LPD*%
G01*
G04 APERTURE LIST*
%ADD10C,0.120000*%
%ADD11C,0.150000*%
G04 APERTURE END LIST*
D10*
G04 #@! TO.C,U17*
X44057170Y-128325906D02*
G75*
G03X42057170Y-128325906I-1000000J0D01*
G01*
X42057170Y-128325906D02*
X40407170Y-128325906D01*
X40407170Y-128325906D02*
X40407170Y-92645906D01*
X40407170Y-92645906D02*
X45707170Y-92645906D01*
X45707170Y-92645906D02*
X45707170Y-128325906D01*
X45707170Y-128325906D02*
X44057170Y-128325906D01*
G04 #@! TO.C,U20*
X95520000Y-43882000D02*
G75*
G03X97520000Y-43882000I1000000J0D01*
G01*
X97520000Y-43882000D02*
X99170000Y-43882000D01*
X99170000Y-43882000D02*
X99170000Y-79562000D01*
X99170000Y-79562000D02*
X93870000Y-79562000D01*
X93870000Y-79562000D02*
X93870000Y-43882000D01*
X93870000Y-43882000D02*
X95520000Y-43882000D01*
G04 #@! TO.C,U18*
X30750000Y-68774000D02*
G75*
G03X32750000Y-68774000I1000000J0D01*
G01*
X32750000Y-68774000D02*
X34400000Y-68774000D01*
X34400000Y-68774000D02*
X34400000Y-104454000D01*
X34400000Y-104454000D02*
X29100000Y-104454000D01*
X29100000Y-104454000D02*
X29100000Y-68774000D01*
X29100000Y-68774000D02*
X30750000Y-68774000D01*
G04 #@! TO.C,U1*
X105096000Y-127896000D02*
X115376000Y-127896000D01*
X105096000Y-145916000D02*
X105096000Y-127896000D01*
X115376000Y-145916000D02*
X105096000Y-145916000D01*
X115376000Y-127896000D02*
X115376000Y-145916000D01*
X107586000Y-127956000D02*
X109236000Y-127956000D01*
X107586000Y-145856000D02*
X107586000Y-127956000D01*
X112886000Y-145856000D02*
X107586000Y-145856000D01*
X112886000Y-127956000D02*
X112886000Y-145856000D01*
X111236000Y-127956000D02*
X112886000Y-127956000D01*
X109236000Y-127956000D02*
G75*
G03X111236000Y-127956000I1000000J0D01*
G01*
G04 #@! TO.C,U2*
X136160000Y-127702000D02*
G75*
G03X138160000Y-127702000I1000000J0D01*
G01*
X138160000Y-127702000D02*
X139810000Y-127702000D01*
X139810000Y-127702000D02*
X139810000Y-145602000D01*
X139810000Y-145602000D02*
X134510000Y-145602000D01*
X134510000Y-145602000D02*
X134510000Y-127702000D01*
X134510000Y-127702000D02*
X136160000Y-127702000D01*
X142300000Y-127642000D02*
X142300000Y-145662000D01*
X142300000Y-145662000D02*
X132020000Y-145662000D01*
X132020000Y-145662000D02*
X132020000Y-127642000D01*
X132020000Y-127642000D02*
X142300000Y-127642000D01*
G04 #@! TO.C,U3*
X55025920Y-44163963D02*
G75*
G03X57025920Y-44163963I1000000J0D01*
G01*
X57025920Y-44163963D02*
X58675920Y-44163963D01*
X58675920Y-44163963D02*
X58675920Y-62063963D01*
X58675920Y-62063963D02*
X53375920Y-62063963D01*
X53375920Y-62063963D02*
X53375920Y-44163963D01*
X53375920Y-44163963D02*
X55025920Y-44163963D01*
X61165920Y-44103963D02*
X61165920Y-62123963D01*
X61165920Y-62123963D02*
X50885920Y-62123963D01*
X50885920Y-62123963D02*
X50885920Y-44103963D01*
X50885920Y-44103963D02*
X61165920Y-44103963D01*
G04 #@! TO.C,U4*
X81695920Y-44163963D02*
G75*
G03X83695920Y-44163963I1000000J0D01*
G01*
X83695920Y-44163963D02*
X85345920Y-44163963D01*
X85345920Y-44163963D02*
X85345920Y-62063963D01*
X85345920Y-62063963D02*
X80045920Y-62063963D01*
X80045920Y-62063963D02*
X80045920Y-44163963D01*
X80045920Y-44163963D02*
X81695920Y-44163963D01*
X87835920Y-44103963D02*
X87835920Y-62123963D01*
X87835920Y-62123963D02*
X77555920Y-62123963D01*
X77555920Y-62123963D02*
X77555920Y-44103963D01*
X77555920Y-44103963D02*
X87835920Y-44103963D01*
G04 #@! TO.C,U5*
X109236000Y-99508000D02*
G75*
G03X111236000Y-99508000I1000000J0D01*
G01*
X111236000Y-99508000D02*
X112886000Y-99508000D01*
X112886000Y-99508000D02*
X112886000Y-117408000D01*
X112886000Y-117408000D02*
X107586000Y-117408000D01*
X107586000Y-117408000D02*
X107586000Y-99508000D01*
X107586000Y-99508000D02*
X109236000Y-99508000D01*
X115376000Y-99448000D02*
X115376000Y-117468000D01*
X115376000Y-117468000D02*
X105096000Y-117468000D01*
X105096000Y-117468000D02*
X105096000Y-99448000D01*
X105096000Y-99448000D02*
X115376000Y-99448000D01*
G04 #@! TO.C,U6*
X136160000Y-99254000D02*
G75*
G03X138160000Y-99254000I1000000J0D01*
G01*
X138160000Y-99254000D02*
X139810000Y-99254000D01*
X139810000Y-99254000D02*
X139810000Y-117154000D01*
X139810000Y-117154000D02*
X134510000Y-117154000D01*
X134510000Y-117154000D02*
X134510000Y-99254000D01*
X134510000Y-99254000D02*
X136160000Y-99254000D01*
X142300000Y-99194000D02*
X142300000Y-117214000D01*
X142300000Y-117214000D02*
X132020000Y-117214000D01*
X132020000Y-117214000D02*
X132020000Y-99194000D01*
X132020000Y-99194000D02*
X142300000Y-99194000D01*
G04 #@! TO.C,U7*
X109236000Y-43628000D02*
G75*
G03X111236000Y-43628000I1000000J0D01*
G01*
X111236000Y-43628000D02*
X112886000Y-43628000D01*
X112886000Y-43628000D02*
X112886000Y-61528000D01*
X112886000Y-61528000D02*
X107586000Y-61528000D01*
X107586000Y-61528000D02*
X107586000Y-43628000D01*
X107586000Y-43628000D02*
X109236000Y-43628000D01*
X115376000Y-43568000D02*
X115376000Y-61588000D01*
X115376000Y-61588000D02*
X105096000Y-61588000D01*
X105096000Y-61588000D02*
X105096000Y-43568000D01*
X105096000Y-43568000D02*
X115376000Y-43568000D01*
G04 #@! TO.C,U8*
X135906000Y-43628000D02*
G75*
G03X137906000Y-43628000I1000000J0D01*
G01*
X137906000Y-43628000D02*
X139556000Y-43628000D01*
X139556000Y-43628000D02*
X139556000Y-61528000D01*
X139556000Y-61528000D02*
X134256000Y-61528000D01*
X134256000Y-61528000D02*
X134256000Y-43628000D01*
X134256000Y-43628000D02*
X135906000Y-43628000D01*
X142046000Y-43568000D02*
X142046000Y-61588000D01*
X142046000Y-61588000D02*
X131766000Y-61588000D01*
X131766000Y-61588000D02*
X131766000Y-43568000D01*
X131766000Y-43568000D02*
X142046000Y-43568000D01*
G04 #@! TO.C,U9*
X54880000Y-127956000D02*
G75*
G03X56880000Y-127956000I1000000J0D01*
G01*
X56880000Y-127956000D02*
X58530000Y-127956000D01*
X58530000Y-127956000D02*
X58530000Y-145856000D01*
X58530000Y-145856000D02*
X53230000Y-145856000D01*
X53230000Y-145856000D02*
X53230000Y-127956000D01*
X53230000Y-127956000D02*
X54880000Y-127956000D01*
X61020000Y-127896000D02*
X61020000Y-145916000D01*
X61020000Y-145916000D02*
X50740000Y-145916000D01*
X50740000Y-145916000D02*
X50740000Y-127896000D01*
X50740000Y-127896000D02*
X61020000Y-127896000D01*
G04 #@! TO.C,U10*
X77664000Y-128404000D02*
X87944000Y-128404000D01*
X77664000Y-146424000D02*
X77664000Y-128404000D01*
X87944000Y-146424000D02*
X77664000Y-146424000D01*
X87944000Y-128404000D02*
X87944000Y-146424000D01*
X80154000Y-128464000D02*
X81804000Y-128464000D01*
X80154000Y-146364000D02*
X80154000Y-128464000D01*
X85454000Y-146364000D02*
X80154000Y-146364000D01*
X85454000Y-128464000D02*
X85454000Y-146364000D01*
X83804000Y-128464000D02*
X85454000Y-128464000D01*
X81804000Y-128464000D02*
G75*
G03X83804000Y-128464000I1000000J0D01*
G01*
G04 #@! TO.C,U11*
X50740000Y-72270000D02*
X61020000Y-72270000D01*
X50740000Y-90290000D02*
X50740000Y-72270000D01*
X61020000Y-90290000D02*
X50740000Y-90290000D01*
X61020000Y-72270000D02*
X61020000Y-90290000D01*
X53230000Y-72330000D02*
X54880000Y-72330000D01*
X53230000Y-90230000D02*
X53230000Y-72330000D01*
X58530000Y-90230000D02*
X53230000Y-90230000D01*
X58530000Y-72330000D02*
X58530000Y-90230000D01*
X56880000Y-72330000D02*
X58530000Y-72330000D01*
X54880000Y-72330000D02*
G75*
G03X56880000Y-72330000I1000000J0D01*
G01*
G04 #@! TO.C,U12*
X77664000Y-72270000D02*
X87944000Y-72270000D01*
X77664000Y-90290000D02*
X77664000Y-72270000D01*
X87944000Y-90290000D02*
X77664000Y-90290000D01*
X87944000Y-72270000D02*
X87944000Y-90290000D01*
X80154000Y-72330000D02*
X81804000Y-72330000D01*
X80154000Y-90230000D02*
X80154000Y-72330000D01*
X85454000Y-90230000D02*
X80154000Y-90230000D01*
X85454000Y-72330000D02*
X85454000Y-90230000D01*
X83804000Y-72330000D02*
X85454000Y-72330000D01*
X81804000Y-72330000D02*
G75*
G03X83804000Y-72330000I1000000J0D01*
G01*
G04 #@! TO.C,U13*
X50740000Y-99702000D02*
X61020000Y-99702000D01*
X50740000Y-117722000D02*
X50740000Y-99702000D01*
X61020000Y-117722000D02*
X50740000Y-117722000D01*
X61020000Y-99702000D02*
X61020000Y-117722000D01*
X53230000Y-99762000D02*
X54880000Y-99762000D01*
X53230000Y-117662000D02*
X53230000Y-99762000D01*
X58530000Y-117662000D02*
X53230000Y-117662000D01*
X58530000Y-99762000D02*
X58530000Y-117662000D01*
X56880000Y-99762000D02*
X58530000Y-99762000D01*
X54880000Y-99762000D02*
G75*
G03X56880000Y-99762000I1000000J0D01*
G01*
G04 #@! TO.C,U14*
X77664000Y-99956000D02*
X87944000Y-99956000D01*
X77664000Y-117976000D02*
X77664000Y-99956000D01*
X87944000Y-117976000D02*
X77664000Y-117976000D01*
X87944000Y-99956000D02*
X87944000Y-117976000D01*
X80154000Y-100016000D02*
X81804000Y-100016000D01*
X80154000Y-117916000D02*
X80154000Y-100016000D01*
X85454000Y-117916000D02*
X80154000Y-117916000D01*
X85454000Y-100016000D02*
X85454000Y-117916000D01*
X83804000Y-100016000D02*
X85454000Y-100016000D01*
X81804000Y-100016000D02*
G75*
G03X83804000Y-100016000I1000000J0D01*
G01*
G04 #@! TO.C,U15*
X105096000Y-72016000D02*
X115376000Y-72016000D01*
X105096000Y-90036000D02*
X105096000Y-72016000D01*
X115376000Y-90036000D02*
X105096000Y-90036000D01*
X115376000Y-72016000D02*
X115376000Y-90036000D01*
X107586000Y-72076000D02*
X109236000Y-72076000D01*
X107586000Y-89976000D02*
X107586000Y-72076000D01*
X112886000Y-89976000D02*
X107586000Y-89976000D01*
X112886000Y-72076000D02*
X112886000Y-89976000D01*
X111236000Y-72076000D02*
X112886000Y-72076000D01*
X109236000Y-72076000D02*
G75*
G03X111236000Y-72076000I1000000J0D01*
G01*
G04 #@! TO.C,U16*
X132020000Y-71508000D02*
X142300000Y-71508000D01*
X132020000Y-89528000D02*
X132020000Y-71508000D01*
X142300000Y-89528000D02*
X132020000Y-89528000D01*
X142300000Y-71508000D02*
X142300000Y-89528000D01*
X134510000Y-71568000D02*
X136160000Y-71568000D01*
X134510000Y-89468000D02*
X134510000Y-71568000D01*
X139810000Y-89468000D02*
X134510000Y-89468000D01*
X139810000Y-71568000D02*
X139810000Y-89468000D01*
X138160000Y-71568000D02*
X139810000Y-71568000D01*
X136160000Y-71568000D02*
G75*
G03X138160000Y-71568000I1000000J0D01*
G01*
G04 #@! TO.C,U19*
X93870000Y-100016000D02*
X95520000Y-100016000D01*
X93870000Y-135696000D02*
X93870000Y-100016000D01*
X99170000Y-135696000D02*
X93870000Y-135696000D01*
X99170000Y-100016000D02*
X99170000Y-135696000D01*
X97520000Y-100016000D02*
X99170000Y-100016000D01*
X95520000Y-100016000D02*
G75*
G03X97520000Y-100016000I1000000J0D01*
G01*
G04 #@! TO.C,J5*
X33697484Y-146080110D02*
X36357484Y-146080110D01*
X33697484Y-146080110D02*
X33697484Y-107920110D01*
X33697484Y-107920110D02*
X36357484Y-107920110D01*
X36357484Y-146080110D02*
X36357484Y-107920110D01*
X36357484Y-148680110D02*
X36357484Y-147350110D01*
X35027484Y-148680110D02*
X36357484Y-148680110D01*
G04 #@! TO.C,U17*
D11*
X44295265Y-128778286D02*
X44295265Y-129587810D01*
X44247646Y-129683048D01*
X44200027Y-129730667D01*
X44104789Y-129778286D01*
X43914312Y-129778286D01*
X43819074Y-129730667D01*
X43771455Y-129683048D01*
X43723836Y-129587810D01*
X43723836Y-128778286D01*
X42723836Y-129778286D02*
X43295265Y-129778286D01*
X43009550Y-129778286D02*
X43009550Y-128778286D01*
X43104789Y-128921144D01*
X43200027Y-129016382D01*
X43295265Y-129064001D01*
X42390503Y-128778286D02*
X41723836Y-128778286D01*
X42152408Y-129778286D01*
G04 #@! TO.C,U20*
X97758095Y-42334380D02*
X97758095Y-43143904D01*
X97710476Y-43239142D01*
X97662857Y-43286761D01*
X97567619Y-43334380D01*
X97377142Y-43334380D01*
X97281904Y-43286761D01*
X97234285Y-43239142D01*
X97186666Y-43143904D01*
X97186666Y-42334380D01*
X96758095Y-42429619D02*
X96710476Y-42382000D01*
X96615238Y-42334380D01*
X96377142Y-42334380D01*
X96281904Y-42382000D01*
X96234285Y-42429619D01*
X96186666Y-42524857D01*
X96186666Y-42620095D01*
X96234285Y-42762952D01*
X96805714Y-43334380D01*
X96186666Y-43334380D01*
X95567619Y-42334380D02*
X95472380Y-42334380D01*
X95377142Y-42382000D01*
X95329523Y-42429619D01*
X95281904Y-42524857D01*
X95234285Y-42715333D01*
X95234285Y-42953428D01*
X95281904Y-43143904D01*
X95329523Y-43239142D01*
X95377142Y-43286761D01*
X95472380Y-43334380D01*
X95567619Y-43334380D01*
X95662857Y-43286761D01*
X95710476Y-43239142D01*
X95758095Y-43143904D01*
X95805714Y-42953428D01*
X95805714Y-42715333D01*
X95758095Y-42524857D01*
X95710476Y-42429619D01*
X95662857Y-42382000D01*
X95567619Y-42334380D01*
G04 #@! TO.C,U18*
X32988095Y-67226380D02*
X32988095Y-68035904D01*
X32940476Y-68131142D01*
X32892857Y-68178761D01*
X32797619Y-68226380D01*
X32607142Y-68226380D01*
X32511904Y-68178761D01*
X32464285Y-68131142D01*
X32416666Y-68035904D01*
X32416666Y-67226380D01*
X31416666Y-68226380D02*
X31988095Y-68226380D01*
X31702380Y-68226380D02*
X31702380Y-67226380D01*
X31797619Y-67369238D01*
X31892857Y-67464476D01*
X31988095Y-67512095D01*
X30845238Y-67654952D02*
X30940476Y-67607333D01*
X30988095Y-67559714D01*
X31035714Y-67464476D01*
X31035714Y-67416857D01*
X30988095Y-67321619D01*
X30940476Y-67274000D01*
X30845238Y-67226380D01*
X30654761Y-67226380D01*
X30559523Y-67274000D01*
X30511904Y-67321619D01*
X30464285Y-67416857D01*
X30464285Y-67464476D01*
X30511904Y-67559714D01*
X30559523Y-67607333D01*
X30654761Y-67654952D01*
X30845238Y-67654952D01*
X30940476Y-67702571D01*
X30988095Y-67750190D01*
X31035714Y-67845428D01*
X31035714Y-68035904D01*
X30988095Y-68131142D01*
X30940476Y-68178761D01*
X30845238Y-68226380D01*
X30654761Y-68226380D01*
X30559523Y-68178761D01*
X30511904Y-68131142D01*
X30464285Y-68035904D01*
X30464285Y-67845428D01*
X30511904Y-67750190D01*
X30559523Y-67702571D01*
X30654761Y-67654952D01*
G04 #@! TO.C,U1*
X110997904Y-126408380D02*
X110997904Y-127217904D01*
X110950285Y-127313142D01*
X110902666Y-127360761D01*
X110807428Y-127408380D01*
X110616952Y-127408380D01*
X110521714Y-127360761D01*
X110474095Y-127313142D01*
X110426476Y-127217904D01*
X110426476Y-126408380D01*
X109426476Y-127408380D02*
X109997904Y-127408380D01*
X109712190Y-127408380D02*
X109712190Y-126408380D01*
X109807428Y-126551238D01*
X109902666Y-126646476D01*
X109997904Y-126694095D01*
G04 #@! TO.C,U2*
X137921904Y-126154380D02*
X137921904Y-126963904D01*
X137874285Y-127059142D01*
X137826666Y-127106761D01*
X137731428Y-127154380D01*
X137540952Y-127154380D01*
X137445714Y-127106761D01*
X137398095Y-127059142D01*
X137350476Y-126963904D01*
X137350476Y-126154380D01*
X136921904Y-126249619D02*
X136874285Y-126202000D01*
X136779047Y-126154380D01*
X136540952Y-126154380D01*
X136445714Y-126202000D01*
X136398095Y-126249619D01*
X136350476Y-126344857D01*
X136350476Y-126440095D01*
X136398095Y-126582952D01*
X136969523Y-127154380D01*
X136350476Y-127154380D01*
G04 #@! TO.C,U3*
X56787824Y-42616343D02*
X56787824Y-43425867D01*
X56740205Y-43521105D01*
X56692586Y-43568724D01*
X56597348Y-43616343D01*
X56406872Y-43616343D01*
X56311634Y-43568724D01*
X56264015Y-43521105D01*
X56216396Y-43425867D01*
X56216396Y-42616343D01*
X55835443Y-42616343D02*
X55216396Y-42616343D01*
X55549729Y-42997296D01*
X55406872Y-42997296D01*
X55311634Y-43044915D01*
X55264015Y-43092534D01*
X55216396Y-43187772D01*
X55216396Y-43425867D01*
X55264015Y-43521105D01*
X55311634Y-43568724D01*
X55406872Y-43616343D01*
X55692586Y-43616343D01*
X55787824Y-43568724D01*
X55835443Y-43521105D01*
G04 #@! TO.C,U4*
X83457824Y-42616343D02*
X83457824Y-43425867D01*
X83410205Y-43521105D01*
X83362586Y-43568724D01*
X83267348Y-43616343D01*
X83076872Y-43616343D01*
X82981634Y-43568724D01*
X82934015Y-43521105D01*
X82886396Y-43425867D01*
X82886396Y-42616343D01*
X81981634Y-42949677D02*
X81981634Y-43616343D01*
X82219729Y-42568724D02*
X82457824Y-43283010D01*
X81838777Y-43283010D01*
G04 #@! TO.C,U5*
X110997904Y-97960380D02*
X110997904Y-98769904D01*
X110950285Y-98865142D01*
X110902666Y-98912761D01*
X110807428Y-98960380D01*
X110616952Y-98960380D01*
X110521714Y-98912761D01*
X110474095Y-98865142D01*
X110426476Y-98769904D01*
X110426476Y-97960380D01*
X109474095Y-97960380D02*
X109950285Y-97960380D01*
X109997904Y-98436571D01*
X109950285Y-98388952D01*
X109855047Y-98341333D01*
X109616952Y-98341333D01*
X109521714Y-98388952D01*
X109474095Y-98436571D01*
X109426476Y-98531809D01*
X109426476Y-98769904D01*
X109474095Y-98865142D01*
X109521714Y-98912761D01*
X109616952Y-98960380D01*
X109855047Y-98960380D01*
X109950285Y-98912761D01*
X109997904Y-98865142D01*
G04 #@! TO.C,U6*
X137921904Y-97706380D02*
X137921904Y-98515904D01*
X137874285Y-98611142D01*
X137826666Y-98658761D01*
X137731428Y-98706380D01*
X137540952Y-98706380D01*
X137445714Y-98658761D01*
X137398095Y-98611142D01*
X137350476Y-98515904D01*
X137350476Y-97706380D01*
X136445714Y-97706380D02*
X136636190Y-97706380D01*
X136731428Y-97754000D01*
X136779047Y-97801619D01*
X136874285Y-97944476D01*
X136921904Y-98134952D01*
X136921904Y-98515904D01*
X136874285Y-98611142D01*
X136826666Y-98658761D01*
X136731428Y-98706380D01*
X136540952Y-98706380D01*
X136445714Y-98658761D01*
X136398095Y-98611142D01*
X136350476Y-98515904D01*
X136350476Y-98277809D01*
X136398095Y-98182571D01*
X136445714Y-98134952D01*
X136540952Y-98087333D01*
X136731428Y-98087333D01*
X136826666Y-98134952D01*
X136874285Y-98182571D01*
X136921904Y-98277809D01*
G04 #@! TO.C,U7*
X110997904Y-42080380D02*
X110997904Y-42889904D01*
X110950285Y-42985142D01*
X110902666Y-43032761D01*
X110807428Y-43080380D01*
X110616952Y-43080380D01*
X110521714Y-43032761D01*
X110474095Y-42985142D01*
X110426476Y-42889904D01*
X110426476Y-42080380D01*
X110045523Y-42080380D02*
X109378857Y-42080380D01*
X109807428Y-43080380D01*
G04 #@! TO.C,U8*
X137667904Y-42080380D02*
X137667904Y-42889904D01*
X137620285Y-42985142D01*
X137572666Y-43032761D01*
X137477428Y-43080380D01*
X137286952Y-43080380D01*
X137191714Y-43032761D01*
X137144095Y-42985142D01*
X137096476Y-42889904D01*
X137096476Y-42080380D01*
X136477428Y-42508952D02*
X136572666Y-42461333D01*
X136620285Y-42413714D01*
X136667904Y-42318476D01*
X136667904Y-42270857D01*
X136620285Y-42175619D01*
X136572666Y-42128000D01*
X136477428Y-42080380D01*
X136286952Y-42080380D01*
X136191714Y-42128000D01*
X136144095Y-42175619D01*
X136096476Y-42270857D01*
X136096476Y-42318476D01*
X136144095Y-42413714D01*
X136191714Y-42461333D01*
X136286952Y-42508952D01*
X136477428Y-42508952D01*
X136572666Y-42556571D01*
X136620285Y-42604190D01*
X136667904Y-42699428D01*
X136667904Y-42889904D01*
X136620285Y-42985142D01*
X136572666Y-43032761D01*
X136477428Y-43080380D01*
X136286952Y-43080380D01*
X136191714Y-43032761D01*
X136144095Y-42985142D01*
X136096476Y-42889904D01*
X136096476Y-42699428D01*
X136144095Y-42604190D01*
X136191714Y-42556571D01*
X136286952Y-42508952D01*
G04 #@! TO.C,U9*
X56641904Y-126408380D02*
X56641904Y-127217904D01*
X56594285Y-127313142D01*
X56546666Y-127360761D01*
X56451428Y-127408380D01*
X56260952Y-127408380D01*
X56165714Y-127360761D01*
X56118095Y-127313142D01*
X56070476Y-127217904D01*
X56070476Y-126408380D01*
X55546666Y-127408380D02*
X55356190Y-127408380D01*
X55260952Y-127360761D01*
X55213333Y-127313142D01*
X55118095Y-127170285D01*
X55070476Y-126979809D01*
X55070476Y-126598857D01*
X55118095Y-126503619D01*
X55165714Y-126456000D01*
X55260952Y-126408380D01*
X55451428Y-126408380D01*
X55546666Y-126456000D01*
X55594285Y-126503619D01*
X55641904Y-126598857D01*
X55641904Y-126836952D01*
X55594285Y-126932190D01*
X55546666Y-126979809D01*
X55451428Y-127027428D01*
X55260952Y-127027428D01*
X55165714Y-126979809D01*
X55118095Y-126932190D01*
X55070476Y-126836952D01*
G04 #@! TO.C,U10*
X84042095Y-126916380D02*
X84042095Y-127725904D01*
X83994476Y-127821142D01*
X83946857Y-127868761D01*
X83851619Y-127916380D01*
X83661142Y-127916380D01*
X83565904Y-127868761D01*
X83518285Y-127821142D01*
X83470666Y-127725904D01*
X83470666Y-126916380D01*
X82470666Y-127916380D02*
X83042095Y-127916380D01*
X82756380Y-127916380D02*
X82756380Y-126916380D01*
X82851619Y-127059238D01*
X82946857Y-127154476D01*
X83042095Y-127202095D01*
X81851619Y-126916380D02*
X81756380Y-126916380D01*
X81661142Y-126964000D01*
X81613523Y-127011619D01*
X81565904Y-127106857D01*
X81518285Y-127297333D01*
X81518285Y-127535428D01*
X81565904Y-127725904D01*
X81613523Y-127821142D01*
X81661142Y-127868761D01*
X81756380Y-127916380D01*
X81851619Y-127916380D01*
X81946857Y-127868761D01*
X81994476Y-127821142D01*
X82042095Y-127725904D01*
X82089714Y-127535428D01*
X82089714Y-127297333D01*
X82042095Y-127106857D01*
X81994476Y-127011619D01*
X81946857Y-126964000D01*
X81851619Y-126916380D01*
G04 #@! TO.C,U11*
X57118095Y-70782380D02*
X57118095Y-71591904D01*
X57070476Y-71687142D01*
X57022857Y-71734761D01*
X56927619Y-71782380D01*
X56737142Y-71782380D01*
X56641904Y-71734761D01*
X56594285Y-71687142D01*
X56546666Y-71591904D01*
X56546666Y-70782380D01*
X55546666Y-71782380D02*
X56118095Y-71782380D01*
X55832380Y-71782380D02*
X55832380Y-70782380D01*
X55927619Y-70925238D01*
X56022857Y-71020476D01*
X56118095Y-71068095D01*
X54594285Y-71782380D02*
X55165714Y-71782380D01*
X54880000Y-71782380D02*
X54880000Y-70782380D01*
X54975238Y-70925238D01*
X55070476Y-71020476D01*
X55165714Y-71068095D01*
G04 #@! TO.C,U12*
X84042095Y-70782380D02*
X84042095Y-71591904D01*
X83994476Y-71687142D01*
X83946857Y-71734761D01*
X83851619Y-71782380D01*
X83661142Y-71782380D01*
X83565904Y-71734761D01*
X83518285Y-71687142D01*
X83470666Y-71591904D01*
X83470666Y-70782380D01*
X82470666Y-71782380D02*
X83042095Y-71782380D01*
X82756380Y-71782380D02*
X82756380Y-70782380D01*
X82851619Y-70925238D01*
X82946857Y-71020476D01*
X83042095Y-71068095D01*
X82089714Y-70877619D02*
X82042095Y-70830000D01*
X81946857Y-70782380D01*
X81708761Y-70782380D01*
X81613523Y-70830000D01*
X81565904Y-70877619D01*
X81518285Y-70972857D01*
X81518285Y-71068095D01*
X81565904Y-71210952D01*
X82137333Y-71782380D01*
X81518285Y-71782380D01*
G04 #@! TO.C,U13*
X57118095Y-98214380D02*
X57118095Y-99023904D01*
X57070476Y-99119142D01*
X57022857Y-99166761D01*
X56927619Y-99214380D01*
X56737142Y-99214380D01*
X56641904Y-99166761D01*
X56594285Y-99119142D01*
X56546666Y-99023904D01*
X56546666Y-98214380D01*
X55546666Y-99214380D02*
X56118095Y-99214380D01*
X55832380Y-99214380D02*
X55832380Y-98214380D01*
X55927619Y-98357238D01*
X56022857Y-98452476D01*
X56118095Y-98500095D01*
X55213333Y-98214380D02*
X54594285Y-98214380D01*
X54927619Y-98595333D01*
X54784761Y-98595333D01*
X54689523Y-98642952D01*
X54641904Y-98690571D01*
X54594285Y-98785809D01*
X54594285Y-99023904D01*
X54641904Y-99119142D01*
X54689523Y-99166761D01*
X54784761Y-99214380D01*
X55070476Y-99214380D01*
X55165714Y-99166761D01*
X55213333Y-99119142D01*
G04 #@! TO.C,U14*
X84042095Y-98468380D02*
X84042095Y-99277904D01*
X83994476Y-99373142D01*
X83946857Y-99420761D01*
X83851619Y-99468380D01*
X83661142Y-99468380D01*
X83565904Y-99420761D01*
X83518285Y-99373142D01*
X83470666Y-99277904D01*
X83470666Y-98468380D01*
X82470666Y-99468380D02*
X83042095Y-99468380D01*
X82756380Y-99468380D02*
X82756380Y-98468380D01*
X82851619Y-98611238D01*
X82946857Y-98706476D01*
X83042095Y-98754095D01*
X81613523Y-98801714D02*
X81613523Y-99468380D01*
X81851619Y-98420761D02*
X82089714Y-99135047D01*
X81470666Y-99135047D01*
G04 #@! TO.C,U15*
X111474095Y-70528380D02*
X111474095Y-71337904D01*
X111426476Y-71433142D01*
X111378857Y-71480761D01*
X111283619Y-71528380D01*
X111093142Y-71528380D01*
X110997904Y-71480761D01*
X110950285Y-71433142D01*
X110902666Y-71337904D01*
X110902666Y-70528380D01*
X109902666Y-71528380D02*
X110474095Y-71528380D01*
X110188380Y-71528380D02*
X110188380Y-70528380D01*
X110283619Y-70671238D01*
X110378857Y-70766476D01*
X110474095Y-70814095D01*
X108997904Y-70528380D02*
X109474095Y-70528380D01*
X109521714Y-71004571D01*
X109474095Y-70956952D01*
X109378857Y-70909333D01*
X109140761Y-70909333D01*
X109045523Y-70956952D01*
X108997904Y-71004571D01*
X108950285Y-71099809D01*
X108950285Y-71337904D01*
X108997904Y-71433142D01*
X109045523Y-71480761D01*
X109140761Y-71528380D01*
X109378857Y-71528380D01*
X109474095Y-71480761D01*
X109521714Y-71433142D01*
G04 #@! TO.C,U16*
X138398095Y-70020380D02*
X138398095Y-70829904D01*
X138350476Y-70925142D01*
X138302857Y-70972761D01*
X138207619Y-71020380D01*
X138017142Y-71020380D01*
X137921904Y-70972761D01*
X137874285Y-70925142D01*
X137826666Y-70829904D01*
X137826666Y-70020380D01*
X136826666Y-71020380D02*
X137398095Y-71020380D01*
X137112380Y-71020380D02*
X137112380Y-70020380D01*
X137207619Y-70163238D01*
X137302857Y-70258476D01*
X137398095Y-70306095D01*
X135969523Y-70020380D02*
X136160000Y-70020380D01*
X136255238Y-70068000D01*
X136302857Y-70115619D01*
X136398095Y-70258476D01*
X136445714Y-70448952D01*
X136445714Y-70829904D01*
X136398095Y-70925142D01*
X136350476Y-70972761D01*
X136255238Y-71020380D01*
X136064761Y-71020380D01*
X135969523Y-70972761D01*
X135921904Y-70925142D01*
X135874285Y-70829904D01*
X135874285Y-70591809D01*
X135921904Y-70496571D01*
X135969523Y-70448952D01*
X136064761Y-70401333D01*
X136255238Y-70401333D01*
X136350476Y-70448952D01*
X136398095Y-70496571D01*
X136445714Y-70591809D01*
G04 #@! TO.C,U19*
X97758095Y-98468380D02*
X97758095Y-99277904D01*
X97710476Y-99373142D01*
X97662857Y-99420761D01*
X97567619Y-99468380D01*
X97377142Y-99468380D01*
X97281904Y-99420761D01*
X97234285Y-99373142D01*
X97186666Y-99277904D01*
X97186666Y-98468380D01*
X96186666Y-99468380D02*
X96758095Y-99468380D01*
X96472380Y-99468380D02*
X96472380Y-98468380D01*
X96567619Y-98611238D01*
X96662857Y-98706476D01*
X96758095Y-98754095D01*
X95710476Y-99468380D02*
X95520000Y-99468380D01*
X95424761Y-99420761D01*
X95377142Y-99373142D01*
X95281904Y-99230285D01*
X95234285Y-99039809D01*
X95234285Y-98658857D01*
X95281904Y-98563619D01*
X95329523Y-98516000D01*
X95424761Y-98468380D01*
X95615238Y-98468380D01*
X95710476Y-98516000D01*
X95758095Y-98563619D01*
X95805714Y-98658857D01*
X95805714Y-98896952D01*
X95758095Y-98992190D01*
X95710476Y-99039809D01*
X95615238Y-99087428D01*
X95424761Y-99087428D01*
X95329523Y-99039809D01*
X95281904Y-98992190D01*
X95234285Y-98896952D01*
G04 #@! TO.C,J5*
X35360817Y-149572490D02*
X35360817Y-150286776D01*
X35408436Y-150429633D01*
X35503674Y-150524871D01*
X35646531Y-150572490D01*
X35741769Y-150572490D01*
X34408436Y-149572490D02*
X34884626Y-149572490D01*
X34932245Y-150048681D01*
X34884626Y-150001062D01*
X34789388Y-149953443D01*
X34551293Y-149953443D01*
X34456055Y-150001062D01*
X34408436Y-150048681D01*
X34360817Y-150143919D01*
X34360817Y-150382014D01*
X34408436Y-150477252D01*
X34456055Y-150524871D01*
X34551293Y-150572490D01*
X34789388Y-150572490D01*
X34884626Y-150524871D01*
X34932245Y-150477252D01*
G04 #@! TD*
M02*
