G04 #@! TF.GenerationSoftware,KiCad,Pcbnew,(5.0.1-3-g963ef8bb5)*
G04 #@! TF.CreationDate,2019-04-09T02:40:33-05:00*
G04 #@! TF.ProjectId,SDMAY1932,53444D4159313933322E6B696361645F,rev?*
G04 #@! TF.SameCoordinates,Original*
G04 #@! TF.FileFunction,Copper,L2,Bot,Signal*
G04 #@! TF.FilePolarity,Positive*
%FSLAX46Y46*%
G04 Gerber Fmt 4.6, Leading zero omitted, Abs format (unit mm)*
G04 Created by KiCad (PCBNEW (5.0.1-3-g963ef8bb5)) date Tuesday, April 09, 2019 at 02:40:33 AM*
%MOMM*%
%LPD*%
G01*
G04 APERTURE LIST*
G04 #@! TA.AperFunction,ComponentPad*
%ADD10R,1.600000X1.600000*%
G04 #@! TD*
G04 #@! TA.AperFunction,ComponentPad*
%ADD11O,1.600000X1.600000*%
G04 #@! TD*
G04 #@! TA.AperFunction,ComponentPad*
%ADD12R,1.700000X1.700000*%
G04 #@! TD*
G04 #@! TA.AperFunction,ComponentPad*
%ADD13O,1.700000X1.700000*%
G04 #@! TD*
G04 #@! TA.AperFunction,ViaPad*
%ADD14C,0.800000*%
G04 #@! TD*
G04 #@! TA.AperFunction,Conductor*
%ADD15C,0.381000*%
G04 #@! TD*
G04 #@! TA.AperFunction,Conductor*
%ADD16C,0.635000*%
G04 #@! TD*
G04 #@! TA.AperFunction,Conductor*
%ADD17C,0.250000*%
G04 #@! TD*
G04 APERTURE END LIST*
D10*
G04 #@! TO.P,U17,1*
G04 #@! TO.N,/2GPB0*
X39247170Y-126995906D03*
D11*
G04 #@! TO.P,U17,15*
G04 #@! TO.N,+5V*
X46867170Y-93975906D03*
G04 #@! TO.P,U17,2*
G04 #@! TO.N,/2GPB1*
X39247170Y-124455906D03*
G04 #@! TO.P,U17,16*
G04 #@! TO.N,GND*
X46867170Y-96515906D03*
G04 #@! TO.P,U17,3*
G04 #@! TO.N,/2GPB2*
X39247170Y-121915906D03*
G04 #@! TO.P,U17,17*
G04 #@! TO.N,GND*
X46867170Y-99055906D03*
G04 #@! TO.P,U17,4*
G04 #@! TO.N,/2GPB3*
X39247170Y-119375906D03*
G04 #@! TO.P,U17,18*
G04 #@! TO.N,/RESET*
X46867170Y-101595906D03*
G04 #@! TO.P,U17,5*
G04 #@! TO.N,/2GPB4*
X39247170Y-116835906D03*
G04 #@! TO.P,U17,19*
G04 #@! TO.N,Net-(U17-Pad19)*
X46867170Y-104135906D03*
G04 #@! TO.P,U17,6*
G04 #@! TO.N,/2GPB5*
X39247170Y-114295906D03*
G04 #@! TO.P,U17,20*
G04 #@! TO.N,Net-(U17-Pad20)*
X46867170Y-106675906D03*
G04 #@! TO.P,U17,7*
G04 #@! TO.N,/2GPB6*
X39247170Y-111755906D03*
G04 #@! TO.P,U17,21*
G04 #@! TO.N,/2GPA0*
X46867170Y-109215906D03*
G04 #@! TO.P,U17,8*
G04 #@! TO.N,/2GPB7*
X39247170Y-109215906D03*
G04 #@! TO.P,U17,22*
G04 #@! TO.N,/2GPA1*
X46867170Y-111755906D03*
G04 #@! TO.P,U17,9*
G04 #@! TO.N,+5V*
X39247170Y-106675906D03*
G04 #@! TO.P,U17,23*
G04 #@! TO.N,/2GPA2*
X46867170Y-114295906D03*
G04 #@! TO.P,U17,10*
G04 #@! TO.N,GND*
X39247170Y-104135906D03*
G04 #@! TO.P,U17,24*
G04 #@! TO.N,/2GPA3*
X46867170Y-116835906D03*
G04 #@! TO.P,U17,11*
G04 #@! TO.N,Net-(U17-Pad11)*
X39247170Y-101595906D03*
G04 #@! TO.P,U17,25*
G04 #@! TO.N,/2GPA4*
X46867170Y-119375906D03*
G04 #@! TO.P,U17,12*
G04 #@! TO.N,/SCL*
X39247170Y-99055906D03*
G04 #@! TO.P,U17,26*
G04 #@! TO.N,/2GPA5*
X46867170Y-121915906D03*
G04 #@! TO.P,U17,13*
G04 #@! TO.N,/SDA*
X39247170Y-96515906D03*
G04 #@! TO.P,U17,27*
G04 #@! TO.N,/2GPA6*
X46867170Y-124455906D03*
G04 #@! TO.P,U17,14*
G04 #@! TO.N,Net-(U17-Pad14)*
X39247170Y-93975906D03*
G04 #@! TO.P,U17,28*
G04 #@! TO.N,/2GPA7*
X46867170Y-126995906D03*
G04 #@! TD*
D12*
G04 #@! TO.P,J3,1*
G04 #@! TO.N,/RATE2*
X134874000Y-23368000D03*
D13*
G04 #@! TO.P,J3,2*
G04 #@! TO.N,/PWM4*
X132334000Y-23368000D03*
G04 #@! TO.P,J3,3*
G04 #@! TO.N,/PITCH2*
X129794000Y-23368000D03*
G04 #@! TO.P,J3,4*
G04 #@! TO.N,/PITCH1*
X127254000Y-23368000D03*
G04 #@! TO.P,J3,5*
G04 #@! TO.N,/PWM1*
X124714000Y-23368000D03*
G04 #@! TO.P,J3,6*
G04 #@! TO.N,/PWM2*
X122174000Y-23368000D03*
G04 #@! TO.P,J3,7*
G04 #@! TO.N,/PWM3*
X119634000Y-23368000D03*
G04 #@! TO.P,J3,8*
G04 #@! TO.N,/RATE1*
X117094000Y-23368000D03*
G04 #@! TD*
D11*
G04 #@! TO.P,U24,16*
G04 #@! TO.N,+5V*
X119888000Y-62738000D03*
G04 #@! TO.P,U24,8*
G04 #@! TO.N,-5V*
X127508000Y-44958000D03*
G04 #@! TO.P,U24,15*
G04 #@! TO.N,Net-(U24-Pad15)*
X119888000Y-60198000D03*
G04 #@! TO.P,U24,7*
G04 #@! TO.N,GND*
X127508000Y-47498000D03*
G04 #@! TO.P,U24,14*
G04 #@! TO.N,Net-(U24-Pad14)*
X119888000Y-57658000D03*
G04 #@! TO.P,U24,6*
G04 #@! TO.N,Net-(U20-Pad1)*
X127508000Y-50038000D03*
G04 #@! TO.P,U24,13*
G04 #@! TO.N,Net-(U24-Pad13)*
X119888000Y-55118000D03*
G04 #@! TO.P,U24,5*
G04 #@! TO.N,Net-(U24-Pad5)*
X127508000Y-52578000D03*
G04 #@! TO.P,U24,12*
G04 #@! TO.N,Net-(U24-Pad12)*
X119888000Y-52578000D03*
G04 #@! TO.P,U24,4*
G04 #@! TO.N,Net-(U24-Pad4)*
X127508000Y-55118000D03*
G04 #@! TO.P,U24,11*
G04 #@! TO.N,Net-(U20-Pad2)*
X119888000Y-50038000D03*
G04 #@! TO.P,U24,3*
G04 #@! TO.N,/PWM1*
X127508000Y-57658000D03*
G04 #@! TO.P,U24,10*
G04 #@! TO.N,Net-(U20-Pad3)*
X119888000Y-47498000D03*
G04 #@! TO.P,U24,2*
G04 #@! TO.N,Net-(U24-Pad2)*
X127508000Y-60198000D03*
G04 #@! TO.P,U24,9*
G04 #@! TO.N,Net-(U20-Pad4)*
X119888000Y-44958000D03*
D10*
G04 #@! TO.P,U24,1*
G04 #@! TO.N,Net-(U24-Pad1)*
X127508000Y-62738000D03*
G04 #@! TD*
G04 #@! TO.P,U20,1*
G04 #@! TO.N,Net-(U20-Pad1)*
X100330000Y-45212000D03*
D11*
G04 #@! TO.P,U20,15*
G04 #@! TO.N,GND*
X92710000Y-78232000D03*
G04 #@! TO.P,U20,2*
G04 #@! TO.N,Net-(U20-Pad2)*
X100330000Y-47752000D03*
G04 #@! TO.P,U20,16*
G04 #@! TO.N,+5V*
X92710000Y-75692000D03*
G04 #@! TO.P,U20,3*
G04 #@! TO.N,Net-(U20-Pad3)*
X100330000Y-50292000D03*
G04 #@! TO.P,U20,17*
G04 #@! TO.N,GND*
X92710000Y-73152000D03*
G04 #@! TO.P,U20,4*
G04 #@! TO.N,Net-(U20-Pad4)*
X100330000Y-52832000D03*
G04 #@! TO.P,U20,18*
G04 #@! TO.N,/RESET*
X92710000Y-70612000D03*
G04 #@! TO.P,U20,5*
G04 #@! TO.N,Net-(U20-Pad5)*
X100330000Y-55372000D03*
G04 #@! TO.P,U20,19*
G04 #@! TO.N,Net-(U20-Pad19)*
X92710000Y-68072000D03*
G04 #@! TO.P,U20,6*
G04 #@! TO.N,Net-(U20-Pad6)*
X100330000Y-57912000D03*
G04 #@! TO.P,U20,20*
G04 #@! TO.N,Net-(U20-Pad20)*
X92710000Y-65532000D03*
G04 #@! TO.P,U20,7*
G04 #@! TO.N,Net-(U20-Pad7)*
X100330000Y-60452000D03*
G04 #@! TO.P,U20,21*
G04 #@! TO.N,Net-(U20-Pad21)*
X92710000Y-62992000D03*
G04 #@! TO.P,U20,8*
G04 #@! TO.N,Net-(U20-Pad8)*
X100330000Y-62992000D03*
G04 #@! TO.P,U20,22*
G04 #@! TO.N,Net-(U20-Pad22)*
X92710000Y-60452000D03*
G04 #@! TO.P,U20,9*
G04 #@! TO.N,+5V*
X100330000Y-65532000D03*
G04 #@! TO.P,U20,23*
G04 #@! TO.N,Net-(U20-Pad23)*
X92710000Y-57912000D03*
G04 #@! TO.P,U20,10*
G04 #@! TO.N,GND*
X100330000Y-68072000D03*
G04 #@! TO.P,U20,24*
G04 #@! TO.N,Net-(U20-Pad24)*
X92710000Y-55372000D03*
G04 #@! TO.P,U20,11*
G04 #@! TO.N,Net-(U20-Pad11)*
X100330000Y-70612000D03*
G04 #@! TO.P,U20,25*
G04 #@! TO.N,Net-(U20-Pad25)*
X92710000Y-52832000D03*
G04 #@! TO.P,U20,12*
G04 #@! TO.N,/SCL*
X100330000Y-73152000D03*
G04 #@! TO.P,U20,26*
G04 #@! TO.N,Net-(U20-Pad26)*
X92710000Y-50292000D03*
G04 #@! TO.P,U20,13*
G04 #@! TO.N,/SDA*
X100330000Y-75692000D03*
G04 #@! TO.P,U20,27*
G04 #@! TO.N,Net-(U20-Pad27)*
X92710000Y-47752000D03*
G04 #@! TO.P,U20,14*
G04 #@! TO.N,Net-(U20-Pad14)*
X100330000Y-78232000D03*
G04 #@! TO.P,U20,28*
G04 #@! TO.N,Net-(U20-Pad28)*
X92710000Y-45212000D03*
G04 #@! TD*
D10*
G04 #@! TO.P,U18,1*
G04 #@! TO.N,/1GPB0*
X35560000Y-70104000D03*
D11*
G04 #@! TO.P,U18,15*
G04 #@! TO.N,GND*
X27940000Y-103124000D03*
G04 #@! TO.P,U18,2*
G04 #@! TO.N,/1GPB1*
X35560000Y-72644000D03*
G04 #@! TO.P,U18,16*
G04 #@! TO.N,GND*
X27940000Y-100584000D03*
G04 #@! TO.P,U18,3*
G04 #@! TO.N,/1GPB2*
X35560000Y-75184000D03*
G04 #@! TO.P,U18,17*
G04 #@! TO.N,GND*
X27940000Y-98044000D03*
G04 #@! TO.P,U18,4*
G04 #@! TO.N,/1GPB3*
X35560000Y-77724000D03*
G04 #@! TO.P,U18,18*
G04 #@! TO.N,/RESET*
X27940000Y-95504000D03*
G04 #@! TO.P,U18,5*
G04 #@! TO.N,/1GPB4*
X35560000Y-80264000D03*
G04 #@! TO.P,U18,19*
G04 #@! TO.N,Net-(U18-Pad19)*
X27940000Y-92964000D03*
G04 #@! TO.P,U18,6*
G04 #@! TO.N,/1GPB5*
X35560000Y-82804000D03*
G04 #@! TO.P,U18,20*
G04 #@! TO.N,Net-(U18-Pad20)*
X27940000Y-90424000D03*
G04 #@! TO.P,U18,7*
G04 #@! TO.N,/1GPB6*
X35560000Y-85344000D03*
G04 #@! TO.P,U18,21*
G04 #@! TO.N,/1GPA0*
X27940000Y-87884000D03*
G04 #@! TO.P,U18,8*
G04 #@! TO.N,/1GPB7*
X35560000Y-87884000D03*
G04 #@! TO.P,U18,22*
G04 #@! TO.N,/1GPA1*
X27940000Y-85344000D03*
G04 #@! TO.P,U18,9*
G04 #@! TO.N,+5V*
X35560000Y-90424000D03*
G04 #@! TO.P,U18,23*
G04 #@! TO.N,/1GPA2*
X27940000Y-82804000D03*
G04 #@! TO.P,U18,10*
G04 #@! TO.N,GND*
X35560000Y-92964000D03*
G04 #@! TO.P,U18,24*
G04 #@! TO.N,/1GPA3*
X27940000Y-80264000D03*
G04 #@! TO.P,U18,11*
G04 #@! TO.N,Net-(U18-Pad11)*
X35560000Y-95504000D03*
G04 #@! TO.P,U18,25*
G04 #@! TO.N,/1GPA4*
X27940000Y-77724000D03*
G04 #@! TO.P,U18,12*
G04 #@! TO.N,/SCL*
X35560000Y-98044000D03*
G04 #@! TO.P,U18,26*
G04 #@! TO.N,/1GPA5*
X27940000Y-75184000D03*
G04 #@! TO.P,U18,13*
G04 #@! TO.N,/SDA*
X35560000Y-100584000D03*
G04 #@! TO.P,U18,27*
G04 #@! TO.N,/1GPA6*
X27940000Y-72644000D03*
G04 #@! TO.P,U18,14*
G04 #@! TO.N,Net-(U18-Pad14)*
X35560000Y-103124000D03*
G04 #@! TO.P,U18,28*
G04 #@! TO.N,/1GPA7*
X27940000Y-70104000D03*
G04 #@! TD*
G04 #@! TO.P,U1,14*
G04 #@! TO.N,Net-(U1-Pad13)*
X106426000Y-129286000D03*
G04 #@! TO.P,U1,7*
G04 #@! TO.N,Net-(U1-Pad6)*
X114046000Y-144526000D03*
G04 #@! TO.P,U1,13*
G04 #@! TO.N,Net-(U1-Pad13)*
X106426000Y-131826000D03*
G04 #@! TO.P,U1,6*
G04 #@! TO.N,Net-(U1-Pad6)*
X114046000Y-141986000D03*
G04 #@! TO.P,U1,12*
G04 #@! TO.N,/LFO2*
X106426000Y-134366000D03*
G04 #@! TO.P,U1,5*
G04 #@! TO.N,/OSC2*
X114046000Y-139446000D03*
G04 #@! TO.P,U1,11*
G04 #@! TO.N,-5V*
X106426000Y-136906000D03*
G04 #@! TO.P,U1,4*
G04 #@! TO.N,+5V*
X114046000Y-136906000D03*
G04 #@! TO.P,U1,10*
G04 #@! TO.N,/LFO1*
X106426000Y-139446000D03*
G04 #@! TO.P,U1,3*
G04 #@! TO.N,/OSC1*
X114046000Y-134366000D03*
G04 #@! TO.P,U1,9*
G04 #@! TO.N,Net-(U1-Pad8)*
X106426000Y-141986000D03*
G04 #@! TO.P,U1,2*
G04 #@! TO.N,Net-(U1-Pad1)*
X114046000Y-131826000D03*
G04 #@! TO.P,U1,8*
G04 #@! TO.N,Net-(U1-Pad8)*
X106426000Y-144526000D03*
D10*
G04 #@! TO.P,U1,1*
G04 #@! TO.N,Net-(U1-Pad1)*
X114046000Y-129286000D03*
G04 #@! TD*
G04 #@! TO.P,U2,1*
G04 #@! TO.N,Net-(U2-Pad1)*
X140970000Y-129032000D03*
D11*
G04 #@! TO.P,U2,8*
G04 #@! TO.N,Net-(U2-Pad8)*
X133350000Y-144272000D03*
G04 #@! TO.P,U2,2*
G04 #@! TO.N,Net-(U2-Pad1)*
X140970000Y-131572000D03*
G04 #@! TO.P,U2,9*
G04 #@! TO.N,Net-(U2-Pad8)*
X133350000Y-141732000D03*
G04 #@! TO.P,U2,3*
G04 #@! TO.N,/MIXER*
X140970000Y-134112000D03*
G04 #@! TO.P,U2,10*
G04 #@! TO.N,/ALLMUX6*
X133350000Y-139192000D03*
G04 #@! TO.P,U2,4*
G04 #@! TO.N,+5V*
X140970000Y-136652000D03*
G04 #@! TO.P,U2,11*
G04 #@! TO.N,-5V*
X133350000Y-136652000D03*
G04 #@! TO.P,U2,5*
G04 #@! TO.N,/FILTER*
X140970000Y-139192000D03*
G04 #@! TO.P,U2,12*
G04 #@! TO.N,/RATE17*
X133350000Y-134112000D03*
G04 #@! TO.P,U2,6*
G04 #@! TO.N,Net-(U2-Pad6)*
X140970000Y-141732000D03*
G04 #@! TO.P,U2,13*
G04 #@! TO.N,Net-(U2-Pad13)*
X133350000Y-131572000D03*
G04 #@! TO.P,U2,7*
G04 #@! TO.N,Net-(U2-Pad6)*
X140970000Y-144272000D03*
G04 #@! TO.P,U2,14*
G04 #@! TO.N,Net-(U2-Pad13)*
X133350000Y-129032000D03*
G04 #@! TD*
D10*
G04 #@! TO.P,U3,1*
G04 #@! TO.N,Net-(U22-Pad13)*
X59835920Y-45493963D03*
D11*
G04 #@! TO.P,U3,8*
G04 #@! TO.N,Net-(U22-Pad15)*
X52215920Y-60733963D03*
G04 #@! TO.P,U3,2*
G04 #@! TO.N,Net-(U22-Pad13)*
X59835920Y-48033963D03*
G04 #@! TO.P,U3,9*
G04 #@! TO.N,Net-(U22-Pad15)*
X52215920Y-58193963D03*
G04 #@! TO.P,U3,3*
G04 #@! TO.N,/OSC1*
X59835920Y-50573963D03*
G04 #@! TO.P,U3,10*
G04 #@! TO.N,/LFO1*
X52215920Y-55653963D03*
G04 #@! TO.P,U3,4*
G04 #@! TO.N,+5V*
X59835920Y-53113963D03*
G04 #@! TO.P,U3,11*
G04 #@! TO.N,-5V*
X52215920Y-53113963D03*
G04 #@! TO.P,U3,5*
G04 #@! TO.N,/OSC2*
X59835920Y-55653963D03*
G04 #@! TO.P,U3,12*
G04 #@! TO.N,/LFO2*
X52215920Y-50573963D03*
G04 #@! TO.P,U3,6*
G04 #@! TO.N,Net-(U22-Pad14)*
X59835920Y-58193963D03*
G04 #@! TO.P,U3,13*
G04 #@! TO.N,Net-(U22-Pad12)*
X52215920Y-48033963D03*
G04 #@! TO.P,U3,7*
G04 #@! TO.N,Net-(U22-Pad14)*
X59835920Y-60733963D03*
G04 #@! TO.P,U3,14*
G04 #@! TO.N,Net-(U22-Pad12)*
X52215920Y-45493963D03*
G04 #@! TD*
D10*
G04 #@! TO.P,U4,1*
G04 #@! TO.N,Net-(U22-Pad1)*
X86505920Y-45493963D03*
D11*
G04 #@! TO.P,U4,8*
G04 #@! TO.N,Net-(U22-Pad2)*
X78885920Y-60733963D03*
G04 #@! TO.P,U4,2*
G04 #@! TO.N,Net-(U22-Pad1)*
X86505920Y-48033963D03*
G04 #@! TO.P,U4,9*
G04 #@! TO.N,Net-(U22-Pad2)*
X78885920Y-58193963D03*
G04 #@! TO.P,U4,3*
G04 #@! TO.N,/MIXER*
X86505920Y-50573963D03*
G04 #@! TO.P,U4,10*
G04 #@! TO.N,/ALLMUX6*
X78885920Y-55653963D03*
G04 #@! TO.P,U4,4*
G04 #@! TO.N,+5V*
X86505920Y-53113963D03*
G04 #@! TO.P,U4,11*
G04 #@! TO.N,-5V*
X78885920Y-53113963D03*
G04 #@! TO.P,U4,5*
G04 #@! TO.N,/FILTER*
X86505920Y-55653963D03*
G04 #@! TO.P,U4,12*
G04 #@! TO.N,/PITCH17*
X78885920Y-50573963D03*
G04 #@! TO.P,U4,6*
G04 #@! TO.N,Net-(U22-Pad5)*
X86505920Y-58193963D03*
G04 #@! TO.P,U4,13*
G04 #@! TO.N,Net-(U22-Pad4)*
X78885920Y-48033963D03*
G04 #@! TO.P,U4,7*
G04 #@! TO.N,Net-(U22-Pad5)*
X86505920Y-60733963D03*
G04 #@! TO.P,U4,14*
G04 #@! TO.N,Net-(U22-Pad4)*
X78885920Y-45493963D03*
G04 #@! TD*
D10*
G04 #@! TO.P,U5,1*
G04 #@! TO.N,Net-(U23-Pad13)*
X114046000Y-100838000D03*
D11*
G04 #@! TO.P,U5,8*
G04 #@! TO.N,Net-(U23-Pad15)*
X106426000Y-116078000D03*
G04 #@! TO.P,U5,2*
G04 #@! TO.N,Net-(U23-Pad13)*
X114046000Y-103378000D03*
G04 #@! TO.P,U5,9*
G04 #@! TO.N,Net-(U23-Pad15)*
X106426000Y-113538000D03*
G04 #@! TO.P,U5,3*
G04 #@! TO.N,/OSC1*
X114046000Y-105918000D03*
G04 #@! TO.P,U5,10*
G04 #@! TO.N,/LFO1*
X106426000Y-110998000D03*
G04 #@! TO.P,U5,4*
G04 #@! TO.N,+5V*
X114046000Y-108458000D03*
G04 #@! TO.P,U5,11*
G04 #@! TO.N,-5V*
X106426000Y-108458000D03*
G04 #@! TO.P,U5,5*
G04 #@! TO.N,/OSC2*
X114046000Y-110998000D03*
G04 #@! TO.P,U5,12*
G04 #@! TO.N,/LFO2*
X106426000Y-105918000D03*
G04 #@! TO.P,U5,6*
G04 #@! TO.N,Net-(U23-Pad14)*
X114046000Y-113538000D03*
G04 #@! TO.P,U5,13*
G04 #@! TO.N,Net-(U23-Pad12)*
X106426000Y-103378000D03*
G04 #@! TO.P,U5,7*
G04 #@! TO.N,Net-(U23-Pad14)*
X114046000Y-116078000D03*
G04 #@! TO.P,U5,14*
G04 #@! TO.N,Net-(U23-Pad12)*
X106426000Y-100838000D03*
G04 #@! TD*
D10*
G04 #@! TO.P,U6,1*
G04 #@! TO.N,Net-(U23-Pad1)*
X140970000Y-100584000D03*
D11*
G04 #@! TO.P,U6,8*
G04 #@! TO.N,Net-(U23-Pad2)*
X133350000Y-115824000D03*
G04 #@! TO.P,U6,2*
G04 #@! TO.N,Net-(U23-Pad1)*
X140970000Y-103124000D03*
G04 #@! TO.P,U6,9*
G04 #@! TO.N,Net-(U23-Pad2)*
X133350000Y-113284000D03*
G04 #@! TO.P,U6,3*
G04 #@! TO.N,/MIXER*
X140970000Y-105664000D03*
G04 #@! TO.P,U6,10*
G04 #@! TO.N,/ALLMUX6*
X133350000Y-110744000D03*
G04 #@! TO.P,U6,4*
G04 #@! TO.N,+5V*
X140970000Y-108204000D03*
G04 #@! TO.P,U6,11*
G04 #@! TO.N,-5V*
X133350000Y-108204000D03*
G04 #@! TO.P,U6,5*
G04 #@! TO.N,/FILTER*
X140970000Y-110744000D03*
G04 #@! TO.P,U6,12*
G04 #@! TO.N,/PWMDAC3*
X133350000Y-105664000D03*
G04 #@! TO.P,U6,6*
G04 #@! TO.N,Net-(U23-Pad5)*
X140970000Y-113284000D03*
G04 #@! TO.P,U6,13*
G04 #@! TO.N,Net-(U23-Pad4)*
X133350000Y-103124000D03*
G04 #@! TO.P,U6,7*
G04 #@! TO.N,Net-(U23-Pad5)*
X140970000Y-115824000D03*
G04 #@! TO.P,U6,14*
G04 #@! TO.N,Net-(U23-Pad4)*
X133350000Y-100584000D03*
G04 #@! TD*
D10*
G04 #@! TO.P,U7,1*
G04 #@! TO.N,Net-(U24-Pad13)*
X114046000Y-44958000D03*
D11*
G04 #@! TO.P,U7,8*
G04 #@! TO.N,Net-(U24-Pad15)*
X106426000Y-60198000D03*
G04 #@! TO.P,U7,2*
G04 #@! TO.N,Net-(U24-Pad13)*
X114046000Y-47498000D03*
G04 #@! TO.P,U7,9*
G04 #@! TO.N,Net-(U24-Pad15)*
X106426000Y-57658000D03*
G04 #@! TO.P,U7,3*
G04 #@! TO.N,/OSC1*
X114046000Y-50038000D03*
G04 #@! TO.P,U7,10*
G04 #@! TO.N,/LFO1*
X106426000Y-55118000D03*
G04 #@! TO.P,U7,4*
G04 #@! TO.N,+5V*
X114046000Y-52578000D03*
G04 #@! TO.P,U7,11*
G04 #@! TO.N,-5V*
X106426000Y-52578000D03*
G04 #@! TO.P,U7,5*
G04 #@! TO.N,/OSC2*
X114046000Y-55118000D03*
G04 #@! TO.P,U7,12*
G04 #@! TO.N,/LFO2*
X106426000Y-50038000D03*
G04 #@! TO.P,U7,6*
G04 #@! TO.N,Net-(U24-Pad14)*
X114046000Y-57658000D03*
G04 #@! TO.P,U7,13*
G04 #@! TO.N,Net-(U24-Pad12)*
X106426000Y-47498000D03*
G04 #@! TO.P,U7,7*
G04 #@! TO.N,Net-(U24-Pad14)*
X114046000Y-60198000D03*
G04 #@! TO.P,U7,14*
G04 #@! TO.N,Net-(U24-Pad12)*
X106426000Y-44958000D03*
G04 #@! TD*
D10*
G04 #@! TO.P,U8,1*
G04 #@! TO.N,Net-(U24-Pad1)*
X140716000Y-44958000D03*
D11*
G04 #@! TO.P,U8,8*
G04 #@! TO.N,Net-(U24-Pad2)*
X133096000Y-60198000D03*
G04 #@! TO.P,U8,2*
G04 #@! TO.N,Net-(U24-Pad1)*
X140716000Y-47498000D03*
G04 #@! TO.P,U8,9*
G04 #@! TO.N,Net-(U24-Pad2)*
X133096000Y-57658000D03*
G04 #@! TO.P,U8,3*
G04 #@! TO.N,/MIXER*
X140716000Y-50038000D03*
G04 #@! TO.P,U8,10*
G04 #@! TO.N,/ALLMUX6*
X133096000Y-55118000D03*
G04 #@! TO.P,U8,4*
G04 #@! TO.N,+5V*
X140716000Y-52578000D03*
G04 #@! TO.P,U8,11*
G04 #@! TO.N,-5V*
X133096000Y-52578000D03*
G04 #@! TO.P,U8,5*
G04 #@! TO.N,/FILTER*
X140716000Y-55118000D03*
G04 #@! TO.P,U8,12*
G04 #@! TO.N,/PWMDAC1*
X133096000Y-50038000D03*
G04 #@! TO.P,U8,6*
G04 #@! TO.N,Net-(U24-Pad5)*
X140716000Y-57658000D03*
G04 #@! TO.P,U8,13*
G04 #@! TO.N,Net-(U24-Pad4)*
X133096000Y-47498000D03*
G04 #@! TO.P,U8,7*
G04 #@! TO.N,Net-(U24-Pad5)*
X140716000Y-60198000D03*
G04 #@! TO.P,U8,14*
G04 #@! TO.N,Net-(U24-Pad4)*
X133096000Y-44958000D03*
G04 #@! TD*
D10*
G04 #@! TO.P,U9,1*
G04 #@! TO.N,Net-(U25-Pad13)*
X59690000Y-129286000D03*
D11*
G04 #@! TO.P,U9,8*
G04 #@! TO.N,Net-(U25-Pad15)*
X52070000Y-144526000D03*
G04 #@! TO.P,U9,2*
G04 #@! TO.N,Net-(U25-Pad13)*
X59690000Y-131826000D03*
G04 #@! TO.P,U9,9*
G04 #@! TO.N,Net-(U25-Pad15)*
X52070000Y-141986000D03*
G04 #@! TO.P,U9,3*
G04 #@! TO.N,/OSC1*
X59690000Y-134366000D03*
G04 #@! TO.P,U9,10*
G04 #@! TO.N,/LFO1*
X52070000Y-139446000D03*
G04 #@! TO.P,U9,4*
G04 #@! TO.N,+5V*
X59690000Y-136906000D03*
G04 #@! TO.P,U9,11*
G04 #@! TO.N,-5V*
X52070000Y-136906000D03*
G04 #@! TO.P,U9,5*
G04 #@! TO.N,/OSC2*
X59690000Y-139446000D03*
G04 #@! TO.P,U9,12*
G04 #@! TO.N,/LFO2*
X52070000Y-134366000D03*
G04 #@! TO.P,U9,6*
G04 #@! TO.N,Net-(U25-Pad14)*
X59690000Y-141986000D03*
G04 #@! TO.P,U9,13*
G04 #@! TO.N,Net-(U25-Pad12)*
X52070000Y-131826000D03*
G04 #@! TO.P,U9,7*
G04 #@! TO.N,Net-(U25-Pad14)*
X59690000Y-144526000D03*
G04 #@! TO.P,U9,14*
G04 #@! TO.N,Net-(U25-Pad12)*
X52070000Y-129286000D03*
G04 #@! TD*
G04 #@! TO.P,U10,14*
G04 #@! TO.N,Net-(U10-Pad13)*
X78994000Y-129794000D03*
G04 #@! TO.P,U10,7*
G04 #@! TO.N,Net-(U10-Pad6)*
X86614000Y-145034000D03*
G04 #@! TO.P,U10,13*
G04 #@! TO.N,Net-(U10-Pad13)*
X78994000Y-132334000D03*
G04 #@! TO.P,U10,6*
G04 #@! TO.N,Net-(U10-Pad6)*
X86614000Y-142494000D03*
G04 #@! TO.P,U10,12*
G04 #@! TO.N,/RATE27*
X78994000Y-134874000D03*
G04 #@! TO.P,U10,5*
G04 #@! TO.N,/FILTER*
X86614000Y-139954000D03*
G04 #@! TO.P,U10,11*
G04 #@! TO.N,-5V*
X78994000Y-137414000D03*
G04 #@! TO.P,U10,4*
G04 #@! TO.N,+5V*
X86614000Y-137414000D03*
G04 #@! TO.P,U10,10*
G04 #@! TO.N,/ALLMUX6*
X78994000Y-139954000D03*
G04 #@! TO.P,U10,3*
G04 #@! TO.N,/MIXER*
X86614000Y-134874000D03*
G04 #@! TO.P,U10,9*
G04 #@! TO.N,Net-(U10-Pad8)*
X78994000Y-142494000D03*
G04 #@! TO.P,U10,2*
G04 #@! TO.N,Net-(U10-Pad1)*
X86614000Y-132334000D03*
G04 #@! TO.P,U10,8*
G04 #@! TO.N,Net-(U10-Pad8)*
X78994000Y-145034000D03*
D10*
G04 #@! TO.P,U10,1*
G04 #@! TO.N,Net-(U10-Pad1)*
X86614000Y-129794000D03*
G04 #@! TD*
D11*
G04 #@! TO.P,U11,14*
G04 #@! TO.N,Net-(U11-Pad13)*
X52070000Y-73660000D03*
G04 #@! TO.P,U11,7*
G04 #@! TO.N,Net-(U11-Pad6)*
X59690000Y-88900000D03*
G04 #@! TO.P,U11,13*
G04 #@! TO.N,Net-(U11-Pad13)*
X52070000Y-76200000D03*
G04 #@! TO.P,U11,6*
G04 #@! TO.N,Net-(U11-Pad6)*
X59690000Y-86360000D03*
G04 #@! TO.P,U11,12*
G04 #@! TO.N,/LFO2*
X52070000Y-78740000D03*
G04 #@! TO.P,U11,5*
G04 #@! TO.N,/OSC2*
X59690000Y-83820000D03*
G04 #@! TO.P,U11,11*
G04 #@! TO.N,-5V*
X52070000Y-81280000D03*
G04 #@! TO.P,U11,4*
G04 #@! TO.N,+5V*
X59690000Y-81280000D03*
G04 #@! TO.P,U11,10*
G04 #@! TO.N,/LFO1*
X52070000Y-83820000D03*
G04 #@! TO.P,U11,3*
G04 #@! TO.N,/OSC1*
X59690000Y-78740000D03*
G04 #@! TO.P,U11,9*
G04 #@! TO.N,Net-(U11-Pad8)*
X52070000Y-86360000D03*
G04 #@! TO.P,U11,2*
G04 #@! TO.N,Net-(U11-Pad1)*
X59690000Y-76200000D03*
G04 #@! TO.P,U11,8*
G04 #@! TO.N,Net-(U11-Pad8)*
X52070000Y-88900000D03*
D10*
G04 #@! TO.P,U11,1*
G04 #@! TO.N,Net-(U11-Pad1)*
X59690000Y-73660000D03*
G04 #@! TD*
D11*
G04 #@! TO.P,U12,14*
G04 #@! TO.N,Net-(U12-Pad13)*
X78994000Y-73660000D03*
G04 #@! TO.P,U12,7*
G04 #@! TO.N,Net-(U12-Pad6)*
X86614000Y-88900000D03*
G04 #@! TO.P,U12,13*
G04 #@! TO.N,Net-(U12-Pad13)*
X78994000Y-76200000D03*
G04 #@! TO.P,U12,6*
G04 #@! TO.N,Net-(U12-Pad6)*
X86614000Y-86360000D03*
G04 #@! TO.P,U12,12*
G04 #@! TO.N,/PITCH27*
X78994000Y-78740000D03*
G04 #@! TO.P,U12,5*
G04 #@! TO.N,/FILTER*
X86614000Y-83820000D03*
G04 #@! TO.P,U12,11*
G04 #@! TO.N,-5V*
X78994000Y-81280000D03*
G04 #@! TO.P,U12,4*
G04 #@! TO.N,+5V*
X86614000Y-81280000D03*
G04 #@! TO.P,U12,10*
G04 #@! TO.N,/ALLMUX6*
X78994000Y-83820000D03*
G04 #@! TO.P,U12,3*
G04 #@! TO.N,/MIXER*
X86614000Y-78740000D03*
G04 #@! TO.P,U12,9*
G04 #@! TO.N,Net-(U12-Pad8)*
X78994000Y-86360000D03*
G04 #@! TO.P,U12,2*
G04 #@! TO.N,Net-(U12-Pad1)*
X86614000Y-76200000D03*
G04 #@! TO.P,U12,8*
G04 #@! TO.N,Net-(U12-Pad8)*
X78994000Y-88900000D03*
D10*
G04 #@! TO.P,U12,1*
G04 #@! TO.N,Net-(U12-Pad1)*
X86614000Y-73660000D03*
G04 #@! TD*
D11*
G04 #@! TO.P,U13,14*
G04 #@! TO.N,Net-(U13-Pad13)*
X52070000Y-101092000D03*
G04 #@! TO.P,U13,7*
G04 #@! TO.N,Net-(U13-Pad6)*
X59690000Y-116332000D03*
G04 #@! TO.P,U13,13*
G04 #@! TO.N,Net-(U13-Pad13)*
X52070000Y-103632000D03*
G04 #@! TO.P,U13,6*
G04 #@! TO.N,Net-(U13-Pad6)*
X59690000Y-113792000D03*
G04 #@! TO.P,U13,12*
G04 #@! TO.N,/LFO2*
X52070000Y-106172000D03*
G04 #@! TO.P,U13,5*
G04 #@! TO.N,/OSC2*
X59690000Y-111252000D03*
G04 #@! TO.P,U13,11*
G04 #@! TO.N,-5V*
X52070000Y-108712000D03*
G04 #@! TO.P,U13,4*
G04 #@! TO.N,+5V*
X59690000Y-108712000D03*
G04 #@! TO.P,U13,10*
G04 #@! TO.N,/LFO1*
X52070000Y-111252000D03*
G04 #@! TO.P,U13,3*
G04 #@! TO.N,/OSC1*
X59690000Y-106172000D03*
G04 #@! TO.P,U13,9*
G04 #@! TO.N,Net-(U13-Pad8)*
X52070000Y-113792000D03*
G04 #@! TO.P,U13,2*
G04 #@! TO.N,Net-(U13-Pad1)*
X59690000Y-103632000D03*
G04 #@! TO.P,U13,8*
G04 #@! TO.N,Net-(U13-Pad8)*
X52070000Y-116332000D03*
D10*
G04 #@! TO.P,U13,1*
G04 #@! TO.N,Net-(U13-Pad1)*
X59690000Y-101092000D03*
G04 #@! TD*
D11*
G04 #@! TO.P,U14,14*
G04 #@! TO.N,Net-(U14-Pad13)*
X78994000Y-101346000D03*
G04 #@! TO.P,U14,7*
G04 #@! TO.N,Net-(U14-Pad6)*
X86614000Y-116586000D03*
G04 #@! TO.P,U14,13*
G04 #@! TO.N,Net-(U14-Pad13)*
X78994000Y-103886000D03*
G04 #@! TO.P,U14,6*
G04 #@! TO.N,Net-(U14-Pad6)*
X86614000Y-114046000D03*
G04 #@! TO.P,U14,12*
G04 #@! TO.N,/PWMDAC4*
X78994000Y-106426000D03*
G04 #@! TO.P,U14,5*
G04 #@! TO.N,/FILTER*
X86614000Y-111506000D03*
G04 #@! TO.P,U14,11*
G04 #@! TO.N,-5V*
X78994000Y-108966000D03*
G04 #@! TO.P,U14,4*
G04 #@! TO.N,+5V*
X86614000Y-108966000D03*
G04 #@! TO.P,U14,10*
G04 #@! TO.N,/ALLMUX6*
X78994000Y-111506000D03*
G04 #@! TO.P,U14,3*
G04 #@! TO.N,/MIXER*
X86614000Y-106426000D03*
G04 #@! TO.P,U14,9*
G04 #@! TO.N,Net-(U14-Pad8)*
X78994000Y-114046000D03*
G04 #@! TO.P,U14,2*
G04 #@! TO.N,Net-(U14-Pad1)*
X86614000Y-103886000D03*
G04 #@! TO.P,U14,8*
G04 #@! TO.N,Net-(U14-Pad8)*
X78994000Y-116586000D03*
D10*
G04 #@! TO.P,U14,1*
G04 #@! TO.N,Net-(U14-Pad1)*
X86614000Y-101346000D03*
G04 #@! TD*
D11*
G04 #@! TO.P,U15,14*
G04 #@! TO.N,Net-(U15-Pad13)*
X106426000Y-73406000D03*
G04 #@! TO.P,U15,7*
G04 #@! TO.N,Net-(U15-Pad6)*
X114046000Y-88646000D03*
G04 #@! TO.P,U15,13*
G04 #@! TO.N,Net-(U15-Pad13)*
X106426000Y-75946000D03*
G04 #@! TO.P,U15,6*
G04 #@! TO.N,Net-(U15-Pad6)*
X114046000Y-86106000D03*
G04 #@! TO.P,U15,12*
G04 #@! TO.N,/LFO2*
X106426000Y-78486000D03*
G04 #@! TO.P,U15,5*
G04 #@! TO.N,/OSC2*
X114046000Y-83566000D03*
G04 #@! TO.P,U15,11*
G04 #@! TO.N,-5V*
X106426000Y-81026000D03*
G04 #@! TO.P,U15,4*
G04 #@! TO.N,+5V*
X114046000Y-81026000D03*
G04 #@! TO.P,U15,10*
G04 #@! TO.N,/LFO1*
X106426000Y-83566000D03*
G04 #@! TO.P,U15,3*
G04 #@! TO.N,/OSC1*
X114046000Y-78486000D03*
G04 #@! TO.P,U15,9*
G04 #@! TO.N,Net-(U15-Pad8)*
X106426000Y-86106000D03*
G04 #@! TO.P,U15,2*
G04 #@! TO.N,Net-(U15-Pad1)*
X114046000Y-75946000D03*
G04 #@! TO.P,U15,8*
G04 #@! TO.N,Net-(U15-Pad8)*
X106426000Y-88646000D03*
D10*
G04 #@! TO.P,U15,1*
G04 #@! TO.N,Net-(U15-Pad1)*
X114046000Y-73406000D03*
G04 #@! TD*
D11*
G04 #@! TO.P,U16,14*
G04 #@! TO.N,Net-(U16-Pad13)*
X133350000Y-72898000D03*
G04 #@! TO.P,U16,7*
G04 #@! TO.N,Net-(U16-Pad6)*
X140970000Y-88138000D03*
G04 #@! TO.P,U16,13*
G04 #@! TO.N,Net-(U16-Pad13)*
X133350000Y-75438000D03*
G04 #@! TO.P,U16,6*
G04 #@! TO.N,Net-(U16-Pad6)*
X140970000Y-85598000D03*
G04 #@! TO.P,U16,12*
G04 #@! TO.N,/PWMDAC2*
X133350000Y-77978000D03*
G04 #@! TO.P,U16,5*
G04 #@! TO.N,/FILTER*
X140970000Y-83058000D03*
G04 #@! TO.P,U16,11*
G04 #@! TO.N,-5V*
X133350000Y-80518000D03*
G04 #@! TO.P,U16,4*
G04 #@! TO.N,+5V*
X140970000Y-80518000D03*
G04 #@! TO.P,U16,10*
G04 #@! TO.N,/ALLMUX6*
X133350000Y-83058000D03*
G04 #@! TO.P,U16,3*
G04 #@! TO.N,/MIXER*
X140970000Y-77978000D03*
G04 #@! TO.P,U16,9*
G04 #@! TO.N,Net-(U16-Pad8)*
X133350000Y-85598000D03*
G04 #@! TO.P,U16,2*
G04 #@! TO.N,Net-(U16-Pad1)*
X140970000Y-75438000D03*
G04 #@! TO.P,U16,8*
G04 #@! TO.N,Net-(U16-Pad8)*
X133350000Y-88138000D03*
D10*
G04 #@! TO.P,U16,1*
G04 #@! TO.N,Net-(U16-Pad1)*
X140970000Y-72898000D03*
G04 #@! TD*
D11*
G04 #@! TO.P,U19,28*
G04 #@! TO.N,Net-(U19-Pad28)*
X92710000Y-101346000D03*
G04 #@! TO.P,U19,14*
G04 #@! TO.N,Net-(U19-Pad14)*
X100330000Y-134366000D03*
G04 #@! TO.P,U19,27*
G04 #@! TO.N,Net-(U19-Pad27)*
X92710000Y-103886000D03*
G04 #@! TO.P,U19,13*
G04 #@! TO.N,/SDA*
X100330000Y-131826000D03*
G04 #@! TO.P,U19,26*
G04 #@! TO.N,Net-(U19-Pad26)*
X92710000Y-106426000D03*
G04 #@! TO.P,U19,12*
G04 #@! TO.N,/SCL*
X100330000Y-129286000D03*
G04 #@! TO.P,U19,25*
G04 #@! TO.N,Net-(U19-Pad25)*
X92710000Y-108966000D03*
G04 #@! TO.P,U19,11*
G04 #@! TO.N,Net-(U19-Pad11)*
X100330000Y-126746000D03*
G04 #@! TO.P,U19,24*
G04 #@! TO.N,Net-(U19-Pad24)*
X92710000Y-111506000D03*
G04 #@! TO.P,U19,10*
G04 #@! TO.N,GND*
X100330000Y-124206000D03*
G04 #@! TO.P,U19,23*
G04 #@! TO.N,Net-(U19-Pad23)*
X92710000Y-114046000D03*
G04 #@! TO.P,U19,9*
G04 #@! TO.N,+5V*
X100330000Y-121666000D03*
G04 #@! TO.P,U19,22*
G04 #@! TO.N,Net-(U19-Pad22)*
X92710000Y-116586000D03*
G04 #@! TO.P,U19,8*
G04 #@! TO.N,Net-(U19-Pad8)*
X100330000Y-119126000D03*
G04 #@! TO.P,U19,21*
G04 #@! TO.N,Net-(U19-Pad21)*
X92710000Y-119126000D03*
G04 #@! TO.P,U19,7*
G04 #@! TO.N,Net-(U19-Pad7)*
X100330000Y-116586000D03*
G04 #@! TO.P,U19,20*
G04 #@! TO.N,Net-(U19-Pad20)*
X92710000Y-121666000D03*
G04 #@! TO.P,U19,6*
G04 #@! TO.N,Net-(U19-Pad6)*
X100330000Y-114046000D03*
G04 #@! TO.P,U19,19*
G04 #@! TO.N,Net-(U19-Pad19)*
X92710000Y-124206000D03*
G04 #@! TO.P,U19,5*
G04 #@! TO.N,Net-(U19-Pad5)*
X100330000Y-111506000D03*
G04 #@! TO.P,U19,18*
G04 #@! TO.N,/RESET*
X92710000Y-126746000D03*
G04 #@! TO.P,U19,4*
G04 #@! TO.N,Net-(U19-Pad4)*
X100330000Y-108966000D03*
G04 #@! TO.P,U19,17*
G04 #@! TO.N,GND*
X92710000Y-129286000D03*
G04 #@! TO.P,U19,3*
G04 #@! TO.N,Net-(U19-Pad3)*
X100330000Y-106426000D03*
G04 #@! TO.P,U19,16*
G04 #@! TO.N,+5V*
X92710000Y-131826000D03*
G04 #@! TO.P,U19,2*
G04 #@! TO.N,Net-(U19-Pad2)*
X100330000Y-103886000D03*
G04 #@! TO.P,U19,15*
G04 #@! TO.N,+5V*
X92710000Y-134366000D03*
D10*
G04 #@! TO.P,U19,1*
G04 #@! TO.N,Net-(U19-Pad1)*
X100330000Y-101346000D03*
G04 #@! TD*
D11*
G04 #@! TO.P,U21,16*
G04 #@! TO.N,+5V*
X119888000Y-146812000D03*
G04 #@! TO.P,U21,8*
G04 #@! TO.N,GND*
X127508000Y-129032000D03*
G04 #@! TO.P,U21,15*
G04 #@! TO.N,Net-(U1-Pad8)*
X119888000Y-144272000D03*
G04 #@! TO.P,U21,7*
G04 #@! TO.N,-5V*
X127508000Y-131572000D03*
G04 #@! TO.P,U21,14*
G04 #@! TO.N,Net-(U1-Pad6)*
X119888000Y-141732000D03*
G04 #@! TO.P,U21,6*
G04 #@! TO.N,Net-(U19-Pad5)*
X127508000Y-134112000D03*
G04 #@! TO.P,U21,13*
G04 #@! TO.N,Net-(U1-Pad1)*
X119888000Y-139192000D03*
G04 #@! TO.P,U21,5*
G04 #@! TO.N,Net-(U2-Pad6)*
X127508000Y-136652000D03*
G04 #@! TO.P,U21,12*
G04 #@! TO.N,Net-(U1-Pad13)*
X119888000Y-136652000D03*
G04 #@! TO.P,U21,4*
G04 #@! TO.N,Net-(U2-Pad13)*
X127508000Y-139192000D03*
G04 #@! TO.P,U21,11*
G04 #@! TO.N,Net-(U19-Pad6)*
X119888000Y-134112000D03*
G04 #@! TO.P,U21,3*
G04 #@! TO.N,/RATE1*
X127508000Y-141732000D03*
G04 #@! TO.P,U21,10*
G04 #@! TO.N,Net-(U19-Pad7)*
X119888000Y-131572000D03*
G04 #@! TO.P,U21,2*
G04 #@! TO.N,Net-(U2-Pad8)*
X127508000Y-144272000D03*
G04 #@! TO.P,U21,9*
G04 #@! TO.N,Net-(U19-Pad8)*
X119888000Y-129032000D03*
D10*
G04 #@! TO.P,U21,1*
G04 #@! TO.N,Net-(U2-Pad1)*
X127508000Y-146812000D03*
G04 #@! TD*
G04 #@! TO.P,U22,1*
G04 #@! TO.N,Net-(U22-Pad1)*
X73152000Y-63246000D03*
D11*
G04 #@! TO.P,U22,9*
G04 #@! TO.N,Net-(U20-Pad28)*
X65532000Y-45466000D03*
G04 #@! TO.P,U22,2*
G04 #@! TO.N,Net-(U22-Pad2)*
X73152000Y-60706000D03*
G04 #@! TO.P,U22,10*
G04 #@! TO.N,Net-(U20-Pad27)*
X65532000Y-48006000D03*
G04 #@! TO.P,U22,3*
G04 #@! TO.N,/PITCH1*
X73152000Y-58166000D03*
G04 #@! TO.P,U22,11*
G04 #@! TO.N,Net-(U20-Pad26)*
X65532000Y-50546000D03*
G04 #@! TO.P,U22,4*
G04 #@! TO.N,Net-(U22-Pad4)*
X73152000Y-55626000D03*
G04 #@! TO.P,U22,12*
G04 #@! TO.N,Net-(U22-Pad12)*
X65532000Y-53086000D03*
G04 #@! TO.P,U22,5*
G04 #@! TO.N,Net-(U22-Pad5)*
X73152000Y-53086000D03*
G04 #@! TO.P,U22,13*
G04 #@! TO.N,Net-(U22-Pad13)*
X65532000Y-55626000D03*
G04 #@! TO.P,U22,6*
G04 #@! TO.N,Net-(U20-Pad25)*
X73152000Y-50546000D03*
G04 #@! TO.P,U22,14*
G04 #@! TO.N,Net-(U22-Pad14)*
X65532000Y-58166000D03*
G04 #@! TO.P,U22,7*
G04 #@! TO.N,-5V*
X73152000Y-48006000D03*
G04 #@! TO.P,U22,15*
G04 #@! TO.N,Net-(U22-Pad15)*
X65532000Y-60706000D03*
G04 #@! TO.P,U22,8*
G04 #@! TO.N,GND*
X73152000Y-45466000D03*
G04 #@! TO.P,U22,16*
G04 #@! TO.N,+5V*
X65532000Y-63246000D03*
G04 #@! TD*
D10*
G04 #@! TO.P,U23,1*
G04 #@! TO.N,Net-(U23-Pad1)*
X127508000Y-118364000D03*
D11*
G04 #@! TO.P,U23,9*
G04 #@! TO.N,Net-(U19-Pad4)*
X119888000Y-100584000D03*
G04 #@! TO.P,U23,2*
G04 #@! TO.N,Net-(U23-Pad2)*
X127508000Y-115824000D03*
G04 #@! TO.P,U23,10*
G04 #@! TO.N,Net-(U19-Pad3)*
X119888000Y-103124000D03*
G04 #@! TO.P,U23,3*
G04 #@! TO.N,/PWM3*
X127508000Y-113284000D03*
G04 #@! TO.P,U23,11*
G04 #@! TO.N,Net-(U19-Pad2)*
X119888000Y-105664000D03*
G04 #@! TO.P,U23,4*
G04 #@! TO.N,Net-(U23-Pad4)*
X127508000Y-110744000D03*
G04 #@! TO.P,U23,12*
G04 #@! TO.N,Net-(U23-Pad12)*
X119888000Y-108204000D03*
G04 #@! TO.P,U23,5*
G04 #@! TO.N,Net-(U23-Pad5)*
X127508000Y-108204000D03*
G04 #@! TO.P,U23,13*
G04 #@! TO.N,Net-(U23-Pad13)*
X119888000Y-110744000D03*
G04 #@! TO.P,U23,6*
G04 #@! TO.N,Net-(U19-Pad1)*
X127508000Y-105664000D03*
G04 #@! TO.P,U23,14*
G04 #@! TO.N,Net-(U23-Pad14)*
X119888000Y-113284000D03*
G04 #@! TO.P,U23,7*
G04 #@! TO.N,GND*
X127508000Y-103124000D03*
G04 #@! TO.P,U23,15*
G04 #@! TO.N,Net-(U23-Pad15)*
X119888000Y-115824000D03*
G04 #@! TO.P,U23,8*
G04 #@! TO.N,-5V*
X127508000Y-100584000D03*
G04 #@! TO.P,U23,16*
G04 #@! TO.N,+5V*
X119888000Y-118364000D03*
G04 #@! TD*
D10*
G04 #@! TO.P,U25,1*
G04 #@! TO.N,Net-(U10-Pad1)*
X73152000Y-147574000D03*
D11*
G04 #@! TO.P,U25,9*
G04 #@! TO.N,Net-(U19-Pad24)*
X65532000Y-129794000D03*
G04 #@! TO.P,U25,2*
G04 #@! TO.N,Net-(U10-Pad8)*
X73152000Y-145034000D03*
G04 #@! TO.P,U25,10*
G04 #@! TO.N,Net-(U19-Pad23)*
X65532000Y-132334000D03*
G04 #@! TO.P,U25,3*
G04 #@! TO.N,/RATE2*
X73152000Y-142494000D03*
G04 #@! TO.P,U25,11*
G04 #@! TO.N,Net-(U19-Pad22)*
X65532000Y-134874000D03*
G04 #@! TO.P,U25,4*
G04 #@! TO.N,Net-(U10-Pad13)*
X73152000Y-139954000D03*
G04 #@! TO.P,U25,12*
G04 #@! TO.N,Net-(U25-Pad12)*
X65532000Y-137414000D03*
G04 #@! TO.P,U25,5*
G04 #@! TO.N,Net-(U10-Pad6)*
X73152000Y-137414000D03*
G04 #@! TO.P,U25,13*
G04 #@! TO.N,Net-(U25-Pad13)*
X65532000Y-139954000D03*
G04 #@! TO.P,U25,6*
G04 #@! TO.N,Net-(U19-Pad21)*
X73152000Y-134874000D03*
G04 #@! TO.P,U25,14*
G04 #@! TO.N,Net-(U25-Pad14)*
X65532000Y-142494000D03*
G04 #@! TO.P,U25,7*
G04 #@! TO.N,-5V*
X73152000Y-132334000D03*
G04 #@! TO.P,U25,15*
G04 #@! TO.N,Net-(U25-Pad15)*
X65532000Y-145034000D03*
G04 #@! TO.P,U25,8*
G04 #@! TO.N,GND*
X73152000Y-129794000D03*
G04 #@! TO.P,U25,16*
G04 #@! TO.N,+5V*
X65532000Y-147574000D03*
G04 #@! TD*
D10*
G04 #@! TO.P,U26,1*
G04 #@! TO.N,Net-(U12-Pad1)*
X73152000Y-91440000D03*
D11*
G04 #@! TO.P,U26,9*
G04 #@! TO.N,Net-(U20-Pad24)*
X65532000Y-73660000D03*
G04 #@! TO.P,U26,2*
G04 #@! TO.N,Net-(U12-Pad8)*
X73152000Y-88900000D03*
G04 #@! TO.P,U26,10*
G04 #@! TO.N,Net-(U20-Pad23)*
X65532000Y-76200000D03*
G04 #@! TO.P,U26,3*
G04 #@! TO.N,/PITCH2*
X73152000Y-86360000D03*
G04 #@! TO.P,U26,11*
G04 #@! TO.N,Net-(U20-Pad22)*
X65532000Y-78740000D03*
G04 #@! TO.P,U26,4*
G04 #@! TO.N,Net-(U12-Pad13)*
X73152000Y-83820000D03*
G04 #@! TO.P,U26,12*
G04 #@! TO.N,Net-(U11-Pad13)*
X65532000Y-81280000D03*
G04 #@! TO.P,U26,5*
G04 #@! TO.N,Net-(U12-Pad6)*
X73152000Y-81280000D03*
G04 #@! TO.P,U26,13*
G04 #@! TO.N,Net-(U11-Pad1)*
X65532000Y-83820000D03*
G04 #@! TO.P,U26,6*
G04 #@! TO.N,Net-(U20-Pad21)*
X73152000Y-78740000D03*
G04 #@! TO.P,U26,14*
G04 #@! TO.N,Net-(U11-Pad6)*
X65532000Y-86360000D03*
G04 #@! TO.P,U26,7*
G04 #@! TO.N,-5V*
X73152000Y-76200000D03*
G04 #@! TO.P,U26,15*
G04 #@! TO.N,Net-(U11-Pad8)*
X65532000Y-88900000D03*
G04 #@! TO.P,U26,8*
G04 #@! TO.N,GND*
X73152000Y-73660000D03*
G04 #@! TO.P,U26,16*
G04 #@! TO.N,+5V*
X65532000Y-91440000D03*
G04 #@! TD*
G04 #@! TO.P,U27,16*
G04 #@! TO.N,+5V*
X65532000Y-119126000D03*
G04 #@! TO.P,U27,8*
G04 #@! TO.N,-5V*
X73152000Y-101346000D03*
G04 #@! TO.P,U27,15*
G04 #@! TO.N,Net-(U13-Pad8)*
X65532000Y-116586000D03*
G04 #@! TO.P,U27,7*
G04 #@! TO.N,GND*
X73152000Y-103886000D03*
G04 #@! TO.P,U27,14*
G04 #@! TO.N,Net-(U13-Pad6)*
X65532000Y-114046000D03*
G04 #@! TO.P,U27,6*
G04 #@! TO.N,Net-(U19-Pad25)*
X73152000Y-106426000D03*
G04 #@! TO.P,U27,13*
G04 #@! TO.N,Net-(U13-Pad1)*
X65532000Y-111506000D03*
G04 #@! TO.P,U27,5*
G04 #@! TO.N,Net-(U14-Pad6)*
X73152000Y-108966000D03*
G04 #@! TO.P,U27,12*
G04 #@! TO.N,Net-(U13-Pad13)*
X65532000Y-108966000D03*
G04 #@! TO.P,U27,4*
G04 #@! TO.N,Net-(U14-Pad13)*
X73152000Y-111506000D03*
G04 #@! TO.P,U27,11*
G04 #@! TO.N,Net-(U19-Pad26)*
X65532000Y-106426000D03*
G04 #@! TO.P,U27,3*
G04 #@! TO.N,/PWM4*
X73152000Y-114046000D03*
G04 #@! TO.P,U27,10*
G04 #@! TO.N,Net-(U19-Pad27)*
X65532000Y-103886000D03*
G04 #@! TO.P,U27,2*
G04 #@! TO.N,Net-(U14-Pad8)*
X73152000Y-116586000D03*
G04 #@! TO.P,U27,9*
G04 #@! TO.N,Net-(U19-Pad28)*
X65532000Y-101346000D03*
D10*
G04 #@! TO.P,U27,1*
G04 #@! TO.N,Net-(U14-Pad1)*
X73152000Y-119126000D03*
G04 #@! TD*
D11*
G04 #@! TO.P,U28,16*
G04 #@! TO.N,+5V*
X119888000Y-90932000D03*
G04 #@! TO.P,U28,8*
G04 #@! TO.N,-5V*
X127508000Y-73152000D03*
G04 #@! TO.P,U28,15*
G04 #@! TO.N,Net-(U15-Pad8)*
X119888000Y-88392000D03*
G04 #@! TO.P,U28,7*
G04 #@! TO.N,GND*
X127508000Y-75692000D03*
G04 #@! TO.P,U28,14*
G04 #@! TO.N,Net-(U15-Pad6)*
X119888000Y-85852000D03*
G04 #@! TO.P,U28,6*
G04 #@! TO.N,Net-(U20-Pad5)*
X127508000Y-78232000D03*
G04 #@! TO.P,U28,13*
G04 #@! TO.N,Net-(U15-Pad1)*
X119888000Y-83312000D03*
G04 #@! TO.P,U28,5*
G04 #@! TO.N,Net-(U16-Pad6)*
X127508000Y-80772000D03*
G04 #@! TO.P,U28,12*
G04 #@! TO.N,Net-(U15-Pad13)*
X119888000Y-80772000D03*
G04 #@! TO.P,U28,4*
G04 #@! TO.N,Net-(U16-Pad13)*
X127508000Y-83312000D03*
G04 #@! TO.P,U28,11*
G04 #@! TO.N,Net-(U20-Pad6)*
X119888000Y-78232000D03*
G04 #@! TO.P,U28,3*
G04 #@! TO.N,/PWM2*
X127508000Y-85852000D03*
G04 #@! TO.P,U28,10*
G04 #@! TO.N,Net-(U20-Pad7)*
X119888000Y-75692000D03*
G04 #@! TO.P,U28,2*
G04 #@! TO.N,Net-(U16-Pad8)*
X127508000Y-88392000D03*
G04 #@! TO.P,U28,9*
G04 #@! TO.N,Net-(U20-Pad8)*
X119888000Y-73152000D03*
D10*
G04 #@! TO.P,U28,1*
G04 #@! TO.N,Net-(U16-Pad1)*
X127508000Y-90932000D03*
G04 #@! TD*
D12*
G04 #@! TO.P,J2,1*
G04 #@! TO.N,/OSC1*
X38608000Y-23368000D03*
D13*
G04 #@! TO.P,J2,2*
G04 #@! TO.N,/OSC2*
X38608000Y-25908000D03*
G04 #@! TO.P,J2,3*
G04 #@! TO.N,/LFO1*
X38608000Y-28448000D03*
G04 #@! TO.P,J2,4*
G04 #@! TO.N,/LFO2*
X38608000Y-30988000D03*
G04 #@! TO.P,J2,5*
G04 #@! TO.N,/MIXER*
X38608000Y-33528000D03*
G04 #@! TO.P,J2,6*
G04 #@! TO.N,/FILTER*
X38608000Y-36068000D03*
G04 #@! TO.P,J2,7*
G04 #@! TO.N,/ALLMUX6*
X38608000Y-38608000D03*
G04 #@! TO.P,J2,8*
G04 #@! TO.N,/PWMDAC2*
X38608000Y-41148000D03*
G04 #@! TO.P,J2,9*
G04 #@! TO.N,/PITCH27*
X38608000Y-43688000D03*
G04 #@! TO.P,J2,10*
G04 #@! TO.N,/PWMDAC1*
X38608000Y-46228000D03*
G04 #@! TO.P,J2,11*
G04 #@! TO.N,/PITCH17*
X38608000Y-48768000D03*
G04 #@! TO.P,J2,12*
G04 #@! TO.N,/PWMDAC4*
X38608000Y-51308000D03*
G04 #@! TO.P,J2,13*
G04 #@! TO.N,/RATE27*
X38608000Y-53848000D03*
G04 #@! TO.P,J2,14*
G04 #@! TO.N,/PWMDAC3*
X38608000Y-56388000D03*
G04 #@! TO.P,J2,15*
G04 #@! TO.N,/RATE17*
X38608000Y-58928000D03*
G04 #@! TD*
D12*
G04 #@! TO.P,J4,1*
G04 #@! TO.N,/SDA*
X103124000Y-151384000D03*
D13*
G04 #@! TO.P,J4,2*
G04 #@! TO.N,/SCL*
X100584000Y-151384000D03*
G04 #@! TO.P,J4,3*
G04 #@! TO.N,/RESET*
X98044000Y-151384000D03*
G04 #@! TO.P,J4,4*
G04 #@! TO.N,-5V*
X95504000Y-151384000D03*
G04 #@! TO.P,J4,5*
G04 #@! TO.N,GND*
X92964000Y-151384000D03*
G04 #@! TO.P,J4,6*
G04 #@! TO.N,+5V*
X90424000Y-151384000D03*
G04 #@! TD*
D12*
G04 #@! TO.P,J1,1*
G04 #@! TO.N,/1GPA0*
X23622000Y-88138000D03*
D13*
G04 #@! TO.P,J1,2*
G04 #@! TO.N,/1GPA1*
X23622000Y-85598000D03*
G04 #@! TO.P,J1,3*
G04 #@! TO.N,/1GPA2*
X23622000Y-83058000D03*
G04 #@! TO.P,J1,4*
G04 #@! TO.N,/1GPA3*
X23622000Y-80518000D03*
G04 #@! TO.P,J1,5*
G04 #@! TO.N,/1GPA4*
X23622000Y-77978000D03*
G04 #@! TO.P,J1,6*
G04 #@! TO.N,/1GPA5*
X23622000Y-75438000D03*
G04 #@! TO.P,J1,7*
G04 #@! TO.N,/1GPA6*
X23622000Y-72898000D03*
G04 #@! TO.P,J1,8*
G04 #@! TO.N,/1GPA7*
X23622000Y-70358000D03*
G04 #@! TO.P,J1,9*
G04 #@! TO.N,/1GPB7*
X23622000Y-67818000D03*
G04 #@! TO.P,J1,10*
G04 #@! TO.N,/1GPB6*
X23622000Y-65278000D03*
G04 #@! TO.P,J1,11*
G04 #@! TO.N,/1GPB5*
X23622000Y-62738000D03*
G04 #@! TO.P,J1,12*
G04 #@! TO.N,/1GPB4*
X23622000Y-60198000D03*
G04 #@! TO.P,J1,13*
G04 #@! TO.N,/1GPB3*
X23622000Y-57658000D03*
G04 #@! TO.P,J1,14*
G04 #@! TO.N,/1GPB2*
X23622000Y-55118000D03*
G04 #@! TO.P,J1,15*
G04 #@! TO.N,/1GPB1*
X23622000Y-52578000D03*
G04 #@! TO.P,J1,16*
G04 #@! TO.N,/1GPB0*
X23622000Y-50038000D03*
G04 #@! TD*
D12*
G04 #@! TO.P,J5,1*
G04 #@! TO.N,/2GPA7*
X35027484Y-147350110D03*
D13*
G04 #@! TO.P,J5,2*
G04 #@! TO.N,/2GPA6*
X35027484Y-144810110D03*
G04 #@! TO.P,J5,3*
G04 #@! TO.N,/2GPA5*
X35027484Y-142270110D03*
G04 #@! TO.P,J5,4*
G04 #@! TO.N,/2GPA4*
X35027484Y-139730110D03*
G04 #@! TO.P,J5,5*
G04 #@! TO.N,/2GPA3*
X35027484Y-137190110D03*
G04 #@! TO.P,J5,6*
G04 #@! TO.N,/2GPA2*
X35027484Y-134650110D03*
G04 #@! TO.P,J5,7*
G04 #@! TO.N,/2GPA1*
X35027484Y-132110110D03*
G04 #@! TO.P,J5,8*
G04 #@! TO.N,/2GPA0*
X35027484Y-129570110D03*
G04 #@! TO.P,J5,9*
G04 #@! TO.N,/2GPB0*
X35027484Y-127030110D03*
G04 #@! TO.P,J5,10*
G04 #@! TO.N,/2GPB1*
X35027484Y-124490110D03*
G04 #@! TO.P,J5,11*
G04 #@! TO.N,/2GPB2*
X35027484Y-121950110D03*
G04 #@! TO.P,J5,12*
G04 #@! TO.N,/2GPB3*
X35027484Y-119410110D03*
G04 #@! TO.P,J5,13*
G04 #@! TO.N,/2GPB4*
X35027484Y-116870110D03*
G04 #@! TO.P,J5,14*
G04 #@! TO.N,/2GPB5*
X35027484Y-114330110D03*
G04 #@! TO.P,J5,15*
G04 #@! TO.N,/2GPB6*
X35027484Y-111790110D03*
G04 #@! TO.P,J5,16*
G04 #@! TO.N,/2GPB7*
X35027484Y-109250110D03*
G04 #@! TD*
D12*
G04 #@! TO.P,J6,1*
G04 #@! TO.N,+5V*
X117094000Y-153162000D03*
D13*
G04 #@! TO.P,J6,2*
X117094000Y-155702000D03*
G04 #@! TO.P,J6,3*
X119634000Y-153162000D03*
G04 #@! TO.P,J6,4*
X119634000Y-155702000D03*
G04 #@! TO.P,J6,5*
X122174000Y-153162000D03*
G04 #@! TO.P,J6,6*
X122174000Y-155702000D03*
G04 #@! TO.P,J6,7*
X124714000Y-153162000D03*
G04 #@! TO.P,J6,8*
X124714000Y-155702000D03*
G04 #@! TO.P,J6,9*
G04 #@! TO.N,GND*
X127254000Y-153162000D03*
G04 #@! TO.P,J6,10*
X127254000Y-155702000D03*
G04 #@! TO.P,J6,11*
X129794000Y-153162000D03*
G04 #@! TO.P,J6,12*
X129794000Y-155702000D03*
G04 #@! TO.P,J6,13*
X132334000Y-153162000D03*
G04 #@! TO.P,J6,14*
X132334000Y-155702000D03*
G04 #@! TO.P,J6,15*
X134874000Y-153162000D03*
G04 #@! TO.P,J6,16*
X134874000Y-155702000D03*
G04 #@! TD*
D14*
G04 #@! TO.N,/LFO2*
X53848000Y-26416000D03*
X108204000Y-26416000D03*
G04 #@! TO.N,/OSC2*
X111506000Y-108458000D03*
X111506000Y-81026000D03*
X111506000Y-52324000D03*
X57150000Y-52578000D03*
X57150000Y-108712000D03*
X57150000Y-81280000D03*
X57150000Y-24384000D03*
X111506000Y-24384000D03*
G04 #@! TO.N,-5V*
X84074000Y-148844000D03*
X70612000Y-135890000D03*
X70104000Y-123444000D03*
X81534000Y-120396000D03*
X80518000Y-93980000D03*
X74422000Y-93980000D03*
X74676000Y-65278000D03*
X78740000Y-64516000D03*
X74930000Y-39116000D03*
X102870000Y-39624000D03*
X104394000Y-125222000D03*
X133350000Y-149352000D03*
X136144000Y-140970000D03*
X136144000Y-130048000D03*
X127508000Y-125730000D03*
X136144000Y-121158000D03*
X134366000Y-94234000D03*
X125730000Y-79502000D03*
X134874000Y-64516000D03*
X134874000Y-54356000D03*
X133096000Y-42672000D03*
X133096000Y-39116000D03*
X74676000Y-67564000D03*
G04 #@! TO.N,+5V*
X96012000Y-143764000D03*
X90424000Y-146812000D03*
X102108000Y-141732000D03*
X111252000Y-139700000D03*
X90424000Y-74676000D03*
X90424000Y-68072000D03*
X110490000Y-69342000D03*
X110490000Y-77470000D03*
X70104000Y-152146000D03*
X51562000Y-93980000D03*
X67818000Y-93472000D03*
X43180000Y-105664000D03*
G04 #@! TO.N,/LFO1*
X109220000Y-108204000D03*
X109220000Y-80772000D03*
X109220000Y-52324000D03*
X54864000Y-52578000D03*
X54864000Y-108458000D03*
X54864000Y-81026000D03*
X54864000Y-25400000D03*
X109220000Y-25400000D03*
G04 #@! TO.N,/OSC1*
X58166000Y-23368000D03*
X112522000Y-23368000D03*
G04 #@! TO.N,/MIXER*
X84836000Y-27432000D03*
X139192000Y-27432000D03*
G04 #@! TO.N,/ALLMUX6*
X82804000Y-29464000D03*
X82804000Y-115316000D03*
X82804000Y-87630000D03*
X82804000Y-59690000D03*
X137160000Y-59182000D03*
X137160000Y-86868000D03*
X137160000Y-114554000D03*
X137160000Y-29464000D03*
G04 #@! TO.N,/FILTER*
X138176000Y-52324000D03*
X83820000Y-52832000D03*
X83820000Y-108712000D03*
X83820000Y-81026000D03*
X83820000Y-28448000D03*
X138176000Y-107950000D03*
X138176000Y-80264000D03*
X138176000Y-28448000D03*
G04 #@! TO.N,/RATE17*
X130048000Y-37592000D03*
G04 #@! TO.N,/PITCH17*
X80518000Y-33528000D03*
G04 #@! TO.N,/PWMDAC3*
X131318000Y-36576000D03*
G04 #@! TO.N,/PWMDAC1*
X134874000Y-32512000D03*
G04 #@! TO.N,/RATE27*
X75946000Y-35560000D03*
G04 #@! TO.N,/PITCH27*
X81534000Y-31496000D03*
G04 #@! TO.N,/PWMDAC4*
X76962000Y-34544000D03*
G04 #@! TO.N,/PWMDAC2*
X136144000Y-30480000D03*
G04 #@! TO.N,/SDA*
X103124000Y-140462000D03*
X31496000Y-154686000D03*
X41656000Y-156718000D03*
G04 #@! TO.N,GND*
X73152000Y-66294000D03*
X85852000Y-64516000D03*
X71120000Y-115316000D03*
X71120000Y-107696000D03*
X67818000Y-54102000D03*
X67818000Y-40640000D03*
X73152000Y-38862000D03*
X134874000Y-150622000D03*
X129794000Y-150622000D03*
G04 #@! TO.N,/RESET*
X29972000Y-95504000D03*
X29972000Y-148590000D03*
X44450000Y-154178000D03*
G04 #@! TD*
D15*
G04 #@! TO.N,/LFO2*
X106571920Y-50146080D02*
X108204000Y-48514000D01*
X108204000Y-48514000D02*
X108204000Y-26416000D01*
X106571920Y-50319963D02*
X106571920Y-50146080D01*
X108204000Y-132334000D02*
X106426000Y-134112000D01*
X107225999Y-105118001D02*
X108204000Y-104140000D01*
X108204000Y-104140000D02*
X108204000Y-132334000D01*
X106426000Y-105918000D02*
X107225999Y-105118001D01*
X108204000Y-76708000D02*
X108204000Y-104140000D01*
X106426000Y-78486000D02*
X107225999Y-77686001D01*
X108204000Y-48514000D02*
X108204000Y-76708000D01*
X107225999Y-77686001D02*
X108204000Y-76708000D01*
X52215920Y-50573963D02*
X52215920Y-50400080D01*
X52215920Y-50400080D02*
X53848000Y-48768000D01*
X53848000Y-132588000D02*
X52070000Y-134366000D01*
X52869999Y-105372001D02*
X53848000Y-104394000D01*
X53848000Y-104394000D02*
X53848000Y-132588000D01*
X52070000Y-106172000D02*
X52869999Y-105372001D01*
X52869999Y-77940001D02*
X53848000Y-76962000D01*
X52070000Y-78740000D02*
X52869999Y-77940001D01*
X53848000Y-76962000D02*
X53848000Y-104394000D01*
X53848000Y-48768000D02*
X53848000Y-76962000D01*
X53848000Y-48768000D02*
X53848000Y-26416000D01*
G04 #@! TO.N,/OSC2*
X111506000Y-136652000D02*
X114046000Y-139192000D01*
X111506000Y-81026000D02*
X111506000Y-108458000D01*
X111506000Y-52324000D02*
X111506000Y-81026000D01*
X111506000Y-108458000D02*
X111506000Y-136652000D01*
X57150000Y-52578000D02*
X57150000Y-24384000D01*
X57150000Y-136906000D02*
X59690000Y-139446000D01*
X57150000Y-52578000D02*
X57150000Y-81280000D01*
X57150000Y-108712000D02*
X57150000Y-136906000D01*
X57150000Y-81280000D02*
X57150000Y-108712000D01*
X111506000Y-52324000D02*
X111506000Y-24384000D01*
D16*
G04 #@! TO.N,-5V*
X84074000Y-148844000D02*
X78232000Y-148844000D01*
X78232000Y-148844000D02*
X76962000Y-147574000D01*
X76962000Y-139446000D02*
X78994000Y-137414000D01*
X76962000Y-147574000D02*
X76962000Y-139446000D01*
X73152000Y-132334000D02*
X72352001Y-133133999D01*
X72352001Y-133133999D02*
X70612000Y-134874000D01*
X70612000Y-134874000D02*
X70612000Y-135890000D01*
X70612000Y-123952000D02*
X70104000Y-123444000D01*
X70612000Y-134874000D02*
X70612000Y-123952000D01*
X81534000Y-111506000D02*
X78994000Y-108966000D01*
X81534000Y-120396000D02*
X81534000Y-111506000D01*
X81534000Y-111506000D02*
X81534000Y-94996000D01*
X81534000Y-94996000D02*
X80518000Y-93980000D01*
X73152000Y-101346000D02*
X73152000Y-95250000D01*
X73152000Y-95250000D02*
X74422000Y-93980000D01*
X81534000Y-83820000D02*
X78994000Y-81280000D01*
X81534000Y-94996000D02*
X81534000Y-83820000D01*
X73152000Y-76200000D02*
X75184000Y-74168000D01*
X78740000Y-64516000D02*
X80518000Y-62738000D01*
X80518000Y-54746043D02*
X78885920Y-53113963D01*
X80518000Y-62738000D02*
X80518000Y-54746043D01*
X102870000Y-39624000D02*
X102870000Y-56134000D01*
X74930000Y-46228000D02*
X73152000Y-48006000D01*
X74930000Y-39116000D02*
X74930000Y-46228000D01*
X102870000Y-123698000D02*
X104394000Y-125222000D01*
X106426000Y-108458000D02*
X102870000Y-112014000D01*
X102870000Y-112014000D02*
X102870000Y-123698000D01*
X102870000Y-84582000D02*
X102870000Y-85598000D01*
X106426000Y-81026000D02*
X102870000Y-84582000D01*
X102870000Y-85598000D02*
X102870000Y-112014000D01*
X102870000Y-56134000D02*
X102870000Y-85598000D01*
X106426000Y-52578000D02*
X102870000Y-56134000D01*
X133350000Y-149352000D02*
X134112000Y-149352000D01*
X134112000Y-149352000D02*
X136144000Y-147320000D01*
X136144000Y-147320000D02*
X136144000Y-140970000D01*
X136144000Y-130048000D02*
X136144000Y-121158000D01*
X127508000Y-131572000D02*
X126708001Y-130772001D01*
X126708001Y-130772001D02*
X125476000Y-129540000D01*
X125476000Y-129540000D02*
X125476000Y-127762000D01*
X125476000Y-127762000D02*
X127508000Y-125730000D01*
X136144000Y-121158000D02*
X136144000Y-120904000D01*
X136144000Y-110998000D02*
X133350000Y-108204000D01*
X136144000Y-121158000D02*
X136144000Y-110998000D01*
X136144000Y-110998000D02*
X136144000Y-96012000D01*
X136144000Y-96012000D02*
X134366000Y-94234000D01*
X136144000Y-83312000D02*
X133350000Y-80518000D01*
X136144000Y-96012000D02*
X136144000Y-83312000D01*
X125730000Y-74930000D02*
X127508000Y-73152000D01*
X125730000Y-79502000D02*
X125730000Y-74930000D01*
X134874000Y-64516000D02*
X134874000Y-54356000D01*
X134874000Y-54356000D02*
X133096000Y-52578000D01*
X133096000Y-42672000D02*
X133096000Y-39116000D01*
X75184000Y-74168000D02*
X75184000Y-71628000D01*
X75184000Y-71628000D02*
X74676000Y-71120000D01*
X74676000Y-71120000D02*
X74676000Y-65278000D01*
G04 #@! TO.N,+5V*
X90424000Y-112776000D02*
X86614000Y-108966000D01*
X114046000Y-52578000D02*
X117094000Y-55626000D01*
X117094000Y-59944000D02*
X119888000Y-62738000D01*
X117094000Y-55626000D02*
X117094000Y-59944000D01*
X59690000Y-108712000D02*
X62738000Y-111760000D01*
X62738000Y-116332000D02*
X65532000Y-119126000D01*
X62738000Y-111760000D02*
X62738000Y-116332000D01*
X59690000Y-81280000D02*
X62230000Y-83820000D01*
X62230000Y-88138000D02*
X65532000Y-91440000D01*
X62230000Y-83820000D02*
X62230000Y-88138000D01*
X62738000Y-60452000D02*
X65532000Y-63246000D01*
X119634000Y-155702000D02*
X119634000Y-153162000D01*
X124714000Y-155702000D02*
X124714000Y-153162000D01*
X90424000Y-141224000D02*
X86614000Y-137414000D01*
X90424000Y-151384000D02*
X90424000Y-146812000D01*
X92710000Y-134366000D02*
X90424000Y-136652000D01*
X90424000Y-146812000D02*
X90424000Y-136652000D01*
X91910001Y-132625999D02*
X90424000Y-134112000D01*
X90424000Y-134112000D02*
X90424000Y-112776000D01*
X92710000Y-131826000D02*
X91910001Y-132625999D01*
X90424000Y-136652000D02*
X90424000Y-134112000D01*
X100076000Y-143764000D02*
X96012000Y-143764000D01*
X90424000Y-146812000D02*
X90424000Y-141224000D01*
X100076000Y-143764000D02*
X102108000Y-141732000D01*
X122174000Y-149098000D02*
X119888000Y-146812000D01*
X122174000Y-153162000D02*
X122174000Y-149098000D01*
X117094000Y-151804000D02*
X111252000Y-145962000D01*
X117094000Y-153162000D02*
X117094000Y-151804000D01*
X111252000Y-145962000D02*
X111252000Y-139700000D01*
X122174000Y-120650000D02*
X119888000Y-118364000D01*
X122174000Y-149098000D02*
X122174000Y-120650000D01*
X122174000Y-93218000D02*
X119888000Y-90932000D01*
X122174000Y-120650000D02*
X122174000Y-93218000D01*
X122174000Y-65024000D02*
X119888000Y-62738000D01*
X122174000Y-93218000D02*
X122174000Y-65024000D01*
X140716000Y-52578000D02*
X144526000Y-56388000D01*
X144526000Y-150368000D02*
X136652000Y-158242000D01*
X127254000Y-158242000D02*
X124714000Y-155702000D01*
X136652000Y-158242000D02*
X127254000Y-158242000D01*
X124714000Y-158242000D02*
X122174000Y-155702000D01*
X127254000Y-158242000D02*
X124714000Y-158242000D01*
X122174000Y-158242000D02*
X119634000Y-155702000D01*
X124714000Y-158242000D02*
X122174000Y-158242000D01*
X119634000Y-158242000D02*
X117094000Y-155702000D01*
X122174000Y-158242000D02*
X119634000Y-158242000D01*
X144526000Y-140970000D02*
X144526000Y-150368000D01*
X144526000Y-140208000D02*
X144526000Y-140970000D01*
X140970000Y-136652000D02*
X144526000Y-140208000D01*
X142101370Y-108204000D02*
X144526000Y-110628630D01*
X140970000Y-108204000D02*
X142101370Y-108204000D01*
X144526000Y-110628630D02*
X144526000Y-111506000D01*
X144526000Y-111506000D02*
X144526000Y-140970000D01*
X141769999Y-81317999D02*
X144526000Y-84074000D01*
X140970000Y-80518000D02*
X141769999Y-81317999D01*
X144526000Y-84074000D02*
X144526000Y-111506000D01*
X144526000Y-56388000D02*
X144526000Y-84074000D01*
X90424000Y-85090000D02*
X86614000Y-81280000D01*
X90424000Y-112776000D02*
X90424000Y-85090000D01*
X90424000Y-77978000D02*
X92710000Y-75692000D01*
X90424000Y-85090000D02*
X90424000Y-77978000D01*
X90424000Y-77978000D02*
X90424000Y-74676000D01*
X90424000Y-57032043D02*
X86505920Y-53113963D01*
X90424000Y-68072000D02*
X90424000Y-57032043D01*
X114046000Y-81026000D02*
X114845999Y-81825999D01*
X114845999Y-81825999D02*
X116840000Y-83820000D01*
X116840000Y-87884000D02*
X116840000Y-83820000D01*
X119888000Y-90932000D02*
X116840000Y-87884000D01*
X116840000Y-115316000D02*
X119888000Y-118364000D01*
X116840000Y-111252000D02*
X116840000Y-115316000D01*
X114046000Y-108458000D02*
X116840000Y-111252000D01*
X110490000Y-69342000D02*
X110490000Y-77470000D01*
X65532000Y-147574000D02*
X62484000Y-144526000D01*
X62484000Y-139700000D02*
X59690000Y-136906000D01*
X62484000Y-144526000D02*
X62484000Y-139700000D01*
X65532000Y-147574000D02*
X66331999Y-148373999D01*
X67818000Y-121412000D02*
X65532000Y-119126000D01*
X67818000Y-149860000D02*
X67818000Y-121412000D01*
X66331999Y-148373999D02*
X67818000Y-149860000D01*
X67818000Y-149860000D02*
X70104000Y-152146000D01*
X67818000Y-93726000D02*
X67818000Y-93472000D01*
X67818000Y-121412000D02*
X67818000Y-93726000D01*
X67818000Y-65532000D02*
X65532000Y-63246000D01*
X67818000Y-93726000D02*
X67818000Y-65532000D01*
X62738000Y-56016043D02*
X59835920Y-53113963D01*
X62738000Y-60452000D02*
X62738000Y-56016043D01*
X46067171Y-93175907D02*
X46867170Y-93975906D01*
X42515265Y-89624001D02*
X46067171Y-93175907D01*
X36359999Y-89624001D02*
X42515265Y-89624001D01*
X35560000Y-90424000D02*
X36359999Y-89624001D01*
X47998540Y-93975906D02*
X48002634Y-93980000D01*
X46867170Y-93975906D02*
X47998540Y-93975906D01*
X48002634Y-93980000D02*
X51562000Y-93980000D01*
X67818000Y-93472000D02*
X65532000Y-91440000D01*
X40378540Y-106675906D02*
X40382634Y-106680000D01*
X39247170Y-106675906D02*
X40378540Y-106675906D01*
X40382634Y-106680000D02*
X42164000Y-106680000D01*
X42164000Y-106680000D02*
X43180000Y-105664000D01*
D15*
G04 #@! TO.N,/LFO1*
X109220000Y-52324000D02*
X109220000Y-80772000D01*
X109220000Y-136398000D02*
X106426000Y-139192000D01*
X109220000Y-108204000D02*
X109220000Y-136398000D01*
X109220000Y-80772000D02*
X109220000Y-108204000D01*
X54864000Y-52578000D02*
X54864000Y-25400000D01*
X54864000Y-136652000D02*
X52070000Y-139446000D01*
X54864000Y-52578000D02*
X54864000Y-81026000D01*
X54864000Y-108458000D02*
X54864000Y-136652000D01*
X54864000Y-81026000D02*
X54864000Y-108458000D01*
X109220000Y-52324000D02*
X109220000Y-25400000D01*
G04 #@! TO.N,/OSC1*
X114191920Y-50183920D02*
X112522000Y-48514000D01*
X112522000Y-132588000D02*
X114046000Y-134112000D01*
X112522000Y-76962000D02*
X112522000Y-104394000D01*
X113246001Y-77686001D02*
X112522000Y-76962000D01*
X112522000Y-48514000D02*
X112522000Y-76962000D01*
X114046000Y-78486000D02*
X113246001Y-77686001D01*
X113246001Y-105118001D02*
X112522000Y-104394000D01*
X114046000Y-105918000D02*
X113246001Y-105118001D01*
X112522000Y-104394000D02*
X112522000Y-132588000D01*
X114191920Y-50319963D02*
X114191920Y-50183920D01*
X112522000Y-48514000D02*
X112522000Y-23368000D01*
X59835920Y-50573963D02*
X59835920Y-50437920D01*
X59835920Y-50437920D02*
X58166000Y-48768000D01*
X58166000Y-48768000D02*
X58166000Y-23368000D01*
X58166000Y-132842000D02*
X59690000Y-134366000D01*
X59690000Y-106172000D02*
X58890001Y-105372001D01*
X58166000Y-104648000D02*
X58166000Y-132842000D01*
X58890001Y-105372001D02*
X58166000Y-104648000D01*
X58890001Y-77940001D02*
X58166000Y-77216000D01*
X58166000Y-77216000D02*
X58166000Y-104648000D01*
X59690000Y-78740000D02*
X58890001Y-77940001D01*
X58166000Y-48768000D02*
X58166000Y-77216000D01*
G04 #@! TO.N,/MIXER*
X140861920Y-50319963D02*
X140861920Y-50183920D01*
X140861920Y-50183920D02*
X139192000Y-48514000D01*
X86505920Y-50691920D02*
X84836000Y-49022000D01*
X86505920Y-50827963D02*
X86505920Y-50691920D01*
X84836000Y-49022000D02*
X84836000Y-27432000D01*
X84836000Y-133096000D02*
X86614000Y-134874000D01*
X86614000Y-106426000D02*
X85814001Y-105626001D01*
X84836000Y-104648000D02*
X84836000Y-133096000D01*
X85814001Y-105626001D02*
X84836000Y-104648000D01*
X85814001Y-77940001D02*
X84836000Y-76962000D01*
X86614000Y-78740000D02*
X85814001Y-77940001D01*
X84836000Y-76962000D02*
X84836000Y-104648000D01*
X84836000Y-49022000D02*
X84836000Y-76962000D01*
X139192000Y-132334000D02*
X140970000Y-134112000D01*
X139192000Y-103886000D02*
X139192000Y-103632000D01*
X140970000Y-105664000D02*
X139192000Y-103886000D01*
X139192000Y-103632000D02*
X139192000Y-132334000D01*
X140970000Y-77978000D02*
X140170001Y-77178001D01*
X140170001Y-77178001D02*
X139192000Y-76200000D01*
X139192000Y-76200000D02*
X139192000Y-103632000D01*
X139192000Y-48514000D02*
X139192000Y-76200000D01*
X139192000Y-48514000D02*
X139192000Y-27432000D01*
G04 #@! TO.N,/ALLMUX6*
X137160000Y-86868000D02*
X137160000Y-114554000D01*
X137160000Y-59182000D02*
X137160000Y-86868000D01*
X82804000Y-136144000D02*
X78994000Y-139954000D01*
X82804000Y-29464000D02*
X82804000Y-59690000D01*
X82804000Y-115316000D02*
X82804000Y-136144000D01*
X82804000Y-87630000D02*
X82804000Y-115316000D01*
X82804000Y-59690000D02*
X82804000Y-87630000D01*
X137160000Y-135382000D02*
X133350000Y-139192000D01*
X137160000Y-114554000D02*
X137160000Y-135382000D01*
X137160000Y-59182000D02*
X137160000Y-29464000D01*
G04 #@! TO.N,/FILTER*
X83820000Y-137160000D02*
X86614000Y-139954000D01*
X83820000Y-52832000D02*
X83820000Y-81026000D01*
X83820000Y-108712000D02*
X83820000Y-137160000D01*
X83820000Y-81026000D02*
X83820000Y-108712000D01*
X83820000Y-52832000D02*
X83820000Y-28448000D01*
X138176000Y-136398000D02*
X140970000Y-139192000D01*
X138176000Y-52324000D02*
X138176000Y-80264000D01*
X138176000Y-107950000D02*
X138176000Y-136398000D01*
X138176000Y-80264000D02*
X138176000Y-107950000D01*
X138176000Y-52324000D02*
X138176000Y-28448000D01*
G04 #@! TO.N,/RATE17*
X130048000Y-130810000D02*
X130048000Y-37592000D01*
X133350000Y-134112000D02*
X130048000Y-130810000D01*
G04 #@! TO.N,/PITCH17*
X78885920Y-50654080D02*
X80518000Y-49022000D01*
X78885920Y-50827963D02*
X78885920Y-50654080D01*
X80518000Y-49022000D02*
X80518000Y-33528000D01*
G04 #@! TO.N,/PWMDAC3*
X131318000Y-103632000D02*
X131318000Y-36576000D01*
X133350000Y-105664000D02*
X131318000Y-103632000D01*
G04 #@! TO.N,/PWMDAC1*
X134874000Y-48514000D02*
X134874000Y-32512000D01*
X133241920Y-50146080D02*
X134874000Y-48514000D01*
X133241920Y-50319963D02*
X133241920Y-50146080D01*
G04 #@! TO.N,/RATE27*
X75946000Y-131826000D02*
X75946000Y-35560000D01*
X78994000Y-134874000D02*
X75946000Y-131826000D01*
G04 #@! TO.N,/PITCH27*
X81433942Y-76300058D02*
X79793999Y-77940001D01*
X79793999Y-77940001D02*
X78994000Y-78740000D01*
X81534000Y-31496000D02*
X81433942Y-76300058D01*
G04 #@! TO.N,/PWMDAC4*
X78194001Y-105626001D02*
X76962000Y-104394000D01*
X78994000Y-106426000D02*
X78194001Y-105626001D01*
X76962000Y-104394000D02*
X76962000Y-34544000D01*
G04 #@! TO.N,/PWMDAC2*
X133350000Y-77978000D02*
X134149999Y-77178001D01*
X134149999Y-77178001D02*
X136144000Y-75184000D01*
X136144000Y-75184000D02*
X136144000Y-30480000D01*
G04 #@! TO.N,/2GPA7*
X42260966Y-147350110D02*
X35027484Y-147350110D01*
X46867170Y-142743906D02*
X42260966Y-147350110D01*
X46867170Y-126995906D02*
X46867170Y-142743906D01*
G04 #@! TO.N,/2GPA6*
X42514966Y-144810110D02*
X35027484Y-144810110D01*
D17*
X45089170Y-126233906D02*
X45089170Y-141981906D01*
D15*
X45089170Y-141981906D02*
X42514966Y-144810110D01*
D17*
X46867170Y-124455906D02*
X45089170Y-126233906D01*
D15*
G04 #@! TO.N,/SDA*
X98552000Y-133604000D02*
X100330000Y-131826000D01*
X98552000Y-135890000D02*
X98552000Y-133604000D01*
X98552000Y-77470000D02*
X100076000Y-75946000D01*
X98552000Y-133604000D02*
X98552000Y-77470000D01*
X103124000Y-140462000D02*
X98552000Y-135890000D01*
X33020000Y-156210000D02*
X31496000Y-154686000D01*
X33020000Y-156210000D02*
X33528000Y-156718000D01*
X41656000Y-156718000D02*
X33528000Y-156718000D01*
X103124000Y-152615000D02*
X103124000Y-151384000D01*
X99021000Y-156718000D02*
X103124000Y-152615000D01*
X98298000Y-156718000D02*
X99021000Y-156718000D01*
X98298000Y-156718000D02*
X41656000Y-156718000D01*
G04 #@! TO.N,/2GPA5*
X42768966Y-142270110D02*
X35027484Y-142270110D01*
D17*
X44581170Y-139949906D02*
X42768966Y-142270110D01*
X44581170Y-122677906D02*
X44581170Y-139949906D01*
X45735800Y-121915906D02*
X44581170Y-122677906D01*
D15*
X46867170Y-121915906D02*
X45735800Y-121915906D01*
G04 #@! TO.N,/SCL*
X96520000Y-155448000D02*
X100584000Y-151384000D01*
X35560000Y-155448000D02*
X96520000Y-155448000D01*
X32004000Y-101600000D02*
X32004000Y-102616000D01*
X29181499Y-149069499D02*
X35560000Y-155448000D01*
X29181499Y-105438501D02*
X29181499Y-149069499D01*
X32004000Y-102616000D02*
X29181499Y-105438501D01*
X35560000Y-98044000D02*
X32004000Y-101600000D01*
X38235264Y-98044000D02*
X39247170Y-99055906D01*
X35560000Y-98044000D02*
X38235264Y-98044000D01*
G04 #@! TO.N,/2GPA4*
X41752966Y-139730110D02*
X35027484Y-139730110D01*
D17*
X44073170Y-137409906D02*
X41752966Y-139730110D01*
X44073170Y-120645906D02*
X44073170Y-137409906D01*
D15*
X45343170Y-119375906D02*
X44073170Y-120645906D01*
X46867170Y-119375906D02*
X45343170Y-119375906D01*
G04 #@! TO.N,/2GPA3*
X43311170Y-118105906D02*
X44581170Y-116835906D01*
X43311170Y-134869906D02*
X43311170Y-118105906D01*
X44581170Y-116835906D02*
X46867170Y-116835906D01*
X40990966Y-137190110D02*
X43311170Y-134869906D01*
X35027484Y-137190110D02*
X40990966Y-137190110D01*
D16*
G04 #@! TO.N,GND*
X92964000Y-138430000D02*
X95250000Y-136144000D01*
X92964000Y-151384000D02*
X92964000Y-138430000D01*
X92964000Y-151384000D02*
X98552000Y-145796000D01*
X98552000Y-145796000D02*
X101854000Y-145796000D01*
X101854000Y-145796000D02*
X104394000Y-143256000D01*
X104394000Y-128270000D02*
X100330000Y-124206000D01*
X104394000Y-143256000D02*
X104394000Y-128270000D01*
X27940000Y-103124000D02*
X27940000Y-98044000D01*
X30480000Y-98044000D02*
X35560000Y-92964000D01*
X27940000Y-98044000D02*
X30480000Y-98044000D01*
X95250000Y-73152000D02*
X100330000Y-68072000D01*
X92710000Y-73152000D02*
X95250000Y-73152000D01*
X95250000Y-75692000D02*
X95250000Y-73152000D01*
X92710000Y-78232000D02*
X95250000Y-75692000D01*
X95250000Y-75692000D02*
X95250000Y-136144000D01*
X95250000Y-131826000D02*
X92710000Y-129286000D01*
X73152000Y-73660000D02*
X73152000Y-66294000D01*
X73152000Y-129794000D02*
X73152000Y-124714000D01*
X73152000Y-124714000D02*
X71120000Y-122682000D01*
X71120000Y-122682000D02*
X71120000Y-115316000D01*
X71120000Y-105918000D02*
X73152000Y-103886000D01*
X71120000Y-107696000D02*
X71120000Y-105918000D01*
X67818000Y-54102000D02*
X67818000Y-40640000D01*
X73152000Y-38862000D02*
X73152000Y-45466000D01*
X41787170Y-104135906D02*
X39247170Y-104135906D01*
X46867170Y-99055906D02*
X41787170Y-104135906D01*
X37846000Y-90678000D02*
X35560000Y-92964000D01*
X41402000Y-90678000D02*
X37846000Y-90678000D01*
X42672000Y-91948000D02*
X41402000Y-90678000D01*
X42672000Y-94860736D02*
X42672000Y-91948000D01*
X46867170Y-99055906D02*
X42672000Y-94860736D01*
X127254000Y-155702000D02*
X134874000Y-155702000D01*
X134874000Y-153162000D02*
X127254000Y-153162000D01*
X129794000Y-153162000D02*
X129794000Y-155702000D01*
X134874000Y-155702000D02*
X134874000Y-153162000D01*
X129794000Y-153162000D02*
X129794000Y-150622000D01*
X134874000Y-150622000D02*
X134874000Y-153162000D01*
X88646000Y-69088000D02*
X92710000Y-73152000D01*
X88646000Y-67310000D02*
X88646000Y-69088000D01*
X85852000Y-64516000D02*
X88646000Y-67310000D01*
X90932000Y-153416000D02*
X81026000Y-153416000D01*
X92964000Y-151384000D02*
X90678000Y-153416000D01*
X49276000Y-101464736D02*
X46867170Y-99055906D01*
X49276000Y-147320000D02*
X49276000Y-101464736D01*
X55372000Y-153416000D02*
X49276000Y-147320000D01*
X81280000Y-153416000D02*
X55372000Y-153416000D01*
X75184000Y-147574000D02*
X81280000Y-153416000D01*
X75184000Y-130694630D02*
X75184000Y-147574000D01*
X74283370Y-129794000D02*
X75184000Y-130694630D01*
X73152000Y-129794000D02*
X74283370Y-129794000D01*
D15*
G04 #@! TO.N,/2GPA2*
X40482966Y-134650110D02*
X35027484Y-134650110D01*
X42549170Y-115311906D02*
X42549170Y-132583906D01*
X43565170Y-114295906D02*
X42549170Y-115311906D01*
X42549170Y-132583906D02*
X40482966Y-134650110D01*
X46867170Y-114295906D02*
X43565170Y-114295906D01*
G04 #@! TO.N,/2GPA1*
X35027484Y-132110110D02*
X39974966Y-132110110D01*
X39974966Y-132110110D02*
X41787170Y-130297906D01*
X41787170Y-130297906D02*
X41787170Y-113025906D01*
X41787170Y-113025906D02*
X43057170Y-111755906D01*
X43057170Y-111755906D02*
X46867170Y-111755906D01*
G04 #@! TO.N,/2GPB7*
X35061688Y-109215906D02*
X35027484Y-109250110D01*
X39247170Y-109215906D02*
X35061688Y-109215906D01*
G04 #@! TO.N,/2GPA0*
X39974966Y-129570110D02*
X35027484Y-129570110D01*
X41025170Y-128519906D02*
X39974966Y-129570110D01*
X41025170Y-110485906D02*
X41025170Y-128519906D01*
X42295170Y-109215906D02*
X41025170Y-110485906D01*
X46867170Y-109215906D02*
X42295170Y-109215906D01*
G04 #@! TO.N,/2GPB6*
X35061688Y-111755906D02*
X35027484Y-111790110D01*
X39247170Y-111755906D02*
X35061688Y-111755906D01*
G04 #@! TO.N,/2GPB5*
X35061688Y-114295906D02*
X35027484Y-114330110D01*
X39247170Y-114295906D02*
X35061688Y-114295906D01*
G04 #@! TO.N,/2GPB4*
X35061688Y-116835906D02*
X35027484Y-116870110D01*
X39247170Y-116835906D02*
X35061688Y-116835906D01*
G04 #@! TO.N,/RESET*
X29972000Y-95504000D02*
X27940000Y-95504000D01*
X44450000Y-154178000D02*
X35560000Y-154178000D01*
X35560000Y-154178000D02*
X29972000Y-148590000D01*
X94742000Y-154178000D02*
X98044000Y-151384000D01*
X44450000Y-154178000D02*
X94742000Y-154178000D01*
G04 #@! TO.N,/2GPB3*
X35061688Y-119375906D02*
X35027484Y-119410110D01*
X39247170Y-119375906D02*
X35061688Y-119375906D01*
G04 #@! TO.N,/2GPB2*
X35061688Y-121915906D02*
X35027484Y-121950110D01*
X39247170Y-121915906D02*
X35061688Y-121915906D01*
G04 #@! TO.N,/2GPB1*
X35061688Y-124455906D02*
X35027484Y-124490110D01*
X39247170Y-124455906D02*
X35061688Y-124455906D01*
G04 #@! TO.N,/2GPB0*
X35061688Y-126995906D02*
X35027484Y-127030110D01*
X39247170Y-126995906D02*
X35061688Y-126995906D01*
G04 #@! TO.N,/1GPB0*
X35560000Y-69054000D02*
X35814000Y-68800000D01*
X35560000Y-70104000D02*
X35560000Y-69054000D01*
X35814000Y-68800000D02*
X35814000Y-58420000D01*
X27466204Y-50072204D02*
X23720314Y-50072204D01*
X35814000Y-58420000D02*
X27466204Y-50072204D01*
G04 #@! TO.N,/1GPB1*
X34290000Y-60198000D02*
X26704204Y-52612204D01*
X26704204Y-52612204D02*
X23720314Y-52612204D01*
X34290000Y-72136000D02*
X34290000Y-60198000D01*
X34798000Y-72644000D02*
X34290000Y-72136000D01*
X35560000Y-72644000D02*
X34798000Y-72644000D01*
G04 #@! TO.N,/1GPB2*
X35560000Y-75184000D02*
X34290000Y-75184000D01*
X34290000Y-75184000D02*
X33528000Y-74422000D01*
X33528000Y-74422000D02*
X33528000Y-62484000D01*
X26196204Y-55152204D02*
X23720314Y-55152204D01*
X33528000Y-62484000D02*
X26196204Y-55152204D01*
G04 #@! TO.N,/1GPB3*
X26958204Y-57692204D02*
X23720314Y-57692204D01*
X32766000Y-63500000D02*
X26958204Y-57692204D01*
X32766000Y-76708000D02*
X32766000Y-63500000D01*
X33782000Y-77724000D02*
X32766000Y-76708000D01*
X35560000Y-77724000D02*
X33782000Y-77724000D01*
G04 #@! TO.N,/1GPB4*
X26450204Y-60232204D02*
X23720314Y-60232204D01*
X32004000Y-65786000D02*
X26450204Y-60232204D01*
X32004000Y-79502000D02*
X32004000Y-65786000D01*
X32766000Y-80264000D02*
X32004000Y-79502000D01*
X35560000Y-80264000D02*
X32766000Y-80264000D01*
G04 #@! TO.N,/1GPB5*
X26704204Y-62772204D02*
X23720314Y-62772204D01*
X31242000Y-67310000D02*
X26704204Y-62772204D01*
X31242000Y-82042000D02*
X31242000Y-67310000D01*
X32004000Y-82804000D02*
X31242000Y-82042000D01*
X35560000Y-82804000D02*
X32004000Y-82804000D01*
G04 #@! TO.N,/1GPB6*
X27212204Y-65312204D02*
X23720314Y-65312204D01*
X30480000Y-68580000D02*
X27212204Y-65312204D01*
X30480000Y-83058000D02*
X30480000Y-68580000D01*
X32766000Y-85344000D02*
X30480000Y-83058000D01*
X35560000Y-85344000D02*
X32766000Y-85344000D01*
G04 #@! TO.N,/1GPA0*
X24008518Y-87884000D02*
X23720314Y-88172204D01*
X27940000Y-87884000D02*
X24008518Y-87884000D01*
G04 #@! TO.N,/1GPB7*
X35560000Y-87884000D02*
X32004000Y-87884000D01*
X32004000Y-87884000D02*
X29718000Y-85598000D01*
X29718000Y-85598000D02*
X29718000Y-69342000D01*
X28228204Y-67852204D02*
X23720314Y-67852204D01*
X29718000Y-69342000D02*
X28228204Y-67852204D01*
G04 #@! TO.N,/1GPA1*
X24008518Y-85344000D02*
X23720314Y-85632204D01*
X27940000Y-85344000D02*
X24008518Y-85344000D01*
G04 #@! TO.N,/1GPA2*
X24008518Y-82804000D02*
X23720314Y-83092204D01*
X27940000Y-82804000D02*
X24008518Y-82804000D01*
G04 #@! TO.N,/1GPA3*
X24008518Y-80264000D02*
X23720314Y-80552204D01*
X27940000Y-80264000D02*
X24008518Y-80264000D01*
G04 #@! TO.N,/1GPA4*
X24008518Y-77724000D02*
X23720314Y-78012204D01*
X27940000Y-77724000D02*
X24008518Y-77724000D01*
G04 #@! TO.N,/1GPA5*
X24008518Y-75184000D02*
X23720314Y-75472204D01*
X27940000Y-75184000D02*
X24008518Y-75184000D01*
G04 #@! TO.N,/1GPA6*
X24008518Y-72644000D02*
X23720314Y-72932204D01*
X27940000Y-72644000D02*
X24008518Y-72644000D01*
G04 #@! TO.N,/1GPA7*
X24008518Y-70104000D02*
X23720314Y-70392204D01*
X27940000Y-70104000D02*
X24008518Y-70104000D01*
G04 #@! TO.N,/RATE1*
X117094000Y-31496000D02*
X117094000Y-23368000D01*
X123190000Y-37592000D02*
X117094000Y-31496000D01*
X123190000Y-137414000D02*
X123190000Y-37592000D01*
X127508000Y-141732000D02*
X123190000Y-137414000D01*
G04 #@! TO.N,/PITCH1*
X127254000Y-21844000D02*
X127254000Y-23368000D01*
X71374000Y-38354000D02*
X88646000Y-21082000D01*
X71374000Y-56388000D02*
X71374000Y-38354000D01*
X126492000Y-21082000D02*
X127254000Y-21844000D01*
X88646000Y-21082000D02*
X126492000Y-21082000D01*
X73152000Y-58166000D02*
X71374000Y-56388000D01*
G04 #@! TO.N,/PWM3*
X119634000Y-31496000D02*
X119634000Y-23368000D01*
X123952000Y-35814000D02*
X119634000Y-31496000D01*
X123952000Y-109728000D02*
X123952000Y-35814000D01*
X127508000Y-113284000D02*
X123952000Y-109728000D01*
G04 #@! TO.N,/PWM1*
X125730000Y-55880000D02*
X127508000Y-57658000D01*
X125730000Y-32766000D02*
X125730000Y-55880000D01*
X124714000Y-31750000D02*
X125730000Y-32766000D01*
X124714000Y-23368000D02*
X124714000Y-31750000D01*
G04 #@! TO.N,/RATE2*
X73152000Y-142494000D02*
X69088000Y-138430000D01*
X69088000Y-138430000D02*
X69088000Y-37338000D01*
X69088000Y-37338000D02*
X87630000Y-18796000D01*
X131533000Y-18796000D02*
X130302000Y-18796000D01*
X134874000Y-22137000D02*
X131533000Y-18796000D01*
X134874000Y-23368000D02*
X134874000Y-22137000D01*
X130302000Y-18796000D02*
X130556000Y-18796000D01*
X87630000Y-18796000D02*
X130302000Y-18796000D01*
G04 #@! TO.N,/PITCH2*
X73152000Y-86360000D02*
X70612000Y-83820000D01*
X70612000Y-83820000D02*
X70612000Y-38100000D01*
X70612000Y-38100000D02*
X88392000Y-20320000D01*
X129794000Y-23368000D02*
X126746000Y-20320000D01*
X88392000Y-20320000D02*
X126746000Y-20320000D01*
G04 #@! TO.N,/PWM4*
X69850000Y-110744000D02*
X73152000Y-114046000D01*
X128524000Y-19558000D02*
X87884000Y-19558000D01*
X69850000Y-37592000D02*
X69850000Y-110744000D01*
X87884000Y-19558000D02*
X69850000Y-37592000D01*
X132334000Y-23368000D02*
X128524000Y-19558000D01*
G04 #@! TO.N,/PWM2*
X127508000Y-85852000D02*
X124714000Y-83058000D01*
X122174000Y-31496000D02*
X122174000Y-23368000D01*
X124714000Y-34036000D02*
X122174000Y-31496000D01*
X124714000Y-83058000D02*
X124714000Y-34036000D01*
G04 #@! TD*
M02*
