G04 #@! TF.GenerationSoftware,KiCad,Pcbnew,(5.0.1-3-g963ef8bb5)*
G04 #@! TF.CreationDate,2019-04-09T02:40:33-05:00*
G04 #@! TF.ProjectId,SDMAY1932,53444D4159313933322E6B696361645F,rev?*
G04 #@! TF.SameCoordinates,Original*
G04 #@! TF.FileFunction,Legend,Top*
G04 #@! TF.FilePolarity,Positive*
%FSLAX46Y46*%
G04 Gerber Fmt 4.6, Leading zero omitted, Abs format (unit mm)*
G04 Created by KiCad (PCBNEW (5.0.1-3-g963ef8bb5)) date Tuesday, April 09, 2019 at 02:40:33 AM*
%MOMM*%
%LPD*%
G01*
G04 APERTURE LIST*
%ADD10C,0.120000*%
%ADD11C,0.150000*%
G04 APERTURE END LIST*
D10*
G04 #@! TO.C,J3*
X133604000Y-22038000D02*
X133604000Y-24698000D01*
X133604000Y-22038000D02*
X115764000Y-22038000D01*
X115764000Y-22038000D02*
X115764000Y-24698000D01*
X133604000Y-24698000D02*
X115764000Y-24698000D01*
X136204000Y-24698000D02*
X134874000Y-24698000D01*
X136204000Y-23368000D02*
X136204000Y-24698000D01*
G04 #@! TO.C,U24*
X118558000Y-64128000D02*
X128838000Y-64128000D01*
X118558000Y-43568000D02*
X118558000Y-64128000D01*
X128838000Y-43568000D02*
X118558000Y-43568000D01*
X128838000Y-64128000D02*
X128838000Y-43568000D01*
X121048000Y-64068000D02*
X122698000Y-64068000D01*
X121048000Y-43628000D02*
X121048000Y-64068000D01*
X126348000Y-43628000D02*
X121048000Y-43628000D01*
X126348000Y-64068000D02*
X126348000Y-43628000D01*
X124698000Y-64068000D02*
X126348000Y-64068000D01*
X122698000Y-64068000D02*
G75*
G02X124698000Y-64068000I1000000J0D01*
G01*
G04 #@! TO.C,U21*
X118558000Y-148202000D02*
X128838000Y-148202000D01*
X118558000Y-127642000D02*
X118558000Y-148202000D01*
X128838000Y-127642000D02*
X118558000Y-127642000D01*
X128838000Y-148202000D02*
X128838000Y-127642000D01*
X121048000Y-148142000D02*
X122698000Y-148142000D01*
X121048000Y-127702000D02*
X121048000Y-148142000D01*
X126348000Y-127702000D02*
X121048000Y-127702000D01*
X126348000Y-148142000D02*
X126348000Y-127702000D01*
X124698000Y-148142000D02*
X126348000Y-148142000D01*
X122698000Y-148142000D02*
G75*
G02X124698000Y-148142000I1000000J0D01*
G01*
G04 #@! TO.C,U22*
X68342000Y-64576000D02*
G75*
G02X70342000Y-64576000I1000000J0D01*
G01*
X70342000Y-64576000D02*
X71992000Y-64576000D01*
X71992000Y-64576000D02*
X71992000Y-44136000D01*
X71992000Y-44136000D02*
X66692000Y-44136000D01*
X66692000Y-44136000D02*
X66692000Y-64576000D01*
X66692000Y-64576000D02*
X68342000Y-64576000D01*
X74482000Y-64636000D02*
X74482000Y-44076000D01*
X74482000Y-44076000D02*
X64202000Y-44076000D01*
X64202000Y-44076000D02*
X64202000Y-64636000D01*
X64202000Y-64636000D02*
X74482000Y-64636000D01*
G04 #@! TO.C,U23*
X122698000Y-119694000D02*
G75*
G02X124698000Y-119694000I1000000J0D01*
G01*
X124698000Y-119694000D02*
X126348000Y-119694000D01*
X126348000Y-119694000D02*
X126348000Y-99254000D01*
X126348000Y-99254000D02*
X121048000Y-99254000D01*
X121048000Y-99254000D02*
X121048000Y-119694000D01*
X121048000Y-119694000D02*
X122698000Y-119694000D01*
X128838000Y-119754000D02*
X128838000Y-99194000D01*
X128838000Y-99194000D02*
X118558000Y-99194000D01*
X118558000Y-99194000D02*
X118558000Y-119754000D01*
X118558000Y-119754000D02*
X128838000Y-119754000D01*
G04 #@! TO.C,U25*
X68342000Y-148904000D02*
G75*
G02X70342000Y-148904000I1000000J0D01*
G01*
X70342000Y-148904000D02*
X71992000Y-148904000D01*
X71992000Y-148904000D02*
X71992000Y-128464000D01*
X71992000Y-128464000D02*
X66692000Y-128464000D01*
X66692000Y-128464000D02*
X66692000Y-148904000D01*
X66692000Y-148904000D02*
X68342000Y-148904000D01*
X74482000Y-148964000D02*
X74482000Y-128404000D01*
X74482000Y-128404000D02*
X64202000Y-128404000D01*
X64202000Y-128404000D02*
X64202000Y-148964000D01*
X64202000Y-148964000D02*
X74482000Y-148964000D01*
G04 #@! TO.C,U26*
X68342000Y-92770000D02*
G75*
G02X70342000Y-92770000I1000000J0D01*
G01*
X70342000Y-92770000D02*
X71992000Y-92770000D01*
X71992000Y-92770000D02*
X71992000Y-72330000D01*
X71992000Y-72330000D02*
X66692000Y-72330000D01*
X66692000Y-72330000D02*
X66692000Y-92770000D01*
X66692000Y-92770000D02*
X68342000Y-92770000D01*
X74482000Y-92830000D02*
X74482000Y-72270000D01*
X74482000Y-72270000D02*
X64202000Y-72270000D01*
X64202000Y-72270000D02*
X64202000Y-92830000D01*
X64202000Y-92830000D02*
X74482000Y-92830000D01*
G04 #@! TO.C,U27*
X64202000Y-120516000D02*
X74482000Y-120516000D01*
X64202000Y-99956000D02*
X64202000Y-120516000D01*
X74482000Y-99956000D02*
X64202000Y-99956000D01*
X74482000Y-120516000D02*
X74482000Y-99956000D01*
X66692000Y-120456000D02*
X68342000Y-120456000D01*
X66692000Y-100016000D02*
X66692000Y-120456000D01*
X71992000Y-100016000D02*
X66692000Y-100016000D01*
X71992000Y-120456000D02*
X71992000Y-100016000D01*
X70342000Y-120456000D02*
X71992000Y-120456000D01*
X68342000Y-120456000D02*
G75*
G02X70342000Y-120456000I1000000J0D01*
G01*
G04 #@! TO.C,U28*
X118558000Y-92322000D02*
X128838000Y-92322000D01*
X118558000Y-71762000D02*
X118558000Y-92322000D01*
X128838000Y-71762000D02*
X118558000Y-71762000D01*
X128838000Y-92322000D02*
X128838000Y-71762000D01*
X121048000Y-92262000D02*
X122698000Y-92262000D01*
X121048000Y-71822000D02*
X121048000Y-92262000D01*
X126348000Y-71822000D02*
X121048000Y-71822000D01*
X126348000Y-92262000D02*
X126348000Y-71822000D01*
X124698000Y-92262000D02*
X126348000Y-92262000D01*
X122698000Y-92262000D02*
G75*
G02X124698000Y-92262000I1000000J0D01*
G01*
G04 #@! TO.C,J2*
X37278000Y-24638000D02*
X39938000Y-24638000D01*
X37278000Y-24638000D02*
X37278000Y-60258000D01*
X37278000Y-60258000D02*
X39938000Y-60258000D01*
X39938000Y-24638000D02*
X39938000Y-60258000D01*
X39938000Y-22038000D02*
X39938000Y-23368000D01*
X38608000Y-22038000D02*
X39938000Y-22038000D01*
G04 #@! TO.C,J4*
X101854000Y-150054000D02*
X101854000Y-152714000D01*
X101854000Y-150054000D02*
X89094000Y-150054000D01*
X89094000Y-150054000D02*
X89094000Y-152714000D01*
X101854000Y-152714000D02*
X89094000Y-152714000D01*
X104454000Y-152714000D02*
X103124000Y-152714000D01*
X104454000Y-151384000D02*
X104454000Y-152714000D01*
G04 #@! TO.C,J1*
X24952000Y-86868000D02*
X22292000Y-86868000D01*
X24952000Y-86868000D02*
X24952000Y-48708000D01*
X24952000Y-48708000D02*
X22292000Y-48708000D01*
X22292000Y-86868000D02*
X22292000Y-48708000D01*
X22292000Y-89468000D02*
X22292000Y-88138000D01*
X23622000Y-89468000D02*
X22292000Y-89468000D01*
G04 #@! TO.C,J6*
X115764000Y-157032000D02*
X115764000Y-154432000D01*
X115764000Y-157032000D02*
X136204000Y-157032000D01*
X136204000Y-157032000D02*
X136204000Y-151832000D01*
X118364000Y-151832000D02*
X136204000Y-151832000D01*
X118364000Y-154432000D02*
X118364000Y-151832000D01*
X115764000Y-154432000D02*
X118364000Y-154432000D01*
X115764000Y-151832000D02*
X117094000Y-151832000D01*
X115764000Y-153162000D02*
X115764000Y-151832000D01*
G04 #@! TO.C,J3*
D11*
X137096380Y-23701333D02*
X137810666Y-23701333D01*
X137953523Y-23748952D01*
X138048761Y-23844190D01*
X138096380Y-23987047D01*
X138096380Y-24082285D01*
X137096380Y-23320380D02*
X137096380Y-22701333D01*
X137477333Y-23034666D01*
X137477333Y-22891809D01*
X137524952Y-22796571D01*
X137572571Y-22748952D01*
X137667809Y-22701333D01*
X137905904Y-22701333D01*
X138001142Y-22748952D01*
X138048761Y-22796571D01*
X138096380Y-22891809D01*
X138096380Y-23177523D01*
X138048761Y-23272761D01*
X138001142Y-23320380D01*
G04 #@! TO.C,U24*
X122459904Y-64520380D02*
X122459904Y-65329904D01*
X122507523Y-65425142D01*
X122555142Y-65472761D01*
X122650380Y-65520380D01*
X122840857Y-65520380D01*
X122936095Y-65472761D01*
X122983714Y-65425142D01*
X123031333Y-65329904D01*
X123031333Y-64520380D01*
X123459904Y-64615619D02*
X123507523Y-64568000D01*
X123602761Y-64520380D01*
X123840857Y-64520380D01*
X123936095Y-64568000D01*
X123983714Y-64615619D01*
X124031333Y-64710857D01*
X124031333Y-64806095D01*
X123983714Y-64948952D01*
X123412285Y-65520380D01*
X124031333Y-65520380D01*
X124888476Y-64853714D02*
X124888476Y-65520380D01*
X124650380Y-64472761D02*
X124412285Y-65187047D01*
X125031333Y-65187047D01*
G04 #@! TO.C,U21*
X122459904Y-148594380D02*
X122459904Y-149403904D01*
X122507523Y-149499142D01*
X122555142Y-149546761D01*
X122650380Y-149594380D01*
X122840857Y-149594380D01*
X122936095Y-149546761D01*
X122983714Y-149499142D01*
X123031333Y-149403904D01*
X123031333Y-148594380D01*
X123459904Y-148689619D02*
X123507523Y-148642000D01*
X123602761Y-148594380D01*
X123840857Y-148594380D01*
X123936095Y-148642000D01*
X123983714Y-148689619D01*
X124031333Y-148784857D01*
X124031333Y-148880095D01*
X123983714Y-149022952D01*
X123412285Y-149594380D01*
X124031333Y-149594380D01*
X124983714Y-149594380D02*
X124412285Y-149594380D01*
X124698000Y-149594380D02*
X124698000Y-148594380D01*
X124602761Y-148737238D01*
X124507523Y-148832476D01*
X124412285Y-148880095D01*
G04 #@! TO.C,U22*
X68103904Y-65028380D02*
X68103904Y-65837904D01*
X68151523Y-65933142D01*
X68199142Y-65980761D01*
X68294380Y-66028380D01*
X68484857Y-66028380D01*
X68580095Y-65980761D01*
X68627714Y-65933142D01*
X68675333Y-65837904D01*
X68675333Y-65028380D01*
X69103904Y-65123619D02*
X69151523Y-65076000D01*
X69246761Y-65028380D01*
X69484857Y-65028380D01*
X69580095Y-65076000D01*
X69627714Y-65123619D01*
X69675333Y-65218857D01*
X69675333Y-65314095D01*
X69627714Y-65456952D01*
X69056285Y-66028380D01*
X69675333Y-66028380D01*
X70056285Y-65123619D02*
X70103904Y-65076000D01*
X70199142Y-65028380D01*
X70437238Y-65028380D01*
X70532476Y-65076000D01*
X70580095Y-65123619D01*
X70627714Y-65218857D01*
X70627714Y-65314095D01*
X70580095Y-65456952D01*
X70008666Y-66028380D01*
X70627714Y-66028380D01*
G04 #@! TO.C,U23*
X122459904Y-120146380D02*
X122459904Y-120955904D01*
X122507523Y-121051142D01*
X122555142Y-121098761D01*
X122650380Y-121146380D01*
X122840857Y-121146380D01*
X122936095Y-121098761D01*
X122983714Y-121051142D01*
X123031333Y-120955904D01*
X123031333Y-120146380D01*
X123459904Y-120241619D02*
X123507523Y-120194000D01*
X123602761Y-120146380D01*
X123840857Y-120146380D01*
X123936095Y-120194000D01*
X123983714Y-120241619D01*
X124031333Y-120336857D01*
X124031333Y-120432095D01*
X123983714Y-120574952D01*
X123412285Y-121146380D01*
X124031333Y-121146380D01*
X124364666Y-120146380D02*
X124983714Y-120146380D01*
X124650380Y-120527333D01*
X124793238Y-120527333D01*
X124888476Y-120574952D01*
X124936095Y-120622571D01*
X124983714Y-120717809D01*
X124983714Y-120955904D01*
X124936095Y-121051142D01*
X124888476Y-121098761D01*
X124793238Y-121146380D01*
X124507523Y-121146380D01*
X124412285Y-121098761D01*
X124364666Y-121051142D01*
G04 #@! TO.C,U25*
X68103904Y-149356380D02*
X68103904Y-150165904D01*
X68151523Y-150261142D01*
X68199142Y-150308761D01*
X68294380Y-150356380D01*
X68484857Y-150356380D01*
X68580095Y-150308761D01*
X68627714Y-150261142D01*
X68675333Y-150165904D01*
X68675333Y-149356380D01*
X69103904Y-149451619D02*
X69151523Y-149404000D01*
X69246761Y-149356380D01*
X69484857Y-149356380D01*
X69580095Y-149404000D01*
X69627714Y-149451619D01*
X69675333Y-149546857D01*
X69675333Y-149642095D01*
X69627714Y-149784952D01*
X69056285Y-150356380D01*
X69675333Y-150356380D01*
X70580095Y-149356380D02*
X70103904Y-149356380D01*
X70056285Y-149832571D01*
X70103904Y-149784952D01*
X70199142Y-149737333D01*
X70437238Y-149737333D01*
X70532476Y-149784952D01*
X70580095Y-149832571D01*
X70627714Y-149927809D01*
X70627714Y-150165904D01*
X70580095Y-150261142D01*
X70532476Y-150308761D01*
X70437238Y-150356380D01*
X70199142Y-150356380D01*
X70103904Y-150308761D01*
X70056285Y-150261142D01*
G04 #@! TO.C,U26*
X68103904Y-93222380D02*
X68103904Y-94031904D01*
X68151523Y-94127142D01*
X68199142Y-94174761D01*
X68294380Y-94222380D01*
X68484857Y-94222380D01*
X68580095Y-94174761D01*
X68627714Y-94127142D01*
X68675333Y-94031904D01*
X68675333Y-93222380D01*
X69103904Y-93317619D02*
X69151523Y-93270000D01*
X69246761Y-93222380D01*
X69484857Y-93222380D01*
X69580095Y-93270000D01*
X69627714Y-93317619D01*
X69675333Y-93412857D01*
X69675333Y-93508095D01*
X69627714Y-93650952D01*
X69056285Y-94222380D01*
X69675333Y-94222380D01*
X70532476Y-93222380D02*
X70342000Y-93222380D01*
X70246761Y-93270000D01*
X70199142Y-93317619D01*
X70103904Y-93460476D01*
X70056285Y-93650952D01*
X70056285Y-94031904D01*
X70103904Y-94127142D01*
X70151523Y-94174761D01*
X70246761Y-94222380D01*
X70437238Y-94222380D01*
X70532476Y-94174761D01*
X70580095Y-94127142D01*
X70627714Y-94031904D01*
X70627714Y-93793809D01*
X70580095Y-93698571D01*
X70532476Y-93650952D01*
X70437238Y-93603333D01*
X70246761Y-93603333D01*
X70151523Y-93650952D01*
X70103904Y-93698571D01*
X70056285Y-93793809D01*
G04 #@! TO.C,U27*
X68103904Y-120908380D02*
X68103904Y-121717904D01*
X68151523Y-121813142D01*
X68199142Y-121860761D01*
X68294380Y-121908380D01*
X68484857Y-121908380D01*
X68580095Y-121860761D01*
X68627714Y-121813142D01*
X68675333Y-121717904D01*
X68675333Y-120908380D01*
X69103904Y-121003619D02*
X69151523Y-120956000D01*
X69246761Y-120908380D01*
X69484857Y-120908380D01*
X69580095Y-120956000D01*
X69627714Y-121003619D01*
X69675333Y-121098857D01*
X69675333Y-121194095D01*
X69627714Y-121336952D01*
X69056285Y-121908380D01*
X69675333Y-121908380D01*
X70008666Y-120908380D02*
X70675333Y-120908380D01*
X70246761Y-121908380D01*
G04 #@! TO.C,U28*
X122459904Y-92714380D02*
X122459904Y-93523904D01*
X122507523Y-93619142D01*
X122555142Y-93666761D01*
X122650380Y-93714380D01*
X122840857Y-93714380D01*
X122936095Y-93666761D01*
X122983714Y-93619142D01*
X123031333Y-93523904D01*
X123031333Y-92714380D01*
X123459904Y-92809619D02*
X123507523Y-92762000D01*
X123602761Y-92714380D01*
X123840857Y-92714380D01*
X123936095Y-92762000D01*
X123983714Y-92809619D01*
X124031333Y-92904857D01*
X124031333Y-93000095D01*
X123983714Y-93142952D01*
X123412285Y-93714380D01*
X124031333Y-93714380D01*
X124602761Y-93142952D02*
X124507523Y-93095333D01*
X124459904Y-93047714D01*
X124412285Y-92952476D01*
X124412285Y-92904857D01*
X124459904Y-92809619D01*
X124507523Y-92762000D01*
X124602761Y-92714380D01*
X124793238Y-92714380D01*
X124888476Y-92762000D01*
X124936095Y-92809619D01*
X124983714Y-92904857D01*
X124983714Y-92952476D01*
X124936095Y-93047714D01*
X124888476Y-93095333D01*
X124793238Y-93142952D01*
X124602761Y-93142952D01*
X124507523Y-93190571D01*
X124459904Y-93238190D01*
X124412285Y-93333428D01*
X124412285Y-93523904D01*
X124459904Y-93619142D01*
X124507523Y-93666761D01*
X124602761Y-93714380D01*
X124793238Y-93714380D01*
X124888476Y-93666761D01*
X124936095Y-93619142D01*
X124983714Y-93523904D01*
X124983714Y-93333428D01*
X124936095Y-93238190D01*
X124888476Y-93190571D01*
X124793238Y-93142952D01*
G04 #@! TO.C,H1*
X23622095Y-20582380D02*
X23622095Y-19582380D01*
X23622095Y-20058571D02*
X24193523Y-20058571D01*
X24193523Y-20582380D02*
X24193523Y-19582380D01*
X25193523Y-20582380D02*
X24622095Y-20582380D01*
X24907809Y-20582380D02*
X24907809Y-19582380D01*
X24812571Y-19725238D01*
X24717333Y-19820476D01*
X24622095Y-19868095D01*
G04 #@! TO.C,H2*
X23622095Y-150630380D02*
X23622095Y-149630380D01*
X23622095Y-150106571D02*
X24193523Y-150106571D01*
X24193523Y-150630380D02*
X24193523Y-149630380D01*
X24622095Y-149725619D02*
X24669714Y-149678000D01*
X24764952Y-149630380D01*
X25003047Y-149630380D01*
X25098285Y-149678000D01*
X25145904Y-149725619D01*
X25193523Y-149820857D01*
X25193523Y-149916095D01*
X25145904Y-150058952D01*
X24574476Y-150630380D01*
X25193523Y-150630380D01*
G04 #@! TO.C,H3*
X148082095Y-150630380D02*
X148082095Y-149630380D01*
X148082095Y-150106571D02*
X148653523Y-150106571D01*
X148653523Y-150630380D02*
X148653523Y-149630380D01*
X149034476Y-149630380D02*
X149653523Y-149630380D01*
X149320190Y-150011333D01*
X149463047Y-150011333D01*
X149558285Y-150058952D01*
X149605904Y-150106571D01*
X149653523Y-150201809D01*
X149653523Y-150439904D01*
X149605904Y-150535142D01*
X149558285Y-150582761D01*
X149463047Y-150630380D01*
X149177333Y-150630380D01*
X149082095Y-150582761D01*
X149034476Y-150535142D01*
G04 #@! TO.C,H4*
X148082095Y-28836380D02*
X148082095Y-27836380D01*
X148082095Y-28312571D02*
X148653523Y-28312571D01*
X148653523Y-28836380D02*
X148653523Y-27836380D01*
X149558285Y-28169714D02*
X149558285Y-28836380D01*
X149320190Y-27788761D02*
X149082095Y-28503047D01*
X149701142Y-28503047D01*
G04 #@! TO.C,J2*
X38274666Y-20050380D02*
X38274666Y-20764666D01*
X38227047Y-20907523D01*
X38131809Y-21002761D01*
X37988952Y-21050380D01*
X37893714Y-21050380D01*
X38703238Y-20145619D02*
X38750857Y-20098000D01*
X38846095Y-20050380D01*
X39084190Y-20050380D01*
X39179428Y-20098000D01*
X39227047Y-20145619D01*
X39274666Y-20240857D01*
X39274666Y-20336095D01*
X39227047Y-20478952D01*
X38655619Y-21050380D01*
X39274666Y-21050380D01*
G04 #@! TO.C,J4*
X105346380Y-151717333D02*
X106060666Y-151717333D01*
X106203523Y-151764952D01*
X106298761Y-151860190D01*
X106346380Y-152003047D01*
X106346380Y-152098285D01*
X105679714Y-150812571D02*
X106346380Y-150812571D01*
X105298761Y-151050666D02*
X106013047Y-151288761D01*
X106013047Y-150669714D01*
G04 #@! TO.C,J1*
X23288666Y-90360380D02*
X23288666Y-91074666D01*
X23241047Y-91217523D01*
X23145809Y-91312761D01*
X23002952Y-91360380D01*
X22907714Y-91360380D01*
X24288666Y-91360380D02*
X23717238Y-91360380D01*
X24002952Y-91360380D02*
X24002952Y-90360380D01*
X23907714Y-90503238D01*
X23812476Y-90598476D01*
X23717238Y-90646095D01*
G04 #@! TO.C,J6*
X113776380Y-154765333D02*
X114490666Y-154765333D01*
X114633523Y-154812952D01*
X114728761Y-154908190D01*
X114776380Y-155051047D01*
X114776380Y-155146285D01*
X113776380Y-153860571D02*
X113776380Y-154051047D01*
X113824000Y-154146285D01*
X113871619Y-154193904D01*
X114014476Y-154289142D01*
X114204952Y-154336761D01*
X114585904Y-154336761D01*
X114681142Y-154289142D01*
X114728761Y-154241523D01*
X114776380Y-154146285D01*
X114776380Y-153955809D01*
X114728761Y-153860571D01*
X114681142Y-153812952D01*
X114585904Y-153765333D01*
X114347809Y-153765333D01*
X114252571Y-153812952D01*
X114204952Y-153860571D01*
X114157333Y-153955809D01*
X114157333Y-154146285D01*
X114204952Y-154241523D01*
X114252571Y-154289142D01*
X114347809Y-154336761D01*
G04 #@! TD*
M02*
