G04 #@! TF.GenerationSoftware,KiCad,Pcbnew,(5.0.1-3-g963ef8bb5)*
G04 #@! TF.CreationDate,2019-04-09T02:40:33-05:00*
G04 #@! TF.ProjectId,SDMAY1932,53444D4159313933322E6B696361645F,rev?*
G04 #@! TF.SameCoordinates,Original*
G04 #@! TF.FileFunction,Copper,L1,Top,Signal*
G04 #@! TF.FilePolarity,Positive*
%FSLAX46Y46*%
G04 Gerber Fmt 4.6, Leading zero omitted, Abs format (unit mm)*
G04 Created by KiCad (PCBNEW (5.0.1-3-g963ef8bb5)) date Tuesday, April 09, 2019 at 02:40:33 AM*
%MOMM*%
%LPD*%
G01*
G04 APERTURE LIST*
G04 #@! TA.AperFunction,NonConductor*
%ADD10C,0.184500*%
G04 #@! TD*
G04 #@! TA.AperFunction,NonConductor*
%ADD11C,0.248000*%
G04 #@! TD*
G04 #@! TA.AperFunction,NonConductor*
%ADD12C,0.057500*%
G04 #@! TD*
G04 #@! TA.AperFunction,NonConductor*
%ADD13C,0.554000*%
G04 #@! TD*
G04 #@! TA.AperFunction,ComponentPad*
%ADD14R,1.600000X1.600000*%
G04 #@! TD*
G04 #@! TA.AperFunction,ComponentPad*
%ADD15O,1.600000X1.600000*%
G04 #@! TD*
G04 #@! TA.AperFunction,ComponentPad*
%ADD16R,1.700000X1.700000*%
G04 #@! TD*
G04 #@! TA.AperFunction,ComponentPad*
%ADD17O,1.700000X1.700000*%
G04 #@! TD*
G04 #@! TA.AperFunction,ViaPad*
%ADD18C,0.800000*%
G04 #@! TD*
G04 #@! TA.AperFunction,Conductor*
%ADD19C,0.381000*%
G04 #@! TD*
G04 #@! TA.AperFunction,Conductor*
%ADD20C,0.508000*%
G04 #@! TD*
G04 #@! TA.AperFunction,Conductor*
%ADD21C,0.635000*%
G04 #@! TD*
G04 APERTURE END LIST*
D10*
X121770464Y-161222857D02*
X121770464Y-160660571D01*
X122051607Y-160941714D02*
X121489321Y-160941714D01*
X121313607Y-159957714D02*
X121313607Y-160309142D01*
X121665035Y-160344285D01*
X121629892Y-160309142D01*
X121594750Y-160238857D01*
X121594750Y-160063142D01*
X121629892Y-159992857D01*
X121665035Y-159957714D01*
X121735321Y-159922571D01*
X121911035Y-159922571D01*
X121981321Y-159957714D01*
X122016464Y-159992857D01*
X122051607Y-160063142D01*
X122051607Y-160238857D01*
X122016464Y-160309142D01*
X121981321Y-160344285D01*
X121313607Y-159711714D02*
X122051607Y-159465714D01*
X121313607Y-159219714D01*
X123061964Y-161222857D02*
X123061964Y-160660571D01*
X123343107Y-160941714D02*
X122780821Y-160941714D01*
X122605107Y-159957714D02*
X122605107Y-160309142D01*
X122956535Y-160344285D01*
X122921392Y-160309142D01*
X122886250Y-160238857D01*
X122886250Y-160063142D01*
X122921392Y-159992857D01*
X122956535Y-159957714D01*
X123026821Y-159922571D01*
X123202535Y-159922571D01*
X123272821Y-159957714D01*
X123307964Y-159992857D01*
X123343107Y-160063142D01*
X123343107Y-160238857D01*
X123307964Y-160309142D01*
X123272821Y-160344285D01*
X122605107Y-159711714D02*
X123343107Y-159465714D01*
X122605107Y-159219714D01*
X124353464Y-161222857D02*
X124353464Y-160660571D01*
X124634607Y-160941714D02*
X124072321Y-160941714D01*
X123896607Y-159957714D02*
X123896607Y-160309142D01*
X124248035Y-160344285D01*
X124212892Y-160309142D01*
X124177750Y-160238857D01*
X124177750Y-160063142D01*
X124212892Y-159992857D01*
X124248035Y-159957714D01*
X124318321Y-159922571D01*
X124494035Y-159922571D01*
X124564321Y-159957714D01*
X124599464Y-159992857D01*
X124634607Y-160063142D01*
X124634607Y-160238857D01*
X124599464Y-160309142D01*
X124564321Y-160344285D01*
X123896607Y-159711714D02*
X124634607Y-159465714D01*
X123896607Y-159219714D01*
X125644964Y-161222857D02*
X125644964Y-160660571D01*
X125926107Y-160941714D02*
X125363821Y-160941714D01*
X125188107Y-159957714D02*
X125188107Y-160309142D01*
X125539535Y-160344285D01*
X125504392Y-160309142D01*
X125469250Y-160238857D01*
X125469250Y-160063142D01*
X125504392Y-159992857D01*
X125539535Y-159957714D01*
X125609821Y-159922571D01*
X125785535Y-159922571D01*
X125855821Y-159957714D01*
X125890964Y-159992857D01*
X125926107Y-160063142D01*
X125926107Y-160238857D01*
X125890964Y-160309142D01*
X125855821Y-160344285D01*
X125188107Y-159711714D02*
X125926107Y-159465714D01*
X125188107Y-159219714D01*
X126514750Y-160836285D02*
X126479607Y-160906571D01*
X126479607Y-161012000D01*
X126514750Y-161117428D01*
X126585035Y-161187714D01*
X126655321Y-161222857D01*
X126795892Y-161258000D01*
X126901321Y-161258000D01*
X127041892Y-161222857D01*
X127112178Y-161187714D01*
X127182464Y-161117428D01*
X127217607Y-161012000D01*
X127217607Y-160941714D01*
X127182464Y-160836285D01*
X127147321Y-160801142D01*
X126901321Y-160801142D01*
X126901321Y-160941714D01*
X127217607Y-160484857D02*
X126479607Y-160484857D01*
X127217607Y-160063142D01*
X126479607Y-160063142D01*
X127217607Y-159711714D02*
X126479607Y-159711714D01*
X126479607Y-159536000D01*
X126514750Y-159430571D01*
X126585035Y-159360285D01*
X126655321Y-159325142D01*
X126795892Y-159290000D01*
X126901321Y-159290000D01*
X127041892Y-159325142D01*
X127112178Y-159360285D01*
X127182464Y-159430571D01*
X127217607Y-159536000D01*
X127217607Y-159711714D01*
X127806250Y-160836285D02*
X127771107Y-160906571D01*
X127771107Y-161012000D01*
X127806250Y-161117428D01*
X127876535Y-161187714D01*
X127946821Y-161222857D01*
X128087392Y-161258000D01*
X128192821Y-161258000D01*
X128333392Y-161222857D01*
X128403678Y-161187714D01*
X128473964Y-161117428D01*
X128509107Y-161012000D01*
X128509107Y-160941714D01*
X128473964Y-160836285D01*
X128438821Y-160801142D01*
X128192821Y-160801142D01*
X128192821Y-160941714D01*
X128509107Y-160484857D02*
X127771107Y-160484857D01*
X128509107Y-160063142D01*
X127771107Y-160063142D01*
X128509107Y-159711714D02*
X127771107Y-159711714D01*
X127771107Y-159536000D01*
X127806250Y-159430571D01*
X127876535Y-159360285D01*
X127946821Y-159325142D01*
X128087392Y-159290000D01*
X128192821Y-159290000D01*
X128333392Y-159325142D01*
X128403678Y-159360285D01*
X128473964Y-159430571D01*
X128509107Y-159536000D01*
X128509107Y-159711714D01*
X129097750Y-160836285D02*
X129062607Y-160906571D01*
X129062607Y-161012000D01*
X129097750Y-161117428D01*
X129168035Y-161187714D01*
X129238321Y-161222857D01*
X129378892Y-161258000D01*
X129484321Y-161258000D01*
X129624892Y-161222857D01*
X129695178Y-161187714D01*
X129765464Y-161117428D01*
X129800607Y-161012000D01*
X129800607Y-160941714D01*
X129765464Y-160836285D01*
X129730321Y-160801142D01*
X129484321Y-160801142D01*
X129484321Y-160941714D01*
X129800607Y-160484857D02*
X129062607Y-160484857D01*
X129800607Y-160063142D01*
X129062607Y-160063142D01*
X129800607Y-159711714D02*
X129062607Y-159711714D01*
X129062607Y-159536000D01*
X129097750Y-159430571D01*
X129168035Y-159360285D01*
X129238321Y-159325142D01*
X129378892Y-159290000D01*
X129484321Y-159290000D01*
X129624892Y-159325142D01*
X129695178Y-159360285D01*
X129765464Y-159430571D01*
X129800607Y-159536000D01*
X129800607Y-159711714D01*
X130389250Y-160836285D02*
X130354107Y-160906571D01*
X130354107Y-161012000D01*
X130389250Y-161117428D01*
X130459535Y-161187714D01*
X130529821Y-161222857D01*
X130670392Y-161258000D01*
X130775821Y-161258000D01*
X130916392Y-161222857D01*
X130986678Y-161187714D01*
X131056964Y-161117428D01*
X131092107Y-161012000D01*
X131092107Y-160941714D01*
X131056964Y-160836285D01*
X131021821Y-160801142D01*
X130775821Y-160801142D01*
X130775821Y-160941714D01*
X131092107Y-160484857D02*
X130354107Y-160484857D01*
X131092107Y-160063142D01*
X130354107Y-160063142D01*
X131092107Y-159711714D02*
X130354107Y-159711714D01*
X130354107Y-159536000D01*
X130389250Y-159430571D01*
X130459535Y-159360285D01*
X130529821Y-159325142D01*
X130670392Y-159290000D01*
X130775821Y-159290000D01*
X130916392Y-159325142D01*
X130986678Y-159360285D01*
X131056964Y-159430571D01*
X131092107Y-159536000D01*
X131092107Y-159711714D01*
X93851964Y-159952857D02*
X93851964Y-159390571D01*
X94133107Y-159671714D02*
X93570821Y-159671714D01*
X93395107Y-158687714D02*
X93395107Y-159039142D01*
X93746535Y-159074285D01*
X93711392Y-159039142D01*
X93676250Y-158968857D01*
X93676250Y-158793142D01*
X93711392Y-158722857D01*
X93746535Y-158687714D01*
X93816821Y-158652571D01*
X93992535Y-158652571D01*
X94062821Y-158687714D01*
X94097964Y-158722857D01*
X94133107Y-158793142D01*
X94133107Y-158968857D01*
X94097964Y-159039142D01*
X94062821Y-159074285D01*
X93395107Y-158441714D02*
X94133107Y-158195714D01*
X93395107Y-157949714D01*
X94721750Y-159566285D02*
X94686607Y-159636571D01*
X94686607Y-159742000D01*
X94721750Y-159847428D01*
X94792035Y-159917714D01*
X94862321Y-159952857D01*
X95002892Y-159988000D01*
X95108321Y-159988000D01*
X95248892Y-159952857D01*
X95319178Y-159917714D01*
X95389464Y-159847428D01*
X95424607Y-159742000D01*
X95424607Y-159671714D01*
X95389464Y-159566285D01*
X95354321Y-159531142D01*
X95108321Y-159531142D01*
X95108321Y-159671714D01*
X95424607Y-159214857D02*
X94686607Y-159214857D01*
X95424607Y-158793142D01*
X94686607Y-158793142D01*
X95424607Y-158441714D02*
X94686607Y-158441714D01*
X94686607Y-158266000D01*
X94721750Y-158160571D01*
X94792035Y-158090285D01*
X94862321Y-158055142D01*
X95002892Y-158020000D01*
X95108321Y-158020000D01*
X95248892Y-158055142D01*
X95319178Y-158090285D01*
X95389464Y-158160571D01*
X95424607Y-158266000D01*
X95424607Y-158441714D01*
X96434964Y-159952857D02*
X96434964Y-159390571D01*
X95978107Y-158687714D02*
X95978107Y-159039142D01*
X96329535Y-159074285D01*
X96294392Y-159039142D01*
X96259250Y-158968857D01*
X96259250Y-158793142D01*
X96294392Y-158722857D01*
X96329535Y-158687714D01*
X96399821Y-158652571D01*
X96575535Y-158652571D01*
X96645821Y-158687714D01*
X96680964Y-158722857D01*
X96716107Y-158793142D01*
X96716107Y-158968857D01*
X96680964Y-159039142D01*
X96645821Y-159074285D01*
X95978107Y-158441714D02*
X96716107Y-158195714D01*
X95978107Y-157949714D01*
X98007607Y-159408142D02*
X97656178Y-159654142D01*
X98007607Y-159829857D02*
X97269607Y-159829857D01*
X97269607Y-159548714D01*
X97304750Y-159478428D01*
X97339892Y-159443285D01*
X97410178Y-159408142D01*
X97515607Y-159408142D01*
X97585892Y-159443285D01*
X97621035Y-159478428D01*
X97656178Y-159548714D01*
X97656178Y-159829857D01*
X97972464Y-159127000D02*
X98007607Y-159021571D01*
X98007607Y-158845857D01*
X97972464Y-158775571D01*
X97937321Y-158740428D01*
X97867035Y-158705285D01*
X97796750Y-158705285D01*
X97726464Y-158740428D01*
X97691321Y-158775571D01*
X97656178Y-158845857D01*
X97621035Y-158986428D01*
X97585892Y-159056714D01*
X97550750Y-159091857D01*
X97480464Y-159127000D01*
X97410178Y-159127000D01*
X97339892Y-159091857D01*
X97304750Y-159056714D01*
X97269607Y-158986428D01*
X97269607Y-158810714D01*
X97304750Y-158705285D01*
X97269607Y-158494428D02*
X97269607Y-158072714D01*
X98007607Y-158283571D02*
X97269607Y-158283571D01*
X99263964Y-159882571D02*
X99299107Y-159777142D01*
X99299107Y-159601428D01*
X99263964Y-159531142D01*
X99228821Y-159496000D01*
X99158535Y-159460857D01*
X99088250Y-159460857D01*
X99017964Y-159496000D01*
X98982821Y-159531142D01*
X98947678Y-159601428D01*
X98912535Y-159742000D01*
X98877392Y-159812285D01*
X98842250Y-159847428D01*
X98771964Y-159882571D01*
X98701678Y-159882571D01*
X98631392Y-159847428D01*
X98596250Y-159812285D01*
X98561107Y-159742000D01*
X98561107Y-159566285D01*
X98596250Y-159460857D01*
X99228821Y-158722857D02*
X99263964Y-158758000D01*
X99299107Y-158863428D01*
X99299107Y-158933714D01*
X99263964Y-159039142D01*
X99193678Y-159109428D01*
X99123392Y-159144571D01*
X98982821Y-159179714D01*
X98877392Y-159179714D01*
X98736821Y-159144571D01*
X98666535Y-159109428D01*
X98596250Y-159039142D01*
X98561107Y-158933714D01*
X98561107Y-158863428D01*
X98596250Y-158758000D01*
X98631392Y-158722857D01*
X99299107Y-158055142D02*
X99299107Y-158406571D01*
X98561107Y-158406571D01*
X100555464Y-159900142D02*
X100590607Y-159794714D01*
X100590607Y-159619000D01*
X100555464Y-159548714D01*
X100520321Y-159513571D01*
X100450035Y-159478428D01*
X100379750Y-159478428D01*
X100309464Y-159513571D01*
X100274321Y-159548714D01*
X100239178Y-159619000D01*
X100204035Y-159759571D01*
X100168892Y-159829857D01*
X100133750Y-159865000D01*
X100063464Y-159900142D01*
X99993178Y-159900142D01*
X99922892Y-159865000D01*
X99887750Y-159829857D01*
X99852607Y-159759571D01*
X99852607Y-159583857D01*
X99887750Y-159478428D01*
X100590607Y-159162142D02*
X99852607Y-159162142D01*
X99852607Y-158986428D01*
X99887750Y-158881000D01*
X99958035Y-158810714D01*
X100028321Y-158775571D01*
X100168892Y-158740428D01*
X100274321Y-158740428D01*
X100414892Y-158775571D01*
X100485178Y-158810714D01*
X100555464Y-158881000D01*
X100590607Y-158986428D01*
X100590607Y-159162142D01*
X100379750Y-158459285D02*
X100379750Y-158107857D01*
X100590607Y-158529571D02*
X99852607Y-158283571D01*
X100590607Y-158037571D01*
D11*
X142454761Y-35961142D02*
X141982380Y-36291809D01*
X142454761Y-36528000D02*
X141462761Y-36528000D01*
X141462761Y-36150095D01*
X141510000Y-36055619D01*
X141557238Y-36008380D01*
X141651714Y-35961142D01*
X141793428Y-35961142D01*
X141887904Y-36008380D01*
X141935142Y-36055619D01*
X141982380Y-36150095D01*
X141982380Y-36528000D01*
X142171333Y-35583238D02*
X142171333Y-35110857D01*
X142454761Y-35677714D02*
X141462761Y-35347047D01*
X142454761Y-35016380D01*
X141462761Y-34827428D02*
X141462761Y-34260571D01*
X142454761Y-34544000D02*
X141462761Y-34544000D01*
X141935142Y-33929904D02*
X141935142Y-33599238D01*
X142454761Y-33457523D02*
X142454761Y-33929904D01*
X141462761Y-33929904D01*
X141462761Y-33457523D01*
X142454761Y-32512761D02*
X142454761Y-33079619D01*
X142454761Y-32796190D02*
X141462761Y-32796190D01*
X141604476Y-32890666D01*
X141698952Y-32985142D01*
X141746190Y-33079619D01*
X144190761Y-36409904D02*
X143198761Y-36409904D01*
X143198761Y-36032000D01*
X143246000Y-35937523D01*
X143293238Y-35890285D01*
X143387714Y-35843047D01*
X143529428Y-35843047D01*
X143623904Y-35890285D01*
X143671142Y-35937523D01*
X143718380Y-36032000D01*
X143718380Y-36409904D01*
X143198761Y-35512380D02*
X144190761Y-35276190D01*
X143482190Y-35087238D01*
X144190761Y-34898285D01*
X143198761Y-34662095D01*
X144190761Y-34284190D02*
X143198761Y-34284190D01*
X143907333Y-33953523D01*
X143198761Y-33622857D01*
X144190761Y-33622857D01*
X143198761Y-33244952D02*
X143198761Y-32630857D01*
X143576666Y-32961523D01*
X143576666Y-32819809D01*
X143623904Y-32725333D01*
X143671142Y-32678095D01*
X143765619Y-32630857D01*
X144001809Y-32630857D01*
X144096285Y-32678095D01*
X144143523Y-32725333D01*
X144190761Y-32819809D01*
X144190761Y-33103238D01*
X144143523Y-33197714D01*
X144096285Y-33244952D01*
X145926761Y-36409904D02*
X144934761Y-36409904D01*
X144934761Y-36032000D01*
X144982000Y-35937523D01*
X145029238Y-35890285D01*
X145123714Y-35843047D01*
X145265428Y-35843047D01*
X145359904Y-35890285D01*
X145407142Y-35937523D01*
X145454380Y-36032000D01*
X145454380Y-36409904D01*
X144934761Y-35512380D02*
X145926761Y-35276190D01*
X145218190Y-35087238D01*
X145926761Y-34898285D01*
X144934761Y-34662095D01*
X145926761Y-34284190D02*
X144934761Y-34284190D01*
X145643333Y-33953523D01*
X144934761Y-33622857D01*
X145926761Y-33622857D01*
X145029238Y-33197714D02*
X144982000Y-33150476D01*
X144934761Y-33056000D01*
X144934761Y-32819809D01*
X144982000Y-32725333D01*
X145029238Y-32678095D01*
X145123714Y-32630857D01*
X145218190Y-32630857D01*
X145359904Y-32678095D01*
X145926761Y-33244952D01*
X145926761Y-32630857D01*
X147662761Y-36409904D02*
X146670761Y-36409904D01*
X146670761Y-36032000D01*
X146718000Y-35937523D01*
X146765238Y-35890285D01*
X146859714Y-35843047D01*
X147001428Y-35843047D01*
X147095904Y-35890285D01*
X147143142Y-35937523D01*
X147190380Y-36032000D01*
X147190380Y-36409904D01*
X146670761Y-35512380D02*
X147662761Y-35276190D01*
X146954190Y-35087238D01*
X147662761Y-34898285D01*
X146670761Y-34662095D01*
X147662761Y-34284190D02*
X146670761Y-34284190D01*
X147379333Y-33953523D01*
X146670761Y-33622857D01*
X147662761Y-33622857D01*
X147662761Y-32630857D02*
X147662761Y-33197714D01*
X147662761Y-32914285D02*
X146670761Y-32914285D01*
X146812476Y-33008761D01*
X146906952Y-33103238D01*
X146954190Y-33197714D01*
X149398761Y-36905904D02*
X148406761Y-36905904D01*
X148406761Y-36528000D01*
X148454000Y-36433523D01*
X148501238Y-36386285D01*
X148595714Y-36339047D01*
X148737428Y-36339047D01*
X148831904Y-36386285D01*
X148879142Y-36433523D01*
X148926380Y-36528000D01*
X148926380Y-36905904D01*
X149398761Y-35913904D02*
X148406761Y-35913904D01*
X148406761Y-35583238D02*
X148406761Y-35016380D01*
X149398761Y-35299809D02*
X148406761Y-35299809D01*
X149304285Y-34118857D02*
X149351523Y-34166095D01*
X149398761Y-34307809D01*
X149398761Y-34402285D01*
X149351523Y-34544000D01*
X149257047Y-34638476D01*
X149162571Y-34685714D01*
X148973619Y-34732952D01*
X148831904Y-34732952D01*
X148642952Y-34685714D01*
X148548476Y-34638476D01*
X148454000Y-34544000D01*
X148406761Y-34402285D01*
X148406761Y-34307809D01*
X148454000Y-34166095D01*
X148501238Y-34118857D01*
X149398761Y-33693714D02*
X148406761Y-33693714D01*
X148879142Y-33693714D02*
X148879142Y-33126857D01*
X149398761Y-33126857D02*
X148406761Y-33126857D01*
X149398761Y-32134857D02*
X149398761Y-32701714D01*
X149398761Y-32418285D02*
X148406761Y-32418285D01*
X148548476Y-32512761D01*
X148642952Y-32607238D01*
X148690190Y-32701714D01*
X151134761Y-36905904D02*
X150142761Y-36905904D01*
X150142761Y-36528000D01*
X150190000Y-36433523D01*
X150237238Y-36386285D01*
X150331714Y-36339047D01*
X150473428Y-36339047D01*
X150567904Y-36386285D01*
X150615142Y-36433523D01*
X150662380Y-36528000D01*
X150662380Y-36905904D01*
X151134761Y-35913904D02*
X150142761Y-35913904D01*
X150142761Y-35583238D02*
X150142761Y-35016380D01*
X151134761Y-35299809D02*
X150142761Y-35299809D01*
X151040285Y-34118857D02*
X151087523Y-34166095D01*
X151134761Y-34307809D01*
X151134761Y-34402285D01*
X151087523Y-34544000D01*
X150993047Y-34638476D01*
X150898571Y-34685714D01*
X150709619Y-34732952D01*
X150567904Y-34732952D01*
X150378952Y-34685714D01*
X150284476Y-34638476D01*
X150190000Y-34544000D01*
X150142761Y-34402285D01*
X150142761Y-34307809D01*
X150190000Y-34166095D01*
X150237238Y-34118857D01*
X151134761Y-33693714D02*
X150142761Y-33693714D01*
X150615142Y-33693714D02*
X150615142Y-33126857D01*
X151134761Y-33126857D02*
X150142761Y-33126857D01*
X150237238Y-32701714D02*
X150190000Y-32654476D01*
X150142761Y-32560000D01*
X150142761Y-32323809D01*
X150190000Y-32229333D01*
X150237238Y-32182095D01*
X150331714Y-32134857D01*
X150426190Y-32134857D01*
X150567904Y-32182095D01*
X151134761Y-32748952D01*
X151134761Y-32134857D01*
X152870761Y-36409904D02*
X151878761Y-36409904D01*
X151878761Y-36032000D01*
X151926000Y-35937523D01*
X151973238Y-35890285D01*
X152067714Y-35843047D01*
X152209428Y-35843047D01*
X152303904Y-35890285D01*
X152351142Y-35937523D01*
X152398380Y-36032000D01*
X152398380Y-36409904D01*
X151878761Y-35512380D02*
X152870761Y-35276190D01*
X152162190Y-35087238D01*
X152870761Y-34898285D01*
X151878761Y-34662095D01*
X152870761Y-34284190D02*
X151878761Y-34284190D01*
X152587333Y-33953523D01*
X151878761Y-33622857D01*
X152870761Y-33622857D01*
X152209428Y-32725333D02*
X152870761Y-32725333D01*
X151831523Y-32961523D02*
X152540095Y-33197714D01*
X152540095Y-32583619D01*
X154606761Y-35961142D02*
X154134380Y-36291809D01*
X154606761Y-36528000D02*
X153614761Y-36528000D01*
X153614761Y-36150095D01*
X153662000Y-36055619D01*
X153709238Y-36008380D01*
X153803714Y-35961142D01*
X153945428Y-35961142D01*
X154039904Y-36008380D01*
X154087142Y-36055619D01*
X154134380Y-36150095D01*
X154134380Y-36528000D01*
X154323333Y-35583238D02*
X154323333Y-35110857D01*
X154606761Y-35677714D02*
X153614761Y-35347047D01*
X154606761Y-35016380D01*
X153614761Y-34827428D02*
X153614761Y-34260571D01*
X154606761Y-34544000D02*
X153614761Y-34544000D01*
X154087142Y-33929904D02*
X154087142Y-33599238D01*
X154606761Y-33457523D02*
X154606761Y-33929904D01*
X153614761Y-33929904D01*
X153614761Y-33457523D01*
X153709238Y-33079619D02*
X153662000Y-33032380D01*
X153614761Y-32937904D01*
X153614761Y-32701714D01*
X153662000Y-32607238D01*
X153709238Y-32560000D01*
X153803714Y-32512761D01*
X153898190Y-32512761D01*
X154039904Y-32560000D01*
X154606761Y-33126857D01*
X154606761Y-32512761D01*
D12*
X18189666Y-38065666D02*
X17477666Y-38065666D01*
X17833666Y-38065666D02*
X17833666Y-36819666D01*
X17715000Y-36997666D01*
X17596333Y-37116333D01*
X17477666Y-37175666D01*
X19139000Y-37413000D02*
X19317000Y-37472333D01*
X19376333Y-37531666D01*
X19435666Y-37650333D01*
X19435666Y-37828333D01*
X19376333Y-37947000D01*
X19317000Y-38006333D01*
X19198333Y-38065666D01*
X18723666Y-38065666D01*
X18723666Y-36819666D01*
X19139000Y-36819666D01*
X19257666Y-36879000D01*
X19317000Y-36938333D01*
X19376333Y-37057000D01*
X19376333Y-37175666D01*
X19317000Y-37294333D01*
X19257666Y-37353666D01*
X19139000Y-37413000D01*
X18723666Y-37413000D01*
X20207000Y-36819666D02*
X20325666Y-36819666D01*
X20444333Y-36879000D01*
X20503666Y-36938333D01*
X20563000Y-37057000D01*
X20622333Y-37294333D01*
X20622333Y-37591000D01*
X20563000Y-37828333D01*
X20503666Y-37947000D01*
X20444333Y-38006333D01*
X20325666Y-38065666D01*
X20207000Y-38065666D01*
X20088333Y-38006333D01*
X20029000Y-37947000D01*
X19969666Y-37828333D01*
X19910333Y-37591000D01*
X19910333Y-37294333D01*
X19969666Y-37057000D01*
X20029000Y-36938333D01*
X20088333Y-36879000D01*
X20207000Y-36819666D01*
X18189666Y-39992166D02*
X17477666Y-39992166D01*
X17833666Y-39992166D02*
X17833666Y-38746166D01*
X17715000Y-38924166D01*
X17596333Y-39042833D01*
X17477666Y-39102166D01*
X19139000Y-39339500D02*
X19317000Y-39398833D01*
X19376333Y-39458166D01*
X19435666Y-39576833D01*
X19435666Y-39754833D01*
X19376333Y-39873500D01*
X19317000Y-39932833D01*
X19198333Y-39992166D01*
X18723666Y-39992166D01*
X18723666Y-38746166D01*
X19139000Y-38746166D01*
X19257666Y-38805500D01*
X19317000Y-38864833D01*
X19376333Y-38983500D01*
X19376333Y-39102166D01*
X19317000Y-39220833D01*
X19257666Y-39280166D01*
X19139000Y-39339500D01*
X18723666Y-39339500D01*
X20622333Y-39992166D02*
X19910333Y-39992166D01*
X20266333Y-39992166D02*
X20266333Y-38746166D01*
X20147666Y-38924166D01*
X20029000Y-39042833D01*
X19910333Y-39102166D01*
X18189666Y-41918666D02*
X17477666Y-41918666D01*
X17833666Y-41918666D02*
X17833666Y-40672666D01*
X17715000Y-40850666D01*
X17596333Y-40969333D01*
X17477666Y-41028666D01*
X19139000Y-41266000D02*
X19317000Y-41325333D01*
X19376333Y-41384666D01*
X19435666Y-41503333D01*
X19435666Y-41681333D01*
X19376333Y-41800000D01*
X19317000Y-41859333D01*
X19198333Y-41918666D01*
X18723666Y-41918666D01*
X18723666Y-40672666D01*
X19139000Y-40672666D01*
X19257666Y-40732000D01*
X19317000Y-40791333D01*
X19376333Y-40910000D01*
X19376333Y-41028666D01*
X19317000Y-41147333D01*
X19257666Y-41206666D01*
X19139000Y-41266000D01*
X18723666Y-41266000D01*
X19910333Y-40791333D02*
X19969666Y-40732000D01*
X20088333Y-40672666D01*
X20385000Y-40672666D01*
X20503666Y-40732000D01*
X20563000Y-40791333D01*
X20622333Y-40910000D01*
X20622333Y-41028666D01*
X20563000Y-41206666D01*
X19851000Y-41918666D01*
X20622333Y-41918666D01*
X18189666Y-43845166D02*
X17477666Y-43845166D01*
X17833666Y-43845166D02*
X17833666Y-42599166D01*
X17715000Y-42777166D01*
X17596333Y-42895833D01*
X17477666Y-42955166D01*
X19139000Y-43192500D02*
X19317000Y-43251833D01*
X19376333Y-43311166D01*
X19435666Y-43429833D01*
X19435666Y-43607833D01*
X19376333Y-43726500D01*
X19317000Y-43785833D01*
X19198333Y-43845166D01*
X18723666Y-43845166D01*
X18723666Y-42599166D01*
X19139000Y-42599166D01*
X19257666Y-42658500D01*
X19317000Y-42717833D01*
X19376333Y-42836500D01*
X19376333Y-42955166D01*
X19317000Y-43073833D01*
X19257666Y-43133166D01*
X19139000Y-43192500D01*
X18723666Y-43192500D01*
X19851000Y-42599166D02*
X20622333Y-42599166D01*
X20207000Y-43073833D01*
X20385000Y-43073833D01*
X20503666Y-43133166D01*
X20563000Y-43192500D01*
X20622333Y-43311166D01*
X20622333Y-43607833D01*
X20563000Y-43726500D01*
X20503666Y-43785833D01*
X20385000Y-43845166D01*
X20029000Y-43845166D01*
X19910333Y-43785833D01*
X19851000Y-43726500D01*
X18189666Y-45771666D02*
X17477666Y-45771666D01*
X17833666Y-45771666D02*
X17833666Y-44525666D01*
X17715000Y-44703666D01*
X17596333Y-44822333D01*
X17477666Y-44881666D01*
X19139000Y-45119000D02*
X19317000Y-45178333D01*
X19376333Y-45237666D01*
X19435666Y-45356333D01*
X19435666Y-45534333D01*
X19376333Y-45653000D01*
X19317000Y-45712333D01*
X19198333Y-45771666D01*
X18723666Y-45771666D01*
X18723666Y-44525666D01*
X19139000Y-44525666D01*
X19257666Y-44585000D01*
X19317000Y-44644333D01*
X19376333Y-44763000D01*
X19376333Y-44881666D01*
X19317000Y-45000333D01*
X19257666Y-45059666D01*
X19139000Y-45119000D01*
X18723666Y-45119000D01*
X20503666Y-44941000D02*
X20503666Y-45771666D01*
X20207000Y-44466333D02*
X19910333Y-45356333D01*
X20681666Y-45356333D01*
X18189666Y-47698166D02*
X17477666Y-47698166D01*
X17833666Y-47698166D02*
X17833666Y-46452166D01*
X17715000Y-46630166D01*
X17596333Y-46748833D01*
X17477666Y-46808166D01*
X19139000Y-47045500D02*
X19317000Y-47104833D01*
X19376333Y-47164166D01*
X19435666Y-47282833D01*
X19435666Y-47460833D01*
X19376333Y-47579500D01*
X19317000Y-47638833D01*
X19198333Y-47698166D01*
X18723666Y-47698166D01*
X18723666Y-46452166D01*
X19139000Y-46452166D01*
X19257666Y-46511500D01*
X19317000Y-46570833D01*
X19376333Y-46689500D01*
X19376333Y-46808166D01*
X19317000Y-46926833D01*
X19257666Y-46986166D01*
X19139000Y-47045500D01*
X18723666Y-47045500D01*
X20563000Y-46452166D02*
X19969666Y-46452166D01*
X19910333Y-47045500D01*
X19969666Y-46986166D01*
X20088333Y-46926833D01*
X20385000Y-46926833D01*
X20503666Y-46986166D01*
X20563000Y-47045500D01*
X20622333Y-47164166D01*
X20622333Y-47460833D01*
X20563000Y-47579500D01*
X20503666Y-47638833D01*
X20385000Y-47698166D01*
X20088333Y-47698166D01*
X19969666Y-47638833D01*
X19910333Y-47579500D01*
X18189666Y-49624666D02*
X17477666Y-49624666D01*
X17833666Y-49624666D02*
X17833666Y-48378666D01*
X17715000Y-48556666D01*
X17596333Y-48675333D01*
X17477666Y-48734666D01*
X19139000Y-48972000D02*
X19317000Y-49031333D01*
X19376333Y-49090666D01*
X19435666Y-49209333D01*
X19435666Y-49387333D01*
X19376333Y-49506000D01*
X19317000Y-49565333D01*
X19198333Y-49624666D01*
X18723666Y-49624666D01*
X18723666Y-48378666D01*
X19139000Y-48378666D01*
X19257666Y-48438000D01*
X19317000Y-48497333D01*
X19376333Y-48616000D01*
X19376333Y-48734666D01*
X19317000Y-48853333D01*
X19257666Y-48912666D01*
X19139000Y-48972000D01*
X18723666Y-48972000D01*
X20503666Y-48378666D02*
X20266333Y-48378666D01*
X20147666Y-48438000D01*
X20088333Y-48497333D01*
X19969666Y-48675333D01*
X19910333Y-48912666D01*
X19910333Y-49387333D01*
X19969666Y-49506000D01*
X20029000Y-49565333D01*
X20147666Y-49624666D01*
X20385000Y-49624666D01*
X20503666Y-49565333D01*
X20563000Y-49506000D01*
X20622333Y-49387333D01*
X20622333Y-49090666D01*
X20563000Y-48972000D01*
X20503666Y-48912666D01*
X20385000Y-48853333D01*
X20147666Y-48853333D01*
X20029000Y-48912666D01*
X19969666Y-48972000D01*
X19910333Y-49090666D01*
X18189666Y-51551166D02*
X17477666Y-51551166D01*
X17833666Y-51551166D02*
X17833666Y-50305166D01*
X17715000Y-50483166D01*
X17596333Y-50601833D01*
X17477666Y-50661166D01*
X19139000Y-50898500D02*
X19317000Y-50957833D01*
X19376333Y-51017166D01*
X19435666Y-51135833D01*
X19435666Y-51313833D01*
X19376333Y-51432500D01*
X19317000Y-51491833D01*
X19198333Y-51551166D01*
X18723666Y-51551166D01*
X18723666Y-50305166D01*
X19139000Y-50305166D01*
X19257666Y-50364500D01*
X19317000Y-50423833D01*
X19376333Y-50542500D01*
X19376333Y-50661166D01*
X19317000Y-50779833D01*
X19257666Y-50839166D01*
X19139000Y-50898500D01*
X18723666Y-50898500D01*
X19851000Y-50305166D02*
X20681666Y-50305166D01*
X20147666Y-51551166D01*
X18278666Y-53477666D02*
X17566666Y-53477666D01*
X17922666Y-53477666D02*
X17922666Y-52231666D01*
X17804000Y-52409666D01*
X17685333Y-52528333D01*
X17566666Y-52587666D01*
X18753333Y-53121666D02*
X19346666Y-53121666D01*
X18634666Y-53477666D02*
X19050000Y-52231666D01*
X19465333Y-53477666D01*
X19762000Y-52231666D02*
X20592666Y-52231666D01*
X20058666Y-53477666D01*
X18278666Y-55404166D02*
X17566666Y-55404166D01*
X17922666Y-55404166D02*
X17922666Y-54158166D01*
X17804000Y-54336166D01*
X17685333Y-54454833D01*
X17566666Y-54514166D01*
X18753333Y-55048166D02*
X19346666Y-55048166D01*
X18634666Y-55404166D02*
X19050000Y-54158166D01*
X19465333Y-55404166D01*
X20414666Y-54158166D02*
X20177333Y-54158166D01*
X20058666Y-54217500D01*
X19999333Y-54276833D01*
X19880666Y-54454833D01*
X19821333Y-54692166D01*
X19821333Y-55166833D01*
X19880666Y-55285500D01*
X19940000Y-55344833D01*
X20058666Y-55404166D01*
X20296000Y-55404166D01*
X20414666Y-55344833D01*
X20474000Y-55285500D01*
X20533333Y-55166833D01*
X20533333Y-54870166D01*
X20474000Y-54751500D01*
X20414666Y-54692166D01*
X20296000Y-54632833D01*
X20058666Y-54632833D01*
X19940000Y-54692166D01*
X19880666Y-54751500D01*
X19821333Y-54870166D01*
X18278666Y-57330666D02*
X17566666Y-57330666D01*
X17922666Y-57330666D02*
X17922666Y-56084666D01*
X17804000Y-56262666D01*
X17685333Y-56381333D01*
X17566666Y-56440666D01*
X18753333Y-56974666D02*
X19346666Y-56974666D01*
X18634666Y-57330666D02*
X19050000Y-56084666D01*
X19465333Y-57330666D01*
X20474000Y-56084666D02*
X19880666Y-56084666D01*
X19821333Y-56678000D01*
X19880666Y-56618666D01*
X19999333Y-56559333D01*
X20296000Y-56559333D01*
X20414666Y-56618666D01*
X20474000Y-56678000D01*
X20533333Y-56796666D01*
X20533333Y-57093333D01*
X20474000Y-57212000D01*
X20414666Y-57271333D01*
X20296000Y-57330666D01*
X19999333Y-57330666D01*
X19880666Y-57271333D01*
X19821333Y-57212000D01*
X18278666Y-59257166D02*
X17566666Y-59257166D01*
X17922666Y-59257166D02*
X17922666Y-58011166D01*
X17804000Y-58189166D01*
X17685333Y-58307833D01*
X17566666Y-58367166D01*
X18753333Y-58901166D02*
X19346666Y-58901166D01*
X18634666Y-59257166D02*
X19050000Y-58011166D01*
X19465333Y-59257166D01*
X20414666Y-58426500D02*
X20414666Y-59257166D01*
X20118000Y-57951833D02*
X19821333Y-58841833D01*
X20592666Y-58841833D01*
X18278666Y-61183666D02*
X17566666Y-61183666D01*
X17922666Y-61183666D02*
X17922666Y-59937666D01*
X17804000Y-60115666D01*
X17685333Y-60234333D01*
X17566666Y-60293666D01*
X18753333Y-60827666D02*
X19346666Y-60827666D01*
X18634666Y-61183666D02*
X19050000Y-59937666D01*
X19465333Y-61183666D01*
X19762000Y-59937666D02*
X20533333Y-59937666D01*
X20118000Y-60412333D01*
X20296000Y-60412333D01*
X20414666Y-60471666D01*
X20474000Y-60531000D01*
X20533333Y-60649666D01*
X20533333Y-60946333D01*
X20474000Y-61065000D01*
X20414666Y-61124333D01*
X20296000Y-61183666D01*
X19940000Y-61183666D01*
X19821333Y-61124333D01*
X19762000Y-61065000D01*
X18278666Y-63110166D02*
X17566666Y-63110166D01*
X17922666Y-63110166D02*
X17922666Y-61864166D01*
X17804000Y-62042166D01*
X17685333Y-62160833D01*
X17566666Y-62220166D01*
X18753333Y-62754166D02*
X19346666Y-62754166D01*
X18634666Y-63110166D02*
X19050000Y-61864166D01*
X19465333Y-63110166D01*
X19821333Y-61982833D02*
X19880666Y-61923500D01*
X19999333Y-61864166D01*
X20296000Y-61864166D01*
X20414666Y-61923500D01*
X20474000Y-61982833D01*
X20533333Y-62101500D01*
X20533333Y-62220166D01*
X20474000Y-62398166D01*
X19762000Y-63110166D01*
X20533333Y-63110166D01*
X18278666Y-65036666D02*
X17566666Y-65036666D01*
X17922666Y-65036666D02*
X17922666Y-63790666D01*
X17804000Y-63968666D01*
X17685333Y-64087333D01*
X17566666Y-64146666D01*
X18753333Y-64680666D02*
X19346666Y-64680666D01*
X18634666Y-65036666D02*
X19050000Y-63790666D01*
X19465333Y-65036666D01*
X20533333Y-65036666D02*
X19821333Y-65036666D01*
X20177333Y-65036666D02*
X20177333Y-63790666D01*
X20058666Y-63968666D01*
X19940000Y-64087333D01*
X19821333Y-64146666D01*
X18278666Y-66963166D02*
X17566666Y-66963166D01*
X17922666Y-66963166D02*
X17922666Y-65717166D01*
X17804000Y-65895166D01*
X17685333Y-66013833D01*
X17566666Y-66073166D01*
X18753333Y-66607166D02*
X19346666Y-66607166D01*
X18634666Y-66963166D02*
X19050000Y-65717166D01*
X19465333Y-66963166D01*
X20118000Y-65717166D02*
X20236666Y-65717166D01*
X20355333Y-65776500D01*
X20414666Y-65835833D01*
X20474000Y-65954500D01*
X20533333Y-66191833D01*
X20533333Y-66488500D01*
X20474000Y-66725833D01*
X20414666Y-66844500D01*
X20355333Y-66903833D01*
X20236666Y-66963166D01*
X20118000Y-66963166D01*
X19999333Y-66903833D01*
X19940000Y-66844500D01*
X19880666Y-66725833D01*
X19821333Y-66488500D01*
X19821333Y-66191833D01*
X19880666Y-65954500D01*
X19940000Y-65835833D01*
X19999333Y-65776500D01*
X20118000Y-65717166D01*
X17477666Y-69688833D02*
X17537000Y-69629500D01*
X17655666Y-69570166D01*
X17952333Y-69570166D01*
X18071000Y-69629500D01*
X18130333Y-69688833D01*
X18189666Y-69807500D01*
X18189666Y-69926166D01*
X18130333Y-70104166D01*
X17418333Y-70816166D01*
X18189666Y-70816166D01*
X19139000Y-70163500D02*
X19317000Y-70222833D01*
X19376333Y-70282166D01*
X19435666Y-70400833D01*
X19435666Y-70578833D01*
X19376333Y-70697500D01*
X19317000Y-70756833D01*
X19198333Y-70816166D01*
X18723666Y-70816166D01*
X18723666Y-69570166D01*
X19139000Y-69570166D01*
X19257666Y-69629500D01*
X19317000Y-69688833D01*
X19376333Y-69807500D01*
X19376333Y-69926166D01*
X19317000Y-70044833D01*
X19257666Y-70104166D01*
X19139000Y-70163500D01*
X18723666Y-70163500D01*
X19851000Y-69570166D02*
X20681666Y-69570166D01*
X20147666Y-70816166D01*
X17477666Y-71615333D02*
X17537000Y-71556000D01*
X17655666Y-71496666D01*
X17952333Y-71496666D01*
X18071000Y-71556000D01*
X18130333Y-71615333D01*
X18189666Y-71734000D01*
X18189666Y-71852666D01*
X18130333Y-72030666D01*
X17418333Y-72742666D01*
X18189666Y-72742666D01*
X19139000Y-72090000D02*
X19317000Y-72149333D01*
X19376333Y-72208666D01*
X19435666Y-72327333D01*
X19435666Y-72505333D01*
X19376333Y-72624000D01*
X19317000Y-72683333D01*
X19198333Y-72742666D01*
X18723666Y-72742666D01*
X18723666Y-71496666D01*
X19139000Y-71496666D01*
X19257666Y-71556000D01*
X19317000Y-71615333D01*
X19376333Y-71734000D01*
X19376333Y-71852666D01*
X19317000Y-71971333D01*
X19257666Y-72030666D01*
X19139000Y-72090000D01*
X18723666Y-72090000D01*
X20503666Y-71496666D02*
X20266333Y-71496666D01*
X20147666Y-71556000D01*
X20088333Y-71615333D01*
X19969666Y-71793333D01*
X19910333Y-72030666D01*
X19910333Y-72505333D01*
X19969666Y-72624000D01*
X20029000Y-72683333D01*
X20147666Y-72742666D01*
X20385000Y-72742666D01*
X20503666Y-72683333D01*
X20563000Y-72624000D01*
X20622333Y-72505333D01*
X20622333Y-72208666D01*
X20563000Y-72090000D01*
X20503666Y-72030666D01*
X20385000Y-71971333D01*
X20147666Y-71971333D01*
X20029000Y-72030666D01*
X19969666Y-72090000D01*
X19910333Y-72208666D01*
X17477666Y-73541833D02*
X17537000Y-73482500D01*
X17655666Y-73423166D01*
X17952333Y-73423166D01*
X18071000Y-73482500D01*
X18130333Y-73541833D01*
X18189666Y-73660500D01*
X18189666Y-73779166D01*
X18130333Y-73957166D01*
X17418333Y-74669166D01*
X18189666Y-74669166D01*
X19139000Y-74016500D02*
X19317000Y-74075833D01*
X19376333Y-74135166D01*
X19435666Y-74253833D01*
X19435666Y-74431833D01*
X19376333Y-74550500D01*
X19317000Y-74609833D01*
X19198333Y-74669166D01*
X18723666Y-74669166D01*
X18723666Y-73423166D01*
X19139000Y-73423166D01*
X19257666Y-73482500D01*
X19317000Y-73541833D01*
X19376333Y-73660500D01*
X19376333Y-73779166D01*
X19317000Y-73897833D01*
X19257666Y-73957166D01*
X19139000Y-74016500D01*
X18723666Y-74016500D01*
X20563000Y-73423166D02*
X19969666Y-73423166D01*
X19910333Y-74016500D01*
X19969666Y-73957166D01*
X20088333Y-73897833D01*
X20385000Y-73897833D01*
X20503666Y-73957166D01*
X20563000Y-74016500D01*
X20622333Y-74135166D01*
X20622333Y-74431833D01*
X20563000Y-74550500D01*
X20503666Y-74609833D01*
X20385000Y-74669166D01*
X20088333Y-74669166D01*
X19969666Y-74609833D01*
X19910333Y-74550500D01*
X17477666Y-75468333D02*
X17537000Y-75409000D01*
X17655666Y-75349666D01*
X17952333Y-75349666D01*
X18071000Y-75409000D01*
X18130333Y-75468333D01*
X18189666Y-75587000D01*
X18189666Y-75705666D01*
X18130333Y-75883666D01*
X17418333Y-76595666D01*
X18189666Y-76595666D01*
X19139000Y-75943000D02*
X19317000Y-76002333D01*
X19376333Y-76061666D01*
X19435666Y-76180333D01*
X19435666Y-76358333D01*
X19376333Y-76477000D01*
X19317000Y-76536333D01*
X19198333Y-76595666D01*
X18723666Y-76595666D01*
X18723666Y-75349666D01*
X19139000Y-75349666D01*
X19257666Y-75409000D01*
X19317000Y-75468333D01*
X19376333Y-75587000D01*
X19376333Y-75705666D01*
X19317000Y-75824333D01*
X19257666Y-75883666D01*
X19139000Y-75943000D01*
X18723666Y-75943000D01*
X20503666Y-75765000D02*
X20503666Y-76595666D01*
X20207000Y-75290333D02*
X19910333Y-76180333D01*
X20681666Y-76180333D01*
X17477666Y-77394833D02*
X17537000Y-77335500D01*
X17655666Y-77276166D01*
X17952333Y-77276166D01*
X18071000Y-77335500D01*
X18130333Y-77394833D01*
X18189666Y-77513500D01*
X18189666Y-77632166D01*
X18130333Y-77810166D01*
X17418333Y-78522166D01*
X18189666Y-78522166D01*
X19139000Y-77869500D02*
X19317000Y-77928833D01*
X19376333Y-77988166D01*
X19435666Y-78106833D01*
X19435666Y-78284833D01*
X19376333Y-78403500D01*
X19317000Y-78462833D01*
X19198333Y-78522166D01*
X18723666Y-78522166D01*
X18723666Y-77276166D01*
X19139000Y-77276166D01*
X19257666Y-77335500D01*
X19317000Y-77394833D01*
X19376333Y-77513500D01*
X19376333Y-77632166D01*
X19317000Y-77750833D01*
X19257666Y-77810166D01*
X19139000Y-77869500D01*
X18723666Y-77869500D01*
X19851000Y-77276166D02*
X20622333Y-77276166D01*
X20207000Y-77750833D01*
X20385000Y-77750833D01*
X20503666Y-77810166D01*
X20563000Y-77869500D01*
X20622333Y-77988166D01*
X20622333Y-78284833D01*
X20563000Y-78403500D01*
X20503666Y-78462833D01*
X20385000Y-78522166D01*
X20029000Y-78522166D01*
X19910333Y-78462833D01*
X19851000Y-78403500D01*
X17477666Y-79321333D02*
X17537000Y-79262000D01*
X17655666Y-79202666D01*
X17952333Y-79202666D01*
X18071000Y-79262000D01*
X18130333Y-79321333D01*
X18189666Y-79440000D01*
X18189666Y-79558666D01*
X18130333Y-79736666D01*
X17418333Y-80448666D01*
X18189666Y-80448666D01*
X19139000Y-79796000D02*
X19317000Y-79855333D01*
X19376333Y-79914666D01*
X19435666Y-80033333D01*
X19435666Y-80211333D01*
X19376333Y-80330000D01*
X19317000Y-80389333D01*
X19198333Y-80448666D01*
X18723666Y-80448666D01*
X18723666Y-79202666D01*
X19139000Y-79202666D01*
X19257666Y-79262000D01*
X19317000Y-79321333D01*
X19376333Y-79440000D01*
X19376333Y-79558666D01*
X19317000Y-79677333D01*
X19257666Y-79736666D01*
X19139000Y-79796000D01*
X18723666Y-79796000D01*
X19910333Y-79321333D02*
X19969666Y-79262000D01*
X20088333Y-79202666D01*
X20385000Y-79202666D01*
X20503666Y-79262000D01*
X20563000Y-79321333D01*
X20622333Y-79440000D01*
X20622333Y-79558666D01*
X20563000Y-79736666D01*
X19851000Y-80448666D01*
X20622333Y-80448666D01*
X17477666Y-81247833D02*
X17537000Y-81188500D01*
X17655666Y-81129166D01*
X17952333Y-81129166D01*
X18071000Y-81188500D01*
X18130333Y-81247833D01*
X18189666Y-81366500D01*
X18189666Y-81485166D01*
X18130333Y-81663166D01*
X17418333Y-82375166D01*
X18189666Y-82375166D01*
X19139000Y-81722500D02*
X19317000Y-81781833D01*
X19376333Y-81841166D01*
X19435666Y-81959833D01*
X19435666Y-82137833D01*
X19376333Y-82256500D01*
X19317000Y-82315833D01*
X19198333Y-82375166D01*
X18723666Y-82375166D01*
X18723666Y-81129166D01*
X19139000Y-81129166D01*
X19257666Y-81188500D01*
X19317000Y-81247833D01*
X19376333Y-81366500D01*
X19376333Y-81485166D01*
X19317000Y-81603833D01*
X19257666Y-81663166D01*
X19139000Y-81722500D01*
X18723666Y-81722500D01*
X20622333Y-82375166D02*
X19910333Y-82375166D01*
X20266333Y-82375166D02*
X20266333Y-81129166D01*
X20147666Y-81307166D01*
X20029000Y-81425833D01*
X19910333Y-81485166D01*
X17477666Y-83174333D02*
X17537000Y-83115000D01*
X17655666Y-83055666D01*
X17952333Y-83055666D01*
X18071000Y-83115000D01*
X18130333Y-83174333D01*
X18189666Y-83293000D01*
X18189666Y-83411666D01*
X18130333Y-83589666D01*
X17418333Y-84301666D01*
X18189666Y-84301666D01*
X19139000Y-83649000D02*
X19317000Y-83708333D01*
X19376333Y-83767666D01*
X19435666Y-83886333D01*
X19435666Y-84064333D01*
X19376333Y-84183000D01*
X19317000Y-84242333D01*
X19198333Y-84301666D01*
X18723666Y-84301666D01*
X18723666Y-83055666D01*
X19139000Y-83055666D01*
X19257666Y-83115000D01*
X19317000Y-83174333D01*
X19376333Y-83293000D01*
X19376333Y-83411666D01*
X19317000Y-83530333D01*
X19257666Y-83589666D01*
X19139000Y-83649000D01*
X18723666Y-83649000D01*
X20207000Y-83055666D02*
X20325666Y-83055666D01*
X20444333Y-83115000D01*
X20503666Y-83174333D01*
X20563000Y-83293000D01*
X20622333Y-83530333D01*
X20622333Y-83827000D01*
X20563000Y-84064333D01*
X20503666Y-84183000D01*
X20444333Y-84242333D01*
X20325666Y-84301666D01*
X20207000Y-84301666D01*
X20088333Y-84242333D01*
X20029000Y-84183000D01*
X19969666Y-84064333D01*
X19910333Y-83827000D01*
X19910333Y-83530333D01*
X19969666Y-83293000D01*
X20029000Y-83174333D01*
X20088333Y-83115000D01*
X20207000Y-83055666D01*
X17566666Y-85100833D02*
X17626000Y-85041500D01*
X17744666Y-84982166D01*
X18041333Y-84982166D01*
X18160000Y-85041500D01*
X18219333Y-85100833D01*
X18278666Y-85219500D01*
X18278666Y-85338166D01*
X18219333Y-85516166D01*
X17507333Y-86228166D01*
X18278666Y-86228166D01*
X18753333Y-85872166D02*
X19346666Y-85872166D01*
X18634666Y-86228166D02*
X19050000Y-84982166D01*
X19465333Y-86228166D01*
X20118000Y-84982166D02*
X20236666Y-84982166D01*
X20355333Y-85041500D01*
X20414666Y-85100833D01*
X20474000Y-85219500D01*
X20533333Y-85456833D01*
X20533333Y-85753500D01*
X20474000Y-85990833D01*
X20414666Y-86109500D01*
X20355333Y-86168833D01*
X20236666Y-86228166D01*
X20118000Y-86228166D01*
X19999333Y-86168833D01*
X19940000Y-86109500D01*
X19880666Y-85990833D01*
X19821333Y-85753500D01*
X19821333Y-85456833D01*
X19880666Y-85219500D01*
X19940000Y-85100833D01*
X19999333Y-85041500D01*
X20118000Y-84982166D01*
X17566666Y-87027333D02*
X17626000Y-86968000D01*
X17744666Y-86908666D01*
X18041333Y-86908666D01*
X18160000Y-86968000D01*
X18219333Y-87027333D01*
X18278666Y-87146000D01*
X18278666Y-87264666D01*
X18219333Y-87442666D01*
X17507333Y-88154666D01*
X18278666Y-88154666D01*
X18753333Y-87798666D02*
X19346666Y-87798666D01*
X18634666Y-88154666D02*
X19050000Y-86908666D01*
X19465333Y-88154666D01*
X20533333Y-88154666D02*
X19821333Y-88154666D01*
X20177333Y-88154666D02*
X20177333Y-86908666D01*
X20058666Y-87086666D01*
X19940000Y-87205333D01*
X19821333Y-87264666D01*
X17566666Y-88953833D02*
X17626000Y-88894500D01*
X17744666Y-88835166D01*
X18041333Y-88835166D01*
X18160000Y-88894500D01*
X18219333Y-88953833D01*
X18278666Y-89072500D01*
X18278666Y-89191166D01*
X18219333Y-89369166D01*
X17507333Y-90081166D01*
X18278666Y-90081166D01*
X18753333Y-89725166D02*
X19346666Y-89725166D01*
X18634666Y-90081166D02*
X19050000Y-88835166D01*
X19465333Y-90081166D01*
X19821333Y-88953833D02*
X19880666Y-88894500D01*
X19999333Y-88835166D01*
X20296000Y-88835166D01*
X20414666Y-88894500D01*
X20474000Y-88953833D01*
X20533333Y-89072500D01*
X20533333Y-89191166D01*
X20474000Y-89369166D01*
X19762000Y-90081166D01*
X20533333Y-90081166D01*
X17566666Y-90880333D02*
X17626000Y-90821000D01*
X17744666Y-90761666D01*
X18041333Y-90761666D01*
X18160000Y-90821000D01*
X18219333Y-90880333D01*
X18278666Y-90999000D01*
X18278666Y-91117666D01*
X18219333Y-91295666D01*
X17507333Y-92007666D01*
X18278666Y-92007666D01*
X18753333Y-91651666D02*
X19346666Y-91651666D01*
X18634666Y-92007666D02*
X19050000Y-90761666D01*
X19465333Y-92007666D01*
X19762000Y-90761666D02*
X20533333Y-90761666D01*
X20118000Y-91236333D01*
X20296000Y-91236333D01*
X20414666Y-91295666D01*
X20474000Y-91355000D01*
X20533333Y-91473666D01*
X20533333Y-91770333D01*
X20474000Y-91889000D01*
X20414666Y-91948333D01*
X20296000Y-92007666D01*
X19940000Y-92007666D01*
X19821333Y-91948333D01*
X19762000Y-91889000D01*
X17566666Y-92806833D02*
X17626000Y-92747500D01*
X17744666Y-92688166D01*
X18041333Y-92688166D01*
X18160000Y-92747500D01*
X18219333Y-92806833D01*
X18278666Y-92925500D01*
X18278666Y-93044166D01*
X18219333Y-93222166D01*
X17507333Y-93934166D01*
X18278666Y-93934166D01*
X18753333Y-93578166D02*
X19346666Y-93578166D01*
X18634666Y-93934166D02*
X19050000Y-92688166D01*
X19465333Y-93934166D01*
X20414666Y-93103500D02*
X20414666Y-93934166D01*
X20118000Y-92628833D02*
X19821333Y-93518833D01*
X20592666Y-93518833D01*
X17566666Y-94733333D02*
X17626000Y-94674000D01*
X17744666Y-94614666D01*
X18041333Y-94614666D01*
X18160000Y-94674000D01*
X18219333Y-94733333D01*
X18278666Y-94852000D01*
X18278666Y-94970666D01*
X18219333Y-95148666D01*
X17507333Y-95860666D01*
X18278666Y-95860666D01*
X18753333Y-95504666D02*
X19346666Y-95504666D01*
X18634666Y-95860666D02*
X19050000Y-94614666D01*
X19465333Y-95860666D01*
X20474000Y-94614666D02*
X19880666Y-94614666D01*
X19821333Y-95208000D01*
X19880666Y-95148666D01*
X19999333Y-95089333D01*
X20296000Y-95089333D01*
X20414666Y-95148666D01*
X20474000Y-95208000D01*
X20533333Y-95326666D01*
X20533333Y-95623333D01*
X20474000Y-95742000D01*
X20414666Y-95801333D01*
X20296000Y-95860666D01*
X19999333Y-95860666D01*
X19880666Y-95801333D01*
X19821333Y-95742000D01*
X17566666Y-96659833D02*
X17626000Y-96600500D01*
X17744666Y-96541166D01*
X18041333Y-96541166D01*
X18160000Y-96600500D01*
X18219333Y-96659833D01*
X18278666Y-96778500D01*
X18278666Y-96897166D01*
X18219333Y-97075166D01*
X17507333Y-97787166D01*
X18278666Y-97787166D01*
X18753333Y-97431166D02*
X19346666Y-97431166D01*
X18634666Y-97787166D02*
X19050000Y-96541166D01*
X19465333Y-97787166D01*
X20414666Y-96541166D02*
X20177333Y-96541166D01*
X20058666Y-96600500D01*
X19999333Y-96659833D01*
X19880666Y-96837833D01*
X19821333Y-97075166D01*
X19821333Y-97549833D01*
X19880666Y-97668500D01*
X19940000Y-97727833D01*
X20058666Y-97787166D01*
X20296000Y-97787166D01*
X20414666Y-97727833D01*
X20474000Y-97668500D01*
X20533333Y-97549833D01*
X20533333Y-97253166D01*
X20474000Y-97134500D01*
X20414666Y-97075166D01*
X20296000Y-97015833D01*
X20058666Y-97015833D01*
X19940000Y-97075166D01*
X19880666Y-97134500D01*
X19821333Y-97253166D01*
X17566666Y-98586333D02*
X17626000Y-98527000D01*
X17744666Y-98467666D01*
X18041333Y-98467666D01*
X18160000Y-98527000D01*
X18219333Y-98586333D01*
X18278666Y-98705000D01*
X18278666Y-98823666D01*
X18219333Y-99001666D01*
X17507333Y-99713666D01*
X18278666Y-99713666D01*
X18753333Y-99357666D02*
X19346666Y-99357666D01*
X18634666Y-99713666D02*
X19050000Y-98467666D01*
X19465333Y-99713666D01*
X19762000Y-98467666D02*
X20592666Y-98467666D01*
X20058666Y-99713666D01*
X29347000Y-21646166D02*
X29584333Y-21646166D01*
X29703000Y-21705500D01*
X29821666Y-21824166D01*
X29881000Y-22061500D01*
X29881000Y-22476833D01*
X29821666Y-22714166D01*
X29703000Y-22832833D01*
X29584333Y-22892166D01*
X29347000Y-22892166D01*
X29228333Y-22832833D01*
X29109666Y-22714166D01*
X29050333Y-22476833D01*
X29050333Y-22061500D01*
X29109666Y-21824166D01*
X29228333Y-21705500D01*
X29347000Y-21646166D01*
X30355666Y-22832833D02*
X30533666Y-22892166D01*
X30830333Y-22892166D01*
X30949000Y-22832833D01*
X31008333Y-22773500D01*
X31067666Y-22654833D01*
X31067666Y-22536166D01*
X31008333Y-22417500D01*
X30949000Y-22358166D01*
X30830333Y-22298833D01*
X30593000Y-22239500D01*
X30474333Y-22180166D01*
X30415000Y-22120833D01*
X30355666Y-22002166D01*
X30355666Y-21883500D01*
X30415000Y-21764833D01*
X30474333Y-21705500D01*
X30593000Y-21646166D01*
X30889666Y-21646166D01*
X31067666Y-21705500D01*
X32313666Y-22773500D02*
X32254333Y-22832833D01*
X32076333Y-22892166D01*
X31957666Y-22892166D01*
X31779666Y-22832833D01*
X31661000Y-22714166D01*
X31601666Y-22595500D01*
X31542333Y-22358166D01*
X31542333Y-22180166D01*
X31601666Y-21942833D01*
X31661000Y-21824166D01*
X31779666Y-21705500D01*
X31957666Y-21646166D01*
X32076333Y-21646166D01*
X32254333Y-21705500D01*
X32313666Y-21764833D01*
X34449666Y-22892166D02*
X33737666Y-22892166D01*
X34093666Y-22892166D02*
X34093666Y-21646166D01*
X33975000Y-21824166D01*
X33856333Y-21942833D01*
X33737666Y-22002166D01*
X29347000Y-23572666D02*
X29584333Y-23572666D01*
X29703000Y-23632000D01*
X29821666Y-23750666D01*
X29881000Y-23988000D01*
X29881000Y-24403333D01*
X29821666Y-24640666D01*
X29703000Y-24759333D01*
X29584333Y-24818666D01*
X29347000Y-24818666D01*
X29228333Y-24759333D01*
X29109666Y-24640666D01*
X29050333Y-24403333D01*
X29050333Y-23988000D01*
X29109666Y-23750666D01*
X29228333Y-23632000D01*
X29347000Y-23572666D01*
X30355666Y-24759333D02*
X30533666Y-24818666D01*
X30830333Y-24818666D01*
X30949000Y-24759333D01*
X31008333Y-24700000D01*
X31067666Y-24581333D01*
X31067666Y-24462666D01*
X31008333Y-24344000D01*
X30949000Y-24284666D01*
X30830333Y-24225333D01*
X30593000Y-24166000D01*
X30474333Y-24106666D01*
X30415000Y-24047333D01*
X30355666Y-23928666D01*
X30355666Y-23810000D01*
X30415000Y-23691333D01*
X30474333Y-23632000D01*
X30593000Y-23572666D01*
X30889666Y-23572666D01*
X31067666Y-23632000D01*
X32313666Y-24700000D02*
X32254333Y-24759333D01*
X32076333Y-24818666D01*
X31957666Y-24818666D01*
X31779666Y-24759333D01*
X31661000Y-24640666D01*
X31601666Y-24522000D01*
X31542333Y-24284666D01*
X31542333Y-24106666D01*
X31601666Y-23869333D01*
X31661000Y-23750666D01*
X31779666Y-23632000D01*
X31957666Y-23572666D01*
X32076333Y-23572666D01*
X32254333Y-23632000D01*
X32313666Y-23691333D01*
X33737666Y-23691333D02*
X33797000Y-23632000D01*
X33915666Y-23572666D01*
X34212333Y-23572666D01*
X34331000Y-23632000D01*
X34390333Y-23691333D01*
X34449666Y-23810000D01*
X34449666Y-23928666D01*
X34390333Y-24106666D01*
X33678333Y-24818666D01*
X34449666Y-24818666D01*
X29881000Y-26745166D02*
X29287666Y-26745166D01*
X29287666Y-25499166D01*
X30711666Y-26092500D02*
X30296333Y-26092500D01*
X30296333Y-26745166D02*
X30296333Y-25499166D01*
X30889666Y-25499166D01*
X31601666Y-25499166D02*
X31839000Y-25499166D01*
X31957666Y-25558500D01*
X32076333Y-25677166D01*
X32135666Y-25914500D01*
X32135666Y-26329833D01*
X32076333Y-26567166D01*
X31957666Y-26685833D01*
X31839000Y-26745166D01*
X31601666Y-26745166D01*
X31483000Y-26685833D01*
X31364333Y-26567166D01*
X31305000Y-26329833D01*
X31305000Y-25914500D01*
X31364333Y-25677166D01*
X31483000Y-25558500D01*
X31601666Y-25499166D01*
X34271666Y-26745166D02*
X33559666Y-26745166D01*
X33915666Y-26745166D02*
X33915666Y-25499166D01*
X33797000Y-25677166D01*
X33678333Y-25795833D01*
X33559666Y-25855166D01*
X29881000Y-28671666D02*
X29287666Y-28671666D01*
X29287666Y-27425666D01*
X30711666Y-28019000D02*
X30296333Y-28019000D01*
X30296333Y-28671666D02*
X30296333Y-27425666D01*
X30889666Y-27425666D01*
X31601666Y-27425666D02*
X31839000Y-27425666D01*
X31957666Y-27485000D01*
X32076333Y-27603666D01*
X32135666Y-27841000D01*
X32135666Y-28256333D01*
X32076333Y-28493666D01*
X31957666Y-28612333D01*
X31839000Y-28671666D01*
X31601666Y-28671666D01*
X31483000Y-28612333D01*
X31364333Y-28493666D01*
X31305000Y-28256333D01*
X31305000Y-27841000D01*
X31364333Y-27603666D01*
X31483000Y-27485000D01*
X31601666Y-27425666D01*
X33559666Y-27544333D02*
X33619000Y-27485000D01*
X33737666Y-27425666D01*
X34034333Y-27425666D01*
X34153000Y-27485000D01*
X34212333Y-27544333D01*
X34271666Y-27663000D01*
X34271666Y-27781666D01*
X34212333Y-27959666D01*
X33500333Y-28671666D01*
X34271666Y-28671666D01*
X29258000Y-30598166D02*
X29258000Y-29352166D01*
X29673333Y-30242166D01*
X30088666Y-29352166D01*
X30088666Y-30598166D01*
X30682000Y-30598166D02*
X30682000Y-29352166D01*
X31156666Y-29352166D02*
X31987333Y-30598166D01*
X31987333Y-29352166D02*
X31156666Y-30598166D01*
X32462000Y-29945500D02*
X32877333Y-29945500D01*
X33055333Y-30598166D02*
X32462000Y-30598166D01*
X32462000Y-29352166D01*
X33055333Y-29352166D01*
X34301333Y-30598166D02*
X33886000Y-30004833D01*
X33589333Y-30598166D02*
X33589333Y-29352166D01*
X34064000Y-29352166D01*
X34182666Y-29411500D01*
X34242000Y-29470833D01*
X34301333Y-29589500D01*
X34301333Y-29767500D01*
X34242000Y-29886166D01*
X34182666Y-29945500D01*
X34064000Y-30004833D01*
X33589333Y-30004833D01*
X29465666Y-31872000D02*
X29050333Y-31872000D01*
X29050333Y-32524666D02*
X29050333Y-31278666D01*
X29643666Y-31278666D01*
X30118333Y-32524666D02*
X30118333Y-31278666D01*
X31305000Y-32524666D02*
X30711666Y-32524666D01*
X30711666Y-31278666D01*
X31542333Y-31278666D02*
X32254333Y-31278666D01*
X31898333Y-32524666D02*
X31898333Y-31278666D01*
X32669666Y-31872000D02*
X33085000Y-31872000D01*
X33263000Y-32524666D02*
X32669666Y-32524666D01*
X32669666Y-31278666D01*
X33263000Y-31278666D01*
X34509000Y-32524666D02*
X34093666Y-31931333D01*
X33797000Y-32524666D02*
X33797000Y-31278666D01*
X34271666Y-31278666D01*
X34390333Y-31338000D01*
X34449666Y-31397333D01*
X34509000Y-31516000D01*
X34509000Y-31694000D01*
X34449666Y-31812666D01*
X34390333Y-31872000D01*
X34271666Y-31931333D01*
X33797000Y-31931333D01*
X29851333Y-34095166D02*
X30444666Y-34095166D01*
X29732666Y-34451166D02*
X30148000Y-33205166D01*
X30563333Y-34451166D01*
X31572000Y-34451166D02*
X30978666Y-34451166D01*
X30978666Y-33205166D01*
X32580666Y-34451166D02*
X31987333Y-34451166D01*
X31987333Y-33205166D01*
X33530000Y-33205166D02*
X33292666Y-33205166D01*
X33174000Y-33264500D01*
X33114666Y-33323833D01*
X32996000Y-33501833D01*
X32936666Y-33739166D01*
X32936666Y-34213833D01*
X32996000Y-34332500D01*
X33055333Y-34391833D01*
X33174000Y-34451166D01*
X33411333Y-34451166D01*
X33530000Y-34391833D01*
X33589333Y-34332500D01*
X33648666Y-34213833D01*
X33648666Y-33917166D01*
X33589333Y-33798500D01*
X33530000Y-33739166D01*
X33411333Y-33679833D01*
X33174000Y-33679833D01*
X33055333Y-33739166D01*
X32996000Y-33798500D01*
X32936666Y-33917166D01*
X27626333Y-36377666D02*
X27626333Y-35131666D01*
X28101000Y-35131666D01*
X28219666Y-35191000D01*
X28279000Y-35250333D01*
X28338333Y-35369000D01*
X28338333Y-35547000D01*
X28279000Y-35665666D01*
X28219666Y-35725000D01*
X28101000Y-35784333D01*
X27626333Y-35784333D01*
X28753666Y-35131666D02*
X29050333Y-36377666D01*
X29287666Y-35487666D01*
X29525000Y-36377666D01*
X29821666Y-35131666D01*
X30296333Y-36377666D02*
X30296333Y-35131666D01*
X30711666Y-36021666D01*
X31127000Y-35131666D01*
X31127000Y-36377666D01*
X31720333Y-36377666D02*
X31720333Y-35131666D01*
X32017000Y-35131666D01*
X32195000Y-35191000D01*
X32313666Y-35309666D01*
X32373000Y-35428333D01*
X32432333Y-35665666D01*
X32432333Y-35843666D01*
X32373000Y-36081000D01*
X32313666Y-36199666D01*
X32195000Y-36318333D01*
X32017000Y-36377666D01*
X31720333Y-36377666D01*
X32907000Y-36021666D02*
X33500333Y-36021666D01*
X32788333Y-36377666D02*
X33203666Y-35131666D01*
X33619000Y-36377666D01*
X34746333Y-36259000D02*
X34687000Y-36318333D01*
X34509000Y-36377666D01*
X34390333Y-36377666D01*
X34212333Y-36318333D01*
X34093666Y-36199666D01*
X34034333Y-36081000D01*
X33975000Y-35843666D01*
X33975000Y-35665666D01*
X34034333Y-35428333D01*
X34093666Y-35309666D01*
X34212333Y-35191000D01*
X34390333Y-35131666D01*
X34509000Y-35131666D01*
X34687000Y-35191000D01*
X34746333Y-35250333D01*
X35221000Y-35250333D02*
X35280333Y-35191000D01*
X35399000Y-35131666D01*
X35695666Y-35131666D01*
X35814333Y-35191000D01*
X35873666Y-35250333D01*
X35933000Y-35369000D01*
X35933000Y-35487666D01*
X35873666Y-35665666D01*
X35161666Y-36377666D01*
X35933000Y-36377666D01*
X28190000Y-38304166D02*
X28190000Y-37058166D01*
X28664666Y-37058166D01*
X28783333Y-37117500D01*
X28842666Y-37176833D01*
X28902000Y-37295500D01*
X28902000Y-37473500D01*
X28842666Y-37592166D01*
X28783333Y-37651500D01*
X28664666Y-37710833D01*
X28190000Y-37710833D01*
X29436000Y-38304166D02*
X29436000Y-37058166D01*
X29851333Y-37058166D02*
X30563333Y-37058166D01*
X30207333Y-38304166D02*
X30207333Y-37058166D01*
X31690666Y-38185500D02*
X31631333Y-38244833D01*
X31453333Y-38304166D01*
X31334666Y-38304166D01*
X31156666Y-38244833D01*
X31038000Y-38126166D01*
X30978666Y-38007500D01*
X30919333Y-37770166D01*
X30919333Y-37592166D01*
X30978666Y-37354833D01*
X31038000Y-37236166D01*
X31156666Y-37117500D01*
X31334666Y-37058166D01*
X31453333Y-37058166D01*
X31631333Y-37117500D01*
X31690666Y-37176833D01*
X32224666Y-38304166D02*
X32224666Y-37058166D01*
X32224666Y-37651500D02*
X32936666Y-37651500D01*
X32936666Y-38304166D02*
X32936666Y-37058166D01*
X33470666Y-37176833D02*
X33530000Y-37117500D01*
X33648666Y-37058166D01*
X33945333Y-37058166D01*
X34064000Y-37117500D01*
X34123333Y-37176833D01*
X34182666Y-37295500D01*
X34182666Y-37414166D01*
X34123333Y-37592166D01*
X33411333Y-38304166D01*
X34182666Y-38304166D01*
X34598000Y-37058166D02*
X35428666Y-37058166D01*
X34894666Y-38304166D01*
X27626333Y-40230666D02*
X27626333Y-38984666D01*
X28101000Y-38984666D01*
X28219666Y-39044000D01*
X28279000Y-39103333D01*
X28338333Y-39222000D01*
X28338333Y-39400000D01*
X28279000Y-39518666D01*
X28219666Y-39578000D01*
X28101000Y-39637333D01*
X27626333Y-39637333D01*
X28753666Y-38984666D02*
X29050333Y-40230666D01*
X29287666Y-39340666D01*
X29525000Y-40230666D01*
X29821666Y-38984666D01*
X30296333Y-40230666D02*
X30296333Y-38984666D01*
X30711666Y-39874666D01*
X31127000Y-38984666D01*
X31127000Y-40230666D01*
X31720333Y-40230666D02*
X31720333Y-38984666D01*
X32017000Y-38984666D01*
X32195000Y-39044000D01*
X32313666Y-39162666D01*
X32373000Y-39281333D01*
X32432333Y-39518666D01*
X32432333Y-39696666D01*
X32373000Y-39934000D01*
X32313666Y-40052666D01*
X32195000Y-40171333D01*
X32017000Y-40230666D01*
X31720333Y-40230666D01*
X32907000Y-39874666D02*
X33500333Y-39874666D01*
X32788333Y-40230666D02*
X33203666Y-38984666D01*
X33619000Y-40230666D01*
X34746333Y-40112000D02*
X34687000Y-40171333D01*
X34509000Y-40230666D01*
X34390333Y-40230666D01*
X34212333Y-40171333D01*
X34093666Y-40052666D01*
X34034333Y-39934000D01*
X33975000Y-39696666D01*
X33975000Y-39518666D01*
X34034333Y-39281333D01*
X34093666Y-39162666D01*
X34212333Y-39044000D01*
X34390333Y-38984666D01*
X34509000Y-38984666D01*
X34687000Y-39044000D01*
X34746333Y-39103333D01*
X35933000Y-40230666D02*
X35221000Y-40230666D01*
X35577000Y-40230666D02*
X35577000Y-38984666D01*
X35458333Y-39162666D01*
X35339666Y-39281333D01*
X35221000Y-39340666D01*
X28190000Y-42157166D02*
X28190000Y-40911166D01*
X28664666Y-40911166D01*
X28783333Y-40970500D01*
X28842666Y-41029833D01*
X28902000Y-41148500D01*
X28902000Y-41326500D01*
X28842666Y-41445166D01*
X28783333Y-41504500D01*
X28664666Y-41563833D01*
X28190000Y-41563833D01*
X29436000Y-42157166D02*
X29436000Y-40911166D01*
X29851333Y-40911166D02*
X30563333Y-40911166D01*
X30207333Y-42157166D02*
X30207333Y-40911166D01*
X31690666Y-42038500D02*
X31631333Y-42097833D01*
X31453333Y-42157166D01*
X31334666Y-42157166D01*
X31156666Y-42097833D01*
X31038000Y-41979166D01*
X30978666Y-41860500D01*
X30919333Y-41623166D01*
X30919333Y-41445166D01*
X30978666Y-41207833D01*
X31038000Y-41089166D01*
X31156666Y-40970500D01*
X31334666Y-40911166D01*
X31453333Y-40911166D01*
X31631333Y-40970500D01*
X31690666Y-41029833D01*
X32224666Y-42157166D02*
X32224666Y-40911166D01*
X32224666Y-41504500D02*
X32936666Y-41504500D01*
X32936666Y-42157166D02*
X32936666Y-40911166D01*
X34182666Y-42157166D02*
X33470666Y-42157166D01*
X33826666Y-42157166D02*
X33826666Y-40911166D01*
X33708000Y-41089166D01*
X33589333Y-41207833D01*
X33470666Y-41267166D01*
X34598000Y-40911166D02*
X35428666Y-40911166D01*
X34894666Y-42157166D01*
X27626333Y-44083666D02*
X27626333Y-42837666D01*
X28101000Y-42837666D01*
X28219666Y-42897000D01*
X28279000Y-42956333D01*
X28338333Y-43075000D01*
X28338333Y-43253000D01*
X28279000Y-43371666D01*
X28219666Y-43431000D01*
X28101000Y-43490333D01*
X27626333Y-43490333D01*
X28753666Y-42837666D02*
X29050333Y-44083666D01*
X29287666Y-43193666D01*
X29525000Y-44083666D01*
X29821666Y-42837666D01*
X30296333Y-44083666D02*
X30296333Y-42837666D01*
X30711666Y-43727666D01*
X31127000Y-42837666D01*
X31127000Y-44083666D01*
X31720333Y-44083666D02*
X31720333Y-42837666D01*
X32017000Y-42837666D01*
X32195000Y-42897000D01*
X32313666Y-43015666D01*
X32373000Y-43134333D01*
X32432333Y-43371666D01*
X32432333Y-43549666D01*
X32373000Y-43787000D01*
X32313666Y-43905666D01*
X32195000Y-44024333D01*
X32017000Y-44083666D01*
X31720333Y-44083666D01*
X32907000Y-43727666D02*
X33500333Y-43727666D01*
X32788333Y-44083666D02*
X33203666Y-42837666D01*
X33619000Y-44083666D01*
X34746333Y-43965000D02*
X34687000Y-44024333D01*
X34509000Y-44083666D01*
X34390333Y-44083666D01*
X34212333Y-44024333D01*
X34093666Y-43905666D01*
X34034333Y-43787000D01*
X33975000Y-43549666D01*
X33975000Y-43371666D01*
X34034333Y-43134333D01*
X34093666Y-43015666D01*
X34212333Y-42897000D01*
X34390333Y-42837666D01*
X34509000Y-42837666D01*
X34687000Y-42897000D01*
X34746333Y-42956333D01*
X35814333Y-43253000D02*
X35814333Y-44083666D01*
X35517666Y-42778333D02*
X35221000Y-43668333D01*
X35992333Y-43668333D01*
X29376666Y-46010166D02*
X28961333Y-45416833D01*
X28664666Y-46010166D02*
X28664666Y-44764166D01*
X29139333Y-44764166D01*
X29258000Y-44823500D01*
X29317333Y-44882833D01*
X29376666Y-45001500D01*
X29376666Y-45179500D01*
X29317333Y-45298166D01*
X29258000Y-45357500D01*
X29139333Y-45416833D01*
X28664666Y-45416833D01*
X29851333Y-45654166D02*
X30444666Y-45654166D01*
X29732666Y-46010166D02*
X30148000Y-44764166D01*
X30563333Y-46010166D01*
X30800666Y-44764166D02*
X31512666Y-44764166D01*
X31156666Y-46010166D02*
X31156666Y-44764166D01*
X31928000Y-45357500D02*
X32343333Y-45357500D01*
X32521333Y-46010166D02*
X31928000Y-46010166D01*
X31928000Y-44764166D01*
X32521333Y-44764166D01*
X32996000Y-44882833D02*
X33055333Y-44823500D01*
X33174000Y-44764166D01*
X33470666Y-44764166D01*
X33589333Y-44823500D01*
X33648666Y-44882833D01*
X33708000Y-45001500D01*
X33708000Y-45120166D01*
X33648666Y-45298166D01*
X32936666Y-46010166D01*
X33708000Y-46010166D01*
X34123333Y-44764166D02*
X34954000Y-44764166D01*
X34420000Y-46010166D01*
X27626333Y-47936666D02*
X27626333Y-46690666D01*
X28101000Y-46690666D01*
X28219666Y-46750000D01*
X28279000Y-46809333D01*
X28338333Y-46928000D01*
X28338333Y-47106000D01*
X28279000Y-47224666D01*
X28219666Y-47284000D01*
X28101000Y-47343333D01*
X27626333Y-47343333D01*
X28753666Y-46690666D02*
X29050333Y-47936666D01*
X29287666Y-47046666D01*
X29525000Y-47936666D01*
X29821666Y-46690666D01*
X30296333Y-47936666D02*
X30296333Y-46690666D01*
X30711666Y-47580666D01*
X31127000Y-46690666D01*
X31127000Y-47936666D01*
X31720333Y-47936666D02*
X31720333Y-46690666D01*
X32017000Y-46690666D01*
X32195000Y-46750000D01*
X32313666Y-46868666D01*
X32373000Y-46987333D01*
X32432333Y-47224666D01*
X32432333Y-47402666D01*
X32373000Y-47640000D01*
X32313666Y-47758666D01*
X32195000Y-47877333D01*
X32017000Y-47936666D01*
X31720333Y-47936666D01*
X32907000Y-47580666D02*
X33500333Y-47580666D01*
X32788333Y-47936666D02*
X33203666Y-46690666D01*
X33619000Y-47936666D01*
X34746333Y-47818000D02*
X34687000Y-47877333D01*
X34509000Y-47936666D01*
X34390333Y-47936666D01*
X34212333Y-47877333D01*
X34093666Y-47758666D01*
X34034333Y-47640000D01*
X33975000Y-47402666D01*
X33975000Y-47224666D01*
X34034333Y-46987333D01*
X34093666Y-46868666D01*
X34212333Y-46750000D01*
X34390333Y-46690666D01*
X34509000Y-46690666D01*
X34687000Y-46750000D01*
X34746333Y-46809333D01*
X35161666Y-46690666D02*
X35933000Y-46690666D01*
X35517666Y-47165333D01*
X35695666Y-47165333D01*
X35814333Y-47224666D01*
X35873666Y-47284000D01*
X35933000Y-47402666D01*
X35933000Y-47699333D01*
X35873666Y-47818000D01*
X35814333Y-47877333D01*
X35695666Y-47936666D01*
X35339666Y-47936666D01*
X35221000Y-47877333D01*
X35161666Y-47818000D01*
X29376666Y-49863166D02*
X28961333Y-49269833D01*
X28664666Y-49863166D02*
X28664666Y-48617166D01*
X29139333Y-48617166D01*
X29258000Y-48676500D01*
X29317333Y-48735833D01*
X29376666Y-48854500D01*
X29376666Y-49032500D01*
X29317333Y-49151166D01*
X29258000Y-49210500D01*
X29139333Y-49269833D01*
X28664666Y-49269833D01*
X29851333Y-49507166D02*
X30444666Y-49507166D01*
X29732666Y-49863166D02*
X30148000Y-48617166D01*
X30563333Y-49863166D01*
X30800666Y-48617166D02*
X31512666Y-48617166D01*
X31156666Y-49863166D02*
X31156666Y-48617166D01*
X31928000Y-49210500D02*
X32343333Y-49210500D01*
X32521333Y-49863166D02*
X31928000Y-49863166D01*
X31928000Y-48617166D01*
X32521333Y-48617166D01*
X33708000Y-49863166D02*
X32996000Y-49863166D01*
X33352000Y-49863166D02*
X33352000Y-48617166D01*
X33233333Y-48795166D01*
X33114666Y-48913833D01*
X32996000Y-48973166D01*
X34123333Y-48617166D02*
X34954000Y-48617166D01*
X34420000Y-49863166D01*
D13*
X24093309Y-112097476D02*
X23961404Y-112493190D01*
X23961404Y-113152714D01*
X24093309Y-113416523D01*
X24225214Y-113548428D01*
X24489023Y-113680333D01*
X24752833Y-113680333D01*
X25016642Y-113548428D01*
X25148547Y-113416523D01*
X25280452Y-113152714D01*
X25412357Y-112625095D01*
X25544261Y-112361285D01*
X25676166Y-112229380D01*
X25939976Y-112097476D01*
X26203785Y-112097476D01*
X26467595Y-112229380D01*
X26599500Y-112361285D01*
X26731404Y-112625095D01*
X26731404Y-113284619D01*
X26599500Y-113680333D01*
X23961404Y-114867476D02*
X26731404Y-114867476D01*
X26731404Y-115527000D01*
X26599500Y-115922714D01*
X26335690Y-116186523D01*
X26071880Y-116318428D01*
X25544261Y-116450333D01*
X25148547Y-116450333D01*
X24620928Y-116318428D01*
X24357119Y-116186523D01*
X24093309Y-115922714D01*
X23961404Y-115527000D01*
X23961404Y-114867476D01*
X23961404Y-117637476D02*
X26731404Y-117637476D01*
X24752833Y-118560809D01*
X26731404Y-119484142D01*
X23961404Y-119484142D01*
X24752833Y-120671285D02*
X24752833Y-121990333D01*
X23961404Y-120407476D02*
X26731404Y-121330809D01*
X23961404Y-122254142D01*
X25280452Y-123705095D02*
X23961404Y-123705095D01*
X26731404Y-122781761D02*
X25280452Y-123705095D01*
X26731404Y-124628428D01*
X23961404Y-127002714D02*
X23961404Y-125419857D01*
X23961404Y-126211285D02*
X26731404Y-126211285D01*
X26335690Y-125947476D01*
X26071880Y-125683666D01*
X25939976Y-125419857D01*
X23961404Y-128321761D02*
X23961404Y-128849380D01*
X24093309Y-129113190D01*
X24225214Y-129245095D01*
X24620928Y-129508904D01*
X25148547Y-129640809D01*
X26203785Y-129640809D01*
X26467595Y-129508904D01*
X26599500Y-129377000D01*
X26731404Y-129113190D01*
X26731404Y-128585571D01*
X26599500Y-128321761D01*
X26467595Y-128189857D01*
X26203785Y-128057952D01*
X25544261Y-128057952D01*
X25280452Y-128189857D01*
X25148547Y-128321761D01*
X25016642Y-128585571D01*
X25016642Y-129113190D01*
X25148547Y-129377000D01*
X25280452Y-129508904D01*
X25544261Y-129640809D01*
X25016642Y-130827952D02*
X25016642Y-132938428D01*
X26731404Y-133993666D02*
X26731404Y-135708428D01*
X25676166Y-134785095D01*
X25676166Y-135180809D01*
X25544261Y-135444619D01*
X25412357Y-135576523D01*
X25148547Y-135708428D01*
X24489023Y-135708428D01*
X24225214Y-135576523D01*
X24093309Y-135444619D01*
X23961404Y-135180809D01*
X23961404Y-134389380D01*
X24093309Y-134125571D01*
X24225214Y-133993666D01*
X26467595Y-136763666D02*
X26599499Y-136895571D01*
X26731404Y-137159380D01*
X26731404Y-137818904D01*
X26599499Y-138082714D01*
X26467595Y-138214619D01*
X26203785Y-138346523D01*
X25939976Y-138346523D01*
X25544261Y-138214619D01*
X23961404Y-136631761D01*
X23961404Y-138346523D01*
X19252404Y-103853428D02*
X22022404Y-103853428D01*
X20043833Y-104776761D01*
X22022404Y-105700095D01*
X19252404Y-105700095D01*
X19252404Y-107019142D02*
X21099071Y-107019142D01*
X22022404Y-107019142D02*
X21890500Y-106887238D01*
X21758595Y-107019142D01*
X21890500Y-107151047D01*
X22022404Y-107019142D01*
X21758595Y-107019142D01*
X19252404Y-108074380D02*
X21099071Y-109525333D01*
X21099071Y-108074380D02*
X19252404Y-109525333D01*
X19384309Y-111635809D02*
X19252404Y-111372000D01*
X19252404Y-110844380D01*
X19384309Y-110580571D01*
X19648119Y-110448666D01*
X20703357Y-110448666D01*
X20967166Y-110580571D01*
X21099071Y-110844380D01*
X21099071Y-111372000D01*
X20967166Y-111635809D01*
X20703357Y-111767714D01*
X20439547Y-111767714D01*
X20175738Y-110448666D01*
X19252404Y-114142000D02*
X22022404Y-114142000D01*
X19384309Y-114142000D02*
X19252404Y-113878190D01*
X19252404Y-113350571D01*
X19384309Y-113086761D01*
X19516214Y-112954857D01*
X19780023Y-112822952D01*
X20571452Y-112822952D01*
X20835261Y-112954857D01*
X20967166Y-113086761D01*
X21099071Y-113350571D01*
X21099071Y-113878190D01*
X20967166Y-114142000D01*
X19384309Y-117439619D02*
X19252404Y-117835333D01*
X19252404Y-118494857D01*
X19384309Y-118758666D01*
X19516214Y-118890571D01*
X19780023Y-119022476D01*
X20043833Y-119022476D01*
X20307642Y-118890571D01*
X20439547Y-118758666D01*
X20571452Y-118494857D01*
X20703357Y-117967238D01*
X20835261Y-117703428D01*
X20967166Y-117571523D01*
X21230976Y-117439619D01*
X21494785Y-117439619D01*
X21758595Y-117571523D01*
X21890500Y-117703428D01*
X22022404Y-117967238D01*
X22022404Y-118626761D01*
X21890500Y-119022476D01*
X19252404Y-120209619D02*
X21099071Y-120209619D01*
X22022404Y-120209619D02*
X21890500Y-120077714D01*
X21758595Y-120209619D01*
X21890500Y-120341523D01*
X22022404Y-120209619D01*
X21758595Y-120209619D01*
X21099071Y-122715809D02*
X18856690Y-122715809D01*
X18592880Y-122583904D01*
X18460976Y-122451999D01*
X18329071Y-122188190D01*
X18329071Y-121792476D01*
X18460976Y-121528666D01*
X19384309Y-122715809D02*
X19252404Y-122452000D01*
X19252404Y-121924380D01*
X19384309Y-121660571D01*
X19516214Y-121528666D01*
X19780023Y-121396761D01*
X20571452Y-121396761D01*
X20835261Y-121528666D01*
X20967166Y-121660571D01*
X21099071Y-121924380D01*
X21099071Y-122452000D01*
X20967166Y-122715809D01*
X21099071Y-124034857D02*
X19252404Y-124034857D01*
X20835261Y-124034857D02*
X20967166Y-124166761D01*
X21099071Y-124430571D01*
X21099071Y-124826285D01*
X20967166Y-125090095D01*
X20703357Y-125222000D01*
X19252404Y-125221999D01*
X19252404Y-127728190D02*
X20703357Y-127728190D01*
X20967166Y-127596285D01*
X21099071Y-127332476D01*
X21099071Y-126804857D01*
X20967166Y-126541047D01*
X19384309Y-127728190D02*
X19252404Y-127464380D01*
X19252404Y-126804857D01*
X19384309Y-126541047D01*
X19648119Y-126409142D01*
X19911928Y-126409142D01*
X20175738Y-126541047D01*
X20307642Y-126804857D01*
X20307642Y-127464380D01*
X20439547Y-127728190D01*
X19252404Y-129442952D02*
X19384309Y-129179142D01*
X19648119Y-129047238D01*
X22022404Y-129047238D01*
X19252404Y-132608666D02*
X22022404Y-132608666D01*
X20043833Y-133532000D01*
X22022404Y-134455333D01*
X19252404Y-134455333D01*
X19252404Y-136170095D02*
X19384309Y-135906285D01*
X19516214Y-135774380D01*
X19780023Y-135642476D01*
X20571452Y-135642476D01*
X20835261Y-135774380D01*
X20967166Y-135906285D01*
X21099071Y-136170095D01*
X21099071Y-136565809D01*
X20967166Y-136829619D01*
X20835261Y-136961523D01*
X20571452Y-137093428D01*
X19780023Y-137093428D01*
X19516214Y-136961523D01*
X19384309Y-136829619D01*
X19252404Y-136565809D01*
X19252404Y-136170095D01*
X19252404Y-139467714D02*
X22022404Y-139467714D01*
X19384309Y-139467714D02*
X19252404Y-139203904D01*
X19252404Y-138676285D01*
X19384309Y-138412476D01*
X19516214Y-138280571D01*
X19780023Y-138148666D01*
X20571452Y-138148666D01*
X20835261Y-138280571D01*
X20967166Y-138412476D01*
X21099071Y-138676285D01*
X21099071Y-139203904D01*
X20967166Y-139467714D01*
X19252404Y-140786761D02*
X22022404Y-140786761D01*
X20967166Y-140786761D02*
X21099071Y-141050571D01*
X21099071Y-141578190D01*
X20967166Y-141842000D01*
X20835261Y-141973904D01*
X20571452Y-142105809D01*
X19780023Y-142105809D01*
X19516214Y-141973904D01*
X19384309Y-141842000D01*
X19252404Y-141578190D01*
X19252404Y-141050571D01*
X19384309Y-140786761D01*
X19252404Y-144480095D02*
X20703357Y-144480095D01*
X20967166Y-144348190D01*
X21099071Y-144084380D01*
X21099071Y-143556761D01*
X20967166Y-143292952D01*
X19384309Y-144480095D02*
X19252404Y-144216285D01*
X19252404Y-143556761D01*
X19384309Y-143292952D01*
X19648119Y-143161047D01*
X19911928Y-143161047D01*
X20175738Y-143292952D01*
X20307642Y-143556761D01*
X20307642Y-144216285D01*
X20439547Y-144480095D01*
X21099071Y-145535333D02*
X19252404Y-146194857D01*
X21099071Y-146854380D02*
X19252404Y-146194857D01*
X18592880Y-145931047D01*
X18460976Y-145799142D01*
X18329071Y-145535333D01*
D14*
G04 #@! TO.P,U17,1*
G04 #@! TO.N,/2GPB0*
X39247170Y-126995906D03*
D15*
G04 #@! TO.P,U17,15*
G04 #@! TO.N,+5V*
X46867170Y-93975906D03*
G04 #@! TO.P,U17,2*
G04 #@! TO.N,/2GPB1*
X39247170Y-124455906D03*
G04 #@! TO.P,U17,16*
G04 #@! TO.N,GND*
X46867170Y-96515906D03*
G04 #@! TO.P,U17,3*
G04 #@! TO.N,/2GPB2*
X39247170Y-121915906D03*
G04 #@! TO.P,U17,17*
G04 #@! TO.N,GND*
X46867170Y-99055906D03*
G04 #@! TO.P,U17,4*
G04 #@! TO.N,/2GPB3*
X39247170Y-119375906D03*
G04 #@! TO.P,U17,18*
G04 #@! TO.N,/RESET*
X46867170Y-101595906D03*
G04 #@! TO.P,U17,5*
G04 #@! TO.N,/2GPB4*
X39247170Y-116835906D03*
G04 #@! TO.P,U17,19*
G04 #@! TO.N,Net-(U17-Pad19)*
X46867170Y-104135906D03*
G04 #@! TO.P,U17,6*
G04 #@! TO.N,/2GPB5*
X39247170Y-114295906D03*
G04 #@! TO.P,U17,20*
G04 #@! TO.N,Net-(U17-Pad20)*
X46867170Y-106675906D03*
G04 #@! TO.P,U17,7*
G04 #@! TO.N,/2GPB6*
X39247170Y-111755906D03*
G04 #@! TO.P,U17,21*
G04 #@! TO.N,/2GPA0*
X46867170Y-109215906D03*
G04 #@! TO.P,U17,8*
G04 #@! TO.N,/2GPB7*
X39247170Y-109215906D03*
G04 #@! TO.P,U17,22*
G04 #@! TO.N,/2GPA1*
X46867170Y-111755906D03*
G04 #@! TO.P,U17,9*
G04 #@! TO.N,+5V*
X39247170Y-106675906D03*
G04 #@! TO.P,U17,23*
G04 #@! TO.N,/2GPA2*
X46867170Y-114295906D03*
G04 #@! TO.P,U17,10*
G04 #@! TO.N,GND*
X39247170Y-104135906D03*
G04 #@! TO.P,U17,24*
G04 #@! TO.N,/2GPA3*
X46867170Y-116835906D03*
G04 #@! TO.P,U17,11*
G04 #@! TO.N,Net-(U17-Pad11)*
X39247170Y-101595906D03*
G04 #@! TO.P,U17,25*
G04 #@! TO.N,/2GPA4*
X46867170Y-119375906D03*
G04 #@! TO.P,U17,12*
G04 #@! TO.N,/SCL*
X39247170Y-99055906D03*
G04 #@! TO.P,U17,26*
G04 #@! TO.N,/2GPA5*
X46867170Y-121915906D03*
G04 #@! TO.P,U17,13*
G04 #@! TO.N,/SDA*
X39247170Y-96515906D03*
G04 #@! TO.P,U17,27*
G04 #@! TO.N,/2GPA6*
X46867170Y-124455906D03*
G04 #@! TO.P,U17,14*
G04 #@! TO.N,Net-(U17-Pad14)*
X39247170Y-93975906D03*
G04 #@! TO.P,U17,28*
G04 #@! TO.N,/2GPA7*
X46867170Y-126995906D03*
G04 #@! TD*
D16*
G04 #@! TO.P,J3,1*
G04 #@! TO.N,/RATE2*
X134874000Y-23368000D03*
D17*
G04 #@! TO.P,J3,2*
G04 #@! TO.N,/PWM4*
X132334000Y-23368000D03*
G04 #@! TO.P,J3,3*
G04 #@! TO.N,/PITCH2*
X129794000Y-23368000D03*
G04 #@! TO.P,J3,4*
G04 #@! TO.N,/PITCH1*
X127254000Y-23368000D03*
G04 #@! TO.P,J3,5*
G04 #@! TO.N,/PWM1*
X124714000Y-23368000D03*
G04 #@! TO.P,J3,6*
G04 #@! TO.N,/PWM2*
X122174000Y-23368000D03*
G04 #@! TO.P,J3,7*
G04 #@! TO.N,/PWM3*
X119634000Y-23368000D03*
G04 #@! TO.P,J3,8*
G04 #@! TO.N,/RATE1*
X117094000Y-23368000D03*
G04 #@! TD*
D15*
G04 #@! TO.P,U24,16*
G04 #@! TO.N,+5V*
X119888000Y-62738000D03*
G04 #@! TO.P,U24,8*
G04 #@! TO.N,-5V*
X127508000Y-44958000D03*
G04 #@! TO.P,U24,15*
G04 #@! TO.N,Net-(U24-Pad15)*
X119888000Y-60198000D03*
G04 #@! TO.P,U24,7*
G04 #@! TO.N,GND*
X127508000Y-47498000D03*
G04 #@! TO.P,U24,14*
G04 #@! TO.N,Net-(U24-Pad14)*
X119888000Y-57658000D03*
G04 #@! TO.P,U24,6*
G04 #@! TO.N,Net-(U20-Pad1)*
X127508000Y-50038000D03*
G04 #@! TO.P,U24,13*
G04 #@! TO.N,Net-(U24-Pad13)*
X119888000Y-55118000D03*
G04 #@! TO.P,U24,5*
G04 #@! TO.N,Net-(U24-Pad5)*
X127508000Y-52578000D03*
G04 #@! TO.P,U24,12*
G04 #@! TO.N,Net-(U24-Pad12)*
X119888000Y-52578000D03*
G04 #@! TO.P,U24,4*
G04 #@! TO.N,Net-(U24-Pad4)*
X127508000Y-55118000D03*
G04 #@! TO.P,U24,11*
G04 #@! TO.N,Net-(U20-Pad2)*
X119888000Y-50038000D03*
G04 #@! TO.P,U24,3*
G04 #@! TO.N,/PWM1*
X127508000Y-57658000D03*
G04 #@! TO.P,U24,10*
G04 #@! TO.N,Net-(U20-Pad3)*
X119888000Y-47498000D03*
G04 #@! TO.P,U24,2*
G04 #@! TO.N,Net-(U24-Pad2)*
X127508000Y-60198000D03*
G04 #@! TO.P,U24,9*
G04 #@! TO.N,Net-(U20-Pad4)*
X119888000Y-44958000D03*
D14*
G04 #@! TO.P,U24,1*
G04 #@! TO.N,Net-(U24-Pad1)*
X127508000Y-62738000D03*
G04 #@! TD*
G04 #@! TO.P,U20,1*
G04 #@! TO.N,Net-(U20-Pad1)*
X100330000Y-45212000D03*
D15*
G04 #@! TO.P,U20,15*
G04 #@! TO.N,GND*
X92710000Y-78232000D03*
G04 #@! TO.P,U20,2*
G04 #@! TO.N,Net-(U20-Pad2)*
X100330000Y-47752000D03*
G04 #@! TO.P,U20,16*
G04 #@! TO.N,+5V*
X92710000Y-75692000D03*
G04 #@! TO.P,U20,3*
G04 #@! TO.N,Net-(U20-Pad3)*
X100330000Y-50292000D03*
G04 #@! TO.P,U20,17*
G04 #@! TO.N,GND*
X92710000Y-73152000D03*
G04 #@! TO.P,U20,4*
G04 #@! TO.N,Net-(U20-Pad4)*
X100330000Y-52832000D03*
G04 #@! TO.P,U20,18*
G04 #@! TO.N,/RESET*
X92710000Y-70612000D03*
G04 #@! TO.P,U20,5*
G04 #@! TO.N,Net-(U20-Pad5)*
X100330000Y-55372000D03*
G04 #@! TO.P,U20,19*
G04 #@! TO.N,Net-(U20-Pad19)*
X92710000Y-68072000D03*
G04 #@! TO.P,U20,6*
G04 #@! TO.N,Net-(U20-Pad6)*
X100330000Y-57912000D03*
G04 #@! TO.P,U20,20*
G04 #@! TO.N,Net-(U20-Pad20)*
X92710000Y-65532000D03*
G04 #@! TO.P,U20,7*
G04 #@! TO.N,Net-(U20-Pad7)*
X100330000Y-60452000D03*
G04 #@! TO.P,U20,21*
G04 #@! TO.N,Net-(U20-Pad21)*
X92710000Y-62992000D03*
G04 #@! TO.P,U20,8*
G04 #@! TO.N,Net-(U20-Pad8)*
X100330000Y-62992000D03*
G04 #@! TO.P,U20,22*
G04 #@! TO.N,Net-(U20-Pad22)*
X92710000Y-60452000D03*
G04 #@! TO.P,U20,9*
G04 #@! TO.N,+5V*
X100330000Y-65532000D03*
G04 #@! TO.P,U20,23*
G04 #@! TO.N,Net-(U20-Pad23)*
X92710000Y-57912000D03*
G04 #@! TO.P,U20,10*
G04 #@! TO.N,GND*
X100330000Y-68072000D03*
G04 #@! TO.P,U20,24*
G04 #@! TO.N,Net-(U20-Pad24)*
X92710000Y-55372000D03*
G04 #@! TO.P,U20,11*
G04 #@! TO.N,Net-(U20-Pad11)*
X100330000Y-70612000D03*
G04 #@! TO.P,U20,25*
G04 #@! TO.N,Net-(U20-Pad25)*
X92710000Y-52832000D03*
G04 #@! TO.P,U20,12*
G04 #@! TO.N,/SCL*
X100330000Y-73152000D03*
G04 #@! TO.P,U20,26*
G04 #@! TO.N,Net-(U20-Pad26)*
X92710000Y-50292000D03*
G04 #@! TO.P,U20,13*
G04 #@! TO.N,/SDA*
X100330000Y-75692000D03*
G04 #@! TO.P,U20,27*
G04 #@! TO.N,Net-(U20-Pad27)*
X92710000Y-47752000D03*
G04 #@! TO.P,U20,14*
G04 #@! TO.N,Net-(U20-Pad14)*
X100330000Y-78232000D03*
G04 #@! TO.P,U20,28*
G04 #@! TO.N,Net-(U20-Pad28)*
X92710000Y-45212000D03*
G04 #@! TD*
D14*
G04 #@! TO.P,U18,1*
G04 #@! TO.N,/1GPB0*
X35560000Y-70104000D03*
D15*
G04 #@! TO.P,U18,15*
G04 #@! TO.N,GND*
X27940000Y-103124000D03*
G04 #@! TO.P,U18,2*
G04 #@! TO.N,/1GPB1*
X35560000Y-72644000D03*
G04 #@! TO.P,U18,16*
G04 #@! TO.N,GND*
X27940000Y-100584000D03*
G04 #@! TO.P,U18,3*
G04 #@! TO.N,/1GPB2*
X35560000Y-75184000D03*
G04 #@! TO.P,U18,17*
G04 #@! TO.N,GND*
X27940000Y-98044000D03*
G04 #@! TO.P,U18,4*
G04 #@! TO.N,/1GPB3*
X35560000Y-77724000D03*
G04 #@! TO.P,U18,18*
G04 #@! TO.N,/RESET*
X27940000Y-95504000D03*
G04 #@! TO.P,U18,5*
G04 #@! TO.N,/1GPB4*
X35560000Y-80264000D03*
G04 #@! TO.P,U18,19*
G04 #@! TO.N,Net-(U18-Pad19)*
X27940000Y-92964000D03*
G04 #@! TO.P,U18,6*
G04 #@! TO.N,/1GPB5*
X35560000Y-82804000D03*
G04 #@! TO.P,U18,20*
G04 #@! TO.N,Net-(U18-Pad20)*
X27940000Y-90424000D03*
G04 #@! TO.P,U18,7*
G04 #@! TO.N,/1GPB6*
X35560000Y-85344000D03*
G04 #@! TO.P,U18,21*
G04 #@! TO.N,/1GPA0*
X27940000Y-87884000D03*
G04 #@! TO.P,U18,8*
G04 #@! TO.N,/1GPB7*
X35560000Y-87884000D03*
G04 #@! TO.P,U18,22*
G04 #@! TO.N,/1GPA1*
X27940000Y-85344000D03*
G04 #@! TO.P,U18,9*
G04 #@! TO.N,+5V*
X35560000Y-90424000D03*
G04 #@! TO.P,U18,23*
G04 #@! TO.N,/1GPA2*
X27940000Y-82804000D03*
G04 #@! TO.P,U18,10*
G04 #@! TO.N,GND*
X35560000Y-92964000D03*
G04 #@! TO.P,U18,24*
G04 #@! TO.N,/1GPA3*
X27940000Y-80264000D03*
G04 #@! TO.P,U18,11*
G04 #@! TO.N,Net-(U18-Pad11)*
X35560000Y-95504000D03*
G04 #@! TO.P,U18,25*
G04 #@! TO.N,/1GPA4*
X27940000Y-77724000D03*
G04 #@! TO.P,U18,12*
G04 #@! TO.N,/SCL*
X35560000Y-98044000D03*
G04 #@! TO.P,U18,26*
G04 #@! TO.N,/1GPA5*
X27940000Y-75184000D03*
G04 #@! TO.P,U18,13*
G04 #@! TO.N,/SDA*
X35560000Y-100584000D03*
G04 #@! TO.P,U18,27*
G04 #@! TO.N,/1GPA6*
X27940000Y-72644000D03*
G04 #@! TO.P,U18,14*
G04 #@! TO.N,Net-(U18-Pad14)*
X35560000Y-103124000D03*
G04 #@! TO.P,U18,28*
G04 #@! TO.N,/1GPA7*
X27940000Y-70104000D03*
G04 #@! TD*
G04 #@! TO.P,U1,14*
G04 #@! TO.N,Net-(U1-Pad13)*
X106426000Y-129286000D03*
G04 #@! TO.P,U1,7*
G04 #@! TO.N,Net-(U1-Pad6)*
X114046000Y-144526000D03*
G04 #@! TO.P,U1,13*
G04 #@! TO.N,Net-(U1-Pad13)*
X106426000Y-131826000D03*
G04 #@! TO.P,U1,6*
G04 #@! TO.N,Net-(U1-Pad6)*
X114046000Y-141986000D03*
G04 #@! TO.P,U1,12*
G04 #@! TO.N,/LFO2*
X106426000Y-134366000D03*
G04 #@! TO.P,U1,5*
G04 #@! TO.N,/OSC2*
X114046000Y-139446000D03*
G04 #@! TO.P,U1,11*
G04 #@! TO.N,-5V*
X106426000Y-136906000D03*
G04 #@! TO.P,U1,4*
G04 #@! TO.N,+5V*
X114046000Y-136906000D03*
G04 #@! TO.P,U1,10*
G04 #@! TO.N,/LFO1*
X106426000Y-139446000D03*
G04 #@! TO.P,U1,3*
G04 #@! TO.N,/OSC1*
X114046000Y-134366000D03*
G04 #@! TO.P,U1,9*
G04 #@! TO.N,Net-(U1-Pad8)*
X106426000Y-141986000D03*
G04 #@! TO.P,U1,2*
G04 #@! TO.N,Net-(U1-Pad1)*
X114046000Y-131826000D03*
G04 #@! TO.P,U1,8*
G04 #@! TO.N,Net-(U1-Pad8)*
X106426000Y-144526000D03*
D14*
G04 #@! TO.P,U1,1*
G04 #@! TO.N,Net-(U1-Pad1)*
X114046000Y-129286000D03*
G04 #@! TD*
G04 #@! TO.P,U2,1*
G04 #@! TO.N,Net-(U2-Pad1)*
X140970000Y-129032000D03*
D15*
G04 #@! TO.P,U2,8*
G04 #@! TO.N,Net-(U2-Pad8)*
X133350000Y-144272000D03*
G04 #@! TO.P,U2,2*
G04 #@! TO.N,Net-(U2-Pad1)*
X140970000Y-131572000D03*
G04 #@! TO.P,U2,9*
G04 #@! TO.N,Net-(U2-Pad8)*
X133350000Y-141732000D03*
G04 #@! TO.P,U2,3*
G04 #@! TO.N,/MIXER*
X140970000Y-134112000D03*
G04 #@! TO.P,U2,10*
G04 #@! TO.N,/ALLMUX6*
X133350000Y-139192000D03*
G04 #@! TO.P,U2,4*
G04 #@! TO.N,+5V*
X140970000Y-136652000D03*
G04 #@! TO.P,U2,11*
G04 #@! TO.N,-5V*
X133350000Y-136652000D03*
G04 #@! TO.P,U2,5*
G04 #@! TO.N,/FILTER*
X140970000Y-139192000D03*
G04 #@! TO.P,U2,12*
G04 #@! TO.N,/RATE17*
X133350000Y-134112000D03*
G04 #@! TO.P,U2,6*
G04 #@! TO.N,Net-(U2-Pad6)*
X140970000Y-141732000D03*
G04 #@! TO.P,U2,13*
G04 #@! TO.N,Net-(U2-Pad13)*
X133350000Y-131572000D03*
G04 #@! TO.P,U2,7*
G04 #@! TO.N,Net-(U2-Pad6)*
X140970000Y-144272000D03*
G04 #@! TO.P,U2,14*
G04 #@! TO.N,Net-(U2-Pad13)*
X133350000Y-129032000D03*
G04 #@! TD*
D14*
G04 #@! TO.P,U3,1*
G04 #@! TO.N,Net-(U22-Pad13)*
X59835920Y-45493963D03*
D15*
G04 #@! TO.P,U3,8*
G04 #@! TO.N,Net-(U22-Pad15)*
X52215920Y-60733963D03*
G04 #@! TO.P,U3,2*
G04 #@! TO.N,Net-(U22-Pad13)*
X59835920Y-48033963D03*
G04 #@! TO.P,U3,9*
G04 #@! TO.N,Net-(U22-Pad15)*
X52215920Y-58193963D03*
G04 #@! TO.P,U3,3*
G04 #@! TO.N,/OSC1*
X59835920Y-50573963D03*
G04 #@! TO.P,U3,10*
G04 #@! TO.N,/LFO1*
X52215920Y-55653963D03*
G04 #@! TO.P,U3,4*
G04 #@! TO.N,+5V*
X59835920Y-53113963D03*
G04 #@! TO.P,U3,11*
G04 #@! TO.N,-5V*
X52215920Y-53113963D03*
G04 #@! TO.P,U3,5*
G04 #@! TO.N,/OSC2*
X59835920Y-55653963D03*
G04 #@! TO.P,U3,12*
G04 #@! TO.N,/LFO2*
X52215920Y-50573963D03*
G04 #@! TO.P,U3,6*
G04 #@! TO.N,Net-(U22-Pad14)*
X59835920Y-58193963D03*
G04 #@! TO.P,U3,13*
G04 #@! TO.N,Net-(U22-Pad12)*
X52215920Y-48033963D03*
G04 #@! TO.P,U3,7*
G04 #@! TO.N,Net-(U22-Pad14)*
X59835920Y-60733963D03*
G04 #@! TO.P,U3,14*
G04 #@! TO.N,Net-(U22-Pad12)*
X52215920Y-45493963D03*
G04 #@! TD*
D14*
G04 #@! TO.P,U4,1*
G04 #@! TO.N,Net-(U22-Pad1)*
X86505920Y-45493963D03*
D15*
G04 #@! TO.P,U4,8*
G04 #@! TO.N,Net-(U22-Pad2)*
X78885920Y-60733963D03*
G04 #@! TO.P,U4,2*
G04 #@! TO.N,Net-(U22-Pad1)*
X86505920Y-48033963D03*
G04 #@! TO.P,U4,9*
G04 #@! TO.N,Net-(U22-Pad2)*
X78885920Y-58193963D03*
G04 #@! TO.P,U4,3*
G04 #@! TO.N,/MIXER*
X86505920Y-50573963D03*
G04 #@! TO.P,U4,10*
G04 #@! TO.N,/ALLMUX6*
X78885920Y-55653963D03*
G04 #@! TO.P,U4,4*
G04 #@! TO.N,+5V*
X86505920Y-53113963D03*
G04 #@! TO.P,U4,11*
G04 #@! TO.N,-5V*
X78885920Y-53113963D03*
G04 #@! TO.P,U4,5*
G04 #@! TO.N,/FILTER*
X86505920Y-55653963D03*
G04 #@! TO.P,U4,12*
G04 #@! TO.N,/PITCH17*
X78885920Y-50573963D03*
G04 #@! TO.P,U4,6*
G04 #@! TO.N,Net-(U22-Pad5)*
X86505920Y-58193963D03*
G04 #@! TO.P,U4,13*
G04 #@! TO.N,Net-(U22-Pad4)*
X78885920Y-48033963D03*
G04 #@! TO.P,U4,7*
G04 #@! TO.N,Net-(U22-Pad5)*
X86505920Y-60733963D03*
G04 #@! TO.P,U4,14*
G04 #@! TO.N,Net-(U22-Pad4)*
X78885920Y-45493963D03*
G04 #@! TD*
D14*
G04 #@! TO.P,U5,1*
G04 #@! TO.N,Net-(U23-Pad13)*
X114046000Y-100838000D03*
D15*
G04 #@! TO.P,U5,8*
G04 #@! TO.N,Net-(U23-Pad15)*
X106426000Y-116078000D03*
G04 #@! TO.P,U5,2*
G04 #@! TO.N,Net-(U23-Pad13)*
X114046000Y-103378000D03*
G04 #@! TO.P,U5,9*
G04 #@! TO.N,Net-(U23-Pad15)*
X106426000Y-113538000D03*
G04 #@! TO.P,U5,3*
G04 #@! TO.N,/OSC1*
X114046000Y-105918000D03*
G04 #@! TO.P,U5,10*
G04 #@! TO.N,/LFO1*
X106426000Y-110998000D03*
G04 #@! TO.P,U5,4*
G04 #@! TO.N,+5V*
X114046000Y-108458000D03*
G04 #@! TO.P,U5,11*
G04 #@! TO.N,-5V*
X106426000Y-108458000D03*
G04 #@! TO.P,U5,5*
G04 #@! TO.N,/OSC2*
X114046000Y-110998000D03*
G04 #@! TO.P,U5,12*
G04 #@! TO.N,/LFO2*
X106426000Y-105918000D03*
G04 #@! TO.P,U5,6*
G04 #@! TO.N,Net-(U23-Pad14)*
X114046000Y-113538000D03*
G04 #@! TO.P,U5,13*
G04 #@! TO.N,Net-(U23-Pad12)*
X106426000Y-103378000D03*
G04 #@! TO.P,U5,7*
G04 #@! TO.N,Net-(U23-Pad14)*
X114046000Y-116078000D03*
G04 #@! TO.P,U5,14*
G04 #@! TO.N,Net-(U23-Pad12)*
X106426000Y-100838000D03*
G04 #@! TD*
D14*
G04 #@! TO.P,U6,1*
G04 #@! TO.N,Net-(U23-Pad1)*
X140970000Y-100584000D03*
D15*
G04 #@! TO.P,U6,8*
G04 #@! TO.N,Net-(U23-Pad2)*
X133350000Y-115824000D03*
G04 #@! TO.P,U6,2*
G04 #@! TO.N,Net-(U23-Pad1)*
X140970000Y-103124000D03*
G04 #@! TO.P,U6,9*
G04 #@! TO.N,Net-(U23-Pad2)*
X133350000Y-113284000D03*
G04 #@! TO.P,U6,3*
G04 #@! TO.N,/MIXER*
X140970000Y-105664000D03*
G04 #@! TO.P,U6,10*
G04 #@! TO.N,/ALLMUX6*
X133350000Y-110744000D03*
G04 #@! TO.P,U6,4*
G04 #@! TO.N,+5V*
X140970000Y-108204000D03*
G04 #@! TO.P,U6,11*
G04 #@! TO.N,-5V*
X133350000Y-108204000D03*
G04 #@! TO.P,U6,5*
G04 #@! TO.N,/FILTER*
X140970000Y-110744000D03*
G04 #@! TO.P,U6,12*
G04 #@! TO.N,/PWMDAC3*
X133350000Y-105664000D03*
G04 #@! TO.P,U6,6*
G04 #@! TO.N,Net-(U23-Pad5)*
X140970000Y-113284000D03*
G04 #@! TO.P,U6,13*
G04 #@! TO.N,Net-(U23-Pad4)*
X133350000Y-103124000D03*
G04 #@! TO.P,U6,7*
G04 #@! TO.N,Net-(U23-Pad5)*
X140970000Y-115824000D03*
G04 #@! TO.P,U6,14*
G04 #@! TO.N,Net-(U23-Pad4)*
X133350000Y-100584000D03*
G04 #@! TD*
D14*
G04 #@! TO.P,U7,1*
G04 #@! TO.N,Net-(U24-Pad13)*
X114046000Y-44958000D03*
D15*
G04 #@! TO.P,U7,8*
G04 #@! TO.N,Net-(U24-Pad15)*
X106426000Y-60198000D03*
G04 #@! TO.P,U7,2*
G04 #@! TO.N,Net-(U24-Pad13)*
X114046000Y-47498000D03*
G04 #@! TO.P,U7,9*
G04 #@! TO.N,Net-(U24-Pad15)*
X106426000Y-57658000D03*
G04 #@! TO.P,U7,3*
G04 #@! TO.N,/OSC1*
X114046000Y-50038000D03*
G04 #@! TO.P,U7,10*
G04 #@! TO.N,/LFO1*
X106426000Y-55118000D03*
G04 #@! TO.P,U7,4*
G04 #@! TO.N,+5V*
X114046000Y-52578000D03*
G04 #@! TO.P,U7,11*
G04 #@! TO.N,-5V*
X106426000Y-52578000D03*
G04 #@! TO.P,U7,5*
G04 #@! TO.N,/OSC2*
X114046000Y-55118000D03*
G04 #@! TO.P,U7,12*
G04 #@! TO.N,/LFO2*
X106426000Y-50038000D03*
G04 #@! TO.P,U7,6*
G04 #@! TO.N,Net-(U24-Pad14)*
X114046000Y-57658000D03*
G04 #@! TO.P,U7,13*
G04 #@! TO.N,Net-(U24-Pad12)*
X106426000Y-47498000D03*
G04 #@! TO.P,U7,7*
G04 #@! TO.N,Net-(U24-Pad14)*
X114046000Y-60198000D03*
G04 #@! TO.P,U7,14*
G04 #@! TO.N,Net-(U24-Pad12)*
X106426000Y-44958000D03*
G04 #@! TD*
D14*
G04 #@! TO.P,U8,1*
G04 #@! TO.N,Net-(U24-Pad1)*
X140716000Y-44958000D03*
D15*
G04 #@! TO.P,U8,8*
G04 #@! TO.N,Net-(U24-Pad2)*
X133096000Y-60198000D03*
G04 #@! TO.P,U8,2*
G04 #@! TO.N,Net-(U24-Pad1)*
X140716000Y-47498000D03*
G04 #@! TO.P,U8,9*
G04 #@! TO.N,Net-(U24-Pad2)*
X133096000Y-57658000D03*
G04 #@! TO.P,U8,3*
G04 #@! TO.N,/MIXER*
X140716000Y-50038000D03*
G04 #@! TO.P,U8,10*
G04 #@! TO.N,/ALLMUX6*
X133096000Y-55118000D03*
G04 #@! TO.P,U8,4*
G04 #@! TO.N,+5V*
X140716000Y-52578000D03*
G04 #@! TO.P,U8,11*
G04 #@! TO.N,-5V*
X133096000Y-52578000D03*
G04 #@! TO.P,U8,5*
G04 #@! TO.N,/FILTER*
X140716000Y-55118000D03*
G04 #@! TO.P,U8,12*
G04 #@! TO.N,/PWMDAC1*
X133096000Y-50038000D03*
G04 #@! TO.P,U8,6*
G04 #@! TO.N,Net-(U24-Pad5)*
X140716000Y-57658000D03*
G04 #@! TO.P,U8,13*
G04 #@! TO.N,Net-(U24-Pad4)*
X133096000Y-47498000D03*
G04 #@! TO.P,U8,7*
G04 #@! TO.N,Net-(U24-Pad5)*
X140716000Y-60198000D03*
G04 #@! TO.P,U8,14*
G04 #@! TO.N,Net-(U24-Pad4)*
X133096000Y-44958000D03*
G04 #@! TD*
D14*
G04 #@! TO.P,U9,1*
G04 #@! TO.N,Net-(U25-Pad13)*
X59690000Y-129286000D03*
D15*
G04 #@! TO.P,U9,8*
G04 #@! TO.N,Net-(U25-Pad15)*
X52070000Y-144526000D03*
G04 #@! TO.P,U9,2*
G04 #@! TO.N,Net-(U25-Pad13)*
X59690000Y-131826000D03*
G04 #@! TO.P,U9,9*
G04 #@! TO.N,Net-(U25-Pad15)*
X52070000Y-141986000D03*
G04 #@! TO.P,U9,3*
G04 #@! TO.N,/OSC1*
X59690000Y-134366000D03*
G04 #@! TO.P,U9,10*
G04 #@! TO.N,/LFO1*
X52070000Y-139446000D03*
G04 #@! TO.P,U9,4*
G04 #@! TO.N,+5V*
X59690000Y-136906000D03*
G04 #@! TO.P,U9,11*
G04 #@! TO.N,-5V*
X52070000Y-136906000D03*
G04 #@! TO.P,U9,5*
G04 #@! TO.N,/OSC2*
X59690000Y-139446000D03*
G04 #@! TO.P,U9,12*
G04 #@! TO.N,/LFO2*
X52070000Y-134366000D03*
G04 #@! TO.P,U9,6*
G04 #@! TO.N,Net-(U25-Pad14)*
X59690000Y-141986000D03*
G04 #@! TO.P,U9,13*
G04 #@! TO.N,Net-(U25-Pad12)*
X52070000Y-131826000D03*
G04 #@! TO.P,U9,7*
G04 #@! TO.N,Net-(U25-Pad14)*
X59690000Y-144526000D03*
G04 #@! TO.P,U9,14*
G04 #@! TO.N,Net-(U25-Pad12)*
X52070000Y-129286000D03*
G04 #@! TD*
G04 #@! TO.P,U10,14*
G04 #@! TO.N,Net-(U10-Pad13)*
X78994000Y-129794000D03*
G04 #@! TO.P,U10,7*
G04 #@! TO.N,Net-(U10-Pad6)*
X86614000Y-145034000D03*
G04 #@! TO.P,U10,13*
G04 #@! TO.N,Net-(U10-Pad13)*
X78994000Y-132334000D03*
G04 #@! TO.P,U10,6*
G04 #@! TO.N,Net-(U10-Pad6)*
X86614000Y-142494000D03*
G04 #@! TO.P,U10,12*
G04 #@! TO.N,/RATE27*
X78994000Y-134874000D03*
G04 #@! TO.P,U10,5*
G04 #@! TO.N,/FILTER*
X86614000Y-139954000D03*
G04 #@! TO.P,U10,11*
G04 #@! TO.N,-5V*
X78994000Y-137414000D03*
G04 #@! TO.P,U10,4*
G04 #@! TO.N,+5V*
X86614000Y-137414000D03*
G04 #@! TO.P,U10,10*
G04 #@! TO.N,/ALLMUX6*
X78994000Y-139954000D03*
G04 #@! TO.P,U10,3*
G04 #@! TO.N,/MIXER*
X86614000Y-134874000D03*
G04 #@! TO.P,U10,9*
G04 #@! TO.N,Net-(U10-Pad8)*
X78994000Y-142494000D03*
G04 #@! TO.P,U10,2*
G04 #@! TO.N,Net-(U10-Pad1)*
X86614000Y-132334000D03*
G04 #@! TO.P,U10,8*
G04 #@! TO.N,Net-(U10-Pad8)*
X78994000Y-145034000D03*
D14*
G04 #@! TO.P,U10,1*
G04 #@! TO.N,Net-(U10-Pad1)*
X86614000Y-129794000D03*
G04 #@! TD*
D15*
G04 #@! TO.P,U11,14*
G04 #@! TO.N,Net-(U11-Pad13)*
X52070000Y-73660000D03*
G04 #@! TO.P,U11,7*
G04 #@! TO.N,Net-(U11-Pad6)*
X59690000Y-88900000D03*
G04 #@! TO.P,U11,13*
G04 #@! TO.N,Net-(U11-Pad13)*
X52070000Y-76200000D03*
G04 #@! TO.P,U11,6*
G04 #@! TO.N,Net-(U11-Pad6)*
X59690000Y-86360000D03*
G04 #@! TO.P,U11,12*
G04 #@! TO.N,/LFO2*
X52070000Y-78740000D03*
G04 #@! TO.P,U11,5*
G04 #@! TO.N,/OSC2*
X59690000Y-83820000D03*
G04 #@! TO.P,U11,11*
G04 #@! TO.N,-5V*
X52070000Y-81280000D03*
G04 #@! TO.P,U11,4*
G04 #@! TO.N,+5V*
X59690000Y-81280000D03*
G04 #@! TO.P,U11,10*
G04 #@! TO.N,/LFO1*
X52070000Y-83820000D03*
G04 #@! TO.P,U11,3*
G04 #@! TO.N,/OSC1*
X59690000Y-78740000D03*
G04 #@! TO.P,U11,9*
G04 #@! TO.N,Net-(U11-Pad8)*
X52070000Y-86360000D03*
G04 #@! TO.P,U11,2*
G04 #@! TO.N,Net-(U11-Pad1)*
X59690000Y-76200000D03*
G04 #@! TO.P,U11,8*
G04 #@! TO.N,Net-(U11-Pad8)*
X52070000Y-88900000D03*
D14*
G04 #@! TO.P,U11,1*
G04 #@! TO.N,Net-(U11-Pad1)*
X59690000Y-73660000D03*
G04 #@! TD*
D15*
G04 #@! TO.P,U12,14*
G04 #@! TO.N,Net-(U12-Pad13)*
X78994000Y-73660000D03*
G04 #@! TO.P,U12,7*
G04 #@! TO.N,Net-(U12-Pad6)*
X86614000Y-88900000D03*
G04 #@! TO.P,U12,13*
G04 #@! TO.N,Net-(U12-Pad13)*
X78994000Y-76200000D03*
G04 #@! TO.P,U12,6*
G04 #@! TO.N,Net-(U12-Pad6)*
X86614000Y-86360000D03*
G04 #@! TO.P,U12,12*
G04 #@! TO.N,/PITCH27*
X78994000Y-78740000D03*
G04 #@! TO.P,U12,5*
G04 #@! TO.N,/FILTER*
X86614000Y-83820000D03*
G04 #@! TO.P,U12,11*
G04 #@! TO.N,-5V*
X78994000Y-81280000D03*
G04 #@! TO.P,U12,4*
G04 #@! TO.N,+5V*
X86614000Y-81280000D03*
G04 #@! TO.P,U12,10*
G04 #@! TO.N,/ALLMUX6*
X78994000Y-83820000D03*
G04 #@! TO.P,U12,3*
G04 #@! TO.N,/MIXER*
X86614000Y-78740000D03*
G04 #@! TO.P,U12,9*
G04 #@! TO.N,Net-(U12-Pad8)*
X78994000Y-86360000D03*
G04 #@! TO.P,U12,2*
G04 #@! TO.N,Net-(U12-Pad1)*
X86614000Y-76200000D03*
G04 #@! TO.P,U12,8*
G04 #@! TO.N,Net-(U12-Pad8)*
X78994000Y-88900000D03*
D14*
G04 #@! TO.P,U12,1*
G04 #@! TO.N,Net-(U12-Pad1)*
X86614000Y-73660000D03*
G04 #@! TD*
D15*
G04 #@! TO.P,U13,14*
G04 #@! TO.N,Net-(U13-Pad13)*
X52070000Y-101092000D03*
G04 #@! TO.P,U13,7*
G04 #@! TO.N,Net-(U13-Pad6)*
X59690000Y-116332000D03*
G04 #@! TO.P,U13,13*
G04 #@! TO.N,Net-(U13-Pad13)*
X52070000Y-103632000D03*
G04 #@! TO.P,U13,6*
G04 #@! TO.N,Net-(U13-Pad6)*
X59690000Y-113792000D03*
G04 #@! TO.P,U13,12*
G04 #@! TO.N,/LFO2*
X52070000Y-106172000D03*
G04 #@! TO.P,U13,5*
G04 #@! TO.N,/OSC2*
X59690000Y-111252000D03*
G04 #@! TO.P,U13,11*
G04 #@! TO.N,-5V*
X52070000Y-108712000D03*
G04 #@! TO.P,U13,4*
G04 #@! TO.N,+5V*
X59690000Y-108712000D03*
G04 #@! TO.P,U13,10*
G04 #@! TO.N,/LFO1*
X52070000Y-111252000D03*
G04 #@! TO.P,U13,3*
G04 #@! TO.N,/OSC1*
X59690000Y-106172000D03*
G04 #@! TO.P,U13,9*
G04 #@! TO.N,Net-(U13-Pad8)*
X52070000Y-113792000D03*
G04 #@! TO.P,U13,2*
G04 #@! TO.N,Net-(U13-Pad1)*
X59690000Y-103632000D03*
G04 #@! TO.P,U13,8*
G04 #@! TO.N,Net-(U13-Pad8)*
X52070000Y-116332000D03*
D14*
G04 #@! TO.P,U13,1*
G04 #@! TO.N,Net-(U13-Pad1)*
X59690000Y-101092000D03*
G04 #@! TD*
D15*
G04 #@! TO.P,U14,14*
G04 #@! TO.N,Net-(U14-Pad13)*
X78994000Y-101346000D03*
G04 #@! TO.P,U14,7*
G04 #@! TO.N,Net-(U14-Pad6)*
X86614000Y-116586000D03*
G04 #@! TO.P,U14,13*
G04 #@! TO.N,Net-(U14-Pad13)*
X78994000Y-103886000D03*
G04 #@! TO.P,U14,6*
G04 #@! TO.N,Net-(U14-Pad6)*
X86614000Y-114046000D03*
G04 #@! TO.P,U14,12*
G04 #@! TO.N,/PWMDAC4*
X78994000Y-106426000D03*
G04 #@! TO.P,U14,5*
G04 #@! TO.N,/FILTER*
X86614000Y-111506000D03*
G04 #@! TO.P,U14,11*
G04 #@! TO.N,-5V*
X78994000Y-108966000D03*
G04 #@! TO.P,U14,4*
G04 #@! TO.N,+5V*
X86614000Y-108966000D03*
G04 #@! TO.P,U14,10*
G04 #@! TO.N,/ALLMUX6*
X78994000Y-111506000D03*
G04 #@! TO.P,U14,3*
G04 #@! TO.N,/MIXER*
X86614000Y-106426000D03*
G04 #@! TO.P,U14,9*
G04 #@! TO.N,Net-(U14-Pad8)*
X78994000Y-114046000D03*
G04 #@! TO.P,U14,2*
G04 #@! TO.N,Net-(U14-Pad1)*
X86614000Y-103886000D03*
G04 #@! TO.P,U14,8*
G04 #@! TO.N,Net-(U14-Pad8)*
X78994000Y-116586000D03*
D14*
G04 #@! TO.P,U14,1*
G04 #@! TO.N,Net-(U14-Pad1)*
X86614000Y-101346000D03*
G04 #@! TD*
D15*
G04 #@! TO.P,U15,14*
G04 #@! TO.N,Net-(U15-Pad13)*
X106426000Y-73406000D03*
G04 #@! TO.P,U15,7*
G04 #@! TO.N,Net-(U15-Pad6)*
X114046000Y-88646000D03*
G04 #@! TO.P,U15,13*
G04 #@! TO.N,Net-(U15-Pad13)*
X106426000Y-75946000D03*
G04 #@! TO.P,U15,6*
G04 #@! TO.N,Net-(U15-Pad6)*
X114046000Y-86106000D03*
G04 #@! TO.P,U15,12*
G04 #@! TO.N,/LFO2*
X106426000Y-78486000D03*
G04 #@! TO.P,U15,5*
G04 #@! TO.N,/OSC2*
X114046000Y-83566000D03*
G04 #@! TO.P,U15,11*
G04 #@! TO.N,-5V*
X106426000Y-81026000D03*
G04 #@! TO.P,U15,4*
G04 #@! TO.N,+5V*
X114046000Y-81026000D03*
G04 #@! TO.P,U15,10*
G04 #@! TO.N,/LFO1*
X106426000Y-83566000D03*
G04 #@! TO.P,U15,3*
G04 #@! TO.N,/OSC1*
X114046000Y-78486000D03*
G04 #@! TO.P,U15,9*
G04 #@! TO.N,Net-(U15-Pad8)*
X106426000Y-86106000D03*
G04 #@! TO.P,U15,2*
G04 #@! TO.N,Net-(U15-Pad1)*
X114046000Y-75946000D03*
G04 #@! TO.P,U15,8*
G04 #@! TO.N,Net-(U15-Pad8)*
X106426000Y-88646000D03*
D14*
G04 #@! TO.P,U15,1*
G04 #@! TO.N,Net-(U15-Pad1)*
X114046000Y-73406000D03*
G04 #@! TD*
D15*
G04 #@! TO.P,U16,14*
G04 #@! TO.N,Net-(U16-Pad13)*
X133350000Y-72898000D03*
G04 #@! TO.P,U16,7*
G04 #@! TO.N,Net-(U16-Pad6)*
X140970000Y-88138000D03*
G04 #@! TO.P,U16,13*
G04 #@! TO.N,Net-(U16-Pad13)*
X133350000Y-75438000D03*
G04 #@! TO.P,U16,6*
G04 #@! TO.N,Net-(U16-Pad6)*
X140970000Y-85598000D03*
G04 #@! TO.P,U16,12*
G04 #@! TO.N,/PWMDAC2*
X133350000Y-77978000D03*
G04 #@! TO.P,U16,5*
G04 #@! TO.N,/FILTER*
X140970000Y-83058000D03*
G04 #@! TO.P,U16,11*
G04 #@! TO.N,-5V*
X133350000Y-80518000D03*
G04 #@! TO.P,U16,4*
G04 #@! TO.N,+5V*
X140970000Y-80518000D03*
G04 #@! TO.P,U16,10*
G04 #@! TO.N,/ALLMUX6*
X133350000Y-83058000D03*
G04 #@! TO.P,U16,3*
G04 #@! TO.N,/MIXER*
X140970000Y-77978000D03*
G04 #@! TO.P,U16,9*
G04 #@! TO.N,Net-(U16-Pad8)*
X133350000Y-85598000D03*
G04 #@! TO.P,U16,2*
G04 #@! TO.N,Net-(U16-Pad1)*
X140970000Y-75438000D03*
G04 #@! TO.P,U16,8*
G04 #@! TO.N,Net-(U16-Pad8)*
X133350000Y-88138000D03*
D14*
G04 #@! TO.P,U16,1*
G04 #@! TO.N,Net-(U16-Pad1)*
X140970000Y-72898000D03*
G04 #@! TD*
D15*
G04 #@! TO.P,U19,28*
G04 #@! TO.N,Net-(U19-Pad28)*
X92710000Y-101346000D03*
G04 #@! TO.P,U19,14*
G04 #@! TO.N,Net-(U19-Pad14)*
X100330000Y-134366000D03*
G04 #@! TO.P,U19,27*
G04 #@! TO.N,Net-(U19-Pad27)*
X92710000Y-103886000D03*
G04 #@! TO.P,U19,13*
G04 #@! TO.N,/SDA*
X100330000Y-131826000D03*
G04 #@! TO.P,U19,26*
G04 #@! TO.N,Net-(U19-Pad26)*
X92710000Y-106426000D03*
G04 #@! TO.P,U19,12*
G04 #@! TO.N,/SCL*
X100330000Y-129286000D03*
G04 #@! TO.P,U19,25*
G04 #@! TO.N,Net-(U19-Pad25)*
X92710000Y-108966000D03*
G04 #@! TO.P,U19,11*
G04 #@! TO.N,Net-(U19-Pad11)*
X100330000Y-126746000D03*
G04 #@! TO.P,U19,24*
G04 #@! TO.N,Net-(U19-Pad24)*
X92710000Y-111506000D03*
G04 #@! TO.P,U19,10*
G04 #@! TO.N,GND*
X100330000Y-124206000D03*
G04 #@! TO.P,U19,23*
G04 #@! TO.N,Net-(U19-Pad23)*
X92710000Y-114046000D03*
G04 #@! TO.P,U19,9*
G04 #@! TO.N,+5V*
X100330000Y-121666000D03*
G04 #@! TO.P,U19,22*
G04 #@! TO.N,Net-(U19-Pad22)*
X92710000Y-116586000D03*
G04 #@! TO.P,U19,8*
G04 #@! TO.N,Net-(U19-Pad8)*
X100330000Y-119126000D03*
G04 #@! TO.P,U19,21*
G04 #@! TO.N,Net-(U19-Pad21)*
X92710000Y-119126000D03*
G04 #@! TO.P,U19,7*
G04 #@! TO.N,Net-(U19-Pad7)*
X100330000Y-116586000D03*
G04 #@! TO.P,U19,20*
G04 #@! TO.N,Net-(U19-Pad20)*
X92710000Y-121666000D03*
G04 #@! TO.P,U19,6*
G04 #@! TO.N,Net-(U19-Pad6)*
X100330000Y-114046000D03*
G04 #@! TO.P,U19,19*
G04 #@! TO.N,Net-(U19-Pad19)*
X92710000Y-124206000D03*
G04 #@! TO.P,U19,5*
G04 #@! TO.N,Net-(U19-Pad5)*
X100330000Y-111506000D03*
G04 #@! TO.P,U19,18*
G04 #@! TO.N,/RESET*
X92710000Y-126746000D03*
G04 #@! TO.P,U19,4*
G04 #@! TO.N,Net-(U19-Pad4)*
X100330000Y-108966000D03*
G04 #@! TO.P,U19,17*
G04 #@! TO.N,GND*
X92710000Y-129286000D03*
G04 #@! TO.P,U19,3*
G04 #@! TO.N,Net-(U19-Pad3)*
X100330000Y-106426000D03*
G04 #@! TO.P,U19,16*
G04 #@! TO.N,+5V*
X92710000Y-131826000D03*
G04 #@! TO.P,U19,2*
G04 #@! TO.N,Net-(U19-Pad2)*
X100330000Y-103886000D03*
G04 #@! TO.P,U19,15*
G04 #@! TO.N,+5V*
X92710000Y-134366000D03*
D14*
G04 #@! TO.P,U19,1*
G04 #@! TO.N,Net-(U19-Pad1)*
X100330000Y-101346000D03*
G04 #@! TD*
D15*
G04 #@! TO.P,U21,16*
G04 #@! TO.N,+5V*
X119888000Y-146812000D03*
G04 #@! TO.P,U21,8*
G04 #@! TO.N,GND*
X127508000Y-129032000D03*
G04 #@! TO.P,U21,15*
G04 #@! TO.N,Net-(U1-Pad8)*
X119888000Y-144272000D03*
G04 #@! TO.P,U21,7*
G04 #@! TO.N,-5V*
X127508000Y-131572000D03*
G04 #@! TO.P,U21,14*
G04 #@! TO.N,Net-(U1-Pad6)*
X119888000Y-141732000D03*
G04 #@! TO.P,U21,6*
G04 #@! TO.N,Net-(U19-Pad5)*
X127508000Y-134112000D03*
G04 #@! TO.P,U21,13*
G04 #@! TO.N,Net-(U1-Pad1)*
X119888000Y-139192000D03*
G04 #@! TO.P,U21,5*
G04 #@! TO.N,Net-(U2-Pad6)*
X127508000Y-136652000D03*
G04 #@! TO.P,U21,12*
G04 #@! TO.N,Net-(U1-Pad13)*
X119888000Y-136652000D03*
G04 #@! TO.P,U21,4*
G04 #@! TO.N,Net-(U2-Pad13)*
X127508000Y-139192000D03*
G04 #@! TO.P,U21,11*
G04 #@! TO.N,Net-(U19-Pad6)*
X119888000Y-134112000D03*
G04 #@! TO.P,U21,3*
G04 #@! TO.N,/RATE1*
X127508000Y-141732000D03*
G04 #@! TO.P,U21,10*
G04 #@! TO.N,Net-(U19-Pad7)*
X119888000Y-131572000D03*
G04 #@! TO.P,U21,2*
G04 #@! TO.N,Net-(U2-Pad8)*
X127508000Y-144272000D03*
G04 #@! TO.P,U21,9*
G04 #@! TO.N,Net-(U19-Pad8)*
X119888000Y-129032000D03*
D14*
G04 #@! TO.P,U21,1*
G04 #@! TO.N,Net-(U2-Pad1)*
X127508000Y-146812000D03*
G04 #@! TD*
G04 #@! TO.P,U22,1*
G04 #@! TO.N,Net-(U22-Pad1)*
X73152000Y-63246000D03*
D15*
G04 #@! TO.P,U22,9*
G04 #@! TO.N,Net-(U20-Pad28)*
X65532000Y-45466000D03*
G04 #@! TO.P,U22,2*
G04 #@! TO.N,Net-(U22-Pad2)*
X73152000Y-60706000D03*
G04 #@! TO.P,U22,10*
G04 #@! TO.N,Net-(U20-Pad27)*
X65532000Y-48006000D03*
G04 #@! TO.P,U22,3*
G04 #@! TO.N,/PITCH1*
X73152000Y-58166000D03*
G04 #@! TO.P,U22,11*
G04 #@! TO.N,Net-(U20-Pad26)*
X65532000Y-50546000D03*
G04 #@! TO.P,U22,4*
G04 #@! TO.N,Net-(U22-Pad4)*
X73152000Y-55626000D03*
G04 #@! TO.P,U22,12*
G04 #@! TO.N,Net-(U22-Pad12)*
X65532000Y-53086000D03*
G04 #@! TO.P,U22,5*
G04 #@! TO.N,Net-(U22-Pad5)*
X73152000Y-53086000D03*
G04 #@! TO.P,U22,13*
G04 #@! TO.N,Net-(U22-Pad13)*
X65532000Y-55626000D03*
G04 #@! TO.P,U22,6*
G04 #@! TO.N,Net-(U20-Pad25)*
X73152000Y-50546000D03*
G04 #@! TO.P,U22,14*
G04 #@! TO.N,Net-(U22-Pad14)*
X65532000Y-58166000D03*
G04 #@! TO.P,U22,7*
G04 #@! TO.N,-5V*
X73152000Y-48006000D03*
G04 #@! TO.P,U22,15*
G04 #@! TO.N,Net-(U22-Pad15)*
X65532000Y-60706000D03*
G04 #@! TO.P,U22,8*
G04 #@! TO.N,GND*
X73152000Y-45466000D03*
G04 #@! TO.P,U22,16*
G04 #@! TO.N,+5V*
X65532000Y-63246000D03*
G04 #@! TD*
D14*
G04 #@! TO.P,U23,1*
G04 #@! TO.N,Net-(U23-Pad1)*
X127508000Y-118364000D03*
D15*
G04 #@! TO.P,U23,9*
G04 #@! TO.N,Net-(U19-Pad4)*
X119888000Y-100584000D03*
G04 #@! TO.P,U23,2*
G04 #@! TO.N,Net-(U23-Pad2)*
X127508000Y-115824000D03*
G04 #@! TO.P,U23,10*
G04 #@! TO.N,Net-(U19-Pad3)*
X119888000Y-103124000D03*
G04 #@! TO.P,U23,3*
G04 #@! TO.N,/PWM3*
X127508000Y-113284000D03*
G04 #@! TO.P,U23,11*
G04 #@! TO.N,Net-(U19-Pad2)*
X119888000Y-105664000D03*
G04 #@! TO.P,U23,4*
G04 #@! TO.N,Net-(U23-Pad4)*
X127508000Y-110744000D03*
G04 #@! TO.P,U23,12*
G04 #@! TO.N,Net-(U23-Pad12)*
X119888000Y-108204000D03*
G04 #@! TO.P,U23,5*
G04 #@! TO.N,Net-(U23-Pad5)*
X127508000Y-108204000D03*
G04 #@! TO.P,U23,13*
G04 #@! TO.N,Net-(U23-Pad13)*
X119888000Y-110744000D03*
G04 #@! TO.P,U23,6*
G04 #@! TO.N,Net-(U19-Pad1)*
X127508000Y-105664000D03*
G04 #@! TO.P,U23,14*
G04 #@! TO.N,Net-(U23-Pad14)*
X119888000Y-113284000D03*
G04 #@! TO.P,U23,7*
G04 #@! TO.N,GND*
X127508000Y-103124000D03*
G04 #@! TO.P,U23,15*
G04 #@! TO.N,Net-(U23-Pad15)*
X119888000Y-115824000D03*
G04 #@! TO.P,U23,8*
G04 #@! TO.N,-5V*
X127508000Y-100584000D03*
G04 #@! TO.P,U23,16*
G04 #@! TO.N,+5V*
X119888000Y-118364000D03*
G04 #@! TD*
D14*
G04 #@! TO.P,U25,1*
G04 #@! TO.N,Net-(U10-Pad1)*
X73152000Y-147574000D03*
D15*
G04 #@! TO.P,U25,9*
G04 #@! TO.N,Net-(U19-Pad24)*
X65532000Y-129794000D03*
G04 #@! TO.P,U25,2*
G04 #@! TO.N,Net-(U10-Pad8)*
X73152000Y-145034000D03*
G04 #@! TO.P,U25,10*
G04 #@! TO.N,Net-(U19-Pad23)*
X65532000Y-132334000D03*
G04 #@! TO.P,U25,3*
G04 #@! TO.N,/RATE2*
X73152000Y-142494000D03*
G04 #@! TO.P,U25,11*
G04 #@! TO.N,Net-(U19-Pad22)*
X65532000Y-134874000D03*
G04 #@! TO.P,U25,4*
G04 #@! TO.N,Net-(U10-Pad13)*
X73152000Y-139954000D03*
G04 #@! TO.P,U25,12*
G04 #@! TO.N,Net-(U25-Pad12)*
X65532000Y-137414000D03*
G04 #@! TO.P,U25,5*
G04 #@! TO.N,Net-(U10-Pad6)*
X73152000Y-137414000D03*
G04 #@! TO.P,U25,13*
G04 #@! TO.N,Net-(U25-Pad13)*
X65532000Y-139954000D03*
G04 #@! TO.P,U25,6*
G04 #@! TO.N,Net-(U19-Pad21)*
X73152000Y-134874000D03*
G04 #@! TO.P,U25,14*
G04 #@! TO.N,Net-(U25-Pad14)*
X65532000Y-142494000D03*
G04 #@! TO.P,U25,7*
G04 #@! TO.N,-5V*
X73152000Y-132334000D03*
G04 #@! TO.P,U25,15*
G04 #@! TO.N,Net-(U25-Pad15)*
X65532000Y-145034000D03*
G04 #@! TO.P,U25,8*
G04 #@! TO.N,GND*
X73152000Y-129794000D03*
G04 #@! TO.P,U25,16*
G04 #@! TO.N,+5V*
X65532000Y-147574000D03*
G04 #@! TD*
D14*
G04 #@! TO.P,U26,1*
G04 #@! TO.N,Net-(U12-Pad1)*
X73152000Y-91440000D03*
D15*
G04 #@! TO.P,U26,9*
G04 #@! TO.N,Net-(U20-Pad24)*
X65532000Y-73660000D03*
G04 #@! TO.P,U26,2*
G04 #@! TO.N,Net-(U12-Pad8)*
X73152000Y-88900000D03*
G04 #@! TO.P,U26,10*
G04 #@! TO.N,Net-(U20-Pad23)*
X65532000Y-76200000D03*
G04 #@! TO.P,U26,3*
G04 #@! TO.N,/PITCH2*
X73152000Y-86360000D03*
G04 #@! TO.P,U26,11*
G04 #@! TO.N,Net-(U20-Pad22)*
X65532000Y-78740000D03*
G04 #@! TO.P,U26,4*
G04 #@! TO.N,Net-(U12-Pad13)*
X73152000Y-83820000D03*
G04 #@! TO.P,U26,12*
G04 #@! TO.N,Net-(U11-Pad13)*
X65532000Y-81280000D03*
G04 #@! TO.P,U26,5*
G04 #@! TO.N,Net-(U12-Pad6)*
X73152000Y-81280000D03*
G04 #@! TO.P,U26,13*
G04 #@! TO.N,Net-(U11-Pad1)*
X65532000Y-83820000D03*
G04 #@! TO.P,U26,6*
G04 #@! TO.N,Net-(U20-Pad21)*
X73152000Y-78740000D03*
G04 #@! TO.P,U26,14*
G04 #@! TO.N,Net-(U11-Pad6)*
X65532000Y-86360000D03*
G04 #@! TO.P,U26,7*
G04 #@! TO.N,-5V*
X73152000Y-76200000D03*
G04 #@! TO.P,U26,15*
G04 #@! TO.N,Net-(U11-Pad8)*
X65532000Y-88900000D03*
G04 #@! TO.P,U26,8*
G04 #@! TO.N,GND*
X73152000Y-73660000D03*
G04 #@! TO.P,U26,16*
G04 #@! TO.N,+5V*
X65532000Y-91440000D03*
G04 #@! TD*
G04 #@! TO.P,U27,16*
G04 #@! TO.N,+5V*
X65532000Y-119126000D03*
G04 #@! TO.P,U27,8*
G04 #@! TO.N,-5V*
X73152000Y-101346000D03*
G04 #@! TO.P,U27,15*
G04 #@! TO.N,Net-(U13-Pad8)*
X65532000Y-116586000D03*
G04 #@! TO.P,U27,7*
G04 #@! TO.N,GND*
X73152000Y-103886000D03*
G04 #@! TO.P,U27,14*
G04 #@! TO.N,Net-(U13-Pad6)*
X65532000Y-114046000D03*
G04 #@! TO.P,U27,6*
G04 #@! TO.N,Net-(U19-Pad25)*
X73152000Y-106426000D03*
G04 #@! TO.P,U27,13*
G04 #@! TO.N,Net-(U13-Pad1)*
X65532000Y-111506000D03*
G04 #@! TO.P,U27,5*
G04 #@! TO.N,Net-(U14-Pad6)*
X73152000Y-108966000D03*
G04 #@! TO.P,U27,12*
G04 #@! TO.N,Net-(U13-Pad13)*
X65532000Y-108966000D03*
G04 #@! TO.P,U27,4*
G04 #@! TO.N,Net-(U14-Pad13)*
X73152000Y-111506000D03*
G04 #@! TO.P,U27,11*
G04 #@! TO.N,Net-(U19-Pad26)*
X65532000Y-106426000D03*
G04 #@! TO.P,U27,3*
G04 #@! TO.N,/PWM4*
X73152000Y-114046000D03*
G04 #@! TO.P,U27,10*
G04 #@! TO.N,Net-(U19-Pad27)*
X65532000Y-103886000D03*
G04 #@! TO.P,U27,2*
G04 #@! TO.N,Net-(U14-Pad8)*
X73152000Y-116586000D03*
G04 #@! TO.P,U27,9*
G04 #@! TO.N,Net-(U19-Pad28)*
X65532000Y-101346000D03*
D14*
G04 #@! TO.P,U27,1*
G04 #@! TO.N,Net-(U14-Pad1)*
X73152000Y-119126000D03*
G04 #@! TD*
D15*
G04 #@! TO.P,U28,16*
G04 #@! TO.N,+5V*
X119888000Y-90932000D03*
G04 #@! TO.P,U28,8*
G04 #@! TO.N,-5V*
X127508000Y-73152000D03*
G04 #@! TO.P,U28,15*
G04 #@! TO.N,Net-(U15-Pad8)*
X119888000Y-88392000D03*
G04 #@! TO.P,U28,7*
G04 #@! TO.N,GND*
X127508000Y-75692000D03*
G04 #@! TO.P,U28,14*
G04 #@! TO.N,Net-(U15-Pad6)*
X119888000Y-85852000D03*
G04 #@! TO.P,U28,6*
G04 #@! TO.N,Net-(U20-Pad5)*
X127508000Y-78232000D03*
G04 #@! TO.P,U28,13*
G04 #@! TO.N,Net-(U15-Pad1)*
X119888000Y-83312000D03*
G04 #@! TO.P,U28,5*
G04 #@! TO.N,Net-(U16-Pad6)*
X127508000Y-80772000D03*
G04 #@! TO.P,U28,12*
G04 #@! TO.N,Net-(U15-Pad13)*
X119888000Y-80772000D03*
G04 #@! TO.P,U28,4*
G04 #@! TO.N,Net-(U16-Pad13)*
X127508000Y-83312000D03*
G04 #@! TO.P,U28,11*
G04 #@! TO.N,Net-(U20-Pad6)*
X119888000Y-78232000D03*
G04 #@! TO.P,U28,3*
G04 #@! TO.N,/PWM2*
X127508000Y-85852000D03*
G04 #@! TO.P,U28,10*
G04 #@! TO.N,Net-(U20-Pad7)*
X119888000Y-75692000D03*
G04 #@! TO.P,U28,2*
G04 #@! TO.N,Net-(U16-Pad8)*
X127508000Y-88392000D03*
G04 #@! TO.P,U28,9*
G04 #@! TO.N,Net-(U20-Pad8)*
X119888000Y-73152000D03*
D14*
G04 #@! TO.P,U28,1*
G04 #@! TO.N,Net-(U16-Pad1)*
X127508000Y-90932000D03*
G04 #@! TD*
D16*
G04 #@! TO.P,J2,1*
G04 #@! TO.N,/OSC1*
X38608000Y-23368000D03*
D17*
G04 #@! TO.P,J2,2*
G04 #@! TO.N,/OSC2*
X38608000Y-25908000D03*
G04 #@! TO.P,J2,3*
G04 #@! TO.N,/LFO1*
X38608000Y-28448000D03*
G04 #@! TO.P,J2,4*
G04 #@! TO.N,/LFO2*
X38608000Y-30988000D03*
G04 #@! TO.P,J2,5*
G04 #@! TO.N,/MIXER*
X38608000Y-33528000D03*
G04 #@! TO.P,J2,6*
G04 #@! TO.N,/FILTER*
X38608000Y-36068000D03*
G04 #@! TO.P,J2,7*
G04 #@! TO.N,/ALLMUX6*
X38608000Y-38608000D03*
G04 #@! TO.P,J2,8*
G04 #@! TO.N,/PWMDAC2*
X38608000Y-41148000D03*
G04 #@! TO.P,J2,9*
G04 #@! TO.N,/PITCH27*
X38608000Y-43688000D03*
G04 #@! TO.P,J2,10*
G04 #@! TO.N,/PWMDAC1*
X38608000Y-46228000D03*
G04 #@! TO.P,J2,11*
G04 #@! TO.N,/PITCH17*
X38608000Y-48768000D03*
G04 #@! TO.P,J2,12*
G04 #@! TO.N,/PWMDAC4*
X38608000Y-51308000D03*
G04 #@! TO.P,J2,13*
G04 #@! TO.N,/RATE27*
X38608000Y-53848000D03*
G04 #@! TO.P,J2,14*
G04 #@! TO.N,/PWMDAC3*
X38608000Y-56388000D03*
G04 #@! TO.P,J2,15*
G04 #@! TO.N,/RATE17*
X38608000Y-58928000D03*
G04 #@! TD*
D16*
G04 #@! TO.P,J4,1*
G04 #@! TO.N,/SDA*
X103124000Y-151384000D03*
D17*
G04 #@! TO.P,J4,2*
G04 #@! TO.N,/SCL*
X100584000Y-151384000D03*
G04 #@! TO.P,J4,3*
G04 #@! TO.N,/RESET*
X98044000Y-151384000D03*
G04 #@! TO.P,J4,4*
G04 #@! TO.N,-5V*
X95504000Y-151384000D03*
G04 #@! TO.P,J4,5*
G04 #@! TO.N,GND*
X92964000Y-151384000D03*
G04 #@! TO.P,J4,6*
G04 #@! TO.N,+5V*
X90424000Y-151384000D03*
G04 #@! TD*
D16*
G04 #@! TO.P,J1,1*
G04 #@! TO.N,/1GPA0*
X23622000Y-88138000D03*
D17*
G04 #@! TO.P,J1,2*
G04 #@! TO.N,/1GPA1*
X23622000Y-85598000D03*
G04 #@! TO.P,J1,3*
G04 #@! TO.N,/1GPA2*
X23622000Y-83058000D03*
G04 #@! TO.P,J1,4*
G04 #@! TO.N,/1GPA3*
X23622000Y-80518000D03*
G04 #@! TO.P,J1,5*
G04 #@! TO.N,/1GPA4*
X23622000Y-77978000D03*
G04 #@! TO.P,J1,6*
G04 #@! TO.N,/1GPA5*
X23622000Y-75438000D03*
G04 #@! TO.P,J1,7*
G04 #@! TO.N,/1GPA6*
X23622000Y-72898000D03*
G04 #@! TO.P,J1,8*
G04 #@! TO.N,/1GPA7*
X23622000Y-70358000D03*
G04 #@! TO.P,J1,9*
G04 #@! TO.N,/1GPB7*
X23622000Y-67818000D03*
G04 #@! TO.P,J1,10*
G04 #@! TO.N,/1GPB6*
X23622000Y-65278000D03*
G04 #@! TO.P,J1,11*
G04 #@! TO.N,/1GPB5*
X23622000Y-62738000D03*
G04 #@! TO.P,J1,12*
G04 #@! TO.N,/1GPB4*
X23622000Y-60198000D03*
G04 #@! TO.P,J1,13*
G04 #@! TO.N,/1GPB3*
X23622000Y-57658000D03*
G04 #@! TO.P,J1,14*
G04 #@! TO.N,/1GPB2*
X23622000Y-55118000D03*
G04 #@! TO.P,J1,15*
G04 #@! TO.N,/1GPB1*
X23622000Y-52578000D03*
G04 #@! TO.P,J1,16*
G04 #@! TO.N,/1GPB0*
X23622000Y-50038000D03*
G04 #@! TD*
D16*
G04 #@! TO.P,J5,1*
G04 #@! TO.N,/2GPA7*
X35027484Y-147350110D03*
D17*
G04 #@! TO.P,J5,2*
G04 #@! TO.N,/2GPA6*
X35027484Y-144810110D03*
G04 #@! TO.P,J5,3*
G04 #@! TO.N,/2GPA5*
X35027484Y-142270110D03*
G04 #@! TO.P,J5,4*
G04 #@! TO.N,/2GPA4*
X35027484Y-139730110D03*
G04 #@! TO.P,J5,5*
G04 #@! TO.N,/2GPA3*
X35027484Y-137190110D03*
G04 #@! TO.P,J5,6*
G04 #@! TO.N,/2GPA2*
X35027484Y-134650110D03*
G04 #@! TO.P,J5,7*
G04 #@! TO.N,/2GPA1*
X35027484Y-132110110D03*
G04 #@! TO.P,J5,8*
G04 #@! TO.N,/2GPA0*
X35027484Y-129570110D03*
G04 #@! TO.P,J5,9*
G04 #@! TO.N,/2GPB0*
X35027484Y-127030110D03*
G04 #@! TO.P,J5,10*
G04 #@! TO.N,/2GPB1*
X35027484Y-124490110D03*
G04 #@! TO.P,J5,11*
G04 #@! TO.N,/2GPB2*
X35027484Y-121950110D03*
G04 #@! TO.P,J5,12*
G04 #@! TO.N,/2GPB3*
X35027484Y-119410110D03*
G04 #@! TO.P,J5,13*
G04 #@! TO.N,/2GPB4*
X35027484Y-116870110D03*
G04 #@! TO.P,J5,14*
G04 #@! TO.N,/2GPB5*
X35027484Y-114330110D03*
G04 #@! TO.P,J5,15*
G04 #@! TO.N,/2GPB6*
X35027484Y-111790110D03*
G04 #@! TO.P,J5,16*
G04 #@! TO.N,/2GPB7*
X35027484Y-109250110D03*
G04 #@! TD*
D16*
G04 #@! TO.P,J6,1*
G04 #@! TO.N,+5V*
X117094000Y-153162000D03*
D17*
G04 #@! TO.P,J6,2*
X117094000Y-155702000D03*
G04 #@! TO.P,J6,3*
X119634000Y-153162000D03*
G04 #@! TO.P,J6,4*
X119634000Y-155702000D03*
G04 #@! TO.P,J6,5*
X122174000Y-153162000D03*
G04 #@! TO.P,J6,6*
X122174000Y-155702000D03*
G04 #@! TO.P,J6,7*
X124714000Y-153162000D03*
G04 #@! TO.P,J6,8*
X124714000Y-155702000D03*
G04 #@! TO.P,J6,9*
G04 #@! TO.N,GND*
X127254000Y-153162000D03*
G04 #@! TO.P,J6,10*
X127254000Y-155702000D03*
G04 #@! TO.P,J6,11*
X129794000Y-153162000D03*
G04 #@! TO.P,J6,12*
X129794000Y-155702000D03*
G04 #@! TO.P,J6,13*
X132334000Y-153162000D03*
G04 #@! TO.P,J6,14*
X132334000Y-155702000D03*
G04 #@! TO.P,J6,15*
X134874000Y-153162000D03*
G04 #@! TO.P,J6,16*
X134874000Y-155702000D03*
G04 #@! TD*
D18*
G04 #@! TO.N,/LFO2*
X53848000Y-26416000D03*
X108204000Y-26416000D03*
G04 #@! TO.N,/OSC2*
X111506000Y-108458000D03*
X111506000Y-81026000D03*
X111506000Y-52324000D03*
X57150000Y-52578000D03*
X57150000Y-108712000D03*
X57150000Y-81280000D03*
X57150000Y-24384000D03*
X111506000Y-24384000D03*
G04 #@! TO.N,-5V*
X84074000Y-148844000D03*
X70612000Y-135890000D03*
X70104000Y-123444000D03*
X81534000Y-120396000D03*
X80518000Y-93980000D03*
X74422000Y-93980000D03*
X74676000Y-65278000D03*
X78740000Y-64516000D03*
X74930000Y-39116000D03*
X102870000Y-39624000D03*
X104394000Y-125222000D03*
X133350000Y-149352000D03*
X136144000Y-140970000D03*
X136144000Y-130048000D03*
X127508000Y-125730000D03*
X136144000Y-121158000D03*
X134366000Y-94234000D03*
X125730000Y-79502000D03*
X134874000Y-64516000D03*
X134874000Y-54356000D03*
X133096000Y-42672000D03*
X133096000Y-39116000D03*
X74676000Y-67564000D03*
G04 #@! TO.N,+5V*
X96012000Y-143764000D03*
X90424000Y-146812000D03*
X102108000Y-141732000D03*
X111252000Y-139700000D03*
X90424000Y-74676000D03*
X90424000Y-68072000D03*
X110490000Y-69342000D03*
X110490000Y-77470000D03*
X70104000Y-152146000D03*
X51562000Y-93980000D03*
X67818000Y-93472000D03*
X43180000Y-105664000D03*
G04 #@! TO.N,/LFO1*
X109220000Y-108204000D03*
X109220000Y-80772000D03*
X109220000Y-52324000D03*
X54864000Y-52578000D03*
X54864000Y-108458000D03*
X54864000Y-81026000D03*
X54864000Y-25400000D03*
X109220000Y-25400000D03*
G04 #@! TO.N,/OSC1*
X58166000Y-23368000D03*
X112522000Y-23368000D03*
G04 #@! TO.N,/MIXER*
X84836000Y-27432000D03*
X139192000Y-27432000D03*
G04 #@! TO.N,/ALLMUX6*
X82804000Y-29464000D03*
X82804000Y-115316000D03*
X82804000Y-87630000D03*
X82804000Y-59690000D03*
X137160000Y-59182000D03*
X137160000Y-86868000D03*
X137160000Y-114554000D03*
X137160000Y-29464000D03*
G04 #@! TO.N,/FILTER*
X138176000Y-52324000D03*
X83820000Y-52832000D03*
X83820000Y-108712000D03*
X83820000Y-81026000D03*
X83820000Y-28448000D03*
X138176000Y-107950000D03*
X138176000Y-80264000D03*
X138176000Y-28448000D03*
G04 #@! TO.N,/RATE17*
X130048000Y-37592000D03*
G04 #@! TO.N,/PITCH17*
X80518000Y-33528000D03*
G04 #@! TO.N,/PWMDAC3*
X131318000Y-36576000D03*
G04 #@! TO.N,/PWMDAC1*
X134874000Y-32512000D03*
G04 #@! TO.N,/RATE27*
X75946000Y-35560000D03*
G04 #@! TO.N,/PITCH27*
X81534000Y-31496000D03*
G04 #@! TO.N,/PWMDAC4*
X76962000Y-34544000D03*
G04 #@! TO.N,/PWMDAC2*
X136144000Y-30480000D03*
G04 #@! TO.N,/SDA*
X103124000Y-140462000D03*
X31496000Y-154686000D03*
X41656000Y-156718000D03*
G04 #@! TO.N,GND*
X73152000Y-66294000D03*
X85852000Y-64516000D03*
X71120000Y-115316000D03*
X71120000Y-107696000D03*
X67818000Y-54102000D03*
X67818000Y-40640000D03*
X73152000Y-38862000D03*
X134874000Y-150622000D03*
X129794000Y-150622000D03*
G04 #@! TO.N,/RESET*
X29972000Y-95504000D03*
X29972000Y-148590000D03*
X44450000Y-154178000D03*
G04 #@! TD*
D19*
G04 #@! TO.N,Net-(U1-Pad13)*
X106571920Y-129059963D02*
X106571920Y-131599963D01*
X106571920Y-129059963D02*
X109111920Y-126519963D01*
X115597963Y-126519963D02*
X117856000Y-128778000D01*
X117856000Y-136144000D02*
X118364000Y-136652000D01*
X117856000Y-128778000D02*
X117856000Y-136144000D01*
X109111920Y-126519963D02*
X115597963Y-126519963D01*
X118364000Y-136652000D02*
X119888000Y-136652000D01*
G04 #@! TO.N,Net-(U1-Pad6)*
X114191920Y-141759963D02*
X114191920Y-144299963D01*
X119860037Y-141759963D02*
X119888000Y-141732000D01*
X114191920Y-141759963D02*
X119860037Y-141759963D01*
D20*
G04 #@! TO.N,/LFO2*
X43180000Y-26416000D02*
X53848000Y-26416000D01*
X38608000Y-30988000D02*
X43180000Y-26416000D01*
X53848000Y-26416000D02*
X108204000Y-26416000D01*
D19*
G04 #@! TO.N,/OSC2*
X113246001Y-110198001D02*
X111506000Y-108458000D01*
X113246001Y-82766001D02*
X111506000Y-81026000D01*
X114046000Y-110998000D02*
X113246001Y-110198001D01*
X111506000Y-52324000D02*
X114191920Y-55009920D01*
X114191920Y-55009920D02*
X114191920Y-55399963D01*
X114046000Y-83566000D02*
X113246001Y-82766001D01*
X59835920Y-55263920D02*
X59835920Y-55653963D01*
X57150000Y-52578000D02*
X59835920Y-55263920D01*
X59690000Y-111252000D02*
X58890001Y-110452001D01*
X58890001Y-110452001D02*
X57150000Y-108712000D01*
X59690000Y-83820000D02*
X58890001Y-83020001D01*
X58890001Y-83020001D02*
X57150000Y-81280000D01*
D20*
X41334081Y-24384000D02*
X57150000Y-24384000D01*
X57150000Y-24384000D02*
X111506000Y-24384000D01*
X39810081Y-25908000D02*
X41334081Y-24384000D01*
X38608000Y-25908000D02*
X39810081Y-25908000D01*
D21*
G04 #@! TO.N,-5V*
X105294630Y-136906000D02*
X104394000Y-137806630D01*
X106426000Y-136906000D02*
X105294630Y-136906000D01*
X98044000Y-153924000D02*
X105156000Y-153924000D01*
X95504000Y-151384000D02*
X98044000Y-153924000D01*
X105156000Y-153924000D02*
X105918000Y-153162000D01*
X105918000Y-153162000D02*
X105918000Y-148844000D01*
X104394000Y-147320000D02*
X105918000Y-148844000D01*
X94654001Y-150280001D02*
X93218000Y-148844000D01*
X94654001Y-150534001D02*
X94654001Y-150280001D01*
X95504000Y-151384000D02*
X94654001Y-150534001D01*
X82296000Y-150622000D02*
X84074000Y-148844000D01*
X84074000Y-148844000D02*
X93218000Y-148844000D01*
X70612000Y-148082000D02*
X73152000Y-150622000D01*
X70612000Y-135890000D02*
X70612000Y-148082000D01*
X73152000Y-150622000D02*
X82296000Y-150622000D01*
X70104000Y-123444000D02*
X71628000Y-121920000D01*
X71628000Y-121920000D02*
X80010000Y-121920000D01*
X80010000Y-121920000D02*
X81534000Y-120396000D01*
X74422000Y-93980000D02*
X80518000Y-93980000D01*
X75946000Y-64516000D02*
X78740000Y-64516000D01*
X74676000Y-65278000D02*
X75438000Y-64516000D01*
X52070000Y-136906000D02*
X49276000Y-139700000D01*
X51270001Y-109511999D02*
X52070000Y-108712000D01*
X49276000Y-111506000D02*
X51270001Y-109511999D01*
X49276000Y-139700000D02*
X49276000Y-111506000D01*
X49276000Y-84074000D02*
X52070000Y-81280000D01*
X49276000Y-111506000D02*
X49276000Y-84074000D01*
X52215920Y-53113963D02*
X49276000Y-56053883D01*
X49276000Y-147574000D02*
X49276000Y-139700000D01*
X52324000Y-150622000D02*
X49276000Y-147574000D01*
X73152000Y-150622000D02*
X52324000Y-150622000D01*
X49276000Y-71628000D02*
X49276000Y-71120000D01*
X49276000Y-84074000D02*
X49276000Y-71628000D01*
X49276000Y-71628000D02*
X49276000Y-56053883D01*
X74930000Y-39116000D02*
X75438000Y-38608000D01*
X75438000Y-38608000D02*
X101854000Y-38608000D01*
X101854000Y-38608000D02*
X102870000Y-39624000D01*
X104394000Y-125222000D02*
X104394000Y-138176000D01*
X104394000Y-138176000D02*
X104394000Y-147320000D01*
X104394000Y-137806630D02*
X104394000Y-138176000D01*
X109728000Y-149352000D02*
X105918000Y-153162000D01*
X133350000Y-149352000D02*
X109728000Y-149352000D01*
X136144000Y-139446000D02*
X133350000Y-136652000D01*
X136144000Y-140970000D02*
X136144000Y-139446000D01*
X136144000Y-139446000D02*
X136144000Y-130048000D01*
X132842000Y-120396000D02*
X135382000Y-120396000D01*
X135382000Y-120396000D02*
X136144000Y-121158000D01*
X127508000Y-125730000D02*
X132842000Y-120396000D01*
X134366000Y-94234000D02*
X129032000Y-94234000D01*
X127508000Y-95758000D02*
X127508000Y-100584000D01*
X129032000Y-94234000D02*
X127508000Y-95758000D01*
X129032000Y-94234000D02*
X127508000Y-94234000D01*
X127508000Y-94234000D02*
X125730000Y-92456000D01*
X125730000Y-92456000D02*
X125730000Y-79502000D01*
X127508000Y-73152000D02*
X127508000Y-71882000D01*
X127508000Y-71882000D02*
X134874000Y-64516000D01*
X127508000Y-44958000D02*
X127508000Y-42672000D01*
X127508000Y-42672000D02*
X131064000Y-39116000D01*
X131064000Y-39116000D02*
X133096000Y-39116000D01*
X134874000Y-54356000D02*
X134874000Y-44450000D01*
X134874000Y-44450000D02*
X133096000Y-42672000D01*
X75438000Y-64516000D02*
X75946000Y-64516000D01*
X53340000Y-67564000D02*
X74676000Y-67564000D01*
X49276000Y-71628000D02*
X53340000Y-67564000D01*
G04 #@! TO.N,+5V*
X117094000Y-155702000D02*
X117094000Y-153162000D01*
X122174000Y-155702000D02*
X122174000Y-153162000D01*
X124714000Y-153162000D02*
X117094000Y-153162000D01*
X117094000Y-155702000D02*
X124714000Y-155702000D01*
X90424000Y-152586081D02*
X94555919Y-156718000D01*
X90424000Y-151384000D02*
X90424000Y-152586081D01*
X116078000Y-156718000D02*
X117094000Y-155702000D01*
X112053000Y-156718000D02*
X109220000Y-156718000D01*
X115609000Y-153162000D02*
X112053000Y-156718000D01*
X109220000Y-156718000D02*
X116078000Y-156718000D01*
X117094000Y-153162000D02*
X115609000Y-153162000D01*
X94555919Y-156718000D02*
X109220000Y-156718000D01*
X100330000Y-121666000D02*
X101129999Y-122465999D01*
X101129999Y-122465999D02*
X102108000Y-123444000D01*
X90424000Y-146812000D02*
X93472000Y-143764000D01*
X93472000Y-143764000D02*
X93980000Y-143764000D01*
X93980000Y-143764000D02*
X93726000Y-143764000D01*
X96012000Y-143764000D02*
X93980000Y-143764000D01*
X102108000Y-123444000D02*
X102108000Y-141732000D01*
X102108000Y-141732000D02*
X102108000Y-141478000D01*
X111252000Y-139700000D02*
X114046000Y-136906000D01*
X90424000Y-74676000D02*
X90424000Y-68072000D01*
X100330000Y-65532000D02*
X101129999Y-66331999D01*
X101129999Y-66331999D02*
X104140000Y-69342000D01*
X105664000Y-69342000D02*
X110490000Y-69342000D01*
X104140000Y-69342000D02*
X105664000Y-69342000D01*
X105664000Y-69342000D02*
X105918000Y-69342000D01*
X114046000Y-81026000D02*
X110490000Y-77470000D01*
X89221919Y-151384000D02*
X90424000Y-151384000D01*
X88459919Y-152146000D02*
X89221919Y-151384000D01*
X70104000Y-152146000D02*
X88459919Y-152146000D01*
X51562000Y-93980000D02*
X67310000Y-93980000D01*
X67310000Y-93980000D02*
X67818000Y-93472000D01*
X43180000Y-97663076D02*
X46867170Y-93975906D01*
X43180000Y-105664000D02*
X43180000Y-97663076D01*
D19*
G04 #@! TO.N,/LFO1*
X106426000Y-110998000D02*
X109220000Y-108204000D01*
X107225999Y-82766001D02*
X109220000Y-80772000D01*
X106426000Y-83566000D02*
X107225999Y-82766001D01*
X106571920Y-54972080D02*
X106571920Y-55399963D01*
X109220000Y-52324000D02*
X106571920Y-54972080D01*
X52215920Y-55226080D02*
X52215920Y-55653963D01*
X54864000Y-52578000D02*
X52215920Y-55226080D01*
X52070000Y-111252000D02*
X54864000Y-108458000D01*
X52070000Y-83820000D02*
X52869999Y-83020001D01*
X52869999Y-83020001D02*
X54864000Y-81026000D01*
D20*
X54864000Y-25400000D02*
X109220000Y-25400000D01*
X41656000Y-25400000D02*
X48768000Y-25400000D01*
X38608000Y-28448000D02*
X41656000Y-25400000D01*
X48768000Y-25400000D02*
X54864000Y-25400000D01*
X48006000Y-25400000D02*
X48768000Y-25400000D01*
G04 #@! TO.N,/OSC1*
X38608000Y-23368000D02*
X58166000Y-23368000D01*
X58166000Y-23368000D02*
X112522000Y-23368000D01*
D19*
G04 #@! TO.N,Net-(U1-Pad8)*
X118756630Y-144272000D02*
X116696667Y-146331963D01*
X119888000Y-144272000D02*
X118756630Y-144272000D01*
X116696667Y-146331963D02*
X108603920Y-146331963D01*
X106571920Y-141759963D02*
X106571920Y-144299963D01*
X106571920Y-144299963D02*
X108603920Y-146331963D01*
G04 #@! TO.N,Net-(U1-Pad1)*
X114191920Y-131599963D02*
X114191920Y-131717920D01*
X114191920Y-129059963D02*
X114191920Y-131599963D01*
X115597963Y-131599963D02*
X116586000Y-132588000D01*
X116586000Y-135890000D02*
X119888000Y-139192000D01*
X114191920Y-131599963D02*
X115597963Y-131599963D01*
X116586000Y-132588000D02*
X116586000Y-135890000D01*
G04 #@! TO.N,Net-(U2-Pad1)*
X140861920Y-129059963D02*
X140861920Y-131599963D01*
X143655920Y-145061963D02*
X141877920Y-146839963D01*
X140861920Y-131599963D02*
X143655920Y-134393963D01*
X127508000Y-146812000D02*
X141849957Y-146812000D01*
X141849957Y-146812000D02*
X141877920Y-146839963D01*
X143655920Y-134393963D02*
X143655920Y-145061963D01*
G04 #@! TO.N,Net-(U2-Pad8)*
X133241920Y-141759963D02*
X133241920Y-144299963D01*
X127535963Y-144299963D02*
X127508000Y-144272000D01*
X133241920Y-144299963D02*
X127535963Y-144299963D01*
D20*
G04 #@! TO.N,/MIXER*
X84836000Y-27432000D02*
X139192000Y-27432000D01*
X44704000Y-27432000D02*
X84836000Y-27432000D01*
X38608000Y-33528000D02*
X44704000Y-27432000D01*
D19*
G04 #@! TO.N,/ALLMUX6*
X78994000Y-111506000D02*
X82804000Y-115316000D01*
X78994000Y-83820000D02*
X82804000Y-87630000D01*
X78885920Y-55653963D02*
X78885920Y-55771920D01*
X78885920Y-55771920D02*
X82804000Y-59690000D01*
X133096000Y-55118000D02*
X133895999Y-55917999D01*
X133895999Y-55917999D02*
X137160000Y-59182000D01*
X133350000Y-83058000D02*
X134149999Y-83857999D01*
X134149999Y-83857999D02*
X137160000Y-86868000D01*
X133350000Y-110744000D02*
X137160000Y-114554000D01*
D20*
X46228000Y-29464000D02*
X137160000Y-29464000D01*
X38608000Y-38608000D02*
X42164000Y-35052000D01*
X42164000Y-35052000D02*
X42164000Y-33528000D01*
X42164000Y-33528000D02*
X46228000Y-29464000D01*
D19*
G04 #@! TO.N,/FILTER*
X138176000Y-52324000D02*
X140861920Y-55009920D01*
X140861920Y-55009920D02*
X140861920Y-55399963D01*
X83820000Y-52832000D02*
X86505920Y-55517920D01*
X86505920Y-55517920D02*
X86505920Y-55907963D01*
X86614000Y-111506000D02*
X85814001Y-110706001D01*
X85814001Y-110706001D02*
X83820000Y-108712000D01*
X86614000Y-83820000D02*
X83820000Y-81026000D01*
D20*
X45466000Y-28448000D02*
X83820000Y-28448000D01*
X83820000Y-28448000D02*
X138176000Y-28448000D01*
D19*
X140970000Y-110744000D02*
X140170001Y-109944001D01*
X140170001Y-109944001D02*
X138176000Y-107950000D01*
X140970000Y-83058000D02*
X138176000Y-80264000D01*
D20*
X38608000Y-36068000D02*
X40894000Y-33782000D01*
X40894000Y-33782000D02*
X40894000Y-33020000D01*
X40894000Y-33020000D02*
X45466000Y-28448000D01*
G04 #@! TO.N,/RATE17*
X49530000Y-48006000D02*
X49530000Y-39116000D01*
X38608000Y-58928000D02*
X49530000Y-48006000D01*
X49530000Y-39116000D02*
X51054000Y-37592000D01*
X51054000Y-37592000D02*
X130048000Y-37592000D01*
D19*
G04 #@! TO.N,Net-(U2-Pad6)*
X129794000Y-132842000D02*
X131064000Y-131572000D01*
X137160000Y-139189413D02*
X139730550Y-141759963D01*
X132334000Y-125986718D02*
X135890604Y-125984604D01*
X137160000Y-127254000D02*
X137160000Y-139189413D01*
X139730550Y-141759963D02*
X140861920Y-141759963D01*
X135890604Y-125984604D02*
X137160000Y-127254000D01*
X131064000Y-131572000D02*
X131064000Y-127254000D01*
X131064000Y-127254000D02*
X132334000Y-125986718D01*
X129794000Y-134366000D02*
X129794000Y-132842000D01*
X127508000Y-136652000D02*
X129794000Y-134366000D01*
X140861920Y-141759963D02*
X140861920Y-144299963D01*
G04 #@! TO.N,Net-(U2-Pad13)*
X133241920Y-131680080D02*
X131064000Y-133858000D01*
X133241920Y-131599963D02*
X133241920Y-131680080D01*
X129286000Y-139192000D02*
X127508000Y-139192000D01*
X131064000Y-133858000D02*
X131064000Y-137414000D01*
X133241920Y-129059963D02*
X133241920Y-131599963D01*
X131064000Y-137414000D02*
X129286000Y-139192000D01*
G04 #@! TO.N,Net-(U22-Pad13)*
X59835920Y-45493963D02*
X59835920Y-48033963D01*
X59835920Y-48033963D02*
X59835920Y-48151920D01*
X59835920Y-48033963D02*
X61241963Y-48033963D01*
X61241963Y-48033963D02*
X62230000Y-49022000D01*
X62230000Y-52324000D02*
X65532000Y-55626000D01*
X62230000Y-49022000D02*
X62230000Y-52324000D01*
G04 #@! TO.N,Net-(U22-Pad15)*
X52215920Y-58193963D02*
X52215920Y-60733963D01*
X52215920Y-60733963D02*
X54247920Y-62765963D01*
X62340667Y-62765963D02*
X54247920Y-62765963D01*
X64400630Y-60706000D02*
X62340667Y-62765963D01*
X65532000Y-60706000D02*
X64400630Y-60706000D01*
G04 #@! TO.N,Net-(U22-Pad14)*
X59835920Y-58193963D02*
X59835920Y-60733963D01*
X65504037Y-58193963D02*
X65532000Y-58166000D01*
X59835920Y-58193963D02*
X65504037Y-58193963D01*
G04 #@! TO.N,Net-(U22-Pad12)*
X52215920Y-45493963D02*
X52215920Y-48033963D01*
X64008000Y-53086000D02*
X65532000Y-53086000D01*
X63500000Y-52578000D02*
X64008000Y-53086000D01*
X63500000Y-45212000D02*
X63500000Y-52578000D01*
X61241963Y-42953963D02*
X63500000Y-45212000D01*
X52215920Y-45493963D02*
X54755920Y-42953963D01*
X54755920Y-42953963D02*
X61241963Y-42953963D01*
G04 #@! TO.N,Net-(U22-Pad1)*
X86505920Y-45493963D02*
X86505920Y-48033963D01*
X73152000Y-63246000D02*
X87493957Y-63246000D01*
X88509957Y-50038000D02*
X88509957Y-62174074D01*
X86505920Y-48033963D02*
X88509957Y-50038000D01*
X87493957Y-63190074D02*
X88509957Y-62174074D01*
G04 #@! TO.N,Net-(U22-Pad2)*
X78885920Y-58193963D02*
X78885920Y-60733963D01*
X73179963Y-60733963D02*
X73152000Y-60706000D01*
X78885920Y-60733963D02*
X73179963Y-60733963D01*
D20*
G04 #@! TO.N,/PITCH17*
X46228000Y-41148000D02*
X46228000Y-37084000D01*
X38608000Y-48768000D02*
X46228000Y-41148000D01*
X49784000Y-33528000D02*
X80518000Y-33528000D01*
X46228000Y-37084000D02*
X49784000Y-33528000D01*
D19*
G04 #@! TO.N,Net-(U22-Pad5)*
X86505920Y-58193963D02*
X86505920Y-60733963D01*
X76708000Y-48006000D02*
X75438000Y-49276000D01*
X76708000Y-44196000D02*
X76708000Y-48006000D01*
X77470000Y-43434000D02*
X76708000Y-44196000D01*
X82042000Y-43434000D02*
X77470000Y-43434000D01*
X82804000Y-44196000D02*
X82042000Y-43434000D01*
X75438000Y-50800000D02*
X73152000Y-53086000D01*
X82804000Y-55623413D02*
X82804000Y-44196000D01*
X85374550Y-58193963D02*
X82804000Y-55623413D01*
X75438000Y-49276000D02*
X75438000Y-50800000D01*
X86505920Y-58193963D02*
X85374550Y-58193963D01*
G04 #@! TO.N,Net-(U22-Pad4)*
X78885920Y-45493963D02*
X78885920Y-48033963D01*
X78885920Y-48033963D02*
X78885920Y-48114080D01*
X78885920Y-48114080D02*
X76708000Y-50292000D01*
X76708000Y-50292000D02*
X76708000Y-53848000D01*
X76708000Y-53848000D02*
X74930000Y-55626000D01*
X74930000Y-55626000D02*
X73152000Y-55626000D01*
G04 #@! TO.N,Net-(U23-Pad13)*
X114191920Y-103151963D02*
X114191920Y-103269920D01*
X114191920Y-100611963D02*
X114191920Y-103151963D01*
X115597963Y-103151963D02*
X116586000Y-104140000D01*
X116586000Y-107442000D02*
X119888000Y-110744000D01*
X114191920Y-103151963D02*
X115597963Y-103151963D01*
X116586000Y-104140000D02*
X116586000Y-107442000D01*
G04 #@! TO.N,Net-(U23-Pad15)*
X118756630Y-115824000D02*
X116696667Y-117883963D01*
X119888000Y-115824000D02*
X118756630Y-115824000D01*
X116696667Y-117883963D02*
X108603920Y-117883963D01*
X106571920Y-113311963D02*
X106571920Y-115851963D01*
X106571920Y-115851963D02*
X108603920Y-117883963D01*
G04 #@! TO.N,Net-(U23-Pad14)*
X114191920Y-113311963D02*
X114191920Y-115851963D01*
X119860037Y-113311963D02*
X119888000Y-113284000D01*
X114191920Y-113311963D02*
X119860037Y-113311963D01*
G04 #@! TO.N,Net-(U23-Pad12)*
X106571920Y-100611963D02*
X106571920Y-103151963D01*
X106571920Y-100611963D02*
X109111920Y-98071963D01*
X115597963Y-98071963D02*
X117856000Y-100330000D01*
X117856000Y-107696000D02*
X118364000Y-108204000D01*
X117856000Y-100330000D02*
X117856000Y-107696000D01*
X109111920Y-98071963D02*
X115597963Y-98071963D01*
X118364000Y-108204000D02*
X119888000Y-108204000D01*
G04 #@! TO.N,Net-(U23-Pad1)*
X140861920Y-100611963D02*
X140861920Y-103151963D01*
X143655920Y-116613963D02*
X141877920Y-118391963D01*
X140861920Y-103151963D02*
X143655920Y-105945963D01*
X127508000Y-118364000D02*
X141849957Y-118364000D01*
X141849957Y-118364000D02*
X141877920Y-118391963D01*
X143655920Y-105945963D02*
X143655920Y-116613963D01*
G04 #@! TO.N,Net-(U23-Pad2)*
X133241920Y-113311963D02*
X133241920Y-115851963D01*
X127535963Y-115851963D02*
X127508000Y-115824000D01*
X133241920Y-115851963D02*
X127535963Y-115851963D01*
D20*
G04 #@! TO.N,/PWMDAC3*
X48768000Y-46228000D02*
X48768000Y-38608000D01*
X48768000Y-38608000D02*
X50800000Y-36576000D01*
X38608000Y-56388000D02*
X48768000Y-46228000D01*
X50800000Y-36576000D02*
X131318000Y-36576000D01*
D19*
G04 #@! TO.N,Net-(U23-Pad5)*
X129794000Y-104394000D02*
X131064000Y-103124000D01*
X137160000Y-110741413D02*
X139730550Y-113311963D01*
X132334000Y-97538718D02*
X135890604Y-97536604D01*
X137160000Y-98806000D02*
X137160000Y-110741413D01*
X139730550Y-113311963D02*
X140861920Y-113311963D01*
X135890604Y-97536604D02*
X137160000Y-98806000D01*
X131064000Y-103124000D02*
X131064000Y-98806000D01*
X131064000Y-98806000D02*
X132334000Y-97538718D01*
X129794000Y-105918000D02*
X129794000Y-104394000D01*
X127508000Y-108204000D02*
X129794000Y-105918000D01*
X140861920Y-113311963D02*
X140861920Y-115851963D01*
G04 #@! TO.N,Net-(U23-Pad4)*
X133241920Y-103232080D02*
X131064000Y-105410000D01*
X133241920Y-103151963D02*
X133241920Y-103232080D01*
X129286000Y-110744000D02*
X127508000Y-110744000D01*
X131064000Y-105410000D02*
X131064000Y-108966000D01*
X133241920Y-100611963D02*
X133241920Y-103151963D01*
X131064000Y-108966000D02*
X129286000Y-110744000D01*
G04 #@! TO.N,Net-(U24-Pad13)*
X114191920Y-47779963D02*
X114191920Y-47897920D01*
X114191920Y-45239963D02*
X114191920Y-47779963D01*
X116586000Y-52070000D02*
X119888000Y-55372000D01*
X114845999Y-48297999D02*
X116586000Y-50038000D01*
X114046000Y-47498000D02*
X114845999Y-48297999D01*
X116586000Y-50038000D02*
X116586000Y-52070000D01*
G04 #@! TO.N,Net-(U24-Pad15)*
X118756630Y-60452000D02*
X116696667Y-62511963D01*
X119888000Y-60452000D02*
X118756630Y-60452000D01*
X116696667Y-62511963D02*
X108603920Y-62511963D01*
X106571920Y-57939963D02*
X106571920Y-60479963D01*
X106571920Y-60479963D02*
X108603920Y-62511963D01*
G04 #@! TO.N,Net-(U24-Pad14)*
X114191920Y-57939963D02*
X114191920Y-60479963D01*
X119860037Y-57939963D02*
X119888000Y-57912000D01*
X114191920Y-57939963D02*
X119860037Y-57939963D01*
G04 #@! TO.N,Net-(U24-Pad12)*
X106571920Y-45239963D02*
X106571920Y-47779963D01*
X106571920Y-45239963D02*
X109111920Y-42699963D01*
X115597963Y-42699963D02*
X117856000Y-44958000D01*
X109111920Y-42699963D02*
X115597963Y-42699963D01*
X119088001Y-51778001D02*
X117856000Y-50546000D01*
X119888000Y-52578000D02*
X119088001Y-51778001D01*
X117856000Y-44958000D02*
X117856000Y-50546000D01*
G04 #@! TO.N,Net-(U24-Pad1)*
X140861920Y-45239963D02*
X140861920Y-47779963D01*
X143655920Y-61241963D02*
X141877920Y-63019963D01*
X140861920Y-47779963D02*
X143655920Y-50573963D01*
X127508000Y-62992000D02*
X141849957Y-62992000D01*
X141849957Y-62992000D02*
X141877920Y-63019963D01*
X143655920Y-50573963D02*
X143655920Y-61241963D01*
G04 #@! TO.N,Net-(U24-Pad2)*
X133241920Y-57939963D02*
X133241920Y-60479963D01*
X127535963Y-60479963D02*
X127508000Y-60452000D01*
X133241920Y-60479963D02*
X127535963Y-60479963D01*
D20*
G04 #@! TO.N,/PWMDAC1*
X45466000Y-39370000D02*
X45466000Y-36322000D01*
X49276000Y-32512000D02*
X134874000Y-32512000D01*
X45466000Y-36322000D02*
X49276000Y-32512000D01*
X38608000Y-46228000D02*
X45466000Y-39370000D01*
D19*
G04 #@! TO.N,Net-(U24-Pad5)*
X129794000Y-49022000D02*
X131064000Y-47752000D01*
X137160000Y-55369413D02*
X139730550Y-57939963D01*
X137160000Y-43434000D02*
X137160000Y-55369413D01*
X139730550Y-57939963D02*
X140861920Y-57939963D01*
X135128000Y-41402000D02*
X137160000Y-43434000D01*
X131064000Y-47752000D02*
X131064000Y-43434000D01*
X131064000Y-43434000D02*
X132334000Y-42166718D01*
X129794000Y-50546000D02*
X129794000Y-49022000D01*
X127508000Y-52832000D02*
X129794000Y-50546000D01*
X140861920Y-57939963D02*
X140861920Y-60479963D01*
X132334000Y-42164000D02*
X133096000Y-41402000D01*
X133096000Y-41402000D02*
X135128000Y-41400793D01*
G04 #@! TO.N,Net-(U24-Pad4)*
X133241920Y-47860080D02*
X131064000Y-50038000D01*
X133241920Y-47779963D02*
X133241920Y-47860080D01*
X129286000Y-55372000D02*
X127508000Y-55372000D01*
X131064000Y-50038000D02*
X131064000Y-53594000D01*
X133241920Y-45239963D02*
X133241920Y-47779963D01*
X131064000Y-53594000D02*
X129286000Y-55372000D01*
G04 #@! TO.N,Net-(U25-Pad13)*
X59835920Y-132107963D02*
X59835920Y-132225920D01*
X59835920Y-129567963D02*
X59835920Y-132107963D01*
X61241963Y-132107963D02*
X62230000Y-133096000D01*
X62230000Y-136398000D02*
X65532000Y-139700000D01*
X59835920Y-132107963D02*
X61241963Y-132107963D01*
X62230000Y-133096000D02*
X62230000Y-136398000D01*
G04 #@! TO.N,Net-(U25-Pad15)*
X64400630Y-144780000D02*
X62340667Y-146839963D01*
X65532000Y-144780000D02*
X64400630Y-144780000D01*
X62340667Y-146839963D02*
X54247920Y-146839963D01*
X52215920Y-142267963D02*
X52215920Y-144807963D01*
X52215920Y-144807963D02*
X54247920Y-146839963D01*
G04 #@! TO.N,Net-(U25-Pad14)*
X59835920Y-142267963D02*
X59835920Y-144807963D01*
X65504037Y-142267963D02*
X65532000Y-142240000D01*
X59835920Y-142267963D02*
X65504037Y-142267963D01*
G04 #@! TO.N,Net-(U25-Pad12)*
X52215920Y-129567963D02*
X52215920Y-132107963D01*
X52215920Y-129567963D02*
X54755920Y-127027963D01*
X61241963Y-127027963D02*
X63500000Y-129286000D01*
X63500000Y-136652000D02*
X64008000Y-137160000D01*
X63500000Y-129286000D02*
X63500000Y-136652000D01*
X54755920Y-127027963D02*
X61241963Y-127027963D01*
X64008000Y-137160000D02*
X65532000Y-137160000D01*
G04 #@! TO.N,Net-(U10-Pad13)*
X78885920Y-132188080D02*
X76708000Y-134366000D01*
X78885920Y-132107963D02*
X78885920Y-132188080D01*
X74930000Y-139700000D02*
X73152000Y-139700000D01*
X76708000Y-134366000D02*
X76708000Y-137922000D01*
X78885920Y-129567963D02*
X78885920Y-132107963D01*
X76708000Y-137922000D02*
X74930000Y-139700000D01*
G04 #@! TO.N,Net-(U10-Pad6)*
X78232000Y-127000000D02*
X82042000Y-127000000D01*
X76708000Y-128267282D02*
X78232000Y-127000000D01*
X85374550Y-142267963D02*
X86505920Y-142267963D01*
X86505920Y-142267963D02*
X86505920Y-144807963D01*
X82804000Y-139697413D02*
X85374550Y-142267963D01*
X82804000Y-127762000D02*
X82804000Y-139697413D01*
X82042000Y-127000000D02*
X82804000Y-127762000D01*
X76708000Y-132080000D02*
X76708000Y-128267282D01*
X75438000Y-133350000D02*
X76708000Y-132080000D01*
X75438000Y-134874000D02*
X75438000Y-133350000D01*
X73152000Y-137160000D02*
X75438000Y-134874000D01*
D20*
G04 #@! TO.N,/RATE27*
X47752000Y-38354000D02*
X50546000Y-35560000D01*
X47752000Y-44704000D02*
X47752000Y-38354000D01*
X50546000Y-35560000D02*
X75946000Y-35560000D01*
X38608000Y-53848000D02*
X47752000Y-44704000D01*
D19*
G04 #@! TO.N,Net-(U10-Pad8)*
X78885920Y-142267963D02*
X78885920Y-144807963D01*
X73179963Y-144807963D02*
X73152000Y-144780000D01*
X78885920Y-144807963D02*
X73179963Y-144807963D01*
G04 #@! TO.N,Net-(U10-Pad1)*
X86505920Y-129567963D02*
X86505920Y-132107963D01*
X89299920Y-145569963D02*
X87521920Y-147347963D01*
X86505920Y-132107963D02*
X89299920Y-134901963D01*
X73152000Y-147320000D02*
X87493957Y-147320000D01*
X87493957Y-147320000D02*
X87521920Y-147347963D01*
X89299920Y-134901963D02*
X89299920Y-145569963D01*
G04 #@! TO.N,Net-(U11-Pad13)*
X52215920Y-73687963D02*
X52215920Y-76227963D01*
X52215920Y-73687963D02*
X54755920Y-71147963D01*
X61241963Y-71147963D02*
X63500000Y-73406000D01*
X63500000Y-80772000D02*
X64008000Y-81280000D01*
X63500000Y-73406000D02*
X63500000Y-80772000D01*
X54755920Y-71147963D02*
X61241963Y-71147963D01*
X64008000Y-81280000D02*
X65532000Y-81280000D01*
G04 #@! TO.N,Net-(U11-Pad6)*
X59835920Y-86387963D02*
X59835920Y-88927963D01*
X65504037Y-86387963D02*
X65532000Y-86360000D01*
X59835920Y-86387963D02*
X65504037Y-86387963D01*
G04 #@! TO.N,Net-(U11-Pad8)*
X64400630Y-88900000D02*
X62340667Y-90959963D01*
X65532000Y-88900000D02*
X64400630Y-88900000D01*
X62340667Y-90959963D02*
X54247920Y-90959963D01*
X52215920Y-86387963D02*
X52215920Y-88927963D01*
X52215920Y-88927963D02*
X54247920Y-90959963D01*
G04 #@! TO.N,Net-(U11-Pad1)*
X59835920Y-76227963D02*
X59835920Y-76345920D01*
X59835920Y-73687963D02*
X59835920Y-76227963D01*
X61241963Y-76227963D02*
X62230000Y-77216000D01*
X62230000Y-80518000D02*
X65532000Y-83820000D01*
X59835920Y-76227963D02*
X61241963Y-76227963D01*
X62230000Y-77216000D02*
X62230000Y-80518000D01*
G04 #@! TO.N,Net-(U12-Pad13)*
X78885920Y-76308080D02*
X76708000Y-78486000D01*
X78885920Y-76227963D02*
X78885920Y-76308080D01*
X74930000Y-83820000D02*
X73152000Y-83820000D01*
X76708000Y-78486000D02*
X76708000Y-82042000D01*
X78885920Y-73687963D02*
X78885920Y-76227963D01*
X76708000Y-82042000D02*
X74930000Y-83820000D01*
G04 #@! TO.N,Net-(U12-Pad6)*
X75438000Y-77470000D02*
X76708000Y-76200000D01*
X82804000Y-83817413D02*
X85374550Y-86387963D01*
X77978000Y-70614718D02*
X81534604Y-70612604D01*
X82804000Y-71882000D02*
X82804000Y-83817413D01*
X85374550Y-86387963D02*
X86505920Y-86387963D01*
X81534604Y-70612604D02*
X82804000Y-71882000D01*
X76708000Y-76200000D02*
X76708000Y-71882000D01*
X76708000Y-71882000D02*
X77978000Y-70614718D01*
X75438000Y-78994000D02*
X75438000Y-77470000D01*
X73152000Y-81280000D02*
X75438000Y-78994000D01*
X86505920Y-86387963D02*
X86505920Y-88927963D01*
D20*
G04 #@! TO.N,/PITCH27*
X44704000Y-37592000D02*
X44704000Y-35560000D01*
X38608000Y-43688000D02*
X44704000Y-37592000D01*
X44704000Y-35560000D02*
X48768000Y-31496000D01*
X48768000Y-31496000D02*
X81534000Y-31496000D01*
D19*
G04 #@! TO.N,Net-(U12-Pad8)*
X78885920Y-86387963D02*
X78885920Y-88927963D01*
X73179963Y-88927963D02*
X73152000Y-88900000D01*
X78885920Y-88927963D02*
X73179963Y-88927963D01*
G04 #@! TO.N,Net-(U12-Pad1)*
X86505920Y-73687963D02*
X86505920Y-76227963D01*
X89299920Y-89689963D02*
X87521920Y-91467963D01*
X86505920Y-76227963D02*
X89299920Y-79021963D01*
X73152000Y-91440000D02*
X87493957Y-91440000D01*
X87493957Y-91440000D02*
X87521920Y-91467963D01*
X89299920Y-79021963D02*
X89299920Y-89689963D01*
G04 #@! TO.N,Net-(U13-Pad13)*
X52215920Y-101119963D02*
X52215920Y-103659963D01*
X52215920Y-101119963D02*
X54755920Y-98579963D01*
X61241963Y-98579963D02*
X63500000Y-100838000D01*
X63500000Y-108204000D02*
X64008000Y-108712000D01*
X63500000Y-100838000D02*
X63500000Y-108204000D01*
X54755920Y-98579963D02*
X61241963Y-98579963D01*
X64008000Y-108712000D02*
X65532000Y-108712000D01*
G04 #@! TO.N,Net-(U13-Pad6)*
X59835920Y-113819963D02*
X59835920Y-116359963D01*
X65504037Y-113819963D02*
X65532000Y-113792000D01*
X59835920Y-113819963D02*
X65504037Y-113819963D01*
G04 #@! TO.N,Net-(U13-Pad8)*
X64400630Y-116332000D02*
X62340667Y-118391963D01*
X65532000Y-116332000D02*
X64400630Y-116332000D01*
X62340667Y-118391963D02*
X54247920Y-118391963D01*
X52215920Y-113819963D02*
X52215920Y-116359963D01*
X52215920Y-116359963D02*
X54247920Y-118391963D01*
G04 #@! TO.N,Net-(U13-Pad1)*
X59835920Y-103659963D02*
X59835920Y-103777920D01*
X59835920Y-101119963D02*
X59835920Y-103659963D01*
X61241963Y-103659963D02*
X62230000Y-104648000D01*
X62230000Y-107950000D02*
X65532000Y-111252000D01*
X59835920Y-103659963D02*
X61241963Y-103659963D01*
X62230000Y-104648000D02*
X62230000Y-107950000D01*
G04 #@! TO.N,Net-(U14-Pad13)*
X78885920Y-103740080D02*
X76708000Y-105918000D01*
X78885920Y-103659963D02*
X78885920Y-103740080D01*
X74930000Y-111252000D02*
X73152000Y-111252000D01*
X76708000Y-105918000D02*
X76708000Y-109474000D01*
X78885920Y-101119963D02*
X78885920Y-103659963D01*
X76708000Y-109474000D02*
X74930000Y-111252000D01*
G04 #@! TO.N,Net-(U14-Pad6)*
X75438000Y-104902000D02*
X76708000Y-103632000D01*
X82804000Y-111249413D02*
X85374550Y-113819963D01*
X85374550Y-113819963D02*
X86505920Y-113819963D01*
X75438000Y-106426000D02*
X75438000Y-104902000D01*
X73152000Y-108712000D02*
X75438000Y-106426000D01*
X86505920Y-113819963D02*
X86505920Y-116359963D01*
X76708000Y-99822000D02*
X77470000Y-99060000D01*
X76708000Y-103632000D02*
X76708000Y-99822000D01*
X77470000Y-99060000D02*
X81788000Y-99060000D01*
X81788000Y-99060000D02*
X82804000Y-100076000D01*
X82804000Y-100076000D02*
X82804000Y-111249413D01*
D20*
G04 #@! TO.N,/PWMDAC4*
X46990000Y-37846000D02*
X50292000Y-34544000D01*
X46990000Y-42926000D02*
X46990000Y-37846000D01*
X38608000Y-51308000D02*
X46990000Y-42926000D01*
X50292000Y-34544000D02*
X76962000Y-34544000D01*
D19*
G04 #@! TO.N,Net-(U14-Pad8)*
X78885920Y-113819963D02*
X78885920Y-116359963D01*
X73179963Y-116359963D02*
X73152000Y-116332000D01*
X78885920Y-116359963D02*
X73179963Y-116359963D01*
G04 #@! TO.N,Net-(U14-Pad1)*
X86505920Y-101119963D02*
X86505920Y-103659963D01*
X73152000Y-118872000D02*
X87493957Y-118872000D01*
X88509957Y-117856000D02*
X87493957Y-118872000D01*
X88509957Y-105664000D02*
X88509957Y-117856000D01*
X86505920Y-103659963D02*
X88509957Y-105664000D01*
G04 #@! TO.N,Net-(U15-Pad13)*
X106571920Y-73179963D02*
X106571920Y-75719963D01*
X106571920Y-73179963D02*
X109111920Y-70639963D01*
X115597963Y-70639963D02*
X117856000Y-72898000D01*
X117856000Y-80264000D02*
X118364000Y-80772000D01*
X117856000Y-72898000D02*
X117856000Y-80264000D01*
X109111920Y-70639963D02*
X115597963Y-70639963D01*
X118364000Y-80772000D02*
X119888000Y-80772000D01*
G04 #@! TO.N,Net-(U15-Pad6)*
X114191920Y-85879963D02*
X114191920Y-88419963D01*
X119860037Y-85879963D02*
X119888000Y-85852000D01*
X114191920Y-85879963D02*
X119860037Y-85879963D01*
G04 #@! TO.N,Net-(U15-Pad8)*
X118756630Y-88392000D02*
X116696667Y-90451963D01*
X119888000Y-88392000D02*
X118756630Y-88392000D01*
X116696667Y-90451963D02*
X108603920Y-90451963D01*
X106571920Y-85879963D02*
X106571920Y-88419963D01*
X106571920Y-88419963D02*
X108603920Y-90451963D01*
G04 #@! TO.N,Net-(U15-Pad1)*
X114191920Y-75719963D02*
X114191920Y-75837920D01*
X114191920Y-73179963D02*
X114191920Y-75719963D01*
X115597963Y-75719963D02*
X116586000Y-76708000D01*
X116586000Y-80010000D02*
X119888000Y-83312000D01*
X114191920Y-75719963D02*
X115597963Y-75719963D01*
X116586000Y-76708000D02*
X116586000Y-80010000D01*
G04 #@! TO.N,Net-(U16-Pad13)*
X133241920Y-75719963D02*
X133241920Y-75800080D01*
X133241920Y-73179963D02*
X133241920Y-75719963D01*
X131318000Y-81280000D02*
X131318000Y-77724000D01*
X129286000Y-83312000D02*
X131318000Y-81280000D01*
X127508000Y-83312000D02*
X129286000Y-83312000D01*
X133241920Y-75800080D02*
X131318000Y-77724000D01*
G04 #@! TO.N,Net-(U16-Pad6)*
X140861920Y-85879963D02*
X140861920Y-88419963D01*
X130556000Y-79756000D02*
X130556000Y-76200000D01*
X137160000Y-83309413D02*
X139730550Y-85879963D01*
X135890604Y-70104604D02*
X137160000Y-71374000D01*
X131064000Y-71374000D02*
X132334000Y-70106718D01*
X129540000Y-80772000D02*
X130556000Y-79756000D01*
X130556000Y-76200000D02*
X131064000Y-75692000D01*
X132334000Y-70106718D02*
X135890604Y-70104604D01*
X131064000Y-75692000D02*
X131064000Y-71374000D01*
X139730550Y-85879963D02*
X140861920Y-85879963D01*
X137160000Y-71374000D02*
X137160000Y-83309413D01*
X127508000Y-80772000D02*
X129540000Y-80772000D01*
D20*
G04 #@! TO.N,/PWMDAC2*
X43688000Y-36068000D02*
X43688000Y-34544000D01*
X43688000Y-34544000D02*
X47752000Y-30480000D01*
X38608000Y-41148000D02*
X43688000Y-36068000D01*
X136144000Y-30480000D02*
X47752000Y-30480000D01*
D19*
G04 #@! TO.N,Net-(U16-Pad8)*
X133241920Y-85879963D02*
X133241920Y-88419963D01*
X127535963Y-88419963D02*
X127508000Y-88392000D01*
X133241920Y-88419963D02*
X127535963Y-88419963D01*
G04 #@! TO.N,Net-(U16-Pad1)*
X140861920Y-73179963D02*
X140861920Y-75719963D01*
X143655920Y-89181963D02*
X141877920Y-90959963D01*
X140861920Y-75719963D02*
X143655920Y-78513963D01*
X127508000Y-90932000D02*
X141849957Y-90932000D01*
X141849957Y-90932000D02*
X141877920Y-90959963D01*
X143655920Y-78513963D02*
X143655920Y-89181963D01*
G04 #@! TO.N,/SDA*
X103124000Y-151384000D02*
X103124000Y-140462000D01*
X31496000Y-104648000D02*
X35560000Y-100584000D01*
X31496000Y-154686000D02*
X31496000Y-104648000D01*
X41656000Y-98924736D02*
X41656000Y-156718000D01*
X39247170Y-96515906D02*
X41656000Y-98924736D01*
G04 #@! TO.N,/SCL*
X100584000Y-151384000D02*
X100584000Y-138938000D01*
X100584000Y-138938000D02*
X97790000Y-136144000D01*
X97790000Y-131826000D02*
X100330000Y-129286000D01*
X97790000Y-136144000D02*
X97790000Y-131826000D01*
X99530001Y-73951999D02*
X100330000Y-73152000D01*
X97790000Y-75692000D02*
X99530001Y-73951999D01*
X97790000Y-131826000D02*
X97790000Y-75692000D01*
D21*
G04 #@! TO.N,GND*
X46867170Y-99055906D02*
X46867170Y-96515906D01*
X141732000Y-67818000D02*
X147574000Y-73660000D01*
X130048000Y-70866000D02*
X133096000Y-67818000D01*
X133096000Y-67818000D02*
X141732000Y-67818000D01*
X130048000Y-73152000D02*
X130048000Y-70866000D01*
X127508000Y-75692000D02*
X130048000Y-73152000D01*
X73152000Y-66294000D02*
X84074000Y-66294000D01*
X84074000Y-66294000D02*
X85852000Y-64516000D01*
X127508000Y-129032000D02*
X132842000Y-123698000D01*
X132842000Y-123698000D02*
X144272000Y-123698000D01*
X144272000Y-123698000D02*
X147574000Y-127000000D01*
X128639370Y-103124000D02*
X130048000Y-101715370D01*
X127508000Y-103124000D02*
X128639370Y-103124000D01*
X130048000Y-101715370D02*
X130048000Y-97790000D01*
X130048000Y-97790000D02*
X131572000Y-96266000D01*
X131572000Y-96266000D02*
X143256000Y-96266000D01*
X147574000Y-100584000D02*
X147574000Y-127000000D01*
X143256000Y-96266000D02*
X147574000Y-100584000D01*
X147574000Y-73660000D02*
X147574000Y-100584000D01*
X71120000Y-115316000D02*
X71120000Y-107696000D01*
X73152000Y-66294000D02*
X70612000Y-66294000D01*
X70612000Y-66294000D02*
X67818000Y-63500000D01*
X67818000Y-63500000D02*
X67818000Y-54102000D01*
X67818000Y-40640000D02*
X69596000Y-38862000D01*
X69596000Y-38862000D02*
X73152000Y-38862000D01*
X127254000Y-155702000D02*
X127254000Y-153162000D01*
X132334000Y-155702000D02*
X132334000Y-153162000D01*
X127254000Y-153162000D02*
X127254000Y-150622000D01*
X147574000Y-146050000D02*
X147574000Y-127000000D01*
X105918000Y-155194000D02*
X110490000Y-150622000D01*
X96774000Y-155194000D02*
X105918000Y-155194000D01*
X143002000Y-150622000D02*
X147574000Y-146050000D01*
X92964000Y-151384000D02*
X96774000Y-155194000D01*
X127254000Y-150622000D02*
X143002000Y-150622000D01*
X110490000Y-150622000D02*
X127254000Y-150622000D01*
X147574000Y-47498000D02*
X147574000Y-73660000D01*
X127508000Y-47498000D02*
X130048000Y-44958000D01*
X132842000Y-40386000D02*
X140462000Y-40386000D01*
X130048000Y-43180000D02*
X132842000Y-40386000D01*
X130048000Y-44958000D02*
X130048000Y-43180000D01*
X140462000Y-40386000D02*
X147574000Y-47498000D01*
D19*
G04 #@! TO.N,/RESET*
X98044000Y-151384000D02*
X98044000Y-137414000D01*
X98044000Y-137414000D02*
X96774000Y-136144000D01*
X96774000Y-130810000D02*
X92710000Y-126746000D01*
X96774000Y-136144000D02*
X96774000Y-130810000D01*
X96774000Y-74676000D02*
X92710000Y-70612000D01*
X96774000Y-130810000D02*
X96774000Y-74676000D01*
X29972000Y-95504000D02*
X29972000Y-148590000D01*
X44450000Y-104140000D02*
X44450000Y-154178000D01*
X46867170Y-101722830D02*
X44450000Y-104140000D01*
X46867170Y-101595906D02*
X46867170Y-101722830D01*
G04 #@! TO.N,/1GPB3*
X24922395Y-57692204D02*
X24956599Y-57658000D01*
X23720314Y-57692204D02*
X24922395Y-57692204D01*
G04 #@! TO.N,/1GPA1*
X24047580Y-85304938D02*
X23720314Y-85632204D01*
G04 #@! TO.N,/1GPA2*
X24047580Y-82764938D02*
X23720314Y-83092204D01*
G04 #@! TO.N,/1GPA3*
X24047580Y-80224938D02*
X23720314Y-80552204D01*
G04 #@! TO.N,/1GPA4*
X24047580Y-77684938D02*
X23720314Y-78012204D01*
G04 #@! TO.N,/1GPA5*
X24047580Y-75144938D02*
X23720314Y-75472204D01*
G04 #@! TO.N,/1GPA6*
X24047580Y-72604938D02*
X23720314Y-72932204D01*
G04 #@! TO.N,/1GPA7*
X24047580Y-70064938D02*
X23720314Y-70392204D01*
G04 #@! TO.N,Net-(U19-Pad28)*
X92710000Y-98044000D02*
X92710000Y-100838000D01*
X90424000Y-95758000D02*
X92710000Y-98044000D01*
X70866000Y-95758000D02*
X65532000Y-101092000D01*
X90424000Y-95758000D02*
X70866000Y-95758000D01*
G04 #@! TO.N,Net-(U19-Pad27)*
X72644000Y-96520000D02*
X65532000Y-103632000D01*
X90170000Y-97790000D02*
X88900000Y-96520000D01*
X90170000Y-100838000D02*
X90170000Y-97790000D01*
X92710000Y-103378000D02*
X90170000Y-100838000D01*
X88900000Y-96520000D02*
X72644000Y-96520000D01*
G04 #@! TO.N,Net-(U19-Pad26)*
X92710000Y-105918000D02*
X89408000Y-102616000D01*
X89408000Y-98806000D02*
X89408000Y-102616000D01*
X72898000Y-97282000D02*
X87884000Y-97282000D01*
X87884000Y-97282000D02*
X89408000Y-98806000D01*
X66663370Y-106172000D02*
X70612000Y-102223370D01*
X70612000Y-99568000D02*
X72898000Y-97282000D01*
X70612000Y-102223370D02*
X70612000Y-99568000D01*
X65532000Y-106172000D02*
X66663370Y-106172000D01*
G04 #@! TO.N,Net-(U19-Pad25)*
X72898000Y-98298000D02*
X87630000Y-98298000D01*
X73152000Y-106172000D02*
X71374000Y-104394000D01*
X71374000Y-99822000D02*
X72898000Y-98298000D01*
X88646000Y-99314000D02*
X88646000Y-104394000D01*
X71374000Y-104394000D02*
X71374000Y-99822000D01*
X87630000Y-98298000D02*
X88646000Y-99314000D01*
X88646000Y-104394000D02*
X92710000Y-108458000D01*
G04 #@! TO.N,Net-(U19-Pad24)*
X65532000Y-129794000D02*
X71882000Y-123444000D01*
X71882000Y-123444000D02*
X84836000Y-123444000D01*
X84836000Y-123444000D02*
X89154000Y-119126000D01*
X89154000Y-113930630D02*
X91578630Y-111506000D01*
X91578630Y-111506000D02*
X92710000Y-111506000D01*
X89154000Y-119126000D02*
X89154000Y-113930630D01*
G04 #@! TO.N,Net-(U19-Pad23)*
X89916000Y-115062000D02*
X90932000Y-114046000D01*
X65532000Y-132334000D02*
X72136000Y-125730000D01*
X85090000Y-124460000D02*
X89916000Y-119634000D01*
X77216000Y-124460000D02*
X85090000Y-124460000D01*
X89916000Y-119634000D02*
X89916000Y-115062000D01*
X75946000Y-125730000D02*
X77216000Y-124460000D01*
X90932000Y-114046000D02*
X92710000Y-114046000D01*
X72136000Y-125730000D02*
X75946000Y-125730000D01*
G04 #@! TO.N,Net-(U19-Pad22)*
X76200000Y-126492000D02*
X77470000Y-125222000D01*
X72644000Y-126492000D02*
X76200000Y-126492000D01*
X70612000Y-129794000D02*
X70612000Y-128524000D01*
X70612000Y-128524000D02*
X72644000Y-126492000D01*
X65532000Y-134874000D02*
X70612000Y-129794000D01*
X90678000Y-117094000D02*
X90678000Y-119888000D01*
X92710000Y-116586000D02*
X91186000Y-116586000D01*
X91186000Y-116586000D02*
X90678000Y-117094000D01*
X90678000Y-119888000D02*
X85344000Y-125222000D01*
X77470000Y-125222000D02*
X85344000Y-125222000D01*
G04 #@! TO.N,Net-(U19-Pad8)*
X119888000Y-129032000D02*
X113792000Y-122936000D01*
X104140000Y-122936000D02*
X104902000Y-122936000D01*
X100330000Y-119126000D02*
X104140000Y-122936000D01*
X104902000Y-122936000D02*
X104648000Y-122936000D01*
X113792000Y-122936000D02*
X104902000Y-122936000D01*
G04 #@! TO.N,Net-(U19-Pad21)*
X76454000Y-127254000D02*
X77724000Y-125984000D01*
X72898000Y-127254000D02*
X76454000Y-127254000D01*
X71374000Y-133096000D02*
X71374000Y-128778000D01*
X73152000Y-134874000D02*
X71374000Y-133096000D01*
X71374000Y-128778000D02*
X72898000Y-127254000D01*
X92710000Y-119126000D02*
X85852000Y-125984000D01*
X77724000Y-125984000D02*
X85852000Y-125984000D01*
G04 #@! TO.N,Net-(U19-Pad7)*
X106172000Y-122174000D02*
X100330000Y-116332000D01*
X121666000Y-127762000D02*
X116078000Y-122174000D01*
X116078000Y-122174000D02*
X106172000Y-122174000D01*
X121666000Y-129794000D02*
X121666000Y-127762000D01*
X119888000Y-131572000D02*
X121666000Y-129794000D01*
G04 #@! TO.N,Net-(U19-Pad6)*
X102616000Y-117348000D02*
X102616000Y-116332000D01*
X116586000Y-121412000D02*
X106680000Y-121412000D01*
X106680000Y-121412000D02*
X102616000Y-117348000D01*
X122428000Y-131572000D02*
X122428000Y-127254000D01*
X122428000Y-127254000D02*
X116586000Y-121412000D01*
X102616000Y-116332000D02*
X100330000Y-114046000D01*
X119888000Y-134112000D02*
X122428000Y-131572000D01*
G04 #@! TO.N,Net-(U19-Pad5)*
X117094000Y-120650000D02*
X123190000Y-126746000D01*
X104394000Y-117856000D02*
X107188000Y-120650000D01*
X104394000Y-115316000D02*
X104394000Y-117856000D01*
X107188000Y-120650000D02*
X117094000Y-120650000D01*
X100330000Y-111252000D02*
X104394000Y-115316000D01*
X123190000Y-129794000D02*
X123190000Y-129286000D01*
X127508000Y-134112000D02*
X123190000Y-129794000D01*
X123190000Y-129286000D02*
X123190000Y-129540000D01*
X123190000Y-126746000D02*
X123190000Y-129286000D01*
G04 #@! TO.N,Net-(U19-Pad4)*
X115570000Y-96266000D02*
X119888000Y-100584000D01*
X104140000Y-99314000D02*
X107188000Y-96266000D01*
X104140000Y-105156000D02*
X104140000Y-99314000D01*
X107188000Y-96266000D02*
X115570000Y-96266000D01*
X100330000Y-108966000D02*
X104140000Y-105156000D01*
G04 #@! TO.N,Net-(U19-Pad3)*
X121666000Y-101346000D02*
X119888000Y-103124000D01*
X121666000Y-99314000D02*
X121666000Y-101346000D01*
X106680000Y-95504000D02*
X117856000Y-95504000D01*
X102870000Y-99314000D02*
X106680000Y-95504000D01*
X100330000Y-106426000D02*
X102870000Y-103886000D01*
X102870000Y-103886000D02*
X102870000Y-99314000D01*
X117856000Y-95504000D02*
X121666000Y-99314000D01*
G04 #@! TO.N,Net-(U19-Pad2)*
X122428000Y-99060000D02*
X122428000Y-103124000D01*
X122428000Y-103124000D02*
X119888000Y-105664000D01*
X102108000Y-102108000D02*
X102108000Y-99060000D01*
X118110000Y-94742000D02*
X122428000Y-99060000D01*
X100330000Y-103886000D02*
X102108000Y-102108000D01*
X102108000Y-99060000D02*
X106426000Y-94742000D01*
X106426000Y-94742000D02*
X118110000Y-94742000D01*
G04 #@! TO.N,Net-(U19-Pad1)*
X100330000Y-99657000D02*
X106007000Y-93980000D01*
X127508000Y-105664000D02*
X123190000Y-101346000D01*
X123190000Y-101346000D02*
X123190000Y-98298000D01*
X123190000Y-98298000D02*
X118872000Y-93980000D01*
X106007000Y-93980000D02*
X118872000Y-93980000D01*
X100330000Y-101346000D02*
X100330000Y-100076000D01*
X100330000Y-100076000D02*
X100330000Y-99657000D01*
X100330000Y-100838000D02*
X100330000Y-100076000D01*
G04 #@! TO.N,Net-(U20-Pad1)*
X100330000Y-44031000D02*
X106007000Y-38354000D01*
X100330000Y-45212000D02*
X100330000Y-44031000D01*
X127508000Y-50038000D02*
X123190000Y-45720000D01*
X123190000Y-45720000D02*
X123190000Y-42672000D01*
X123190000Y-42672000D02*
X118872000Y-38354000D01*
X106007000Y-38354000D02*
X118872000Y-38354000D01*
G04 #@! TO.N,Net-(U20-Pad2)*
X102108000Y-45974000D02*
X100330000Y-47752000D01*
X106426000Y-39116000D02*
X102108000Y-43434000D01*
X118110000Y-39116000D02*
X106426000Y-39116000D01*
X122428000Y-43434000D02*
X118110000Y-39116000D01*
X102108000Y-43434000D02*
X102108000Y-45974000D01*
X122428000Y-47498000D02*
X122428000Y-43434000D01*
X119888000Y-50038000D02*
X122428000Y-47498000D01*
G04 #@! TO.N,Net-(U20-Pad3)*
X102870000Y-43688000D02*
X106680000Y-39878000D01*
X102870000Y-47752000D02*
X102870000Y-43688000D01*
X100330000Y-50292000D02*
X102870000Y-47752000D01*
X117856000Y-39878000D02*
X106680000Y-39878000D01*
X121666000Y-43688000D02*
X117856000Y-39878000D01*
X121666000Y-45720000D02*
X121666000Y-43688000D01*
X119888000Y-47498000D02*
X121666000Y-45720000D01*
G04 #@! TO.N,Net-(U20-Pad4)*
X115570000Y-40640000D02*
X119888000Y-44958000D01*
X107188000Y-40640000D02*
X115570000Y-40640000D01*
X104140000Y-43688000D02*
X107188000Y-40640000D01*
X104140000Y-49022000D02*
X104140000Y-43688000D01*
X100330000Y-52832000D02*
X104140000Y-49022000D01*
G04 #@! TO.N,Net-(U20-Pad5)*
X117094000Y-64770000D02*
X123190000Y-70866000D01*
X104394000Y-61976000D02*
X107188000Y-64770000D01*
X104394000Y-59436000D02*
X104394000Y-61976000D01*
X107188000Y-64770000D02*
X117094000Y-64770000D01*
X100330000Y-55372000D02*
X104394000Y-59436000D01*
X123190000Y-73914000D02*
X123190000Y-73406000D01*
X127508000Y-78232000D02*
X123190000Y-73914000D01*
X123190000Y-73406000D02*
X123190000Y-73660000D01*
X123190000Y-70866000D02*
X123190000Y-73406000D01*
G04 #@! TO.N,Net-(U20-Pad6)*
X103632000Y-62484000D02*
X103632000Y-61214000D01*
X116586000Y-65532000D02*
X106680000Y-65532000D01*
X106680000Y-65532000D02*
X103632000Y-62484000D01*
X122428000Y-71374000D02*
X116586000Y-65532000D01*
X122428000Y-75692000D02*
X122428000Y-71374000D01*
X103632000Y-61214000D02*
X100330000Y-57912000D01*
X119888000Y-78232000D02*
X122428000Y-75692000D01*
G04 #@! TO.N,Net-(U20-Pad7)*
X106172000Y-66294000D02*
X100330000Y-60452000D01*
X121666000Y-71882000D02*
X116078000Y-66294000D01*
X116078000Y-66294000D02*
X106172000Y-66294000D01*
X121666000Y-73914000D02*
X121666000Y-71882000D01*
X119888000Y-75692000D02*
X121666000Y-73914000D01*
G04 #@! TO.N,Net-(U20-Pad21)*
X76454000Y-71120000D02*
X77724000Y-69850000D01*
X71374000Y-72644000D02*
X72898000Y-71120000D01*
X71374000Y-76962000D02*
X71374000Y-72644000D01*
X72898000Y-71120000D02*
X76454000Y-71120000D01*
X73152000Y-78740000D02*
X71374000Y-76962000D01*
X85852000Y-69850000D02*
X77724000Y-69850000D01*
X92710000Y-62992000D02*
X85852000Y-69850000D01*
G04 #@! TO.N,Net-(U20-Pad8)*
X104394000Y-67056000D02*
X100330000Y-62992000D01*
X113792000Y-67056000D02*
X104394000Y-67056000D01*
X119888000Y-73152000D02*
X113792000Y-67056000D01*
G04 #@! TO.N,Net-(U20-Pad22)*
X76200000Y-70358000D02*
X77470000Y-69088000D01*
X72644000Y-70358000D02*
X76200000Y-70358000D01*
X70612000Y-72390000D02*
X72644000Y-70358000D01*
X70612000Y-73660000D02*
X70612000Y-72390000D01*
X65532000Y-78740000D02*
X70612000Y-73660000D01*
X92710000Y-60452000D02*
X91186000Y-60452000D01*
X91186000Y-60452000D02*
X90678000Y-60960000D01*
X90678000Y-60960000D02*
X90678000Y-63754000D01*
X85344000Y-69088000D02*
X77470000Y-69088000D01*
X90678000Y-63754000D02*
X85344000Y-69088000D01*
G04 #@! TO.N,Net-(U20-Pad23)*
X90932000Y-57912000D02*
X92710000Y-57912000D01*
X75946000Y-69596000D02*
X77216000Y-68326000D01*
X89916000Y-63500000D02*
X89916000Y-58928000D01*
X72136000Y-69596000D02*
X75946000Y-69596000D01*
X85090000Y-68326000D02*
X89916000Y-63500000D01*
X89916000Y-58928000D02*
X90932000Y-57912000D01*
X77216000Y-68326000D02*
X85090000Y-68326000D01*
X65532000Y-76200000D02*
X72136000Y-69596000D01*
G04 #@! TO.N,Net-(U20-Pad24)*
X66331999Y-72860001D02*
X65532000Y-73660000D01*
X92710000Y-55372000D02*
X89916000Y-55372000D01*
X89916000Y-55372000D02*
X89154000Y-56134000D01*
X89154000Y-62992000D02*
X84582000Y-67564000D01*
X89154000Y-56134000D02*
X89154000Y-62992000D01*
X66331999Y-72860001D02*
X70612000Y-68580000D01*
X75438000Y-68580000D02*
X76454000Y-67564000D01*
X70612000Y-68580000D02*
X75438000Y-68580000D01*
X84582000Y-67564000D02*
X76454000Y-67564000D01*
G04 #@! TO.N,Net-(U20-Pad25)*
X88646000Y-48768000D02*
X92710000Y-52832000D01*
X87630000Y-42672000D02*
X88646000Y-43688000D01*
X72898000Y-42672000D02*
X87630000Y-42672000D01*
X71374000Y-44196000D02*
X72898000Y-42672000D01*
X88646000Y-43688000D02*
X88646000Y-48768000D01*
X71374000Y-48768000D02*
X71374000Y-44196000D01*
X73152000Y-50546000D02*
X71374000Y-48768000D01*
G04 #@! TO.N,Net-(U20-Pad26)*
X87884000Y-41656000D02*
X89408000Y-43180000D01*
X66663370Y-50546000D02*
X70612000Y-46597370D01*
X72898000Y-41656000D02*
X87884000Y-41656000D01*
X70612000Y-43942000D02*
X72898000Y-41656000D01*
X70612000Y-46597370D02*
X70612000Y-43942000D01*
X65532000Y-50546000D02*
X66663370Y-50546000D01*
X92710000Y-50292000D02*
X89408000Y-46990000D01*
X89408000Y-43180000D02*
X89408000Y-46990000D01*
G04 #@! TO.N,Net-(U20-Pad27)*
X72644000Y-40894000D02*
X65532000Y-48006000D01*
X88900000Y-40894000D02*
X72644000Y-40894000D01*
X90170000Y-42164000D02*
X88900000Y-40894000D01*
X90170000Y-45212000D02*
X90170000Y-42164000D01*
X92710000Y-47752000D02*
X90170000Y-45212000D01*
G04 #@! TO.N,Net-(U20-Pad28)*
X90424000Y-40132000D02*
X70866000Y-40132000D01*
X70866000Y-40132000D02*
X65532000Y-45466000D01*
X92710000Y-42418000D02*
X92710000Y-45212000D01*
X90424000Y-40132000D02*
X92710000Y-42418000D01*
G04 #@! TD*
M02*
