M48
INCH,TZ
T1C0.0157
T2C0.0315
T3C0.0394
%
G90
G05
T1
X11800Y-37600
X11800Y-58500
X12400Y-60900
X16400Y-61700
X17000Y-41600
X17500Y-60700
X20300Y-37000
X21200Y-10400
X21600Y-10000
X21600Y-20700
X21600Y-31900
X21600Y-42700
X22500Y-9600
X22500Y-20700
X22500Y-32000
X22500Y-42800
X22900Y-9200
X26700Y-16000
X26700Y-21300
X26700Y-36800
X27600Y-48600
X27600Y-59900
X27800Y-53500
X28000Y-42400
X28000Y-45400
X28800Y-15300
X28800Y-26100
X29300Y-37000
X29400Y-25700
X29400Y-26600
X29500Y-15400
X29900Y-14000
X30300Y-13600
X31000Y-25400
X31700Y-13200
X31700Y-37000
X32100Y-12400
X32100Y-47400
X32600Y-11600
X32600Y-23500
X32600Y-34500
X32600Y-45400
X33000Y-11200
X33000Y-20800
X33000Y-31900
X33000Y-42800
X33100Y-58600
X33400Y-10800
X33800Y-25400
X35600Y-26800
X35600Y-29400
X35600Y-57800
X37800Y-56600
X40200Y-55800
X40500Y-15600
X40600Y-55300
X41100Y-49300
X42600Y-10400
X43000Y-10000
X43000Y-20600
X43000Y-31800
X43000Y-42600
X43500Y-27300
X43500Y-30500
X43800Y-55000
X43900Y-9600
X43900Y-20600
X43900Y-31900
X43900Y-42700
X44300Y-9200
X49500Y-31300
X50200Y-49500
X51100Y-59300
X51200Y-14800
X51700Y-14400
X52400Y-15400
X52400Y-16800
X52500Y-58800
X52900Y-37100
X53100Y-12800
X53100Y-21400
X53100Y-25400
X53100Y-59300
X53600Y-12000
X53600Y-47700
X53600Y-51200
X53600Y-55500
X54000Y-11600
X54000Y-23300
X54000Y-34200
X54000Y-45100
X54400Y-11200
X54400Y-20600
X54400Y-31600
X54400Y-42500
X54800Y-10800
T2
X52500Y-39600
X52500Y-40600
X52500Y-41600
X52500Y-42600
X52500Y-43600
X52500Y-44600
X52500Y-45600
X55500Y-39600
X55500Y-40600
X55500Y-41600
X55500Y-42600
X55500Y-43600
X55500Y-44600
X55500Y-45600
X41900Y-50900
X41900Y-51900
X41900Y-52900
X41900Y-53900
X41900Y-54900
X41900Y-55900
X41900Y-56900
X44900Y-50900
X44900Y-51900
X44900Y-52900
X44900Y-53900
X44900Y-54900
X44900Y-55900
X44900Y-56900
X25800Y-39900
X25800Y-40900
X25800Y-41900
X25800Y-42900
X25800Y-43900
X25800Y-44900
X25800Y-45900
X25800Y-46900
X28800Y-39900
X28800Y-40900
X28800Y-41900
X28800Y-42900
X28800Y-43900
X28800Y-44900
X28800Y-45900
X28800Y-46900
X36500Y-39900
X36500Y-40900
X36500Y-41900
X36500Y-42900
X36500Y-43900
X36500Y-44900
X36500Y-45900
X36500Y-46900
X36500Y-47900
X36500Y-48900
X36500Y-49900
X36500Y-50900
X36500Y-51900
X36500Y-52900
X39500Y-39900
X39500Y-40900
X39500Y-41900
X39500Y-42900
X39500Y-43900
X39500Y-44900
X39500Y-45900
X39500Y-46900
X39500Y-47900
X39500Y-48900
X39500Y-49900
X39500Y-50900
X39500Y-51900
X39500Y-52900
X36500Y-17800
X36500Y-18800
X36500Y-19800
X36500Y-20800
X36500Y-21800
X36500Y-22800
X36500Y-23800
X36500Y-24800
X36500Y-25800
X36500Y-26800
X36500Y-27800
X36500Y-28800
X36500Y-29800
X36500Y-30800
X39500Y-17800
X39500Y-18800
X39500Y-19800
X39500Y-20800
X39500Y-21800
X39500Y-22800
X39500Y-23800
X39500Y-24800
X39500Y-25800
X39500Y-26800
X39500Y-27800
X39500Y-28800
X39500Y-29800
X39500Y-30800
X41900Y-17700
X41900Y-18700
X41900Y-19700
X41900Y-20700
X41900Y-21700
X41900Y-22700
X41900Y-23700
X44900Y-17700
X44900Y-18700
X44900Y-19700
X44900Y-20700
X44900Y-21700
X44900Y-22700
X44900Y-23700
X31100Y-51100
X31100Y-52100
X31100Y-53100
X31100Y-54100
X31100Y-55100
X31100Y-56100
X31100Y-57100
X34100Y-51100
X34100Y-52100
X34100Y-53100
X34100Y-54100
X34100Y-55100
X34100Y-56100
X34100Y-57100
X20557Y-17911
X20557Y-18911
X20557Y-19911
X20557Y-20911
X20557Y-21911
X20557Y-22911
X20557Y-23911
X23557Y-17911
X23557Y-18911
X23557Y-19911
X23557Y-20911
X23557Y-21911
X23557Y-22911
X23557Y-23911
X41900Y-28900
X41900Y-29900
X41900Y-30900
X41900Y-31900
X41900Y-32900
X41900Y-33900
X41900Y-34900
X44900Y-28900
X44900Y-29900
X44900Y-30900
X44900Y-31900
X44900Y-32900
X44900Y-33900
X44900Y-34900
X47200Y-50800
X47200Y-51800
X47200Y-52800
X47200Y-53800
X47200Y-54800
X47200Y-55800
X47200Y-56800
X47200Y-57800
X50200Y-50800
X50200Y-51800
X50200Y-52800
X50200Y-53800
X50200Y-54800
X50200Y-55800
X50200Y-56800
X50200Y-57800
X20500Y-50900
X20500Y-51900
X20500Y-52900
X20500Y-53900
X20500Y-54900
X20500Y-55900
X20500Y-56900
X23500Y-50900
X23500Y-51900
X23500Y-52900
X23500Y-53900
X23500Y-54900
X23500Y-55900
X23500Y-56900
X20500Y-39800
X20500Y-40800
X20500Y-41800
X20500Y-42800
X20500Y-43800
X20500Y-44800
X20500Y-45800
X23500Y-39800
X23500Y-40800
X23500Y-41800
X23500Y-42800
X23500Y-43800
X23500Y-44800
X23500Y-45800
X25800Y-17900
X25800Y-18900
X25800Y-19900
X25800Y-20900
X25800Y-21900
X25800Y-22900
X25800Y-23900
X25800Y-24900
X28800Y-17900
X28800Y-18900
X28800Y-19900
X28800Y-20900
X28800Y-21900
X28800Y-22900
X28800Y-23900
X28800Y-24900
X52500Y-28700
X52500Y-29700
X52500Y-30700
X52500Y-31700
X52500Y-32700
X52500Y-33700
X52500Y-34700
X55500Y-28700
X55500Y-29700
X55500Y-30700
X55500Y-31700
X55500Y-32700
X55500Y-33700
X55500Y-34700
X47200Y-17700
X47200Y-18700
X47200Y-19700
X47200Y-20700
X47200Y-21700
X47200Y-22700
X47200Y-23700
X47200Y-24700
X50200Y-17700
X50200Y-18700
X50200Y-19700
X50200Y-20700
X50200Y-21700
X50200Y-22700
X50200Y-23700
X50200Y-24700
X31100Y-39900
X31100Y-40900
X31100Y-41900
X31100Y-42900
X31100Y-43900
X31100Y-44900
X31100Y-45900
X34100Y-39900
X34100Y-40900
X34100Y-41900
X34100Y-42900
X34100Y-43900
X34100Y-44900
X34100Y-45900
X31057Y-17911
X31057Y-18911
X31057Y-19911
X31057Y-20911
X31057Y-21911
X31057Y-22911
X31057Y-23911
X34057Y-17911
X34057Y-18911
X34057Y-19911
X34057Y-20911
X34057Y-21911
X34057Y-22911
X34057Y-23911
X52400Y-17700
X52400Y-18700
X52400Y-19700
X52400Y-20700
X52400Y-21700
X52400Y-22700
X52400Y-23700
X55400Y-17700
X55400Y-18700
X55400Y-19700
X55400Y-20700
X55400Y-21700
X55400Y-22700
X55400Y-23700
X47200Y-39600
X47200Y-40600
X47200Y-41600
X47200Y-42600
X47200Y-43600
X47200Y-44600
X47200Y-45600
X47200Y-46600
X50200Y-39600
X50200Y-40600
X50200Y-41600
X50200Y-42600
X50200Y-43600
X50200Y-44600
X50200Y-45600
X50200Y-46600
X11000Y-27600
X11000Y-28600
X11000Y-29600
X11000Y-30600
X11000Y-31600
X11000Y-32600
X11000Y-33600
X11000Y-34600
X11000Y-35600
X11000Y-36600
X11000Y-37600
X11000Y-38600
X11000Y-39600
X11000Y-40600
X14000Y-27600
X14000Y-28600
X14000Y-29600
X14000Y-30600
X14000Y-31600
X14000Y-32600
X14000Y-33600
X14000Y-34600
X14000Y-35600
X14000Y-36600
X14000Y-37600
X14000Y-38600
X14000Y-39600
X14000Y-40600
X15452Y-36998
X15452Y-37998
X15452Y-38998
X15452Y-39998
X15452Y-40998
X15452Y-41998
X15452Y-42998
X15452Y-43998
X15452Y-44998
X15452Y-45998
X15452Y-46998
X15452Y-47998
X15452Y-48998
X15452Y-49998
X18452Y-36998
X18452Y-37998
X18452Y-38998
X18452Y-39998
X18452Y-40998
X18452Y-41998
X18452Y-42998
X18452Y-43998
X18452Y-44998
X18452Y-45998
X18452Y-46998
X18452Y-47998
X18452Y-48998
X18452Y-49998
X25800Y-51100
X25800Y-52100
X25800Y-53100
X25800Y-54100
X25800Y-55100
X25800Y-56100
X25800Y-57100
X25800Y-58100
X28800Y-51100
X28800Y-52100
X28800Y-53100
X28800Y-54100
X28800Y-55100
X28800Y-56100
X28800Y-57100
X28800Y-58100
X20500Y-29000
X20500Y-30000
X20500Y-31000
X20500Y-32000
X20500Y-33000
X20500Y-34000
X20500Y-35000
X23500Y-29000
X23500Y-30000
X23500Y-31000
X23500Y-32000
X23500Y-33000
X23500Y-34000
X23500Y-35000
X41900Y-39700
X41900Y-40700
X41900Y-41700
X41900Y-42700
X41900Y-43700
X41900Y-44700
X41900Y-45700
X44900Y-39700
X44900Y-40700
X44900Y-41700
X44900Y-42700
X44900Y-43700
X44900Y-44700
X44900Y-45700
X47200Y-28800
X47200Y-29800
X47200Y-30800
X47200Y-31800
X47200Y-32800
X47200Y-33800
X47200Y-34800
X47200Y-35800
X50200Y-28800
X50200Y-29800
X50200Y-30800
X50200Y-31800
X50200Y-32800
X50200Y-33800
X50200Y-34800
X50200Y-35800
X52500Y-50800
X52500Y-51800
X52500Y-52800
X52500Y-53800
X52500Y-54800
X52500Y-55800
X52500Y-56800
X55500Y-50800
X55500Y-51800
X55500Y-52800
X55500Y-53800
X55500Y-54800
X55500Y-55800
X55500Y-56800
X25800Y-29000
X25800Y-30000
X25800Y-31000
X25800Y-32000
X25800Y-33000
X25800Y-34000
X25800Y-35000
X25800Y-36000
X28800Y-29000
X28800Y-30000
X28800Y-31000
X28800Y-32000
X28800Y-33000
X28800Y-34000
X28800Y-35000
X28800Y-36000
X31100Y-29000
X31100Y-30000
X31100Y-31000
X31100Y-32000
X31100Y-33000
X31100Y-34000
X31100Y-35000
X34100Y-29000
X34100Y-30000
X34100Y-31000
X34100Y-32000
X34100Y-33000
X34100Y-34000
X34100Y-35000
T3
X46100Y-9200
X47100Y-9200
X48100Y-9200
X49100Y-9200
X50100Y-9200
X51100Y-9200
X52100Y-9200
X53100Y-9200
X35600Y-59600
X36600Y-59600
X37600Y-59600
X38600Y-59600
X39600Y-59600
X40600Y-59600
X9300Y-19700
X9300Y-20700
X9300Y-21700
X9300Y-22700
X9300Y-23700
X9300Y-24700
X9300Y-25700
X9300Y-26700
X9300Y-27700
X9300Y-28700
X9300Y-29700
X9300Y-30700
X9300Y-31700
X9300Y-32700
X9300Y-33700
X9300Y-34700
X46100Y-60300
X46100Y-61300
X47100Y-60300
X47100Y-61300
X48100Y-60300
X48100Y-61300
X49100Y-60300
X49100Y-61300
X50100Y-60300
X50100Y-61300
X51100Y-60300
X51100Y-61300
X52100Y-60300
X52100Y-61300
X53100Y-60300
X53100Y-61300
X15200Y-9200
X15200Y-10200
X15200Y-11200
X15200Y-12200
X15200Y-13200
X15200Y-14200
X15200Y-15200
X15200Y-16200
X15200Y-17200
X15200Y-18200
X15200Y-19200
X15200Y-20200
X15200Y-21200
X15200Y-22200
X15200Y-23200
X13790Y-43012
X13790Y-44012
X13790Y-45012
X13790Y-46012
X13790Y-47012
X13790Y-48012
X13790Y-49012
X13790Y-50012
X13790Y-51012
X13790Y-52012
X13790Y-53012
X13790Y-54012
X13790Y-55012
X13790Y-56012
X13790Y-57012
X13790Y-58012
T0
M30
